<?xml version="1.0" encoding="UTF-8"?>
<svg width="1022px" height="711px" viewBox="0 0 1022 711" version="1.1" xmlns="http://www.w3.org/2000/svg" xmlns:xlink="http://www.w3.org/1999/xlink">
    <!-- Generator: Sketch 42 (36781) - http://www.bohemiancoding.com/sketch -->
    <title>Device</title>
    <desc>Created with Sketch.</desc>
    <defs></defs>
    <g id="Page-1" stroke="none" stroke-width="1" fill="none" fill-rule="evenodd">
        <g id="Device">
            <path d="M164.080333,37.7207542 C168.454244,24.6201434 183.195047,13.923079 196.99504,13.8282595 L1001.48152,8.30064674 C1015.2859,8.20579709 1024.15899,19.0772249 1021.29928,32.5866484 L881.958534,690.839133 C879.099199,704.346771 865.840958,712.953453 852.344135,710.06242 L24.9605529,532.836017 C11.4643067,529.945108 4.06560831,516.992157 8.4431046,503.880808 L164.080333,37.7207542 Z" id="Rectangle-26" fill="#2DBD72"></path>
            <path d="M157.080333,29.7207542 C161.454244,16.6201434 176.195047,5.92307902 189.99504,5.82825951 L994.481522,0.300646742 C1008.2859,0.205797088 1017.15899,11.0772249 1014.29928,24.5866484 L874.958534,682.839133 C872.099199,696.346771 858.840958,704.953453 845.344135,702.06242 L17.9605529,524.836017 C4.46430674,521.945108 -2.93439169,508.992157 1.4431046,495.880808 L157.080333,29.7207542 Z" id="Rectangle-26" fill="#3AD283"></path>
        </g>
    </g>
</svg>