<?xml version="1.0" encoding="UTF-8"?>
<svg width="1885px" height="922px" viewBox="0 0 1885 922" version="1.1" xmlns="http://www.w3.org/2000/svg" xmlns:xlink="http://www.w3.org/1999/xlink">
    <!-- Generator: Sketch 42 (36781) - http://www.bohemiancoding.com/sketch -->
    <title>overlay</title>
    <desc>Created with Sketch.</desc>
    <defs>
        <linearGradient x1="50%" y1="0%" x2="50%" y2="100%" id="linearGradient-1">
            <stop stop-color="#24BC6D" offset="0%"></stop>
            <stop stop-color="#088544" offset="100%"></stop>
        </linearGradient>
        <linearGradient x1="50%" y1="0%" x2="50%" y2="100%" id="linearGradient-2">
            <stop stop-color="#49E192" offset="0%"></stop>
            <stop stop-color="#3AD283" offset="100%"></stop>
        </linearGradient>
        <linearGradient x1="1.12007123%" y1="41.8932805%" x2="50%" y2="100%" id="linearGradient-3">
            <stop stop-color="#098645" offset="0%"></stop>
            <stop stop-color="#07773D" offset="100%"></stop>
        </linearGradient>
    </defs>
    <g id="Featured-Work" stroke="none" stroke-width="1" fill="none" fill-rule="evenodd">
        <g id="NexusSlice">
            <g id="body" transform="translate(927.565144, 459.500000) scale(-1, 1) translate(-927.565144, -459.500000) translate(0.565144, 3.000000)">
                <path d="M242.612263,820.463977 C215.321386,817.797432 211.369965,809.204627 209.008789,800.559321 L1.46996019,33.8086965 C-4.08213036,13.4800493 12.2391476,-1.38838988 33.2241182,0.599793221 L282.232102,823.262011 C282.232102,823.262011 256.453644,821.816395 242.612263,820.463977 Z" id="Rectangle-18" fill="url(#linearGradient-1)"></path>
                <path d="M10.7993434,33.8086965 C5.24725284,13.4800493 17.7522126,-1.38838988 38.7371832,0.599793221 L925.322786,84.5977433 C943.685514,86.3374868 963.316103,101.927661 969.169578,119.421301 L1171.85972,725.179085 C1173.53143,730.17515 1170.63329,734.630128 1165.38727,735.129486 L266.841177,820.66031 C244.69611,822.768255 221.991147,807.074846 216.132652,785.624318 L10.7993434,33.8086965 Z" id="Rectangle-18" fill="url(#linearGradient-2)"></path>
                <g id="Group-10" transform="translate(51.308883, 50.556819)"></g>
                <ellipse id="Oval-4" fill="#3DD285" cx="534.588336" cy="74.2020033" rx="3.37744155" ry="3.08530583"></ellipse>
                <path d="M1850.0671,741.26266 L1850.81443,763.464788 C1850.8769,766.098578 1848.80018,768.471352 1846.18501,768.763514 C1846.18501,768.763514 1221.50745,912.372203 1218.89428,912.134287 L245.751229,821.392417 C240.500976,820.914409 190.808631,799.121862 211.710799,783.660075 L1168.17368,720.260975 L1850.0671,741.26266 Z" id="Rectangle-21" fill="url(#linearGradient-3)"></path>
                <path d="M225.129247,801.10061 C219.884236,800.554388 217.319139,796.199054 220.531542,792.05864 C220.531542,792.05864 218.425755,790.87938 224.211576,790.458917 C229.997397,790.038454 1172.66364,730.079034 1172.66364,730.079034 C1175.29306,729.911784 1179.55968,729.850899 1182.18839,729.942931 C1182.18839,729.942931 1627.77769,745.520403 1847.85185,754.078352 C1853.75289,754.364336 1853.04571,755.984759 1853.04571,755.984759 L1134.55747,894.417724 C1131.96762,894.916716 1127.74661,895.10029 1125.12671,894.82745 L225.129247,801.10061 Z" id="Rectangle-21" fill="#3AD283"></path>
            </g>
        </g>
    </g>
</svg>