<?xml version="1.0" encoding="UTF-8"?>
<svg width="877px" height="431px" viewBox="0 0 877 431" version="1.1" xmlns="http://www.w3.org/2000/svg" xmlns:xlink="http://www.w3.org/1999/xlink">
    <!-- Generator: Sketch 42 (36781) - http://www.bohemiancoding.com/sketch -->
    <title>overlay</title>
    <desc>Created with Sketch.</desc>
    <defs>
        <linearGradient x1="0%" y1="2.44273445%" x2="68.6111584%" y2="98.4441217%" id="linearGradient-1">
            <stop stop-color="#20B165" offset="0%"></stop>
            <stop stop-color="#0E8446" offset="100%"></stop>
        </linearGradient>
        <linearGradient x1="50%" y1="0%" x2="50%" y2="100%" id="linearGradient-2">
            <stop stop-color="#49E192" offset="0%"></stop>
            <stop stop-color="#3AD283" offset="100%"></stop>
        </linearGradient>
    </defs>
    <g id="Featured-Work" stroke="none" stroke-width="1" fill="none" fill-rule="evenodd">
        <g id="Nexus-mlg">
            <g id="body" transform="translate(438.500000, 215.500000) scale(-1, 1) translate(-438.500000, -215.500000) ">
                <g id="Group">
                    <g id="Group-14">
                        <g id="Group-11-Copy" transform="translate(438.993796, 215.500000) scale(-1, 1) translate(-438.993796, -215.500000) translate(0.993796, 0.000000)">
                            <path d="M114.52745,387.316511 C101.644529,386.057714 99.7792225,382.001308 98.6646065,377.920118 L0.693908829,15.9600747 C-1.92700885,6.36352818 5.77760718,-0.655417349 15.6837641,0.283144445 L133.230375,388.637379 C133.230375,388.637379 121.061406,387.954947 114.52745,387.316511 Z" id="Rectangle-18" fill="url(#linearGradient-1)"></path>
                            <path d="M6.09632801,15.9521299 C3.47660867,6.3599712 9.36861749,-0.656558936 19.2693578,0.281489653 L437.824515,39.9376227 C446.483737,40.7580433 455.743184,48.1170008 458.502037,56.3622657 L554.188201,342.335362 C554.977349,344.693855 553.609254,346.796917 551.132819,347.032649 L126.947709,387.410888 C116.503746,388.40505 105.796695,381.007172 103.030282,370.877888 L6.09632801,15.9521299 Z" id="Rectangle-18" fill="url(#linearGradient-2)"></path>
                            <g id="Group-10" transform="translate(25.221415, 23.866362)"></g>
                            <ellipse id="Oval-4" fill="#149B55" cx="253.358123" cy="37.0308699" rx="1.59435373" ry="1.45648063"></ellipse>
                            <path d="M874.342508,349.927937 L874.695293,360.408898 C874.724782,361.652231 873.744447,362.772347 872.509933,362.910268 C872.509933,362.910268 577.624891,430.703636 576.391317,430.591323 L117.009792,387.754799 C114.53136,387.529146 91.0736112,377.241536 100.940681,369.942489 L552.448171,340.013669 L874.342508,349.927937 Z" id="Rectangle-21" fill="#0F8648"></path>
                            <path d="M107.274988,378.175644 C104.79903,377.917789 103.584652,375.86819 105.104597,373.9072 C105.104597,373.9072 104.11054,373.350507 106.841792,373.152019 C109.573045,372.953531 554.567699,344.648482 554.567699,344.648482 C555.808942,344.569528 557.816987,344.540574 559.063949,344.584231 C559.063949,344.584231 769.408661,351.93789 873.296779,355.977842 C876.082421,356.112847 875.748593,356.8778 875.748593,356.8778 L536.568075,422.230029 C535.351723,422.464392 533.364185,422.550082 532.121045,422.420617 L107.274988,378.175644 Z" id="Rectangle-21" fill="#3AD283"></path>
                        </g>
                    </g>
                </g>
                <polygon id="Path-11" points="339.143736 355.23437 684.885505 373.628757 344.087929 397.328125"></polygon>
            </g>
        </g>
    </g>
</svg>