<?xml version="1.0" encoding="utf-8"?>
<!-- Generator: Adobe Illustrator 15.1.0, SVG Export Plug-In . SVG Version: 6.00 Build 0)  -->
<!DOCTYPE svg PUBLIC "-//W3C//DTD SVG 1.1//EN" "http://www.w3.org/Graphics/SVG/1.1/DTD/svg11.dtd">
<svg version="1.1" id="Layer_1" xmlns="http://www.w3.org/2000/svg" xmlns:xlink="http://www.w3.org/1999/xlink" x="0px" y="0px"
	 width="24px" height="24px" viewBox="0 0 24 24" enable-background="new 0 0 24 24" xml:space="preserve">
<g id="Redshift_Logo" display="none">
	<path d="M7.3,3.5C4.9,3.5,3,5.4,3,7.7C3,7.8,3,7.9,3,8h0v8.3c0,2.3,1.9,4.2,4.3,4.2c2.4,0,4.3-1.9,4.3-4.2V8h0c0-0.1,0-0.2,0-0.3
		C11.6,5.4,9.7,3.5,7.3,3.5z"/>
	<ellipse cx="16.7" cy="7.7" rx="4.3" ry="4.2"/>
</g>
<g id="left_arrow" display="none">
	<defs>
		<polygon id="SVGID_1_" points="4.5,10.5 3,12 4.5,13.5 4.6,13.3 3.4,12.1 21,12.1 21,11.9 3.4,11.9 4.6,10.7 		"/>
	</defs>
	<use xlink:href="#SVGID_1_"  overflow="visible" fill-rule="evenodd" clip-rule="evenodd"/>
	<clipPath id="SVGID_2_" display="inline">
		<use xlink:href="#SVGID_1_"  display="none" overflow="visible"/>
	</clipPath>
</g>
<g id="twitter" display="none">
	<defs>
		<path id="SVGID_3_" d="M19.5,7.6v0.5c0,4.9-3.7,10.5-10.5,10.5c-2.1,0-4-0.6-5.7-1.7c0.3,0,0.6,0,0.9,0c1.7,0,3.3-0.6,4.6-1.6
			c-1.6,0-3-1.1-3.5-2.6c0.2,0.1,0.5,0.1,0.7,0.1c0.4,0,0.7,0,1-0.1c-1.7-0.4-3-1.9-3-3.6V9.1c0.5,0.3,1.1,0.5,1.7,0.5
			c-1-0.6-1.7-1.8-1.7-3.1c0-0.7,0.2-1.3,0.5-1.9c1.8,2.2,4.5,3.7,7.6,3.9c-0.1-0.3-0.1-0.6-0.1-0.8c0-2,1.7-3.7,3.7-3.7
			c1.1,0,2,0.5,2.7,1.2c0.8-0.2,1.7-0.5,2.4-0.9c-0.3,0.8-0.9,1.6-1.6,2C20,6.2,20.7,6,21.3,5.7C20.8,6.4,20.2,7.1,19.5,7.6"/>
	</defs>
	<use xlink:href="#SVGID_3_"  overflow="visible" fill-rule="evenodd" clip-rule="evenodd"/>
	<clipPath id="SVGID_4_" display="inline">
		<use xlink:href="#SVGID_3_"  display="none" overflow="visible"/>
	</clipPath>
</g>
<g id="right_arrow_short" display="none">
	<defs>
		<path id="SVGID_5_" d="M19.8,12.4l-1.3,1.3c-0.1,0.1-0.1,0.4,0,0.5c0.1,0.1,0.2,0.1,0.2,0.1c0.1,0,0.2,0,0.2-0.1l1.9-1.9
			c0.1-0.1,0.1-0.4,0-0.5L19,9.8c-0.1-0.1-0.4-0.1-0.5,0c-0.1,0.1-0.1,0.4,0,0.5l1.4,1.4H3.3C3.2,11.7,3,11.8,3,12
			c0,0.2,0.2,0.3,0.3,0.3"/>
	</defs>
	<use xlink:href="#SVGID_5_"  overflow="visible" fill-rule="evenodd" clip-rule="evenodd"/>
	<clipPath id="SVGID_6_" display="inline">
		<use xlink:href="#SVGID_5_"  display="none" overflow="visible"/>
	</clipPath>
</g>
<g id="right_arrow">
	<defs>
		<polygon id="SVGID_7_" points="19.5,10.5 19.4,10.7 20.6,11.9 3,11.9 3,12.1 20.6,12.1 19.4,13.3 19.5,13.5 21,12 		"/>
	</defs>
	<use xlink:href="#SVGID_7_"  overflow="visible" fill-rule="evenodd" clip-rule="evenodd"/>
	<clipPath id="SVGID_8_">
		<use xlink:href="#SVGID_7_"  overflow="visible"/>
	</clipPath>
</g>
<g id="menu_close" display="none">
	<defs>
		<path id="SVGID_9_" d="M8.7,12l-5,5c-0.9,0.9-0.9,2.4,0,3.3c0.9,0.9,2.4,0.9,3.3,0l5-5l5,5c0.9,0.9,2.4,0.9,3.3,0
			c0.9-0.9,0.9-2.4,0-3.3l-5-5l5-5c0.9-0.9,0.9-2.4,0-3.3c-0.9-0.9-2.4-0.9-3.3,0l-5,5l-5-5c-0.9-0.9-2.4-0.9-3.3,0
			C2.8,4.6,2.8,6.1,3.7,7L8.7,12z"/>
	</defs>
	<use xlink:href="#SVGID_9_"  display="inline" overflow="visible" fill-rule="evenodd" clip-rule="evenodd"/>
	<clipPath id="SVGID_10_" display="inline">
		<use xlink:href="#SVGID_9_"  overflow="visible"/>
	</clipPath>
</g>
<g id="facebook" display="none">
	<defs>
		<path id="SVGID_11_" d="M13.4,21v-8.2h2.7l0.4-3.2h-3.2v-2C13.4,6.6,13.7,6,15,6h1.7V3.1C16.4,3.1,15.4,3,14.2,3
			c-2.5,0-4.1,1.5-4.1,4.2v2.4H7.3v3.2h2.8V21H13.4z"/>
	</defs>
	<use xlink:href="#SVGID_11_"  display="inline" overflow="visible" fill-rule="evenodd" clip-rule="evenodd"/>
	<clipPath id="SVGID_12_" display="inline">
		<use xlink:href="#SVGID_11_"  overflow="visible"/>
	</clipPath>
</g>
<g id="mouse" display="none">
	<defs>
		<path id="SVGID_13_" d="M12,21c-2.8,0-5-2.2-5-4.8V7.8C7,5.2,9.2,3,12,3c2.8,0,5,2.2,5,4.8v8.4C17,18.8,14.8,21,12,21 M12,3.8
			c-2.3,0-4.2,1.8-4.2,4v8.4c0,2.2,1.9,4,4.2,4c2.3,0,4.2-1.8,4.2-4V7.8C16.2,5.6,14.3,3.8,12,3.8"/>
	</defs>
	<defs>
		<path id="SVGID_14_" d="M11.9,8.3c-0.6,0-1-0.4-1-1c0-0.5,0.5-1,1-1s1,0.4,1,1C12.9,7.8,12.5,8.3,11.9,8.3 M11.9,6.7
			c-0.3,0-0.6,0.3-0.6,0.6c0,0.3,0.3,0.6,0.6,0.6s0.6-0.3,0.6-0.6C12.5,7,12.2,6.7,11.9,6.7"/>
	</defs>
	<use xlink:href="#SVGID_13_"  display="inline" overflow="visible" fill-rule="evenodd" clip-rule="evenodd"/>
	<use xlink:href="#SVGID_14_"  display="inline" overflow="visible" fill-rule="evenodd" clip-rule="evenodd"/>
	<clipPath id="SVGID_15_" display="inline">
		<use xlink:href="#SVGID_13_"  overflow="visible"/>
	</clipPath>
	<clipPath id="SVGID_16_" display="inline" clip-path="url(#SVGID_15_)">
		<use xlink:href="#SVGID_14_"  overflow="visible"/>
	</clipPath>
</g>
<g id="close" display="none">
	<defs>
		<path id="SVGID_17_" d="M12,9.5L5.7,3.2c-0.4-0.4-1-0.4-1.3,0L3.2,4.3c-0.4,0.4-0.4,1,0,1.3L9.5,12l-6.3,6.3c-0.4,0.4-0.4,1,0,1.3
			l1.1,1.1c0.4,0.4,1,0.4,1.3,0l6.3-6.3l6.3,6.3c0.4,0.4,1,0.4,1.3,0l1.1-1.1c0.4-0.4,0.4-1,0-1.3L14.5,12l6.3-6.3
			c0.4-0.4,0.4-1,0-1.3l-1.1-1.1c-0.4-0.4-1-0.4-1.3,0L12,9.5z"/>
	</defs>
	<use xlink:href="#SVGID_17_"  display="inline" overflow="visible" fill-rule="evenodd" clip-rule="evenodd"/>
	<clipPath id="SVGID_18_" display="inline">
		<use xlink:href="#SVGID_17_"  overflow="visible"/>
	</clipPath>
</g>
<g id="down-arrow" display="none">
	<defs>
		<path id="SVGID_19_" d="M14.2,18.5c-0.1-0.1-0.4-0.1-0.5,0l-1.4,1.4V3.3C12.3,3.2,12.2,3,12,3c-0.2,0-0.3,0.2-0.3,0.3v16.5
			l-1.3-1.3c-0.1-0.1-0.4-0.1-0.5,0s-0.1,0.4,0,0.5l1.9,1.9C11.8,21,11.9,21,12,21s0.2,0,0.2-0.1l1.9-1.9
			C14.3,18.8,14.3,18.6,14.2,18.5"/>
	</defs>
	<use xlink:href="#SVGID_19_"  display="inline" overflow="visible" fill-rule="evenodd" clip-rule="evenodd"/>
	<clipPath id="SVGID_20_" display="inline">
		<use xlink:href="#SVGID_19_"  overflow="visible"/>
	</clipPath>
</g>
</svg>
