<?xml version="1.0" encoding="UTF-8"?>
<svg width="1128px" height="181px" viewBox="0 0 1128 181" version="1.1" xmlns="http://www.w3.org/2000/svg" xmlns:xlink="http://www.w3.org/1999/xlink">
    <!-- Generator: Sketch 44.1 (41455) - http://www.bohemiancoding.com/sketch -->
    <title>6</title>
    <desc>Created with Sketch.</desc>
    <defs></defs>
    <g id="Page-1" stroke="none" stroke-width="1" fill="none" fill-rule="evenodd" stroke-linecap="square" stroke-dasharray="1,1">
        <g id="Artboard" transform="translate(0.000000, -158.000000)" stroke="#DCDCDB" stroke-width="2">
            <path d="M0,218 L235,218 C251.568,218 265,205.549 265,189 C265,172.45 278.431,159 295,159 L461,159 C477.568,159 490,173.45 490,190 C490,206.55 496.431,218 513,218 L610,218 C623.416127,218 640,228.894566 640,248 C640,264.549 653.431,278 670,278 L752,278 C768.568,278 776,291.451 776,308 C776,324.549 790.432,338 807,338 L970,338 C986.569,338 999,324.551 999,308 C999,291.45 1013.431,278 1030,278 L1127,278" id="6"></path>
        </g>
    </g>
</svg>