<?xml version="1.0" encoding="UTF-8" standalone="no"?>
<svg width="1207px" height="380px" viewBox="0 0 1207 380" version="1.1" xmlns="http://www.w3.org/2000/svg" xmlns:xlink="http://www.w3.org/1999/xlink">
    <!-- Generator: Sketch 44.1 (41455) - http://www.bohemiancoding.com/sketch -->
    <title>Group</title>
    <desc>Created with Sketch.</desc>
    <defs></defs>
    <g id="Nodes-v4" stroke="none" stroke-width="1" fill="none" fill-rule="evenodd">
        <g id="Artboard-Copy-16" transform="translate(0.000000, -82.000000)">
            <g id="Group" transform="translate(-12.000000, 82.000000)">
                <path d="M294.234899,160 C294.234899,143.431458 280.818116,130 264.267676,130" id="Oval-2" stroke="#DDDDDD" stroke-width="2" transform="translate(279.251288, 145.000000) rotate(-90.000000) translate(-279.251288, -145.000000) "></path>
                <path d="M289.739816,250 C289.739816,233.431458 276.323033,220 259.772592,220" id="Oval-2-Copy-2" stroke="#DDDDDD" stroke-width="2" transform="translate(274.756204, 235.000000) scale(1, -1) rotate(-90.000000) translate(-274.756204, -235.000000) "></path>
                <path d="M264.267676,190 C264.267676,173.431458 250.850893,160 234.300453,160" id="Oval-2-Copy" stroke="#DDDDDD" stroke-width="2" transform="translate(249.284064, 175.000000) rotate(-270.000000) translate(-249.284064, -175.000000) "></path>
                <path d="M259.772592,220 C259.772592,203.431458 246.35581,190 229.805369,190" id="Oval-2-Copy-3" stroke="#DDDDDD" stroke-width="2" transform="translate(244.788981, 205.000000) scale(1, -1) rotate(-270.000000) translate(-244.788981, -205.000000) "></path>
                <path d="M517.234899,100 C517.234899,83.4314575 503.818116,70 487.267676,70" id="Oval-2" stroke="#DDDDDD" stroke-width="2" transform="translate(502.251288, 85.000000) rotate(-90.000000) translate(-502.251288, -85.000000) "></path>
                <path d="M512.739816,190 C512.739816,173.431458 499.323033,160 482.772592,160" id="Oval-2-Copy-2" stroke="#DDDDDD" stroke-width="2" transform="translate(497.756204, 175.000000) scale(1, -1) rotate(-90.000000) translate(-497.756204, -175.000000) "></path>
                <path d="M487.267676,130 C487.267676,113.431458 473.850893,100 457.300453,100" id="Oval-2-Copy" stroke="#DDDDDD" stroke-width="2" transform="translate(472.284064, 115.000000) rotate(-270.000000) translate(-472.284064, -115.000000) "></path>
                <path d="M482.772592,160 C482.772592,143.431458 469.35581,130 452.805369,130" id="Oval-2-Copy-3" stroke="#DDDDDD" stroke-width="2" transform="translate(467.788981, 145.000000) scale(1, -1) rotate(-270.000000) translate(-467.788981, -145.000000) "></path>
                <path d="M674.234899,160 C674.234899,143.431458 660.818116,130 644.267676,130" id="Oval-2" stroke="#DDDDDD" stroke-width="2" transform="translate(659.251288, 145.000000) rotate(-90.000000) translate(-659.251288, -145.000000) "></path>
                <path d="M669.739816,250 C669.739816,233.431458 656.323033,220 639.772592,220" id="Oval-2-Copy-2" stroke="#DDDDDD" stroke-width="2" transform="translate(654.756204, 235.000000) scale(1, -1) rotate(-90.000000) translate(-654.756204, -235.000000) "></path>
                <path d="M644.267676,190 C644.267676,173.431458 630.850893,160 614.300453,160" id="Oval-2-Copy" stroke="#DDDDDD" stroke-width="2" transform="translate(629.284064, 175.000000) rotate(-270.000000) translate(-629.284064, -175.000000) "></path>
                <path d="M639.772592,220 C639.772592,203.431458 626.35581,190 609.805369,190" id="Oval-2-Copy-3" stroke="#DDDDDD" stroke-width="2" transform="translate(624.788981, 205.000000) scale(1, -1) rotate(-270.000000) translate(-624.788981, -205.000000) "></path>
                <path d="M811.234899,220 C811.234899,203.431458 797.818116,190 781.267676,190" id="Oval-2" stroke="#DDDDDD" stroke-width="2" transform="translate(796.251288, 205.000000) rotate(-90.000000) translate(-796.251288, -205.000000) "></path>
                <path d="M806.739816,310 C806.739816,293.431458 793.323033,280 776.772592,280" id="Oval-2-Copy-2" stroke="#DDDDDD" stroke-width="2" transform="translate(791.756204, 295.000000) scale(1, -1) rotate(-90.000000) translate(-791.756204, -295.000000) "></path>
                <path d="M781.267676,250 C781.267676,233.431458 767.850893,220 751.300453,220" id="Oval-2-Copy" stroke="#DDDDDD" stroke-width="2" transform="translate(766.284064, 235.000000) rotate(-270.000000) translate(-766.284064, -235.000000) "></path>
                <path d="M776.772592,280 C776.772592,263.431458 763.35581,250 746.805369,250" id="Oval-2-Copy-3" stroke="#DDDDDD" stroke-width="2" transform="translate(761.788981, 265.000000) scale(1, -1) rotate(-270.000000) translate(-761.788981, -265.000000) "></path>
                <path d="M1028.96722,279.983612 C1028.96722,263.415069 1015.55044,249.983612 999,249.983612" id="Oval-2" stroke="#DDDDDD" stroke-width="2" transform="translate(1013.983612, 264.983612) rotate(-90.000000) translate(-1013.983612, -264.983612) "></path>
                <path d="M1024.96722,369.983612 C1024.96722,353.415069 1011.55044,339.983612 995,339.983612" id="Oval-2-Copy-2" stroke="#DDDDDD" stroke-width="2" transform="translate(1009.983612, 354.983612) scale(1, -1) rotate(-90.000000) translate(-1009.983612, -354.983612) "></path>
                <path d="M998.967223,309.983612 C998.967223,293.415069 985.55044,279.983612 969,279.983612" id="Oval-2-Copy" stroke="#DDDDDD" stroke-width="2" transform="translate(983.983612, 294.983612) rotate(-270.000000) translate(-983.983612, -294.983612) "></path>
                <path d="M994.967223,339.983612 C994.967223,323.415069 981.55044,309.983612 965,309.983612" id="Oval-2-Copy-3" stroke="#DDDDDD" stroke-width="2" transform="translate(979.983612, 324.983612) scale(1, -1) rotate(-270.000000) translate(-979.983612, -324.983612) "></path>
                <path d="M1101.2349,40 C1101.2349,23.4314575 1087.81812,10 1071.26768,10" id="Oval-2" stroke="#DDDDDD" stroke-width="2" transform="translate(1086.251288, 25.000000) rotate(-90.000000) translate(-1086.251288, -25.000000) "></path>
                <path d="M1096.73982,130 C1096.73982,113.431458 1083.32303,100 1066.77259,100" id="Oval-2-Copy-2" stroke="#DDDDDD" stroke-width="2" transform="translate(1081.756204, 115.000000) scale(1, -1) rotate(-90.000000) translate(-1081.756204, -115.000000) "></path>
                <path d="M1071.26768,70 C1071.26768,53.4314575 1057.85089,40 1041.30045,40" id="Oval-2-Copy" stroke="#DDDDDD" stroke-width="2" transform="translate(1056.284064, 55.000000) rotate(-270.000000) translate(-1056.284064, -55.000000) "></path>
                <path d="M1066.77259,100 C1066.77259,83.4314575 1053.35581,70 1036.80537,70" id="Oval-2-Copy-3" stroke="#DDDDDD" stroke-width="2" transform="translate(1051.788981, 85.000000) scale(1, -1) rotate(-270.000000) translate(-1051.788981, -85.000000) "></path>
                <path d="M900.234899,100 C900.234899,83.4314575 886.818116,70 870.267676,70" id="Oval-2" stroke="#DDDDDD" stroke-width="2" transform="translate(885.251288, 85.000000) rotate(-90.000000) translate(-885.251288, -85.000000) "></path>
                <path d="M895.739816,190 C895.739816,173.431458 882.323033,160 865.772592,160" id="Oval-2-Copy-2" stroke="#DDDDDD" stroke-width="2" transform="translate(880.756204, 175.000000) scale(1, -1) rotate(-90.000000) translate(-880.756204, -175.000000) "></path>
                <path d="M870.267676,130 C870.267676,113.431458 856.850893,100 840.300453,100" id="Oval-2-Copy" stroke="#DDDDDD" stroke-width="2" transform="translate(855.284064, 115.000000) rotate(-270.000000) translate(-855.284064, -115.000000) "></path>
                <path d="M865.772592,160 C865.772592,143.431458 852.35581,130 835.805369,130" id="Oval-2-Copy-3" stroke="#DDDDDD" stroke-width="2" transform="translate(850.788981, 145.000000) scale(1, -1) rotate(-270.000000) translate(-850.788981, -145.000000) "></path>
                <path d="M354.234899,220 C354.234899,203.431458 340.818116,190 324.267676,190" id="Oval-2" stroke="#DDDDDD" stroke-width="2" transform="translate(339.251288, 205.000000) rotate(-90.000000) translate(-339.251288, -205.000000) "></path>
                <path d="M349.739816,310 C349.739816,293.431458 336.323033,280 319.772592,280" id="Oval-2-Copy-2" stroke="#DDDDDD" stroke-width="2" transform="translate(334.756204, 295.000000) scale(1, -1) rotate(-90.000000) translate(-334.756204, -295.000000) "></path>
                <path d="M324.267676,250 C324.267676,233.431458 310.850893,220 294.300453,220" id="Oval-2-Copy" stroke="#DDDDDD" stroke-width="2" transform="translate(309.284064, 235.000000) rotate(-270.000000) translate(-309.284064, -235.000000) "></path>
                <path d="M319.772592,280 C319.772592,263.431458 306.35581,250 289.805369,250" id="Oval-2-Copy-3" stroke="#DDDDDD" stroke-width="2" transform="translate(304.788981, 265.000000) scale(1, -1) rotate(-270.000000) translate(-304.788981, -265.000000) "></path>
                <path d="M0.991208961,190 L228.5,190" id="Line-Copy-3" stroke="#DDDDDD" stroke-width="2" stroke-linecap="square" stroke-dasharray="1"></path>
                <path d="M295,130 L460,130" id="Line-Copy-4" stroke="#DDDDDD" stroke-width="2" stroke-linecap="square" stroke-dasharray="1"></path>
                <path d="M350.5,311 L404,311" id="Line-Copy-14" stroke="#DDDDDD" stroke-width="2" stroke-linecap="square"></path>
                <path d="M513.5,190 L613,190" id="Line-Copy-5" stroke="#DDDDDD" stroke-width="2" stroke-linecap="square" stroke-dasharray="1"></path>
                <path d="M675.5,130 L837.5,130" id="Line-Copy-7" stroke="#DDDDDD" stroke-width="2" stroke-linecap="square" stroke-dasharray="1"></path>
                <path d="M672.5,251 L754.5,251" id="Line-Copy-8" stroke="#DDDDDD" stroke-width="2" stroke-linecap="square" stroke-dasharray="1"></path>
                <path d="M897,70 L1036.5,70" id="Line-Copy-9" stroke="#DDDDDD" stroke-width="2" stroke-linecap="square" stroke-dasharray="1"></path>
                <path d="M896.5,190 L993.5,190" id="Line-Copy-10" stroke="#DDDDDD" stroke-width="2" stroke-linecap="square" stroke-dasharray="1"></path>
                <path d="M1095,130 L1199.5,130" id="Line-Copy-12" stroke="#DDDDDD" stroke-width="2" stroke-linecap="square" stroke-dasharray="1"></path>
                <path d="M1030.48361,250 L1127.48361,250" id="Line-Copy-13" stroke="#DDDDDD" stroke-width="2" stroke-linecap="square" stroke-dasharray="1"></path>
                <path d="M807.5,310 L964.5,310" id="Line-Copy-11" stroke="#DDDDDD" stroke-width="2" stroke-linecap="square" stroke-dasharray="1"></path>
                <path d="M518.5,70 L569.5,70" id="Line-Copy-6" stroke="#DDDDDD" stroke-width="2" stroke-linecap="square" stroke-dasharray="1"></path>
                <circle id="Oval-3-Copy-2" fill="#FF2953" cx="365" cy="190" r="10"></circle>
                <circle id="Oval-3-Copy-3" fill="#DC3377" cx="406" cy="309" r="10"></circle>
                <circle id="Oval-3-Copy-4" fill="#BF3C95" cx="579" cy="70" r="10"></circle>
                <circle id="Oval-3-Copy-5" fill="#DC3377" cx="817" cy="192" r="10"></circle>
                <circle id="Oval-3-Copy-6" fill="#BF3C95" cx="1004" cy="189" r="10"></circle>
                <circle id="Oval-3-Copy-7" fill="#FF2953" cx="1209" cy="130" r="10"></circle>
                <circle id="Oval-3-Copy-8" fill="#FF2953" cx="1112" cy="10" r="10"></circle>
                <circle id="Oval-3-Copy-9" fill="#CF3785" cx="1134.98361" cy="253" r="10"></circle>
                <circle id="Oval-3-Copy-10" fill="#FF2953" cx="1029.98361" cy="370" r="10"></circle>
            </g>
        </g>
    </g>
</svg>