<?xml version="1.0" encoding="UTF-8" standalone="no"?>
<svg width="994px" height="363px" viewBox="0 0 994 363" version="1.1" xmlns="http://www.w3.org/2000/svg" xmlns:xlink="http://www.w3.org/1999/xlink">
    <!-- Generator: Sketch 44.1 (41455) - http://www.bohemiancoding.com/sketch -->
    <title>Group 2</title>
    <desc>Created with Sketch.</desc>
    <defs></defs>
    <g id="Nodes-v4" stroke="none" stroke-width="1" fill="none" fill-rule="evenodd">
        <g id="Artboard-Copy-35" transform="translate(-1.000000, -116.000000)">
            <g id="Group-2" transform="translate(2.000000, 117.000000)">
                <g id="Group" stroke="#DDDDDD" stroke-width="2">
                    <path d="M260.578465,218.610512 C261.179755,257.142127 269.191036,279.270631 280.095327,297.235379 C290.999617,315.200128 311.585433,335.272227 330.717381,345.125556 C349.84933,354.978886 369.673379,360.156624 399.98372,360.156624 C430.29406,360.156624 519.954352,343.142523 519.954352,221.056429 C519.954352,98.9703344 403.558606,0 259.977176,0 C116.395746,0 0,98.9703344 0,221.056429" id="Oval-4"></path>
                    <path d="M469.227758,217.710142 C469.70879,248.526653 476.117814,266.224413 484.841247,280.592118 C493.564679,294.959823 510.033332,311.012929 525.338891,318.893347 C540.644449,326.773765 556.503689,330.914775 580.751961,330.914775 C605.000234,330.914775 676.728467,317.307372 676.728467,219.666318 C676.728467,122.025264 583.61187,42.8715498 468.746726,42.8715498 C353.881583,42.8715498 260.764986,122.025264 260.764986,219.666318" id="Oval-4"></path>
                    <path d="M636.146828,216.235822 C636.531288,240.889031 641.653653,255.047239 648.62579,266.541403 C655.597927,278.035567 668.760373,290.878051 680.993225,297.182386 C693.226077,303.48672 705.901454,306.799529 725.281702,306.799529 C744.66195,306.799529 801.990197,295.913606 801.990197,217.800763 C801.990197,139.687919 727.567462,76.3649482 635.762367,76.3649482 C543.957271,76.3649482 469.534536,139.687919 469.534536,217.800763" id="Oval-4"></path>
                    <path d="M769.997936,216.721383 C770.305869,236.501283 774.408616,247.860776 779.992934,257.082837 C785.577253,266.304899 796.119686,276.608753 805.917562,281.666882 C815.715439,286.72501 825.867755,289.382961 841.390324,289.382961 C856.912892,289.382961 902.829829,280.648907 902.829829,217.976975 C902.829829,155.305042 843.221098,104.499403 769.690003,104.499403 C696.158907,104.499403 636.550176,155.305042 636.550176,217.976975" id="Oval-4"></path>
                    <path d="M983.186411,217.728051 C983.186411,167.772163 935.569969,127.274914 876.832112,127.274914 C818.094254,127.274914 770.477812,167.772163 770.477812,217.728051" id="Oval-4"></path>
                </g>
                <circle id="Oval-3-Copy-7" fill="#CF3785" cx="420" cy="50" r="10"></circle>
                <circle id="Oval-3-Copy-7" fill="#CF3785" cx="792" cy="166" r="10"></circle>
                <circle id="Oval-3-Copy-8" fill="#CF3785" cx="877" cy="279" r="10"></circle>
                <circle id="Oval-3-Copy-9" fill="#CF3785" cx="522" cy="228" r="10"></circle>
                <circle id="Oval-3-Copy-11" fill="#FF2953" cx="295" cy="314" r="10"></circle>
                <circle id="Oval-3-Copy-16" fill="#FF2953" cx="626" cy="315" r="10"></circle>
                <circle id="Oval-3-Copy-14" fill="#FF2953" cx="983" cy="218" r="10"></circle>
            </g>
        </g>
    </g>
</svg>