<?xml version="1.0" encoding="UTF-8" standalone="no"?>
<svg width="1436px" height="150px" viewBox="0 0 1436 150" version="1.1" xmlns="http://www.w3.org/2000/svg" xmlns:xlink="http://www.w3.org/1999/xlink">
    <!-- Generator: Sketch 44.1 (41455) - http://www.bohemiancoding.com/sketch -->
    <title>Group</title>
    <desc>Created with Sketch.</desc>
    <defs></defs>
    <g id="Nodes-v4" stroke="none" stroke-width="1" fill="none" fill-rule="evenodd">
        <g id="Artboard-Copy-24" transform="translate(-4.000000, -233.000000)">
            <g id="Group" transform="translate(4.000000, 233.000000)">
                <path d="M1436,75 L0,75" id="Line-Copy-7" stroke="#DDDDDD" stroke-width="2" stroke-linecap="square" stroke-dasharray="1"></path>
                <path d="M1436,11 L0,11" id="Line-Copy-9" stroke="#DDDDDD" stroke-width="2" stroke-linecap="square" stroke-dasharray="1"></path>
                <path d="M1436,107 L0,107" id="Line-Copy-8" stroke="#DDDDDD" stroke-width="2" stroke-linecap="square" stroke-dasharray="1"></path>
                <path d="M1436,139 L0,139" id="Line-Copy-11" stroke="#DDDDDD" stroke-width="2" stroke-linecap="square" stroke-dasharray="1"></path>
                <path d="M1436,43 L0,43" id="Line-Copy-10" stroke="#DDDDDD" stroke-width="2" stroke-linecap="square" stroke-dasharray="1"></path>
                <circle id="Oval-3-Copy-7" fill="#CF3785" cx="323" cy="44" r="10"></circle>
                <circle id="Oval-3-Copy-9" fill="#CF3785" cx="543" cy="12" r="10"></circle>
                <circle id="Oval-3-Copy-20" fill="#CF3785" cx="46" cy="11" r="10"></circle>
                <circle id="Oval-3-Copy-8" fill="#CF3785" cx="755" cy="76" r="10"></circle>
                <circle id="Oval-3-Copy-10" fill="#CF3785" cx="553" cy="138" r="10"></circle>
                <circle id="Oval-3-Copy-19" fill="#CF3785" cx="210" cy="138" r="10"></circle>
                <circle id="Oval-3-Copy-11" fill="#FF2953" cx="612" cy="76" r="10"></circle>
                <circle id="Oval-3-Copy-17" fill="#FF2953" cx="836" cy="76" r="10"></circle>
                <circle id="Oval-3-Copy-14" fill="#FF2953" cx="867" cy="42" r="10"></circle>
                <circle id="Oval-3-Copy-12" fill="#FF2953" cx="786" cy="140" r="10"></circle>
                <circle id="Oval-3-Copy-13" fill="#FF2953" cx="470" cy="108" r="10"></circle>
                <circle id="Oval-3-Copy-15" fill="#FF2953" cx="816" cy="10" r="10"></circle>
                <circle id="Oval-3-Copy-16" fill="#FF2953" cx="684" cy="106" r="10"></circle>
                <circle id="Oval-3-Copy-18" fill="#FF2953" cx="899" cy="108" r="10"></circle>
            </g>
        </g>
    </g>
</svg>