<?xml version="1.0" encoding="UTF-8"?>
<svg width="1207px" height="380px" viewBox="0 0 1207 380" version="1.1" xmlns="http://www.w3.org/2000/svg" xmlns:xlink="http://www.w3.org/1999/xlink">
    <!-- Generator: Sketch 44.1 (41455) - http://www.bohemiancoding.com/sketch -->
    <title>Group</title>
    <desc>Created with Sketch.</desc>
    <defs></defs>
    <g id="Nodes-v4" stroke="none" stroke-width="1" fill="none" fill-rule="evenodd">
        <g id="Artboard-Copy-16" transform="translate(0.000000, -82.000000)">
            <g id="Group" transform="translate(-12.000000, 82.000000)">
                <g id="Group-2" transform="translate(0.000000, 10.000000)" stroke="#DDDDDD" stroke-width="2">
                    <path d="M294.234899,150 C294.234899,133.431458 280.818116,120 264.267676,120" id="Oval-2" transform="translate(279.251288, 135.000000) rotate(-90.000000) translate(-279.251288, -135.000000) "></path>
                    <path d="M289.739816,240 C289.739816,223.431458 276.323033,210 259.772592,210" id="Oval-2-Copy-2" transform="translate(274.756204, 225.000000) scale(1, -1) rotate(-90.000000) translate(-274.756204, -225.000000) "></path>
                    <path d="M264.267676,180 C264.267676,163.431458 250.850893,150 234.300453,150" id="Oval-2-Copy" transform="translate(249.284064, 165.000000) rotate(-270.000000) translate(-249.284064, -165.000000) "></path>
                    <path d="M259.772592,210 C259.772592,193.431458 246.35581,180 229.805369,180" id="Oval-2-Copy-3" transform="translate(244.788981, 195.000000) scale(1, -1) rotate(-270.000000) translate(-244.788981, -195.000000) "></path>
                    <path d="M517.234899,90 C517.234899,73.4314575 503.818116,60 487.267676,60" id="Oval-2" transform="translate(502.251288, 75.000000) rotate(-90.000000) translate(-502.251288, -75.000000) "></path>
                    <path d="M512.739816,180 C512.739816,163.431458 499.323033,150 482.772592,150" id="Oval-2-Copy-2" transform="translate(497.756204, 165.000000) scale(1, -1) rotate(-90.000000) translate(-497.756204, -165.000000) "></path>
                    <path d="M487.267676,120 C487.267676,103.431458 473.850893,90 457.300453,90" id="Oval-2-Copy" transform="translate(472.284064, 105.000000) rotate(-270.000000) translate(-472.284064, -105.000000) "></path>
                    <path d="M482.772592,150 C482.772592,133.431458 469.35581,120 452.805369,120" id="Oval-2-Copy-3" transform="translate(467.788981, 135.000000) scale(1, -1) rotate(-270.000000) translate(-467.788981, -135.000000) "></path>
                    <path d="M674.234899,150 C674.234899,133.431458 660.818116,120 644.267676,120" id="Oval-2" transform="translate(659.251288, 135.000000) rotate(-90.000000) translate(-659.251288, -135.000000) "></path>
                    <path d="M669.739816,240 C669.739816,223.431458 656.323033,210 639.772592,210" id="Oval-2-Copy-2" transform="translate(654.756204, 225.000000) scale(1, -1) rotate(-90.000000) translate(-654.756204, -225.000000) "></path>
                    <path d="M644.267676,180 C644.267676,163.431458 630.850893,150 614.300453,150" id="Oval-2-Copy" transform="translate(629.284064, 165.000000) rotate(-270.000000) translate(-629.284064, -165.000000) "></path>
                    <path d="M639.772592,210 C639.772592,193.431458 626.35581,180 609.805369,180" id="Oval-2-Copy-3" transform="translate(624.788981, 195.000000) scale(1, -1) rotate(-270.000000) translate(-624.788981, -195.000000) "></path>
                    <path d="M811.234899,210 C811.234899,193.431458 797.818116,180 781.267676,180" id="Oval-2" transform="translate(796.251288, 195.000000) rotate(-90.000000) translate(-796.251288, -195.000000) "></path>
                    <path d="M806.739816,300 C806.739816,283.431458 793.323033,270 776.772592,270" id="Oval-2-Copy-2" transform="translate(791.756204, 285.000000) scale(1, -1) rotate(-90.000000) translate(-791.756204, -285.000000) "></path>
                    <path d="M781.267676,240 C781.267676,223.431458 767.850893,210 751.300453,210" id="Oval-2-Copy" transform="translate(766.284064, 225.000000) rotate(-270.000000) translate(-766.284064, -225.000000) "></path>
                    <path d="M776.772592,270 C776.772592,253.431458 763.35581,240 746.805369,240" id="Oval-2-Copy-3" transform="translate(761.788981, 255.000000) scale(1, -1) rotate(-270.000000) translate(-761.788981, -255.000000) "></path>
                    <path d="M1028.96722,269.983612 C1028.96722,253.415069 1015.55044,239.983612 999,239.983612" id="Oval-2" transform="translate(1013.983612, 254.983612) rotate(-90.000000) translate(-1013.983612, -254.983612) "></path>
                    <path d="M1024.96722,359.983612 C1024.96722,343.415069 1011.55044,329.983612 995,329.983612" id="Oval-2-Copy-2" transform="translate(1009.983612, 344.983612) scale(1, -1) rotate(-90.000000) translate(-1009.983612, -344.983612) "></path>
                    <path d="M998.967223,299.983612 C998.967223,283.415069 985.55044,269.983612 969,269.983612" id="Oval-2-Copy" transform="translate(983.983612, 284.983612) rotate(-270.000000) translate(-983.983612, -284.983612) "></path>
                    <path d="M994.967223,329.983612 C994.967223,313.415069 981.55044,299.983612 965,299.983612" id="Oval-2-Copy-3" transform="translate(979.983612, 314.983612) scale(1, -1) rotate(-270.000000) translate(-979.983612, -314.983612) "></path>
                    <path d="M1101.2349,30 C1101.2349,13.4314575 1087.81812,-4.81392703e-13 1071.26768,-4.81392703e-13" id="Oval-2" transform="translate(1086.251288, 15.000000) rotate(-90.000000) translate(-1086.251288, -15.000000) "></path>
                    <path d="M1096.73982,120 C1096.73982,103.431458 1083.32303,90 1066.77259,90" id="Oval-2-Copy-2" transform="translate(1081.756204, 105.000000) scale(1, -1) rotate(-90.000000) translate(-1081.756204, -105.000000) "></path>
                    <path d="M1071.26768,60 C1071.26768,43.4314575 1057.85089,30 1041.30045,30" id="Oval-2-Copy" transform="translate(1056.284064, 45.000000) rotate(-270.000000) translate(-1056.284064, -45.000000) "></path>
                    <path d="M1066.77259,90 C1066.77259,73.4314575 1053.35581,60 1036.80537,60" id="Oval-2-Copy-3" transform="translate(1051.788981, 75.000000) scale(1, -1) rotate(-270.000000) translate(-1051.788981, -75.000000) "></path>
                    <path d="M900.234899,90 C900.234899,73.4314575 886.818116,60 870.267676,60" id="Oval-2" transform="translate(885.251288, 75.000000) rotate(-90.000000) translate(-885.251288, -75.000000) "></path>
                    <path d="M895.739816,180 C895.739816,163.431458 882.323033,150 865.772592,150" id="Oval-2-Copy-2" transform="translate(880.756204, 165.000000) scale(1, -1) rotate(-90.000000) translate(-880.756204, -165.000000) "></path>
                    <path d="M870.267676,120 C870.267676,103.431458 856.850893,90 840.300453,90" id="Oval-2-Copy" transform="translate(855.284064, 105.000000) rotate(-270.000000) translate(-855.284064, -105.000000) "></path>
                    <path d="M865.772592,150 C865.772592,133.431458 852.35581,120 835.805369,120" id="Oval-2-Copy-3" transform="translate(850.788981, 135.000000) scale(1, -1) rotate(-270.000000) translate(-850.788981, -135.000000) "></path>
                    <path d="M354.234899,210 C354.234899,193.431458 340.818116,180 324.267676,180" id="Oval-2" transform="translate(339.251288, 195.000000) rotate(-90.000000) translate(-339.251288, -195.000000) "></path>
                    <path d="M349.739816,300 C349.739816,283.431458 336.323033,270 319.772592,270" id="Oval-2-Copy-2" transform="translate(334.756204, 285.000000) scale(1, -1) rotate(-90.000000) translate(-334.756204, -285.000000) "></path>
                    <path d="M324.267676,240 C324.267676,223.431458 310.850893,210 294.300453,210" id="Oval-2-Copy" transform="translate(309.284064, 225.000000) rotate(-270.000000) translate(-309.284064, -225.000000) "></path>
                    <path d="M319.772592,270 C319.772592,253.431458 306.35581,240 289.805369,240" id="Oval-2-Copy-3" transform="translate(304.788981, 255.000000) scale(1, -1) rotate(-270.000000) translate(-304.788981, -255.000000) "></path>
                    <path d="M0.991208961,180 L228.5,180" id="Line-Copy-3" stroke-linecap="square" stroke-dasharray="1"></path>
                    <path d="M295,120 L460,120" id="Line-Copy-4" stroke-linecap="square" stroke-dasharray="1"></path>
                    <path d="M350.5,301 L404,301" id="Line-Copy-14" stroke-linecap="square"></path>
                    <path d="M513.5,180 L613,180" id="Line-Copy-5" stroke-linecap="square" stroke-dasharray="1"></path>
                    <path d="M675.5,120 L837.5,120" id="Line-Copy-7" stroke-linecap="square" stroke-dasharray="1"></path>
                    <path d="M669.5,240 L751.5,240" id="Line-Copy-8" stroke-linecap="square" stroke-dasharray="1"></path>
                    <path d="M897,60 L1036.5,60" id="Line-Copy-9" stroke-linecap="square" stroke-dasharray="1"></path>
                    <path d="M896.5,180 L993.5,180" id="Line-Copy-10" stroke-linecap="square" stroke-dasharray="1"></path>
                    <path d="M1095,120 L1199.5,120" id="Line-Copy-12" stroke-linecap="square" stroke-dasharray="1"></path>
                    <path d="M1030.48361,240 L1127.48361,240" id="Line-Copy-13" stroke-linecap="square" stroke-dasharray="1"></path>
                    <path d="M807.5,300 L964.5,300" id="Line-Copy-11" stroke-linecap="square" stroke-dasharray="1"></path>
                    <path d="M518.5,60 L569.5,60" id="Line-Copy-6" stroke-linecap="square" stroke-dasharray="1"></path>
                </g>
                <circle id="Oval-3-Copy-2" fill="#FF2953" cx="365" cy="190" r="10"></circle>
                <circle id="Oval-3-Copy-3" fill="#DC3377" cx="406" cy="309" r="10"></circle>
                <circle id="Oval-3-Copy-4" fill="#BF3C95" cx="579" cy="70" r="10"></circle>
                <circle id="Oval-3-Copy-5" fill="#DC3377" cx="817" cy="192" r="10"></circle>
                <circle id="Oval-3-Copy-6" fill="#BF3C95" cx="1004" cy="189" r="10"></circle>
                <circle id="Oval-3-Copy-7" fill="#FF2953" cx="1209" cy="130" r="10"></circle>
                <circle id="Oval-3-Copy-8" fill="#FF2953" cx="1112" cy="10" r="10"></circle>
                <circle id="Oval-3-Copy-9" fill="#CF3785" cx="1134.98361" cy="253" r="10"></circle>
                <circle id="Oval-3-Copy-10" fill="#FF2953" cx="1029.98361" cy="370" r="10"></circle>
            </g>
        </g>
    </g>
</svg>