<svg>
	<g>
    <path class="cls-1" d="M1267.59,4.37c-233.2,497.21-949,558.8-1259.72,0"/>
    <path class="cls-2" d="M5.86,164.06C365.46,551,949.85,436.29,1152.36,3.39"/>
    <path class="cls-3" d="M5.2,4.69c230.28,255.09,616.14,318.93,922,110.08"/>
    <path class="cls-4" d="M675.38,4.95C467.77,147.51,211.79,163.5,2.38,73.11"/>
    <path class="cls-5" d="M1.85,4.65c110.81,44,181.35,56.3,296.57,55.65"/>
    <path class="cls-6" d="M1.51,3.7C82.64,36.86,162.26,59.14,272.26,59.14"/>
    <path class="cls-7" d="M1.2,2.75C74.52,34.61,160.89,55.24,247.94,58"/>
    <path class="cls-8" d="M.79,1.84c75.86,32.86,142.46,47,219.75,53.9"/>
		<path class="cls-9" d="M.39.92C68.78,29.65,117.56,42.38,194.13,52.24"/>
	</g>
</svg>