<?xml version="1.0" encoding="UTF-8"?>
<svg width="1111px" height="189px" viewBox="0 0 1111 189" version="1.1" xmlns="http://www.w3.org/2000/svg" xmlns:xlink="http://www.w3.org/1999/xlink">
    <!-- Generator: Sketch 44.1 (41455) - http://www.bohemiancoding.com/sketch -->
    <title>2</title>
    <desc>Created with Sketch.</desc>
    <defs></defs>
    <g id="Page-1" stroke="none" stroke-width="1" fill="none" fill-rule="evenodd" stroke-linecap="square" stroke-dasharray="1,1">
        <g id="Artboard" transform="translate(0.000000, -30.000000)" stroke="#DCDBDA" stroke-width="2">
            <path d="M0,218 L235,218 C251.568,218 265,205.462 265,189 C265,172.538 278.431,159 295,159 L461,159 C477.568,159 490,173.538 490,190 C490,206.462 496.431,218 513,218 L610,218 C626.568,218 645,205.462 645,189 C645,172.538 658.431,159 675,159 L837,159 C853.577,159 867,145.472 867,129 C867,106.497 885.352,89 908,89 L1051,89 C1067.568,89 1080,76.463 1080,60 C1080,43.538 1093.432,31 1110,31" id="2"></path>
        </g>
    </g>
</svg>