<?xml version="1.0" encoding="UTF-8"?>
<svg width="813px" height="122px" viewBox="0 0 813 122" version="1.1" xmlns="http://www.w3.org/2000/svg" xmlns:xlink="http://www.w3.org/1999/xlink">
    <!-- Generator: Sketch 44.1 (41455) - http://www.bohemiancoding.com/sketch -->
    <title>5</title>
    <desc>Created with Sketch.</desc>
    <defs></defs>
    <g id="Page-1" stroke="none" stroke-width="1" fill="none" fill-rule="evenodd" stroke-linecap="square" stroke-dasharray="1,1">
        <path d="M811.2606,60.0947 C794.6926,60.0947 781.2606,73.5117 781.2606,90.0617 C781.2606,106.6127 767.8626,120.0617 751.2926,120.0617 L751.5086,120.0777 L669.7646,120.0617 C653.1976,120.0617 639.7646,106.6447 639.7646,90.0947 L639.7986,90.0617 C639.7986,73.5117 626.6906,60.0777 610.1226,60.0777 L512.7646,60.0617 C496.1966,60.0617 482.7916,47.0007 482.7916,30.4507 C482.7916,13.9017 469.3656,1.0947 452.7986,1.0947 L294.2606,1.0947 C277.6926,1.0947 264.2746,14.0767 264.2746,30.6267 C264.2746,47.1767 250.8626,60.0617 234.2936,60.0617 L233.3136,60.0777 L1.0006,60.0777" id="5" stroke="#DCDCDB" stroke-width="2"></path>
    </g>
</svg>