<?xml version="1.0" encoding="UTF-8"?>
<svg width="1128px" height="182px" viewBox="0 0 1128 182" version="1.1" xmlns="http://www.w3.org/2000/svg" xmlns:xlink="http://www.w3.org/1999/xlink">
    <!-- Generator: Sketch 44.1 (41455) - http://www.bohemiancoding.com/sketch -->
    <title>6</title>
    <desc>Created with Sketch.</desc>
    <defs></defs>
    <g id="Page-1" stroke="none" stroke-width="1" fill="none" fill-rule="evenodd" stroke-linecap="square" stroke-dasharray="1,1">
        <path d="M1.0003,60.8789 L234.2933,60.8619 C250.8613,60.8619 264.2633,47.9859 264.2633,31.4369 C264.2633,14.8869 277.6913,1.8959 294.2603,1.8959 L452.7983,1.8959 C469.3663,1.8959 482.7683,14.7789 482.7683,31.3289 C482.7683,47.8789 496.1963,60.8619 512.7653,60.8619 L609.7983,60.8959 C626.3663,60.8959 639.7653,74.3459 639.7653,90.8959 C639.7653,107.4449 652.9403,120.8789 669.5093,120.8789 L745.7923,120.8789 C762.3603,120.8789 775.7653,134.3469 775.7653,150.8959 C775.7653,167.4449 789.9403,180.8789 806.5083,180.8789 L967.9923,180.8459 C984.5613,180.8459 997.9923,167.4299 997.9923,150.8789 C997.9923,134.3289 1011.4233,120.8789 1027.9923,120.8789 L1126.4933,120.8789" id="6" stroke="#DCDCDB" stroke-width="2"></path>
    </g>
</svg>