<?xml version="1.0" encoding="UTF-8"?>
<svg width="1031px" height="242px" viewBox="0 0 1031 242" version="1.1" xmlns="http://www.w3.org/2000/svg" xmlns:xlink="http://www.w3.org/1999/xlink">
    <!-- Generator: Sketch 44.1 (41455) - http://www.bohemiancoding.com/sketch -->
    <title>Stroke 13</title>
    <desc>Created with Sketch.</desc>
    <defs></defs>
    <g id="Page-1" stroke="none" stroke-width="1" fill="none" fill-rule="evenodd" stroke-linecap="square" stroke-dasharray="1,1">
        <path d="M1029.7322,240.9307 C1013.1642,240.9307 999.7322,227.5147 999.7322,210.9637 L999.7322,210.9307 C999.7322,194.3807 986.3012,180.9637 969.7322,180.9637 L806.5082,180.9037 C789.9402,180.9037 775.7652,167.4697 775.7652,150.9207 C775.7652,134.3717 762.3602,120.9037 745.7922,120.9037 L669.5092,120.9037 C652.9402,120.9037 639.7652,107.4697 639.7652,90.9207 C639.7652,74.3707 626.3662,60.9207 609.7982,60.9207 L512.7652,60.8867 C496.1962,60.8867 482.7682,47.9047 482.7682,31.3547 C482.7682,14.8047 469.3662,1.9207 452.7982,1.9207 L294.2602,1.9207 C277.6912,1.9207 264.2632,14.9107 264.2632,31.4617 C264.2632,48.0117 250.8612,60.8867 234.2932,60.8867 L1.0002,60.9037" id="Stroke-13" stroke="#DCDBDA" stroke-width="2"></path>
    </g>
</svg>