<?xml version="1.0" encoding="UTF-8"?>
<svg width="1032px" height="242px" viewBox="0 0 1032 242" version="1.1" xmlns="http://www.w3.org/2000/svg" xmlns:xlink="http://www.w3.org/1999/xlink">
    <!-- Generator: Sketch 44.1 (41455) - http://www.bohemiancoding.com/sketch -->
    <title>7</title>
    <desc>Created with Sketch.</desc>
    <defs></defs>
    <g id="Page-1" stroke="none" stroke-width="1" fill="none" fill-rule="evenodd" stroke-linecap="square" stroke-dasharray="1,1">
        <g id="Artboard" transform="translate(0.000000, -158.000000)" stroke="#DCDBDA" stroke-width="2">
            <path d="M0,218 L235,218 C251.568,218 265,205.55 265,189 C265,172.449 278.431,159 295,159 L461,159 C477.568,159 490,173.45 490,190 C490,206.55 496.431,218 513,218 L610,218 C626.568,218 640,231.124808 640,248 C640,264.875192 653.431,278 670,278 L752,278 C768.568,278 776,291.451 776,308 C776,324.549 790.432,338 807,338 L970,338 C986.569,338 1000.732,351.46 1000.732,368.043 C1000.732,384.594 1014.164,398.01 1030.732,398.01" id="7"></path>
        </g>
    </g>
</svg>