<?xml version="1.0" encoding="UTF-8"?>
<svg width="996px" height="61px" viewBox="0 0 996 61" version="1.1" xmlns="http://www.w3.org/2000/svg" xmlns:xlink="http://www.w3.org/1999/xlink">
    <!-- Generator: Sketch 44.1 (41455) - http://www.bohemiancoding.com/sketch -->
    <title>Page 1</title>
    <desc>Created with Sketch.</desc>
    <defs></defs>
    <g id="Page-1" stroke="none" stroke-width="1" fill="none" fill-rule="evenodd" stroke-linecap="square" stroke-dasharray="1,1">
        <path d="M994.008,60.0002 L896.265,59.9832 C879.695,59.9832 866.508,47.5172 866.508,30.9672 C866.508,14.4172 853.075,1.0002 836.508,1.0002 L674.259,1.0172 C657.691,1.0172 644.259,14.3632 644.259,30.8252 C644.259,47.2872 630.861,59.6732 614.293,59.6732 L512.764,59.6732 C496.195,59.6732 482.798,47.2872 482.798,30.8252 C482.798,14.3632 469.576,1.0002 453.008,1.0002 L294.008,1.0002 C277.44,1.0002 264.293,13.4022 264.293,29.8642 C264.293,46.3262 250.861,59.6732 234.293,59.6732 L1,59.6892" stroke="#DCDCDB" stroke-width="2"></path>
    </g>
</svg>