<?xml version="1.0" encoding="UTF-8"?>
<svg width="813px" height="121px" viewBox="0 0 813 121" version="1.1" xmlns="http://www.w3.org/2000/svg" xmlns:xlink="http://www.w3.org/1999/xlink">
    <!-- Generator: Sketch 44.1 (41455) - http://www.bohemiancoding.com/sketch -->
    <title>5</title>
    <desc>Created with Sketch.</desc>
    <defs></defs>
    <g id="Page-1" stroke="none" stroke-width="1" fill="none" fill-rule="evenodd" stroke-linecap="square" stroke-dasharray="1,1">
        <g id="Artboard" transform="translate(0.000000, -158.000000)" stroke="#DCDCDB" stroke-width="2">
            <path d="M0,218 L235,218 C251.569,218 265,205.55 265,189 C265,172.45 278.432,159 295,159 L461,159 C477.567,159 490,173.451 490,190 C490,206.55 496.432,218 513,218 L610,218 C626.568,218 640,231.45 640,248 C640,264.55 653.433,278 670,278 L752,278 C768.57,278 782,264.551 782,248 C782,231.45 795.432,218 812,218" id="5"></path>
        </g>
    </g>
</svg>