<?xml version="1.0" encoding="UTF-8"?>
<svg width="996px" height="61px" viewBox="0 0 996 61" version="1.1" xmlns="http://www.w3.org/2000/svg" xmlns:xlink="http://www.w3.org/1999/xlink">
    <!-- Generator: Sketch 44.1 (41455) - http://www.bohemiancoding.com/sketch -->
    <title>4</title>
    <desc>Created with Sketch.</desc>
    <defs></defs>
    <g id="Page-1" stroke="none" stroke-width="1" fill="none" fill-rule="evenodd" stroke-linecap="square" stroke-dasharray="1,1">
        <g id="Artboard" transform="translate(0.000000, -158.000000)" stroke="#DCDCDB" stroke-width="2">
            <path d="M0,217.979996 L235,218 C251.568,218 265,205.462 265,189 C265,172.538 278.432,159 295,159 L461,159 C477.568,159 490,173.538 490,190 C490,206.462 496.431,218 513,218 L610,218 C626.568,218 645,205.462 645,189 C645,172.538 658.432,159 675,159 L837,159 C853.567,159 867,172.45 867,189 C867,205.55 880.43,218 897,218 L995,218" id="4"></path>
        </g>
    </g>
</svg>