<?xml version="1.0" encoding="UTF-8"?>
<svg width="1214px" height="132px" viewBox="0 0 1214 132" version="1.1" xmlns="http://www.w3.org/2000/svg" xmlns:xlink="http://www.w3.org/1999/xlink">
    <!-- Generator: Sketch 44.1 (41455) - http://www.bohemiancoding.com/sketch -->
    <title>3</title>
    <desc>Created with Sketch.</desc>
    <defs></defs>
    <g id="Page-1" stroke="none" stroke-width="1" fill="none" fill-rule="evenodd" stroke-linecap="square" stroke-dasharray="1,1">
        <path d="M1.0003,130.0781 L234.2933,130.0611 C250.8613,130.0611 264.2933,116.7151 264.2933,100.2531 C264.2933,83.7911 277.4403,71.3891 294.0093,71.3891 L453.0093,71.3891 C469.5773,71.3891 482.7983,84.7521 482.7983,101.2141 C482.7983,117.6761 496.1963,130.0611 512.7653,130.0611 L614.2933,130.0611 C630.8613,130.0611 644.2603,117.6761 644.2603,101.2141 C644.2603,84.7521 657.6913,71.4051 674.2603,71.4051 L836.5083,71.3891 C853.0853,71.3891 866.0253,58.0191 866.0253,41.5471 C866.0253,19.0441 884.3673,1.7571 907.0153,1.7571 L1049.4713,1.9941 C1063.3723,1.9941 1079.2593,15.3571 1079.2593,31.8191 C1079.2593,48.2811 1093.1753,60.6791 1109.7453,60.6791 L1212.4483,60.6461" id="3" stroke="#DCDBDA" stroke-width="2"></path>
    </g>
</svg>