<?xml version="1.0" encoding="UTF-8"?>
<svg width="1111px" height="189px" viewBox="0 0 1111 189" version="1.1" xmlns="http://www.w3.org/2000/svg" xmlns:xlink="http://www.w3.org/1999/xlink">
    <!-- Generator: Sketch 44.1 (41455) - http://www.bohemiancoding.com/sketch -->
    <title>2</title>
    <desc>Created with Sketch.</desc>
    <defs></defs>
    <g id="Page-1" stroke="none" stroke-width="1" fill="none" fill-rule="evenodd" stroke-linecap="square" stroke-dasharray="1,1">
        <path d="M1,187.993 L234.293,187.976 C250.861,187.976 264.293,174.63 264.293,158.168 C264.293,141.706 277.44,129.304 294.009,129.304 L453.009,129.304 C469.577,129.304 482.798,142.667 482.798,159.129 C482.798,175.591 496.196,187.976 512.765,187.976 L614.293,187.976 C630.861,187.976 644.26,175.591 644.26,159.129 C644.26,142.667 657.691,129.321 674.26,129.321 L836.508,129.304 C853.085,129.304 866.025,115.934 866.025,99.462 C866.025,76.959 884.367,59.673 907.015,59.673 L1050.628,59.516 C1067.196,59.516 1079.259,47.271 1079.259,30.808 C1079.259,14.346 1092.691,1 1109.259,1" id="2" stroke="#DCDBDA" stroke-width="2"></path>
    </g>
</svg>