<?xml version="1.0" encoding="UTF-8"?>
<svg width="985px" height="363px" viewBox="0 0 985 363" version="1.1" xmlns="http://www.w3.org/2000/svg" xmlns:xlink="http://www.w3.org/1999/xlink">
    <!-- Generator: Sketch 44.1 (41455) - http://www.bohemiancoding.com/sketch -->
    <title>Page 1</title>
    <desc>Created with Sketch.</desc>
    <defs></defs>
    <g id="Page-1" stroke="none" stroke-width="1" fill="none" fill-rule="evenodd">
        <g id="Artboard" transform="translate(0.000000, -1.000000)" stroke="#DDDDDC" stroke-width="2">
            <path d="M0,223.056 C0,100.97 116.396055,1.999 259.978,1.999 C410.487912,1.999 519.955,88.8224572 519.955,223.056 C520.941958,281.033402 471.13824,359.672605 399.984,362.157 C316.511285,361.473542 262.016933,297.303317 260.766,221.665 C260.766,124.025 353.882,44.872 468.747,44.872 C583.612,44.872 676.778077,144.423502 676.729,221.665 C676.729,281.281896 636.551,332.915 580.752,332.915 C519.827581,334.205872 469.535,275.648524 469.535,219.8 C469.535,141.688 543.958,78.365 635.763,78.365 C727.568,78.365 801.991,141.688 801.991,219.8 C801.991,297.914 744.663,308.799 725.282,308.799 C688.690391,309.617832 635.763,280.702932 636.551,219.977 C637.364244,157.305708 696.159,106.499 769.69,106.499 C843.221,106.499 902.831,157.305 902.831,219.977 C902.635545,262.580844 880.791,291.382 841.391,291.382 C801.991,291.382 770.716277,261.18467 769.999,218.721 C770.240684,168.765078 818.094,129.275 876.833,129.275 C932.685244,130.698079 968.136578,160.849079 983.187,219.728" id="Page-1"></path>
        </g>
    </g>
</svg>