<svg id="laptop" xmlns="http://www.w3.org/2000/svg" xmlns:xlink="http://www.w3.org/1999/xlink" viewBox="0 0 1544 1684"><defs><style>.cls-1{fill:url(#linear-gradient);}.cls-2{fill:url(#linear-gradient-2);}.cls-3{fill:#13769a;}.cls-4{fill:#1fb4e7;}.cls-5{fill:#1aacde;}.cls-6{fill:#0c5a81;}.cls-7,.cls-8{fill:#2db5e5;stroke:#239bca;}.cls-7{stroke-width:2px;}</style><linearGradient id="linear-gradient" x1="805.78" y1="630.79" x2="1133.72" y2="92.77" gradientUnits="userSpaceOnUse"><stop offset="0" stop-color="#0aa0d3"/><stop offset="1" stop-color="#057399"/></linearGradient><linearGradient id="linear-gradient-2" x1="466.02" y1="1238.45" x2="466.02" y2="1237.45" gradientTransform="matrix(1056.45, 111.04, 92.34, -878.6, -605755.93, 1036393.41)" gradientUnits="userSpaceOnUse"><stop offset="0" stop-color="#31bded"/><stop offset="1" stop-color="#1fb4e7"/></linearGradient></defs><title>Artboard 1</title><g id="Body"><path class="cls-1" d="M1417.51,260.21,563.86,5.49a35.73,35.73,0,0,0-15.15-1.16,30.15,30.15,0,0,1,4.65,1L1416.61,262.9a35.47,35.47,0,0,1,23.77,44.66L1241.52,945.28a24.76,24.76,0,0,1-14.95,16c10.69-.88,21.5-6.81,26.51-16.17L1446.7,310.41C1450.52,288.74,1438.69,266.53,1417.51,260.21Z"/><path id="top" class="cls-2" d="M516.16,25.53a29.85,29.85,0,0,1,37.2-20.21L1416.61,262.9a35.47,35.47,0,0,1,23.77,44.66L1241.52,945.28a24.67,24.67,0,0,1-32.2,16L353.73,653a22.59,22.59,0,0,1-13.84-27.27Z"/><g id="bottomshadow"><path class="cls-3" d="M425.56,680.18l-5.66-2.06-2.37,4.24a3.28,3.28,0,0,0,1.81,4.85l3.51,1.27a3.31,3.31,0,0,1,0-3.44Z"/><path class="cls-3" d="M1203.08,963a33.6,33.6,0,0,1,13.14,42.25L941.43,1647.83a45.78,45.78,0,0,1-60.32,24L29.47,1303.65a45.86,45.86,0,0,0,5,2.55l852,368.36c23.32,10.08,54.16-3.72,65.32-25,0,0,214.89-487.68,276.4-644.85C1234.32,988.88,1221.14,970.17,1203.08,963Z"/></g><path id="bottom" class="cls-4" d="M420.25,677.5l-62.12-22.59c-19.2-7-42.46,2-51.93,20.14L8.25,1244.5c-11.78,22.51-2.42,48.93,20.9,59l852,368.36a45.78,45.78,0,0,0,60.32-24l274.78-642.58a33.67,33.67,0,0,0-19.68-45.41l-76-27.64-1.39,3.94a4,4,0,0,1-5.09,2.41L419.34,687.21a3.28,3.28,0,0,1-1.81-4.85Z"/></g><g id="Monitor"><ellipse id="camera" class="cls-5" cx="962.11" cy="154.2" rx="3.54" ry="3.23" transform="translate(-0.56 304.85) rotate(-18)"/></g><g id="Keyboard"><path id="trackpadShadow" class="cls-6" d="M377.06,1146.59,261.25,1380.71a6.6,6.6,0,0,0,3.36,9.09l362.53,154.55a7.22,7.22,0,0,0,9.33-3.59l113.06-244.83a6.63,6.63,0,0,0-3.58-9L386.54,1143A7.59,7.59,0,0,0,377.06,1146.59Z"/><path id="trackpad" class="cls-7" d="M374.86,1145.58,259.05,1379.7a6.6,6.6,0,0,0,3.36,9.09l362.53,154.55a7.22,7.22,0,0,0,9.33-3.59L747.33,1294.9a6.63,6.63,0,0,0-3.58-9L384.34,1141.95A7.59,7.59,0,0,0,374.86,1145.58Z"/><g id="keysShadow"><path class="cls-6" d="M805.37,1071.4a7.51,7.51,0,0,1,3,3.52,7.59,7.59,0,0,1-.12,6l-19.87,44.63a8.63,8.63,0,0,1-7.84,5,8.21,8.21,0,0,1-2.89-.52L733,1113.33l-.2-.09a7.87,7.87,0,0,0,1.46.73l44.59,16.75a8.59,8.59,0,0,0,10.74-4.5l19.87-44.63A7.56,7.56,0,0,0,805.37,1071.4Z"/><path class="cls-6" d="M679.41,1023.26a7.14,7.14,0,0,1,2.84,3.43,7.28,7.28,0,0,1-.3,5.92l-21.39,43.74a8.81,8.81,0,0,1-7.87,4.82,8.32,8.32,0,0,1-3.08-.58L607.75,1064a7.9,7.9,0,0,0,1.26.64l41.88,16.62a8.78,8.78,0,0,0,10.94-4.23l21.39-43.74A7.18,7.18,0,0,0,679.41,1023.26Z"/><path class="cls-6" d="M742.72,1047.22a7.25,7.25,0,0,1,2.87,3.43,7.36,7.36,0,0,1-.23,5.94l-21,44.5a8.76,8.76,0,0,1-7.88,4.9,8.32,8.32,0,0,1-3-.55L669,1088.26l-.1,0a7.84,7.84,0,0,0,1.36.69l44.48,17.18a8.73,8.73,0,0,0,10.88-4.35l21-44.5A7.28,7.28,0,0,0,742.72,1047.22Z"/><path class="cls-6" d="M918.83,1175.36l19.23-45a7.56,7.56,0,0,0-4.13-10.06,7.51,7.51,0,0,1,2.9,3.4,7.59,7.59,0,0,1,0,6l-19.23,45a8.35,8.35,0,0,1-7.66,5,8.11,8.11,0,0,1-2.94-.55l-45.65-17.69-.1,0a7.9,7.9,0,0,0,1.36.68l45.65,17.69A8.33,8.33,0,0,0,918.83,1175.36Z"/><path class="cls-6" d="M915.16,1037.89a7.38,7.38,0,0,1,2.87,3.38,7.48,7.48,0,0,1-.09,6l-20,45.14a8.67,8.67,0,0,1-7.89,5.05,8.23,8.23,0,0,1-2.85-.51l-45-16.57-.24-.1a7.84,7.84,0,0,0,1.5.75l45,16.57A8.64,8.64,0,0,0,899.2,1093l20-45.14A7.43,7.43,0,0,0,915.16,1037.89Z"/><path class="cls-6" d="M979.27,1062.45a7.5,7.5,0,0,1,2.9,3.4,7.59,7.59,0,0,1,0,6l-19.23,45a8.35,8.35,0,0,1-7.66,5,8.1,8.1,0,0,1-2.94-.55l-45.65-17.69-.1,0a7.9,7.9,0,0,0,1.36.69L953.58,1122a8.33,8.33,0,0,0,10.6-4.46l19.23-45A7.56,7.56,0,0,0,979.27,1062.45Z"/><path class="cls-6" d="M661.67,942.91a7.36,7.36,0,0,1,2.93,3.5,7.47,7.47,0,0,1-.2,6L644.53,995.2a8.55,8.55,0,0,1-7.73,4.86,8.21,8.21,0,0,1-3.07-.59l-41.25-16.6a7.88,7.88,0,0,0,1.22.63L635,1000.11a8.52,8.52,0,0,0,10.8-4.27L665.67,953A7.41,7.41,0,0,0,661.67,942.91Z"/><path class="cls-6" d="M849.82,1014.3a7.61,7.61,0,0,1,2.88,9.53l-19.06,43.87a8.54,8.54,0,0,1-7.8,5.05,8.15,8.15,0,0,1-2.88-.52l-44.59-16.75-.2-.09a7.82,7.82,0,0,0,1.46.73l44.59,16.75a8.5,8.5,0,0,0,10.67-4.53L854,1024.47A7.61,7.61,0,0,0,849.82,1014.3Z"/><path class="cls-6" d="M600.71,919.82a7.19,7.19,0,0,1,2.92,3.51,7.33,7.33,0,0,1-.31,5.94l-20.85,42.45a8.89,8.89,0,0,1-7.94,4.84,8.36,8.36,0,0,1-3-.57l-40.89-16-.07,0a7.87,7.87,0,0,0,1.33.67l40.89,16a8.87,8.87,0,0,0,11-4.27l20.85-42.45A7.25,7.25,0,0,0,600.71,919.82Z"/><path class="cls-6" d="M787,990.12l-.06,0a7.58,7.58,0,0,1,2.9,9.67l-19.66,43.09a8.81,8.81,0,0,1-8,5,8.34,8.34,0,0,1-2.86-.5l-43.6-16-.25-.11a7.82,7.82,0,0,0,1.51.75l43.6,16a8.78,8.78,0,0,0,10.83-4.52l19.66-43.09A7.61,7.61,0,0,0,787,990.12Z"/><path class="cls-6" d="M724.41,967.12a7.16,7.16,0,0,1,2.84,3.42,7.32,7.32,0,0,1-.28,5.94l-20.78,43a8.77,8.77,0,0,1-7.85,4.84,8.3,8.3,0,0,1-3.06-.58l-41.87-16.62a7.87,7.87,0,0,0,1.25.64l41.88,16.62a8.74,8.74,0,0,0,10.92-4.26l20.78-43A7.22,7.22,0,0,0,724.41,967.12Z"/><path class="cls-6" d="M539.8,896.94h0a7.24,7.24,0,0,1,3,3.57,7.34,7.34,0,0,1-.33,5.93l-20.67,41.8a9,9,0,0,1-8,4.85,8.4,8.4,0,0,1-3-.55l-40.31-15.46-.14-.06a7.84,7.84,0,0,0,1.4.7L512,953.19a9,9,0,0,0,11-4.3l20.67-41.8A7.28,7.28,0,0,0,539.8,896.94Z"/><path class="cls-6" d="M617.35,999.13a7.17,7.17,0,0,1,2.85,3.42,7.31,7.31,0,0,1-.27,5.93l-21.11,43.74a8.73,8.73,0,0,1-7.82,4.82,8.32,8.32,0,0,1-3.08-.59l-42.42-16.95a7.85,7.85,0,0,0,1.24.63l42.44,17a8.7,8.7,0,0,0,10.91-4.23l21.11-43.74A7.22,7.22,0,0,0,617.35,999.13Z"/><path class="cls-6" d="M651.5,1156.15a8.78,8.78,0,0,0,10.94-4.23l21.39-43.74a7.18,7.18,0,0,0-3.8-10,7.14,7.14,0,0,1,2.84,3.43,7.28,7.28,0,0,1-.3,5.92l-21.39,43.74a8.81,8.81,0,0,1-7.87,4.82,8.32,8.32,0,0,1-3.08-.58l-41.87-16.62a7.89,7.89,0,0,0,1.26.64Z"/><path class="cls-6" d="M527,1107.48a8.87,8.87,0,0,0,11-4.16L560,1059.87a7.06,7.06,0,0,0-3.71-9.91,7,7,0,0,1,2.8,3.39,7.17,7.17,0,0,1-.35,5.88l-21.92,43.46a8.9,8.9,0,0,1-7.9,4.75,8.39,8.39,0,0,1-3.13-.6l-41.72-16.73a7.88,7.88,0,0,0,1.23.63Z"/><path class="cls-6" d="M590.07,1131.13A8.76,8.76,0,0,0,601,1126.9l21-43.11a7.27,7.27,0,0,0-3.88-10.11,7.21,7.21,0,0,1,2.93,3.51,7.36,7.36,0,0,1-.31,6l-21,43.11a8.79,8.79,0,0,1-7.86,4.81,8.32,8.32,0,0,1-3.09-.59l-42.41-16.95a7.85,7.85,0,0,0,1.24.63Z"/><path class="cls-6" d="M715.77,1181.65a8.73,8.73,0,0,0,10.88-4.35l21-44.5a7.28,7.28,0,0,0-3.9-10,7.24,7.24,0,0,1,2.87,3.43,7.36,7.36,0,0,1-.23,5.95l-21,44.5a8.76,8.76,0,0,1-7.88,4.9,8.32,8.32,0,0,1-3-.55L670,1163.84l-.11,0a7.84,7.84,0,0,0,1.37.69Z"/><path class="cls-6" d="M937.48,1198.39a7.39,7.39,0,0,1,2.88,3.39,7.47,7.47,0,0,1-.1,6l-20.45,46a8.54,8.54,0,0,1-7.77,5,8.18,8.18,0,0,1-2.94-.54l-46.55-17.9-.13-.06a7.9,7.9,0,0,0,1.39.7l46.55,17.9a8.51,8.51,0,0,0,10.71-4.44l20.45-46A7.43,7.43,0,0,0,937.48,1198.39Z"/><path class="cls-6" d="M983.93,1201.42l20.12-46.56a7.44,7.44,0,0,0-4.08-10,7.4,7.4,0,0,1,2.86,3.33,7.49,7.49,0,0,1,0,6l-20.12,46.56a8.27,8.27,0,0,1-7.58,4.94,8.09,8.09,0,0,1-3-.58l-46.2-18.54a7.93,7.93,0,0,0,1.23.63l46.23,18.56A8.26,8.26,0,0,0,983.93,1201.42Z"/><path class="cls-6" d="M1044.65,1087.25a7.18,7.18,0,0,1,2.79,3.26,7.34,7.34,0,0,1-.12,6L1027,1141.62a8.72,8.72,0,0,1-7.9,5,8.25,8.25,0,0,1-2.88-.51l-44.63-16.63-.21-.09a7.85,7.85,0,0,0,1.48.73l44.63,16.63a8.67,8.67,0,0,0,10.78-4.51l20.37-45.15A7.24,7.24,0,0,0,1044.65,1087.25Z"/><path class="cls-6" d="M284.51,857.27a9.26,9.26,0,0,1-8.18,4.87,8.53,8.53,0,0,1-3-.52L234.1,847.08l-.23-.1a7.77,7.77,0,0,0,1.49.74l39.27,14.54a9.22,9.22,0,0,0,11.14-4.35l20.33-39.83a6.86,6.86,0,0,0-3.61-9.72,6.8,6.8,0,0,1,2.72,3.25,7,7,0,0,1-.37,5.83Z"/><path class="cls-6" d="M296.38,934.36a9.29,9.29,0,0,1-8.15,4.79,8.51,8.51,0,0,1-3-.55l-82.31-31.42-.15-.07a7.77,7.77,0,0,0,1.41.71l82.31,31.42A9.24,9.24,0,0,0,297.64,935l21.48-40.93a6.88,6.88,0,0,0-3.58-9.83,6.84,6.84,0,0,1,2.76,3.34,7,7,0,0,1-.44,5.84Z"/><path class="cls-6" d="M387.22,1057.59A7,7,0,0,1,390,1061a7.19,7.19,0,0,1-.32,5.89l-21.94,44.23a8.89,8.89,0,0,1-7.92,4.81,8.38,8.38,0,0,1-3.08-.58l-40.52-16h0a7.89,7.89,0,0,0,1.28.65l40.52,16a8.86,8.86,0,0,0,11-4.23L391,1067.48A7.07,7.07,0,0,0,387.22,1057.59Z"/><path class="cls-6" d="M834.56,899.1a5.49,5.49,0,0,1-.1,4.46l-7,15.31a6.5,6.5,0,0,1-5.89,3.74,6.15,6.15,0,0,1-2.2-.4L774,904.89a5.86,5.86,0,0,0,1.17.61l45.47,17.35a6.47,6.47,0,0,0,8.09-3.33l7-15.31a5.42,5.42,0,0,0-3.17-7.48h0A5.35,5.35,0,0,1,834.56,899.1Z"/><path class="cls-6" d="M897.92,923a5.52,5.52,0,0,1-.17,4.46L891,941.89a6.64,6.64,0,0,1-6,3.71,6.26,6.26,0,0,1-2.19-.39l-47-17.59a5.82,5.82,0,0,0,1.2.62L884,945.85a6.63,6.63,0,0,0,8.17-3.32L899,928.1a5.47,5.47,0,0,0-3-7.56l-.11,0A5.43,5.43,0,0,1,897.92,923Z"/><path class="cls-6" d="M772.12,876.3a5.61,5.61,0,0,1-.08,4.5L765.72,895a6.55,6.55,0,0,1-5.95,3.79,6.21,6.21,0,0,1-2.14-.38l-45.9-16.82a5.87,5.87,0,0,0,1.24.63L758.89,899A6.52,6.52,0,0,0,767,895.6l6.32-14.16a5.57,5.57,0,0,0-3.17-7.58l-.08,0A5.51,5.51,0,0,1,772.12,876.3Z"/><path class="cls-6" d="M1025.6,970a5.68,5.68,0,0,1,0,4.51l-6.5,15.65a6.14,6.14,0,0,1-5.66,3.76,6,6,0,0,1-2.22-.42l-47.68-18.85a6,6,0,0,0,1.11.58l47.82,18.91a6.12,6.12,0,0,0,7.88-3.33l6.5-15.65a5.68,5.68,0,0,0-3.35-7.58h0A5.63,5.63,0,0,1,1025.6,970Z"/><path class="cls-6" d="M960.94,947a5.58,5.58,0,0,1-.15,4.48l-6.72,14.46a6.42,6.42,0,0,1-5.8,3.65,6.15,6.15,0,0,1-2.29-.44L900.11,950.8a5.94,5.94,0,0,0,1.09.58l46,18.4a6.41,6.41,0,0,0,8.1-3.21l6.72-14.47a5.55,5.55,0,0,0-3.06-7.61l-.14-.05A5.51,5.51,0,0,1,960.94,947Z"/><path class="cls-6" d="M470.38,766.12a5.34,5.34,0,0,1-.26,4.41L463,784.66A6.83,6.83,0,0,1,457,788.3a6.35,6.35,0,0,1-2.26-.41l-42.56-16.22a5.86,5.86,0,0,0,1.17.61L456,788.53a6.79,6.79,0,0,0,8.31-3.23l7.11-14.14a5.23,5.23,0,0,0-2.93-7.43l-.07,0A5.16,5.16,0,0,1,470.38,766.12Z"/><path class="cls-6" d="M528.82,786.73a5.44,5.44,0,0,1-.14,4.44L522,805.64a6.61,6.61,0,0,1-6,3.72,6.26,6.26,0,0,1-2.2-.39L470.35,792.7a5.84,5.84,0,0,0,1.2.62l43.5,16.29a6.59,6.59,0,0,0,8.16-3.33l6.73-14.47a5.36,5.36,0,0,0-3.11-7.45h0A5.29,5.29,0,0,1,528.82,786.73Z"/><path class="cls-6" d="M588.91,808.56a5.45,5.45,0,0,1-.18,4.43l-7,14.68a6.54,6.54,0,0,1-5.87,3.63,6.22,6.22,0,0,1-2.29-.43l-43.85-17.35a5.89,5.89,0,0,0,1.11.58l44,17.41a6.52,6.52,0,0,0,8.17-3.2l7-14.68a5.39,5.39,0,0,0-3-7.51l-.08,0A5.33,5.33,0,0,1,588.91,808.56Z"/><path class="cls-6" d="M649.79,830.83a5.45,5.45,0,0,1-.18,4.43l-7,14.68a6.54,6.54,0,0,1-5.87,3.63,6.23,6.23,0,0,1-2.29-.43L590.57,835.8a5.89,5.89,0,0,0,1.11.58l44,17.41a6.52,6.52,0,0,0,8.17-3.2l7-14.68a5.39,5.39,0,0,0-3-7.51l-.08,0A5.33,5.33,0,0,1,649.79,830.83Z"/><path class="cls-6" d="M709.7,853.43a5.45,5.45,0,0,1-.18,4.43l-7,14.68a6.54,6.54,0,0,1-5.87,3.63,6.23,6.23,0,0,1-2.29-.43l-43.85-17.35a5.89,5.89,0,0,0,1.11.58l44,17.41a6.52,6.52,0,0,0,8.17-3.2l7-14.68a5.39,5.39,0,0,0-3-7.51l-.08,0A5.34,5.34,0,0,1,709.7,853.43Z"/><path class="cls-6" d="M791.84,1202.19l19.87-44.63a7.56,7.56,0,0,0-4.11-10.19,7.51,7.51,0,0,1,3,3.52,7.6,7.6,0,0,1-.12,6l-19.87,44.63a8.63,8.63,0,0,1-7.84,5,8.21,8.21,0,0,1-2.89-.52l-44.59-16.75-.2-.09a7.87,7.87,0,0,0,1.46.73l44.59,16.75A8.59,8.59,0,0,0,791.84,1202.19Z"/><path class="cls-6" d="M477.14,1079.29l21.25-43.69a7.26,7.26,0,0,0-3.87-10.07,7.22,7.22,0,0,1,2.9,3.49,7.33,7.33,0,0,1-.29,5.94l-21.25,43.7a8.64,8.64,0,0,1-7.74,4.76,8.26,8.26,0,0,1-3.16-.62l-41.35-17.05a7.9,7.9,0,0,0,1.15.6l41.47,17.1A8.62,8.62,0,0,0,477.14,1079.29Z"/><path class="cls-6" d="M1105.5,1034.94a7.65,7.65,0,0,1,3,9.4l-17.88,44.23a8.46,8.46,0,0,1-7.82,5.21,8.16,8.16,0,0,1-2.73-.47l-47.69-16.92-.32-.13a7.8,7.8,0,0,0,1.58.77l47.69,16.92a8.43,8.43,0,0,0,10.54-4.75l17.88-44.23A7.66,7.66,0,0,0,1105.5,1034.94Z"/><path class="cls-6" d="M1090.07,994.51A5.64,5.64,0,0,1,1090,999l-6.19,13.89a6.44,6.44,0,0,1-5.86,3.75,6.14,6.14,0,0,1-2.2-.4l-48.91-18.63a5.85,5.85,0,0,0,1.17.61l49,18.67a6.42,6.42,0,0,0,8.06-3.35l6.19-13.89a5.6,5.6,0,0,0-3.17-7.61l-.1,0A5.55,5.55,0,0,1,1090.07,994.51Z"/><path class="cls-6" d="M463.53,1088.38a7.28,7.28,0,0,1,2.9,3.48,7.41,7.41,0,0,1-.24,6l-20.83,44a8.76,8.76,0,0,1-7.88,4.9,8.3,8.3,0,0,1-3-.56l-57.87-22.43-.1,0a7.9,7.9,0,0,0,1.36.69l57.87,22.43a8.73,8.73,0,0,0,10.89-4.34l20.83-44A7.34,7.34,0,0,0,463.53,1088.38Z"/><path class="cls-6" d="M1058.41,1323.1a7.5,7.5,0,0,1,2.91,3.43,7.58,7.58,0,0,1-.06,6l-20.77,47.8a8.23,8.23,0,0,1-7.54,4.91,8.05,8.05,0,0,1-3.05-.6l-47.13-19.24a8,8,0,0,0,1.17.61l47.22,19.28a8.21,8.21,0,0,0,10.59-4.31l20.77-47.8A7.55,7.55,0,0,0,1058.41,1323.1Z"/><path class="cls-6" d="M990.94,1296.66a7.5,7.5,0,0,1,2.91,3.43,7.58,7.58,0,0,1-.06,6L973,1353.91a8.23,8.23,0,0,1-7.54,4.91,8.07,8.07,0,0,1-3.05-.6L915.29,1339a8,8,0,0,0,1.18.61l47.22,19.28a8.21,8.21,0,0,0,10.59-4.31l20.77-47.8A7.55,7.55,0,0,0,990.94,1296.66Z"/><path class="cls-6" d="M1088.29,1255.73a7.35,7.35,0,0,1,2.88,3.43,7.46,7.46,0,0,1-.16,6l-21.37,46.91a8.6,8.6,0,0,1-7.79,4.94,8.21,8.21,0,0,1-3-.55l-128.23-49.69-.1,0a8,8,0,0,0,1.36.69l128.23,49.69a8.58,8.58,0,0,0,10.77-4.39l21.37-46.91A7.4,7.4,0,0,0,1088.29,1255.73Z"/><path class="cls-6" d="M1117.3,1189.63a7.4,7.4,0,0,1,2.9,3.46,7.48,7.48,0,0,1-.16,6L1098.68,1246a8.65,8.65,0,0,1-7.83,5,8.25,8.25,0,0,1-3-.54l-96-36.74-.16-.07a7.94,7.94,0,0,0,1.42.71l96,36.74a8.63,8.63,0,0,0,10.79-4.42l21.37-46.91A7.43,7.43,0,0,0,1117.3,1189.63Z"/><path class="cls-6" d="M1187.77,1029.07l-.07,0a5.41,5.41,0,0,1,2.05,2.46,5.5,5.5,0,0,1-.13,4.45l-6.77,14.62a6.61,6.61,0,0,1-6,3.74,6.22,6.22,0,0,1-2.18-.39l-81.93-30.46a5.88,5.88,0,0,0,1.21.62l82,30.48a6.59,6.59,0,0,0,8.14-3.35l6.77-14.62A5.46,5.46,0,0,0,1187.77,1029.07Z"/><path class="cls-6" d="M1172.54,1059.41a7.59,7.59,0,0,1,2.93,9.39L1156.79,1114a8.37,8.37,0,0,1-7.71,5.11,8.12,8.12,0,0,1-2.84-.51l-48.06-17.95-.21-.09a7.88,7.88,0,0,0,1.47.73l48.06,17.95a8.35,8.35,0,0,0,10.56-4.6l18.68-45.16A7.6,7.6,0,0,0,1172.54,1059.41Z"/><path class="cls-6" d="M1145.14,1124.88a7.64,7.64,0,0,1,3,9.45l-18.75,45.3a8.34,8.34,0,0,1-7.69,5.1,8.09,8.09,0,0,1-2.86-.52l-81.66-30.78-.19-.08a7.88,7.88,0,0,0,1.45.73l81.66,30.78a8.32,8.32,0,0,0,10.54-4.58l18.75-45.3A7.65,7.65,0,0,0,1145.14,1124.88Z"/><path class="cls-6" d="M253.11,1040.59a6.91,6.91,0,0,1,2.78,3.37,7.12,7.12,0,0,1-.41,5.87l-6.85,13.27a9.15,9.15,0,0,1-8.07,4.79,8.47,8.47,0,0,1-3.07-.57l-40.63-15.75-.09,0a7.83,7.83,0,0,0,1.35.68L238.76,1068a9.11,9.11,0,0,0,11.14-4.23l6.85-13.27A7,7,0,0,0,253.11,1040.59Z"/><path class="cls-6" d="M327.12,1034.41a7,7,0,0,1,2.79,3.39,7.13,7.13,0,0,1-.4,5.87l-22.06,43a9,9,0,0,1-7.93,4.73,8.41,8.41,0,0,1-3.15-.6l-40.17-16.15a7.85,7.85,0,0,0,1.22.63l40.21,16.17a8.94,8.94,0,0,0,11.08-4.13l22.06-43A7,7,0,0,0,327.12,1034.41Z"/><path class="cls-6" d="M411.23,744a5.62,5.62,0,0,1-.15,4.5l-6.79,14.64a6.54,6.54,0,0,1-5.9,3.71,6.2,6.2,0,0,1-2.22-.41L353.83,750.2a5.85,5.85,0,0,0,1.16.6l42.43,16.27a6.52,6.52,0,0,0,8.13-3.3l6.79-14.64a5.58,5.58,0,0,0-3.05-7.64l-.16-.06A5.53,5.53,0,0,1,411.23,744Z"/><path class="cls-6" d="M208.91,988a6.9,6.9,0,0,1,2.79,3.39,7.1,7.1,0,0,1-.43,5.86L189,1039.84a8.88,8.88,0,0,1-7.83,4.64,8.36,8.36,0,0,1-3.25-.65l-39.09-16.44a7.87,7.87,0,0,0,1.08.57l39.27,16.52a8.84,8.84,0,0,0,11.07-4l22.26-42.61A7,7,0,0,0,208.91,988Z"/><path class="cls-6" d="M353.89,723.27a5.32,5.32,0,0,1-.3,4.4l-7.54,14.65a6.82,6.82,0,0,1-6,3.58,6.33,6.33,0,0,1-2.32-.43L295.78,729a5.84,5.84,0,0,0,1.12.59L339,746.11a6.78,6.78,0,0,0,8.33-3.15l7.54-14.65a5.21,5.21,0,0,0-2.87-7.45l-.09,0A5.15,5.15,0,0,1,353.89,723.27Z"/><path class="cls-6" d="M924.88,1270.2a7.42,7.42,0,0,1,2.91,3.47,7.52,7.52,0,0,1-.14,6l-21.2,47a8.43,8.43,0,0,1-7.66,4.9,8.13,8.13,0,0,1-3-.59l-45.86-18.46a7.91,7.91,0,0,0,1.21.62l45.9,18.48a8.41,8.41,0,0,0,10.71-4.31l21.2-47A7.48,7.48,0,0,0,924.88,1270.2Z"/><path class="cls-6" d="M415.9,1055.63l22-44.1a7.1,7.1,0,0,0-3.74-9.94A7,7,0,0,1,437,1005a7.22,7.22,0,0,1-.34,5.9l-22,44.1a8.68,8.68,0,0,1-7.74,4.71,8.27,8.27,0,0,1-3.21-.64l-41.5-17.45a7.87,7.87,0,0,0,1.08.57l41.67,17.52A8.65,8.65,0,0,0,415.9,1055.63Z"/><path class="cls-6" d="M859,1244.45a7.72,7.72,0,0,1,3,9.54l-19.78,47.29a8.13,8.13,0,0,1-7.5,5,8,8,0,0,1-3-.59l-62.85-25.39a7.93,7.93,0,0,0,1.2.62l62.91,25.41a8.11,8.11,0,0,0,10.5-4.38l19.78-47.29A7.72,7.72,0,0,0,859,1244.45Z"/><path class="cls-6" d="M777.81,1212.61a7.49,7.49,0,0,1,2.81,9.52l-21.07,46.56a8.39,8.39,0,0,1-7.63,4.86,8.14,8.14,0,0,1-3.08-.6L452.9,1152.38a7.9,7.9,0,0,0,1.18.61l296,120.6a8.38,8.38,0,0,0,10.71-4.26l21.07-46.56A7.51,7.51,0,0,0,777.81,1212.61Z"/><path class="cls-6" d="M872.3,1172.78a7.37,7.37,0,0,1,2.87,3.38,7.47,7.47,0,0,1-.1,6L855,1227.33a8.61,8.61,0,0,1-7.83,5,8.23,8.23,0,0,1-2.9-.52l-46.2-17.37-.2-.09a7.87,7.87,0,0,0,1.46.73l46.2,17.37a8.58,8.58,0,0,0,10.73-4.49l20.08-45.19A7.42,7.42,0,0,0,872.3,1172.78Z"/><path class="cls-6" d="M417.31,982.33l21.88-42a7,7,0,0,0-3.62-9.87,6.91,6.91,0,0,1,2.78,3.39,7.07,7.07,0,0,1-.42,5.84l-21.88,42a9,9,0,0,1-7.94,4.7,8.45,8.45,0,0,1-3.17-.61l-40.84-16.5a7.82,7.82,0,0,0,1.2.62l40.9,16.52A9,9,0,0,0,417.31,982.33Z"/><path class="cls-6" d="M477.17,1004.88l21.54-41.82A7.08,7.08,0,0,0,495,953a7,7,0,0,1,2.89,3.49,7.2,7.2,0,0,1-.41,5.89l-21.54,41.82a9.17,9.17,0,0,1-8.08,4.8,8.47,8.47,0,0,1-3-.55L424.47,993l-.14-.06a7.84,7.84,0,0,0,1.4.7L466,1009.13A9.13,9.13,0,0,0,477.17,1004.88Z"/><path class="cls-6" d="M538.18,1029.42l21.57-43.81a7,7,0,0,0-3.73-9.82,7,7,0,0,1,2.76,3.3,7.15,7.15,0,0,1-.3,5.88l-21.57,43.81a8.9,8.9,0,0,1-7.93,4.83,8.36,8.36,0,0,1-3-.57l-41.83-16.34-.06,0a7.83,7.83,0,0,0,1.32.67l41.83,16.34A8.86,8.86,0,0,0,538.18,1029.42Z"/><path class="cls-6" d="M480.58,874.83a6.9,6.9,0,0,1,2.78,3.39,7.07,7.07,0,0,1-.42,5.84l-21.88,42a9,9,0,0,1-7.94,4.7,8.44,8.44,0,0,1-3.17-.61l-40.84-16.49a7.82,7.82,0,0,0,1.2.62l40.9,16.52a9,9,0,0,0,11.11-4.09l21.88-42A7,7,0,0,0,480.58,874.83Z"/><path class="cls-6" d="M853.86,1150.89l20.08-45.19a7.42,7.42,0,0,0-4-10,7.37,7.37,0,0,1,2.87,3.38,7.47,7.47,0,0,1-.1,6l-20.08,45.19a8.61,8.61,0,0,1-7.83,5,8.23,8.23,0,0,1-2.9-.52l-46.2-17.37-.2-.09a7.87,7.87,0,0,0,1.46.73l46.2,17.37A8.58,8.58,0,0,0,853.86,1150.89Z"/><path class="cls-6" d="M361.83,830.35a6.61,6.61,0,0,1,2.66,3.2,6.86,6.86,0,0,1-.46,5.78l-21.28,39.76a9.49,9.49,0,0,1-8.28,4.81,8.64,8.64,0,0,1-3-.53L292.2,868.83l-.23-.1a7.78,7.78,0,0,0,1.49.74L332.73,884A9.44,9.44,0,0,0,344,879.73L365.29,840A6.67,6.67,0,0,0,361.83,830.35Z"/><path class="cls-6" d="M420.82,852.27a6.83,6.83,0,0,1,2.75,3.34,7.05,7.05,0,0,1-.44,5.85l-21.47,40.92a9.09,9.09,0,0,1-8,4.71,8.47,8.47,0,0,1-3.16-.6l-39.18-15.71a7.83,7.83,0,0,0,1.23.63l39.21,15.72A9.05,9.05,0,0,0,402.92,903l21.47-40.92A6.88,6.88,0,0,0,420.82,852.27Z"/><path class="cls-6" d="M356.65,958l21.47-40.92a6.88,6.88,0,0,0-3.58-9.83,6.83,6.83,0,0,1,2.75,3.34,7.05,7.05,0,0,1-.44,5.85l-21.47,40.92a9.09,9.09,0,0,1-8,4.71,8.47,8.47,0,0,1-3.16-.6l-39.18-15.71a7.84,7.84,0,0,0,1.23.63l39.21,15.72A9.05,9.05,0,0,0,356.65,958Z"/><path class="cls-6" d="M1041.08,1011.55a7.25,7.25,0,0,1,2.85,3.4,7.36,7.36,0,0,1-.2,5.95l-20,42.93a9.08,9.08,0,0,1-8.16,5.07,8.42,8.42,0,0,1-2.78-.46l-44.9-15.66-.35-.14a7.8,7.8,0,0,0,1.61.79l44.9,15.66a9,9,0,0,0,10.94-4.61l20-42.93A7.3,7.3,0,0,0,1041.08,1011.55Z"/><path class="cls-6" d="M364.72,761.75a6.52,6.52,0,0,1,2.67,3.27,6.77,6.77,0,0,1-.6,5.73l-22.66,39.78a9.62,9.62,0,0,1-8.27,4.64,8.76,8.76,0,0,1-3.16-.58l-67.19-26-.11,0a7.84,7.84,0,0,0,1.37.69l67.19,26a9.58,9.58,0,0,0,11.43-4.06L368,771.4A6.56,6.56,0,0,0,364.72,761.75Z"/><path class="cls-6" d="M421.28,782.38a6.81,6.81,0,0,1,2.72,3.25,7,7,0,0,1-.37,5.83L403.3,831.3a9.27,9.27,0,0,1-8.18,4.87,8.52,8.52,0,0,1-3-.52l-39.27-14.54-.23-.1a7.78,7.78,0,0,0,1.49.74l39.27,14.54a9.22,9.22,0,0,0,11.14-4.35l20.33-39.83A6.86,6.86,0,0,0,421.28,782.38Z"/><path class="cls-6" d="M356,1031.56l21.84-43.38a7.1,7.1,0,0,0-3.73-10,7.06,7.06,0,0,1,2.83,3.43,7.19,7.19,0,0,1-.35,5.89l-21.84,43.38a8.86,8.86,0,0,1-7.87,4.75,8.33,8.33,0,0,1-3.14-.61l-41.12-16.65a7.84,7.84,0,0,0,1.19.61L345,1035.7A8.82,8.82,0,0,0,356,1031.56Z"/><path class="cls-6" d="M264.66,1034.77l6.85-13.27a7,7,0,0,0-3.63-9.89,6.92,6.92,0,0,1,2.78,3.38,7.12,7.12,0,0,1-.41,5.87l-6.85,13.27a9.15,9.15,0,0,1-8.07,4.79,8.48,8.48,0,0,1-3.07-.57l-40.63-15.75-.1,0a7.83,7.83,0,0,0,1.36.69L253.53,1039A9.11,9.11,0,0,0,264.66,1034.77Z"/><path class="cls-6" d="M295.16,1008.17l22.79-42a6.88,6.88,0,0,0-3.56-9.91,6.84,6.84,0,0,1,2.81,3.44,7,7,0,0,1-.51,5.82l-22.79,42a9.2,9.2,0,0,1-8,4.64,8.55,8.55,0,0,1-3.21-.61l-111.27-45a7.84,7.84,0,0,0,1.2.62l111.33,45A9.17,9.17,0,0,0,295.16,1008.17Z"/><path class="cls-6" d="M480.3,803.55a6.6,6.6,0,0,1,2.62,3.11,6.85,6.85,0,0,1-.39,5.77l-21.09,40.63a9.34,9.34,0,0,1-8.21,4.84,8.56,8.56,0,0,1-3-.52L411,842.85l-.23-.1a7.78,7.78,0,0,0,1.49.74L451.52,858a9.29,9.29,0,0,0,11.19-4.32l21.09-40.63A6.66,6.66,0,0,0,480.3,803.55Z"/><path class="cls-6" d="M785.76,916.2a7.11,7.11,0,0,1,2.8,3.32,7.27,7.27,0,0,1-.22,5.93l-20.45,43.24a8.87,8.87,0,0,1-8,5,8.32,8.32,0,0,1-2.93-.53l-43.41-16.33-.19-.08a7.82,7.82,0,0,0,1.46.73l43.41,16.33a8.83,8.83,0,0,0,10.9-4.42l20.45-43.24A7.16,7.16,0,0,0,785.76,916.2Z"/><path class="cls-6" d="M976.42,987.22a7.22,7.22,0,0,1,2.83,3.34,7.37,7.37,0,0,1-.17,6l-19.87,43.11a8.85,8.85,0,0,1-8,5,8.35,8.35,0,0,1-2.88-.51l-44.54-16.38-.25-.1a7.89,7.89,0,0,0,1.51.75l44.54,16.38a8.81,8.81,0,0,0,10.87-4.51l19.87-43.11A7.27,7.27,0,0,0,976.42,987.22Z"/><path class="cls-6" d="M723.8,892.7a7.08,7.08,0,0,1,2.79,3.31,7.24,7.24,0,0,1-.23,5.91l-20.74,43.63a8.79,8.79,0,0,1-7.89,4.89,8.33,8.33,0,0,1-3-.55l-42.85-16.56-.1,0a7.85,7.85,0,0,0,1.36.69L696,950.52a8.75,8.75,0,0,0,10.9-4.34l20.74-43.63A7.13,7.13,0,0,0,723.8,892.7Z"/><path class="cls-6" d="M911.76,963.21a7.27,7.27,0,0,1,2.86,3.39,7.41,7.41,0,0,1-.18,6l-19.91,43.18a8.83,8.83,0,0,1-8,5,8.29,8.29,0,0,1-2.89-.51l-44.47-16.44-.24-.1a7.86,7.86,0,0,0,1.5.74l44.47,16.44a8.8,8.8,0,0,0,10.85-4.49l19.91-43.18A7.33,7.33,0,0,0,911.76,963.21Z"/><path class="cls-6" d="M848.12,939.75a7.1,7.1,0,0,1,2.81,3.35,7.25,7.25,0,0,1-.26,5.92l-20.58,42.73a8.75,8.75,0,0,1-7.84,4.84,8.31,8.31,0,0,1-3.07-.58l-42.25-16.75a7.88,7.88,0,0,0,1.26.64l42.25,16.75a8.72,8.72,0,0,0,10.91-4.26l20.57-42.73A7.14,7.14,0,0,0,848.12,939.75Z"/><path class="cls-6" d="M540.38,825.64a6.92,6.92,0,0,1,2.77,3.33,7.11,7.11,0,0,1-.37,5.87l-20.62,40.64a9.18,9.18,0,0,1-8.12,4.85,8.5,8.5,0,0,1-3-.54l-41-15.44-.2-.09a7.82,7.82,0,0,0,1.46.73l41,15.44a9.14,9.14,0,0,0,11.12-4.32L544,835.48A7,7,0,0,0,540.38,825.64Z"/><path class="cls-6" d="M601.21,848.26a6.88,6.88,0,0,1,2.75,3.29,7.06,7.06,0,0,1-.36,5.85l-21.2,41.83A8.92,8.92,0,0,1,574.5,904a8.4,8.4,0,0,1-3.13-.6l-40.92-16.44a7.86,7.86,0,0,0,1.22.63l41,16.45a8.89,8.89,0,0,0,11-4.15L604.87,858A6.93,6.93,0,0,0,601.21,848.26Z"/><path class="cls-6" d="M661.9,870.61a6.92,6.92,0,0,1,2.75,3.28,7.12,7.12,0,0,1-.31,5.88l-21,42.29a9,9,0,0,1-8,4.84,8.37,8.37,0,0,1-3-.56l-41.42-16.1-.08,0a7.85,7.85,0,0,0,1.34.68L633.62,927a8.91,8.91,0,0,0,11-4.28l21-42.29A7,7,0,0,0,661.9,870.61Z"/></g><path id="keys" class="cls-8" d="M370.34,772.29A9,9,0,0,1,381,768.18l38.57,13.92a6.38,6.38,0,0,1,3.61,9.14l-20.33,39.83a8.72,8.72,0,0,1-10.52,4.11l-39.27-14.54a6.31,6.31,0,0,1-3.49-9.14ZM283,739.69a8.88,8.88,0,0,1,10.62-4l69.46,25.84a6.08,6.08,0,0,1,3.28,9l-22.66,39.78a9.09,9.09,0,0,1-10.81,3.84l-67.19-26a6.43,6.43,0,0,1-3.46-9.26ZM428.44,794a9.19,9.19,0,0,1,10.72-4.24l39.33,13.43a6.18,6.18,0,0,1,3.61,9L461,852.84a8.79,8.79,0,0,1-10.57,4.08l-39.27-14.54a6.31,6.31,0,0,1-3.49-9.14Zm59.42,20.36a8.83,8.83,0,0,1,10.6-4.06l40.28,15a6.48,6.48,0,0,1,3.6,9.24l-20.62,40.64a8.64,8.64,0,0,1-10.49,4.07l-41-15.44a6.39,6.39,0,0,1-3.5-9.21l21.15-40.27ZM608,859.34a8.68,8.68,0,0,1,10.48-4.17l41.69,15.16a6.49,6.49,0,0,1,3.68,9.21l-21,42.29a8.41,8.41,0,0,1-10.38,4l-41.42-16.1a6.64,6.64,0,0,1-3.61-9.36Zm61.46,21.85A8.66,8.66,0,0,1,680,877l42.14,15.39a6.64,6.64,0,0,1,3.8,9.28l-20.74,43.63a8.25,8.25,0,0,1-10.27,4.09l-42.85-16.56a6.65,6.65,0,0,1-3.63-9.35Zm61,23.07a8.48,8.48,0,0,1,10.35-4.2l43.24,15.86a6.68,6.68,0,0,1,3.81,9.31l-20.45,43.24a8.33,8.33,0,0,1-10.28,4.17l-43.41-16.33A6.7,6.7,0,0,1,710,947ZM548,837.07a8.85,8.85,0,0,1,10.6-4.09l40.91,15a6.44,6.44,0,0,1,3.63,9.19L582,899a8.39,8.39,0,0,1-10.41,3.91l-41-16.45a6.59,6.59,0,0,1-3.47-9.37ZM793.6,927.84A8.49,8.49,0,0,1,804,923.69l42.49,15.79a6.65,6.65,0,0,1,3.75,9.31l-20.57,42.73a8.22,8.22,0,0,1-10.28,4l-42.25-16.75a6.81,6.81,0,0,1-3.68-9.46Zm61.82,22.49a8.18,8.18,0,0,1,10.17-4.2L910.14,963a6.84,6.84,0,0,1,3.85,9.41l-19.91,43.18a8.3,8.3,0,0,1-10.23,4.23l-44.47-16.44a6.81,6.81,0,0,1-3.89-9.38Zm128.42,48a8.05,8.05,0,0,1,10.08-4.22l45.54,17.22a6.8,6.8,0,0,1,3.82,9.39l-20,42.93a8.53,8.53,0,0,1-10.32,4.35L968,1052.3a6.75,6.75,0,0,1-4-9.27Zm65.06,24.37a8.33,8.33,0,0,1,10.24-4.27l44.66,16.26a7.17,7.17,0,0,1,4.22,9.5l-17.88,44.23a7.93,7.93,0,0,1-9.91,4.46l-47.69-16.92a6.67,6.67,0,0,1-3.91-9.26Zm65.46,23.81a8.23,8.23,0,0,1,10.18-4.27l46.3,16.93a7.11,7.11,0,0,1,4.17,9.49l-18.68,45.16a7.85,7.85,0,0,1-9.92,4.32l-48.06-17.95a6.89,6.89,0,0,1-3.93-9.41ZM919.54,974.55a8.19,8.19,0,0,1,10.15-4.26l45.06,16.65a6.78,6.78,0,0,1,3.87,9.37l-19.87,43.11a8.31,8.31,0,0,1-10.24,4.25L904,1027.28a6.85,6.85,0,0,1-3.95-9.38ZM300.45,707.78a6.42,6.42,0,0,1,7.76-3l42.34,15.89a4.71,4.71,0,0,1,2.6,6.75l-7.54,14.65A6.28,6.28,0,0,1,337.9,745L295.83,728.5a4.8,4.8,0,0,1-2.57-6.82Zm58.15,20.09a6.12,6.12,0,0,1,7.59-2.94l41.66,16.4a5.08,5.08,0,0,1,2.78,7l-6.79,14.64a6,6,0,0,1-7.49,3l-42.43-16.27a4.87,4.87,0,0,1-2.68-6.84Zm57.56,22.87a6.29,6.29,0,0,1,7.64-3.08L467,763.56a4.73,4.73,0,0,1,2.65,6.74l-7.11,14.14a6.29,6.29,0,0,1-7.69,3l-42.65-16.25a4.88,4.88,0,0,1-2.71-6.85Zm58.23,21.07a6.36,6.36,0,0,1,7.66-3.13l43.36,15.5a4.86,4.86,0,0,1,2.83,6.77l-6.73,14.47A6.09,6.09,0,0,1,514,808.5l-43.5-16.29a4.85,4.85,0,0,1-2.72-6.81Zm59.3,20.69a6.24,6.24,0,0,1,7.63-3L585.52,806a4.89,4.89,0,0,1,2.76,6.82l-7,14.68a6,6,0,0,1-7.53,2.95l-44-17.41a5,5,0,0,1-2.68-6.92Zm60.88,22.27a6.24,6.24,0,0,1,7.63-3l44.21,16.51a4.89,4.89,0,0,1,2.76,6.82l-7,14.68a6,6,0,0,1-7.53,2.95l-44-17.41a5,5,0,0,1-2.68-6.92Zm59.91,22.59a6.24,6.24,0,0,1,7.63-3l44.21,16.51a4.89,4.89,0,0,1,2.76,6.82l-7,14.68a6,6,0,0,1-7.53,2.95l-44-17.41a5,5,0,0,1-2.68-6.92Zm61,22.35A6,6,0,0,1,723,856.6l45.73,17.08a5.07,5.07,0,0,1,2.89,6.91l-6.32,14.16a6,6,0,0,1-7.46,3.15l-45.92-16.83a5,5,0,0,1-2.89-6.87ZM778,883.52a6.28,6.28,0,0,1,7.61-3.15l45.51,16.18a4.92,4.92,0,0,1,2.88,6.8l-7,15.31a6,6,0,0,1-7.46,3.07l-45.47-17.35a5,5,0,0,1-2.76-6.87Zm62.49,22.1a6.22,6.22,0,0,1,7.63-3l46.41,17.73a5,5,0,0,1,2.78,6.88l-6.8,14.43a6.13,6.13,0,0,1-7.54,3.07l-47.06-17.61a4.81,4.81,0,0,1-2.69-6.78Zm63.17,23.63a5.91,5.91,0,0,1,7.44-3l46.44,18.09a5.05,5.05,0,0,1,2.79,6.94l-6.72,14.47a5.91,5.91,0,0,1-7.46,3l-46-18.4a5.18,5.18,0,0,1-2.82-7Zm62.91,24a5.9,5.9,0,0,1,7.37-3.2l48.17,17.44a5.18,5.18,0,0,1,3.06,6.92l-6.5,15.65a5.62,5.62,0,0,1-7.23,3.06l-47.82-18.91a5.31,5.31,0,0,1-3-7.06Zm64.28,23.49a6.22,6.22,0,0,1,7.62-3l48.16,18.2a5.1,5.1,0,0,1,2.89,6.94l-6.19,13.89a5.92,5.92,0,0,1-7.42,3.09l-49-18.67a4.88,4.88,0,0,1-2.71-6.85Zm65.69,24.75a6,6,0,0,1,7.44-3.12l82.35,30.58a5,5,0,0,1,2.83,6.85l-6.77,14.62a6.09,6.09,0,0,1-7.51,3.09l-82-30.48a5.05,5.05,0,0,1-2.9-6.89Zm-845-203.17a9,9,0,0,1,10.66-4.12l38.57,13.92a6.38,6.38,0,0,1,3.61,9.14L284.07,857a8.72,8.72,0,0,1-10.52,4.11l-39.27-14.54a6.31,6.31,0,0,1-3.49-9.14ZM309.65,820a9,9,0,0,1,10.68-4.14l39.77,14.18a6.19,6.19,0,0,1,3.49,9l-21.28,39.76a8.94,8.94,0,0,1-10.67,4l-39.27-14.54a6.31,6.31,0,0,1-3.49-9.14Zm59.47,21.14a8.81,8.81,0,0,1,10.61-4L419.2,852a6.4,6.4,0,0,1,3.5,9.21l-21.47,40.92A8.55,8.55,0,0,1,390.69,906l-39.21-15.72A6.55,6.55,0,0,1,348,881ZM487.8,884.62a8.25,8.25,0,0,1,10.32-4l40.24,16.11a6.78,6.78,0,0,1,3.62,9.46L521.31,948a8.45,8.45,0,0,1-10.38,4.06l-40.31-15.46a6.69,6.69,0,0,1-3.68-9.37Zm60.34,23a8.35,8.35,0,0,1,10.36-4l40.72,16a6.75,6.75,0,0,1,3.65,9.42L582,971.49a8.37,8.37,0,0,1-10.35,4l-40.89-16a6.7,6.7,0,0,1-3.64-9.4ZM609.6,931A8.38,8.38,0,0,1,620,927l40.18,15.67a6.92,6.92,0,0,1,3.82,9.49L644.08,995a8,8,0,0,1-10.16,4l-41.29-16.61a6.81,6.81,0,0,1-3.63-9.48Zm-181.85-68a8.84,8.84,0,0,1,10.64-4L479,874.58a6.46,6.46,0,0,1,3.52,9.24l-21.88,42a8.48,8.48,0,0,1-10.48,3.86l-40.9-16.52a6.51,6.51,0,0,1-3.38-9.34Zm242.6,91.73a8.34,8.34,0,0,1,10.31-4.09l42.16,16.18a6.73,6.73,0,0,1,3.71,9.39l-20.78,43a8.24,8.24,0,0,1-10.28,4l-41.88-16.62a6.83,6.83,0,0,1-3.69-9.47ZM733.75,977A8.14,8.14,0,0,1,744,973l41.55,16.9a7.11,7.11,0,0,1,3.83,9.61l-19.66,43.09a8.28,8.28,0,0,1-10.2,4.26l-43.6-16a6.6,6.6,0,0,1-3.76-9.27ZM859.4,1025.5a8.28,8.28,0,0,1,10.23-4.21l43.87,16.33a6.94,6.94,0,0,1,4,9.43l-20,45.14a8.14,8.14,0,0,1-10.11,4.28l-45-16.57a6.76,6.76,0,0,1-3.86-9.35Zm63.68,24.28a8.21,8.21,0,0,1,10.18-4.21l44.36,16.61a7.07,7.07,0,0,1,4.06,9.49l-19.23,45a7.83,7.83,0,0,1-10,4.19l-45.65-17.69a7,7,0,0,1-3.86-9.49Zm64.53,25.44a8.28,8.28,0,0,1,10.17-4.36l45.13,16.09a6.75,6.75,0,0,1,4,9.31l-20.37,45.15a8.17,8.17,0,0,1-10.15,4.24L971.72,1129a6.91,6.91,0,0,1-3.94-9.43Zm65.6,23.9a8.15,8.15,0,0,1,10.14-4.26l80.13,29.75a7.16,7.16,0,0,1,4.15,9.53l-18.75,45.3a7.82,7.82,0,0,1-9.91,4.3L1037.31,1153a7,7,0,0,1-3.94-9.46Zm-257.51-97.33A8.27,8.27,0,0,1,806,997.7l42.28,16.36a7.12,7.12,0,0,1,4,9.57l-19.06,43.87a8,8,0,0,1-10,4.26L778.55,1055a6.72,6.72,0,0,1-3.76-9.35ZM157.35,976.58a8.79,8.79,0,0,1,10.62-4l39.36,15.12a6.47,6.47,0,0,1,3.49,9.26l-22.26,42.61a8.34,8.34,0,0,1-10.44,3.76l-39.27-16.52a6.64,6.64,0,0,1-3.35-9.46ZM215,999.9a8.71,8.71,0,0,1,10.54-4l40.69,15.48a6.48,6.48,0,0,1,3.53,9.27L263,1033.89a8.61,8.61,0,0,1-10.51,4l-40.63-15.75a6.51,6.51,0,0,1-3.51-9.29Zm-14.77,29a8.71,8.71,0,0,1,10.54-4l40.69,15.48a6.48,6.48,0,0,1,3.53,9.27l-6.85,13.27a8.61,8.61,0,0,1-10.51,4L197,1051.12a6.51,6.51,0,0,1-3.51-9.29Zm74.23-6.13a8.65,8.65,0,0,1,10.52-4l40.49,15.43a6.5,6.5,0,0,1,3.56,9.27l-22.06,43a8.44,8.44,0,0,1-10.45,3.9l-40.21-16.17a6.65,6.65,0,0,1-3.51-9.4Zm119.66,47.09a8.27,8.27,0,0,1,10.27-4.07L462,1088.16a6.84,6.84,0,0,1,3.75,9.45l-20.83,44a8.23,8.23,0,0,1-10.26,4.09l-57.87-22.43a6.79,6.79,0,0,1-3.74-9.43ZM470,1100.51a8.35,8.35,0,0,1,10.35-4l295.94,115.9a7,7,0,0,1,3.88,9.53l-21.07,46.56a7.88,7.88,0,0,1-10.07,4l-296-120.6a6.85,6.85,0,0,1-3.62-9.51ZM334,1046a8.48,8.48,0,0,1,10.38-4.13l41.2,15.46a6.58,6.58,0,0,1,3.66,9.29l-21.94,44.23a8.36,8.36,0,0,1-10.37,4l-40.52-16a6.77,6.77,0,0,1-3.66-9.44Zm451.91,178.77a8.13,8.13,0,0,1,10.16-4.15l61.31,23.59a7.23,7.23,0,0,1,4.1,9.59l-19.78,47.29a7.61,7.61,0,0,1-9.86,4.11l-62.91-25.41a7.08,7.08,0,0,1-3.82-9.61l20.79-45.42Zm81.57,31.71a8.15,8.15,0,0,1,10.18-4.14L923.31,1270a7,7,0,0,1,3.89,9.5l-21.2,47a7.91,7.91,0,0,1-10.06,4L850,1312a7,7,0,0,1-3.79-9.58Zm65,26.38a8.14,8.14,0,0,1,10.15-4.19l46.74,17.74a7.06,7.06,0,0,1,4,9.5l-20.77,47.8a7.71,7.71,0,0,1-9.94,4l-47.22-19.28a7.13,7.13,0,0,1-3.83-9.64Zm67.47,26.44a8.14,8.14,0,0,1,10.15-4.19l46.74,17.74a7.06,7.06,0,0,1,4,9.5l-20.77,47.8a7.71,7.71,0,0,1-9.94,4l-47.22-19.28a7.13,7.13,0,0,1-3.83-9.64ZM221.41,857.22a8.93,8.93,0,0,1,10.68-4L313.91,884a6.4,6.4,0,0,1,3.51,9.21l-21.48,40.93a8.74,8.74,0,0,1-10.57,4l-82.31-31.42a6.34,6.34,0,0,1-3.41-9.19Zm101.45,38.93a8.81,8.81,0,0,1,10.61-4L372.92,907a6.4,6.4,0,0,1,3.5,9.21l-21.47,40.92A8.55,8.55,0,0,1,344.42,961L305.21,945.3a6.55,6.55,0,0,1-3.44-9.35Zm119,44.42a8.31,8.31,0,0,1,10.32-4l41.34,16.29a6.58,6.58,0,0,1,3.51,9.35L475.47,1004a8.64,8.64,0,0,1-10.5,4l-40.31-15.46a6.69,6.69,0,0,1-3.68-9.37Zm60.27,23.8a8.69,8.69,0,0,1,10.49-4.15l41.75,15.3a6.53,6.53,0,0,1,3.7,9.24l-21.57,43.81a8.36,8.36,0,0,1-10.35,4l-41.83-16.34a6.64,6.64,0,0,1-3.58-9.37ZM563.57,987a8.54,8.54,0,0,1,10.44-4l41.75,16a6.73,6.73,0,0,1,3.72,9.38L598.36,1052a8.2,8.2,0,0,1-10.27,4l-42.44-17a6.71,6.71,0,0,1-3.57-9.42ZM382.73,918.69a8.84,8.84,0,0,1,10.64-4L434,930.21a6.46,6.46,0,0,1,3.52,9.24l-21.88,42a8.48,8.48,0,0,1-10.48,3.86l-40.9-16.52a6.51,6.51,0,0,1-3.38-9.34Zm242.09,92a8.29,8.29,0,0,1,10.27-4.11L677.83,1023a6.69,6.69,0,0,1,3.68,9.37l-21.39,43.74a8.28,8.28,0,0,1-10.31,4l-41.88-16.62a6.88,6.88,0,0,1-3.72-9.5ZM687,1034.36a8.42,8.42,0,0,1,10.37-4.09L741.12,1047a6.79,6.79,0,0,1,3.79,9.4l-21,44.5a8.23,8.23,0,0,1-10.25,4.09l-44.48-17.18a6.72,6.72,0,0,1-3.68-9.39Zm125.69,48.36a8.26,8.26,0,0,1,10.21-4.2l45.34,16.92a6.93,6.93,0,0,1,4,9.42L852.14,1150a8.08,8.08,0,0,1-10.1,4.22l-46.2-17.37a6.82,6.82,0,0,1-3.85-9.39Zm65,24.9a8.21,8.21,0,0,1,10.18-4.21L932.28,1120a7.07,7.07,0,0,1,4.06,9.49l-19.23,45a7.83,7.83,0,0,1-10,4.19L861.51,1161a7,7,0,0,1-3.86-9.49ZM942,1132.11a8.22,8.22,0,0,1,10.16-4.31l46.16,16.8a7,7,0,0,1,4.06,9.41l-20.12,46.56a7.76,7.76,0,0,1-10,4.09L926,1186.12a7.15,7.15,0,0,1-3.89-9.62Zm66.78,24.17a7.94,7.94,0,0,1,10-4.19l96.94,37.3a6.94,6.94,0,0,1,3.88,9.48l-21.37,46.91a8.13,8.13,0,0,1-10.16,4.16l-96-36.74a7.07,7.07,0,0,1-4-9.52Zm-258.88-98.17A8,8,0,0,1,760,1054l43.89,17.18a7.07,7.07,0,0,1,3.92,9.56l-19.87,44.63a8.09,8.09,0,0,1-10.1,4.24l-44.59-16.75a6.88,6.88,0,0,1-3.9-9.42l20.55-45.33ZM189.74,916A8.7,8.7,0,0,1,200.32,912l112.55,44a6.39,6.39,0,0,1,3.38,9.24l-22.79,42a8.67,8.67,0,0,1-10.61,3.8l-111.33-45a6.56,6.56,0,0,1-3.42-9.36Zm131.32,50.27a8.64,8.64,0,0,1,10.52-4L372.49,978a6.6,6.6,0,0,1,3.61,9.33l-21.84,43.38a8.32,8.32,0,0,1-10.37,3.9l-41.19-16.68a6.65,6.65,0,0,1-3.48-9.42ZM440.94,1013a8.34,8.34,0,0,1,10.35-4L493,1025.3a6.77,6.77,0,0,1,3.69,9.43l-21.25,43.69a8.12,8.12,0,0,1-10.26,3.9l-41.47-17.1a6.91,6.91,0,0,1-3.62-9.56Zm61.1,24.64a8.55,8.55,0,0,1,10.44-4.06l42.2,16.09a6.57,6.57,0,0,1,3.6,9.29l-21.92,43.46a8.37,8.37,0,0,1-10.4,3.92l-41.75-16.75a6.72,6.72,0,0,1-3.57-9.44ZM564.48,1061a8.43,8.43,0,0,1,10.41-4l41.81,16.48a6.77,6.77,0,0,1,3.66,9.44l-21,43.11a8.26,8.26,0,0,1-10.31,4l-42.44-17a6.71,6.71,0,0,1-3.57-9.42ZM381.31,989.82a8.85,8.85,0,0,1,10.65-4l40.6,15.49a6.61,6.61,0,0,1,3.63,9.33l-22,44.1a8.15,8.15,0,0,1-10.31,3.83l-41.67-17.52a6.64,6.64,0,0,1-3.34-9.46Zm244.13,95.8a8.29,8.29,0,0,1,10.27-4.11l42.72,16.43a6.69,6.69,0,0,1,3.68,9.37l-21.39,43.74a8.28,8.28,0,0,1-10.31,4l-41.88-16.62a6.88,6.88,0,0,1-3.72-9.5Zm62.62,24.31a8.42,8.42,0,0,1,10.37-4.09l43.73,16.71A6.79,6.79,0,0,1,746,1132l-21,44.5a8.23,8.23,0,0,1-10.25,4.09l-44.48-17.18a6.72,6.72,0,0,1-3.68-9.39Zm127,49.86a8.26,8.26,0,0,1,10.21-4.2l45.34,16.92a6.93,6.93,0,0,1,4,9.42l-20.08,45.19a8.08,8.08,0,0,1-10.1,4.22L798.23,1214a6.82,6.82,0,0,1-3.85-9.39ZM879.24,1185a8.16,8.16,0,0,1,10.16-4.23l46.44,17.34a6.94,6.94,0,0,1,4,9.44l-20.45,46a8,8,0,0,1-10.08,4.17l-46.55-17.9a7,7,0,0,1-3.9-9.5Zm66.94,24.89a7.8,7.8,0,0,1,9.9-4.27l130.6,49.85a6.91,6.91,0,0,1,3.88,9.45l-21.37,46.91a8.08,8.08,0,0,1-10.14,4.13l-128.23-49.69a7.27,7.27,0,0,1-4.1-9.62Zm-194.1-75.82a8,8,0,0,1,10.11-4.11l43.89,17.18a7.07,7.07,0,0,1,3.92,9.56l-19.87,44.63a8.09,8.09,0,0,1-10.1,4.24l-44.59-16.75a6.88,6.88,0,0,1-3.9-9.42Z"/></g></svg>