<?xml version="1.0" encoding="utf-8"?>
<!-- Generator: Adobe Illustrator 21.1.0, SVG Export Plug-In . SVG Version: 6.00 Build 0)  -->
<!DOCTYPE svg PUBLIC "-//W3C//DTD SVG 1.1//EN" "http://www.w3.org/Graphics/SVG/1.1/DTD/svg11.dtd">
<svg version="1.1" id="Layer_1" xmlns="http://www.w3.org/2000/svg" xmlns:xlink="http://www.w3.org/1999/xlink" x="0px" y="0px"
	 viewBox="0 0 1544 1684" style="enable-background:new 0 0 1544 1684;" xml:space="preserve">
<style type="text/css">
	.st0{opacity:0.1;}
</style>
<title>Slice 3</title>
<desc>Created with Sketch.</desc>
<g id="Page-1" class="st0">
	<g id="KP" transform="translate(-458.000000, -312.000000)">
		
			<g id="Group" transform="translate(1183.447554, 1174.780021) rotate(-18.000000) translate(-1183.447554, -1174.780021) translate(240.947554, 245.780021)">
			<g id="Device">
				<path id="shadow" d="M659.5,622.5c-15.2-5.8-33.8-2.9-45.8,8.3c0,0-470.9,439.4-471.5,440c-0.6,0.6-3.9,4.5-3.9,4.5
					c-16.8,19.1-14.9,48.2,4.2,65l697,614.2c19.1,16.8,48.1,15,64.9-4.1l466.3-528.5c10.6-12.1,11.3-28.8,2.9-41.2l5.2,4
					c9.2,7.1,23.8,6.7,32.6-0.8l411.7-352.3c30.2-25.9,30.3-67.9,0.2-93.8L1055.2,75.5c-15.1-13-36.1-10.1-47.1,6.6L662.8,606.6
					C659.7,611.4,658.7,617.1,659.5,622.5z"/>
			</g>
		</g>
	</g>
</g>
</svg>
