<svg xmlns="http://www.w3.org/2000/svg" xmlns:xlink="http://www.w3.org/1999/xlink" viewBox="0 0 1444.27 1671.66"><defs><style>.cls-1{fill:url(#linear-gradient);}.cls-2{fill:url(#linear-gradient-2);}.cls-3{fill:#1fb4e7;}.cls-4{fill:#0c5a81;}.cls-5,.cls-6{fill:#2db5e5;stroke:#239bca;}.cls-5{stroke-width:2px;}</style><linearGradient id="linear-gradient" x1="415.83" y1="1232.39" x2="416.41" y2="1231.44" gradientTransform="matrix(1055.75, 110.96, 92.24, -877.6, -552025.26, 1035468.29)" gradientUnits="userSpaceOnUse"><stop offset="0" stop-color="#0aa0d3"/><stop offset="1" stop-color="#057399"/></linearGradient><linearGradient id="linear-gradient-2" x1="1343.97" y1="1237.34" x2="1343.97" y2="1236.34" gradientTransform="matrix(1056.45, 111.04, 92.34, -878.6, -1533164.55, 937920.94)" gradientUnits="userSpaceOnUse"><stop offset="0" stop-color="#31bded"/><stop offset="1" stop-color="#1fb4e7"/></linearGradient></defs><title>Asset 2</title><g id="Layer_2" data-name="Layer 2"><g id="Layer_1-2" data-name="Layer 1"><g id="Layer_2-2" data-name="Layer 2"><g id="laptop"><g id="Body"><path id="bevel" class="cls-1" d="M517.73,25.76A35.82,35.82,0,0,1,562.37,1.51L1416,256.23a39.41,39.41,0,0,1,26.43,49.62l-197.67,633.9a24.67,24.67,0,0,1-32.2,16L357,647.45a22.59,22.59,0,0,1-13.84-27.27Z"/><path id="top" class="cls-2" d="M513,21.54A29.85,29.85,0,0,1,550,1.28h.16l863.25,257.58a35.47,35.47,0,0,1,24,44l0,.1-.18.58L1238.38,941.29a24.67,24.67,0,0,1-30.74,16.49h0q-.73-.22-1.45-.49L350.59,649a22.59,22.59,0,0,1-13.84-27.27Z"/><path id="top-2" data-name="top" class="cls-2" d="M513,21.54A29.85,29.85,0,0,1,550,1.28h.16l863.25,257.58a35.47,35.47,0,0,1,24,44l0,.1-.18.58L1238.38,941.29a24.67,24.67,0,0,1-30.74,16.49h0q-.73-.22-1.45-.49L350.59,649a22.59,22.59,0,0,1-13.84-27.27Z"/><path id="bottom" class="cls-3" d="M417.11,673.51,355,650.92c-19.2-7-42.46,2-51.93,20.14l-298,569.45c-11.78,22.51-2.42,48.93,20.9,59l852,368.36a45.78,45.78,0,0,0,60.22-23.77l.1-.23,274.78-642.58a33.67,33.67,0,0,0-17.16-44.42h0q-1.24-.55-2.52-1l-76-27.64-1.39,3.94a4,4,0,0,1-5.09,2.41L416.2,683.22a3.28,3.28,0,0,1-1.81-4.85Z"/></g><g id="Keyboard"><path id="trackpadShadow" class="cls-4" d="M373.92,1142.6,258.11,1376.72a6.6,6.6,0,0,0,2.89,8.87l.47.22L624,1540.36a7.22,7.22,0,0,0,9.33-3.59l113.06-244.83a6.63,6.63,0,0,0-3.17-8.82l-.41-.18L383.4,1139A7.59,7.59,0,0,0,373.92,1142.6Z"/><path id="trackpad" class="cls-5" d="M371.72,1141.59,255.91,1375.71a6.6,6.6,0,0,0,2.89,8.87l.47.22L621.8,1539.35a7.22,7.22,0,0,0,9.33-3.59l113.06-244.85a6.63,6.63,0,0,0-3.17-8.82l-.41-.18L381.2,1138A7.59,7.59,0,0,0,371.72,1141.59Z"/><g id="keysShadow"><path class="cls-4" d="M802.23,1067.41a7.51,7.51,0,0,1,3,3.52,7.59,7.59,0,0,1-.12,6l-19.87,44.63a8.63,8.63,0,0,1-7.84,5,8.21,8.21,0,0,1-2.89-.52l-44.65-16.7-.2-.09a7.86,7.86,0,0,0,1.46.73l44.59,16.75a8.59,8.59,0,0,0,10.74-4.5l19.87-44.63a7.56,7.56,0,0,0-3.71-10Z"/><path class="cls-4" d="M676.27,1019.27a7.14,7.14,0,0,1,2.84,3.43,7.28,7.28,0,0,1-.3,5.92l-21.39,43.74a8.81,8.81,0,0,1-7.87,4.82,8.32,8.32,0,0,1-3.08-.58L604.61,1060a7.9,7.9,0,0,0,1.26.64l41.88,16.62a8.78,8.78,0,0,0,10.94-4.23l21.39-43.74a7.18,7.18,0,0,0-3.81-10Z"/><path class="cls-4" d="M739.58,1043.23a7.25,7.25,0,0,1,2.87,3.43,7.36,7.36,0,0,1-.23,5.94l-21,44.5a8.76,8.76,0,0,1-7.88,4.9,8.32,8.32,0,0,1-3-.55l-44.48-17.18h-.1a7.83,7.83,0,0,0,1.36.69l44.48,17.18a8.73,8.73,0,0,0,10.88-4.35l21-44.5a7.28,7.28,0,0,0-3.24-9.77Q739.92,1043.36,739.58,1043.23Z"/><path class="cls-4" d="M915.69,1171.37l19.23-45a7.56,7.56,0,0,0-3.84-10l0,0-.24-.1a7.51,7.51,0,0,1,2.9,3.4,7.59,7.59,0,0,1,0,6l-19.23,45a8.35,8.35,0,0,1-7.66,5,8.11,8.11,0,0,1-2.94-.55l-45.65-17.69h-.1a7.9,7.9,0,0,0,1.36.68l45.65,17.69A8.33,8.33,0,0,0,915.69,1171.37Z"/><path class="cls-4" d="M912,1033.9a7.38,7.38,0,0,1,2.87,3.38,7.48,7.48,0,0,1-.09,6l-20,45.14a8.67,8.67,0,0,1-7.89,5.05A8.23,8.23,0,0,1,884,1093l-45-16.57-.24-.1a7.84,7.84,0,0,0,1.5.75l45,16.57A8.64,8.64,0,0,0,896,1089l20-45.14a7.43,7.43,0,0,0-3.71-9.83Z"/><path class="cls-4" d="M976.13,1058.46a7.5,7.5,0,0,1,2.9,3.4,7.59,7.59,0,0,1,0,6l-19.23,45a8.35,8.35,0,0,1-7.66,5,8.1,8.1,0,0,1-2.94-.55l-45.65-17.69h-.1a7.9,7.9,0,0,0,1.36.69l45.63,17.7a8.33,8.33,0,0,0,10.6-4.46l19.23-45a7.56,7.56,0,0,0-3.82-10l0,0Z"/><path class="cls-4" d="M658.53,938.92a7.36,7.36,0,0,1,2.93,3.5,7.47,7.47,0,0,1-.2,6l-19.87,42.79a8.55,8.55,0,0,1-7.73,4.86,8.21,8.21,0,0,1-3.07-.59l-41.25-16.6a7.88,7.88,0,0,0,1.22.63l41.3,16.61a8.52,8.52,0,0,0,10.8-4.27L662.53,949a7.41,7.41,0,0,0-3.5-9.88h0Z"/><path class="cls-4" d="M846.68,1010.31a7.61,7.61,0,0,1,2.88,9.53l-19.06,43.87a8.54,8.54,0,0,1-7.8,5.05,8.15,8.15,0,0,1-2.88-.52l-44.59-16.75-.2-.09a7.82,7.82,0,0,0,1.46.73l44.59,16.75a8.5,8.5,0,0,0,10.67-4.53l19.11-43.87a7.61,7.61,0,0,0-3.87-10Z"/><path class="cls-4" d="M597.57,915.83a7.19,7.19,0,0,1,2.92,3.51,7.33,7.33,0,0,1-.31,5.94l-20.85,42.45a8.89,8.89,0,0,1-7.94,4.84,8.36,8.36,0,0,1-3-.57L527.5,956h-.07a7.87,7.87,0,0,0,1.33.67l40.89,16a8.87,8.87,0,0,0,11-4.27l20.85-42.45a7.25,7.25,0,0,0-3.93-10.12Z"/><path class="cls-4" d="M783.86,986.13h-.06a7.58,7.58,0,0,1,2.9,9.67L767,1038.89a8.81,8.81,0,0,1-8,5,8.34,8.34,0,0,1-2.86-.5l-43.6-16-.25-.11a7.82,7.82,0,0,0,1.51.75l43.6,16a8.78,8.78,0,0,0,10.83-4.52l19.66-43.09a7.61,7.61,0,0,0-3.67-10.12h0Z"/><path class="cls-4" d="M721.27,963.13a7.16,7.16,0,0,1,2.84,3.42,7.32,7.32,0,0,1-.28,5.94l-20.78,43a8.77,8.77,0,0,1-7.85,4.84,8.3,8.3,0,0,1-3.06-.58l-41.87-16.62a7.87,7.87,0,0,0,1.25.64l41.88,16.62a8.74,8.74,0,0,0,10.92-4.26l20.78-43a7.22,7.22,0,0,0-3.17-9.71h0Q721.61,963.26,721.27,963.13Z"/><path class="cls-4" d="M536.66,892.95h0a7.24,7.24,0,0,1,3,3.57,7.34,7.34,0,0,1-.33,5.93l-20.67,41.8a9,9,0,0,1-8,4.85,8.4,8.4,0,0,1-3-.55l-40.31-15.46-.14-.06a7.84,7.84,0,0,0,1.4.7l40.25,15.47a9,9,0,0,0,11-4.3l20.67-41.8a7.28,7.28,0,0,0-3.87-10.15Z"/><path class="cls-4" d="M614.21,995.14a7.17,7.17,0,0,1,2.85,3.42,7.31,7.31,0,0,1-.27,5.93l-21.11,43.74a8.73,8.73,0,0,1-7.82,4.82,8.32,8.32,0,0,1-3.08-.59l-42.42-16.95a7.85,7.85,0,0,0,1.24.63l42.44,17a8.7,8.7,0,0,0,10.91-4.23L618,1005.17a7.22,7.22,0,0,0-3.85-10Z"/><path class="cls-4" d="M648.36,1152.16a8.78,8.78,0,0,0,10.94-4.23l21.39-43.74a7.18,7.18,0,0,0-3.8-10,7.14,7.14,0,0,1,2.84,3.43,7.28,7.28,0,0,1-.3,5.92L658,1147.28a8.81,8.81,0,0,1-7.87,4.82,8.32,8.32,0,0,1-3.08-.58l-41.85-16.62a7.89,7.89,0,0,0,1.26.64Z"/><path class="cls-4" d="M523.86,1103.49a8.87,8.87,0,0,0,11-4.16l22-43.45a7.06,7.06,0,0,0-3.71-9.91,7,7,0,0,1,2.8,3.39,7.17,7.17,0,0,1-.35,5.88l-21.92,43.46a8.9,8.9,0,0,1-7.9,4.75,8.39,8.39,0,0,1-3.13-.6l-41.72-16.73a7.88,7.88,0,0,0,1.23.63Z"/><path class="cls-4" d="M586.93,1127.14a8.76,8.76,0,0,0,10.93-4.23l21-43.11a7.27,7.27,0,0,0-3.88-10.11,7.21,7.21,0,0,1,2.93,3.51,7.36,7.36,0,0,1-.31,6l-21,43.11a8.79,8.79,0,0,1-7.86,4.81,8.32,8.32,0,0,1-3.09-.59l-42.41-16.95a7.85,7.85,0,0,0,1.24.63Z"/><path class="cls-4" d="M712.63,1177.66a8.73,8.73,0,0,0,10.88-4.35l21-44.5a7.28,7.28,0,0,0-3.31-9.75h0a5.62,5.62,0,0,0-.58-.25,7.24,7.24,0,0,1,2.87,3.43,7.36,7.36,0,0,1-.23,5.95l-21,44.5a8.76,8.76,0,0,1-7.88,4.9,8.32,8.32,0,0,1-3-.55l-44.51-17.19h-.11a7.85,7.85,0,0,0,1.37.69Z"/><path class="cls-4" d="M934.34,1194.4a7.39,7.39,0,0,1,2.88,3.39,7.47,7.47,0,0,1-.1,6l-20.45,46a8.54,8.54,0,0,1-7.77,5,8.18,8.18,0,0,1-2.94-.54l-46.55-17.9-.13-.06a7.9,7.9,0,0,0,1.39.7l46.55,17.9a8.51,8.51,0,0,0,10.71-4.44l20.45-46a7.43,7.43,0,0,0-3.61-9.87h0Z"/><path class="cls-4" d="M980.79,1197.43l20.12-46.56a7.44,7.44,0,0,0-3.71-9.85h0l-.37-.15a7.4,7.4,0,0,1,2.86,3.33,7.49,7.49,0,0,1,0,6l-20.12,46.56a8.27,8.27,0,0,1-7.58,4.94,8.09,8.09,0,0,1-3-.58l-46.2-18.54a7.93,7.93,0,0,0,1.23.63l46.23,18.56A8.26,8.26,0,0,0,980.79,1197.43Z"/><path class="cls-4" d="M1041.51,1083.26a7.18,7.18,0,0,1,2.79,3.26,7.34,7.34,0,0,1-.12,6l-20.32,45.11a8.72,8.72,0,0,1-7.9,5,8.25,8.25,0,0,1-2.88-.51l-44.63-16.63-.21-.09a7.85,7.85,0,0,0,1.48.73l44.63,16.63a8.67,8.67,0,0,0,10.78-4.51l20.37-45.15a7.24,7.24,0,0,0-3.48-9.63h0Z"/><path class="cls-4" d="M281.37,853.28a9.26,9.26,0,0,1-8.18,4.87,8.53,8.53,0,0,1-3-.52L231,843.09l-.23-.1a7.77,7.77,0,0,0,1.49.74l39.27,14.54a9.22,9.22,0,0,0,11.14-4.35L303,814.09a6.86,6.86,0,0,0-3.61-9.72,6.8,6.8,0,0,1,2.72,3.25,7,7,0,0,1-.37,5.83Z"/><path class="cls-4" d="M293.24,930.37a9.29,9.29,0,0,1-8.15,4.79,8.51,8.51,0,0,1-3-.55l-82.31-31.42-.15-.07a7.77,7.77,0,0,0,1.41.71l82.31,31.42A9.24,9.24,0,0,0,294.5,931L316,890.08a6.88,6.88,0,0,0-3.58-9.83,6.84,6.84,0,0,1,2.76,3.34,7,7,0,0,1-.44,5.84Z"/><path class="cls-4" d="M384.08,1053.6a7,7,0,0,1,2.78,3.41,7.19,7.19,0,0,1-.32,5.89l-21.94,44.23a8.89,8.89,0,0,1-7.92,4.81,8.38,8.38,0,0,1-3.08-.58l-40.52-16h0a7.89,7.89,0,0,0,1.28.65l40.52,16a8.86,8.86,0,0,0,11-4.23l22-44.29a7.07,7.07,0,0,0-3.78-9.89Z"/><path class="cls-4" d="M831.42,895.11a5.49,5.49,0,0,1-.1,4.46l-7,15.31a6.5,6.5,0,0,1-5.89,3.74,6.15,6.15,0,0,1-2.2-.4L770.86,900.9a5.86,5.86,0,0,0,1.17.61l45.47,17.35a6.47,6.47,0,0,0,8.09-3.33l7-15.31a5.42,5.42,0,0,0-3.17-7.48h0A5.35,5.35,0,0,1,831.42,895.11Z"/><path class="cls-4" d="M894.78,919a5.52,5.52,0,0,1-.17,4.46l-6.75,14.43a6.64,6.64,0,0,1-6,3.71,6.26,6.26,0,0,1-2.19-.39l-47-17.59a5.82,5.82,0,0,0,1.2.62l47,17.61a6.63,6.63,0,0,0,8.17-3.32l6.83-14.43a5.47,5.47,0,0,0-3-7.56h-.11A5.43,5.43,0,0,1,894.78,919Z"/><path class="cls-4" d="M769,872.31a5.61,5.61,0,0,1-.08,4.5L762.58,891a6.55,6.55,0,0,1-6,3.79,6.21,6.21,0,0,1-2.14-.38l-45.9-16.82a5.87,5.87,0,0,0,1.24.63l46,16.78a6.52,6.52,0,0,0,8.11-3.4l6.32-14.16a5.57,5.57,0,0,0-2.72-7.39l-.45-.19h-.08A5.51,5.51,0,0,1,769,872.31Z"/><path class="cls-4" d="M1022.46,966a5.68,5.68,0,0,1,0,4.51l-6.5,15.65a6.14,6.14,0,0,1-5.66,3.76,6,6,0,0,1-2.22-.42L960.4,970.65a6,6,0,0,0,1.11.58l47.82,18.91a6.12,6.12,0,0,0,7.88-3.33l6.5-15.65a5.68,5.68,0,0,0-3-7.45l-.34-.13h0A5.63,5.63,0,0,1,1022.46,966Z"/><path class="cls-4" d="M957.8,943a5.58,5.58,0,0,1-.15,4.48l-6.72,14.46a6.42,6.42,0,0,1-5.8,3.65,6.15,6.15,0,0,1-2.29-.44L897,946.81a5.94,5.94,0,0,0,1.09.58l46,18.4a6.41,6.41,0,0,0,8.1-3.21l6.72-14.47a5.55,5.55,0,0,0-2.59-7.41h0l-.47-.2h-.14A5.51,5.51,0,0,1,957.8,943Z"/><path class="cls-4" d="M467.24,762.13a5.34,5.34,0,0,1-.26,4.41l-7.12,14.13a6.83,6.83,0,0,1-6,3.64,6.35,6.35,0,0,1-2.26-.41L409,767.68a5.86,5.86,0,0,0,1.17.61l42.65,16.25a6.79,6.79,0,0,0,8.31-3.23l7.11-14.14a5.23,5.23,0,0,0-2.93-7.43h-.07A5.16,5.16,0,0,1,467.24,762.13Z"/><path class="cls-4" d="M525.68,782.74a5.44,5.44,0,0,1-.14,4.44l-6.68,14.47a6.61,6.61,0,0,1-6,3.72,6.26,6.26,0,0,1-2.2-.39l-43.45-16.27a5.84,5.84,0,0,0,1.2.62l43.5,16.29a6.59,6.59,0,0,0,8.16-3.33l6.73-14.47a5.36,5.36,0,0,0-3.11-7.45h0A5.29,5.29,0,0,1,525.68,782.74Z"/><path class="cls-4" d="M585.77,804.57a5.45,5.45,0,0,1-.18,4.43l-7,14.68a6.54,6.54,0,0,1-5.87,3.63,6.22,6.22,0,0,1-2.29-.43l-43.85-17.35a5.89,5.89,0,0,0,1.11.58l44,17.41a6.52,6.52,0,0,0,8.17-3.2l7-14.68a5.39,5.39,0,0,0-3-7.51h-.08A5.33,5.33,0,0,1,585.77,804.57Z"/><path class="cls-4" d="M646.65,826.84a5.45,5.45,0,0,1-.18,4.43l-7,14.68a6.54,6.54,0,0,1-5.87,3.63,6.23,6.23,0,0,1-2.29-.43l-43.88-17.34a5.89,5.89,0,0,0,1.11.58l44,17.41a6.52,6.52,0,0,0,8.17-3.2l7-14.68a5.39,5.39,0,0,0-3-7.51h-.08A5.33,5.33,0,0,1,646.65,826.84Z"/><path class="cls-4" d="M706.56,849.44a5.45,5.45,0,0,1-.18,4.43l-7,14.68a6.54,6.54,0,0,1-5.87,3.63,6.23,6.23,0,0,1-2.29-.43L647.37,854.4a5.89,5.89,0,0,0,1.11.58l44,17.41a6.52,6.52,0,0,0,8.17-3.2l7-14.68a5.39,5.39,0,0,0-3-7.51h-.08A5.34,5.34,0,0,1,706.56,849.44Z"/><path class="cls-4" d="M788.7,1198.2l19.87-44.63a7.56,7.56,0,0,0-3.72-10l-.39-.17a7.51,7.51,0,0,1,3,3.52,7.6,7.6,0,0,1-.12,6l-19.87,44.63a8.63,8.63,0,0,1-7.84,5,8.21,8.21,0,0,1-2.89-.52l-44.59-16.75-.2-.09a7.86,7.86,0,0,0,1.46.73L778,1202.65A8.59,8.59,0,0,0,788.7,1198.2Z"/><path class="cls-4" d="M474,1075.3l21.25-43.69a7.26,7.26,0,0,0-3.87-10.07,7.22,7.22,0,0,1,2.9,3.49,7.33,7.33,0,0,1-.28,6l-21.25,43.7a8.64,8.64,0,0,1-7.74,4.76,8.26,8.26,0,0,1-3.16-.62l-41.35-17.05a7.89,7.89,0,0,0,1.15.6l41.47,17.1A8.62,8.62,0,0,0,474,1075.3Z"/><path class="cls-4" d="M1102.36,1030.95a7.65,7.65,0,0,1,3,9.4l-17.88,44.23a8.46,8.46,0,0,1-7.82,5.21,8.16,8.16,0,0,1-2.73-.47l-47.69-16.92-.32-.13a7.8,7.8,0,0,0,1.58.77l47.69,16.92a8.43,8.43,0,0,0,10.54-4.75l17.88-44.23a7.66,7.66,0,0,0-4.17-10h0Z"/><path class="cls-4" d="M1086.93,990.52a5.64,5.64,0,0,1-.07,4.49l-6.19,13.89a6.44,6.44,0,0,1-5.86,3.75,6.14,6.14,0,0,1-2.2-.4l-48.91-18.63a5.85,5.85,0,0,0,1.17.61l49,18.67a6.42,6.42,0,0,0,8.06-3.35l6.19-13.89a5.6,5.6,0,0,0-2.74-7.43L1085,988h-.1A5.55,5.55,0,0,1,1086.93,990.52Z"/><path class="cls-4" d="M460.39,1084.39a7.28,7.28,0,0,1,2.9,3.48,7.41,7.41,0,0,1-.24,6l-20.83,44a8.76,8.76,0,0,1-7.88,4.9,8.3,8.3,0,0,1-3-.56l-57.87-22.43h-.1a7.9,7.9,0,0,0,1.36.69l57.87,22.43a8.73,8.73,0,0,0,10.89-4.34l20.83-44a7.34,7.34,0,0,0-3.93-10.17Z"/><path class="cls-4" d="M1055.27,1319.11a7.5,7.5,0,0,1,2.91,3.43,7.58,7.58,0,0,1-.06,6l-20.77,47.8a8.23,8.23,0,0,1-7.54,4.91,8,8,0,0,1-3.05-.6l-47.13-19.24a8,8,0,0,0,1.17.61L1028,1381.3a8.21,8.21,0,0,0,10.59-4.31l20.77-47.8a7.55,7.55,0,0,0-3.8-10l0,0Z"/><path class="cls-4" d="M987.8,1292.67a7.5,7.5,0,0,1,2.91,3.43,7.58,7.58,0,0,1-.06,6l-20.79,47.82a8.23,8.23,0,0,1-7.54,4.91,8.07,8.07,0,0,1-3-.6L912.15,1335a8,8,0,0,0,1.18.61l47.22,19.28a8.21,8.21,0,0,0,10.59-4.31l20.77-47.8a7.55,7.55,0,0,0-3.77-10h0Z"/><path class="cls-4" d="M1085.15,1251.74a7.35,7.35,0,0,1,2.88,3.43,7.46,7.46,0,0,1-.16,6l-21.37,46.91a8.6,8.6,0,0,1-7.79,4.94,8.21,8.21,0,0,1-3-.55l-128.23-49.69h-.1a8,8,0,0,0,1.36.69L1057,1313.16a8.58,8.58,0,0,0,10.77-4.39l21.37-46.91a7.4,7.4,0,0,0-3.43-9.89h0Z"/><path class="cls-4" d="M1114.16,1185.64a7.4,7.4,0,0,1,2.9,3.46,7.48,7.48,0,0,1-.16,6l-21.36,46.9a8.65,8.65,0,0,1-7.83,5,8.25,8.25,0,0,1-3-.54l-96-36.74-.16-.07a7.94,7.94,0,0,0,1.42.71l96,36.74a8.63,8.63,0,0,0,10.79-4.42l21.37-46.91a7.43,7.43,0,0,0-3.47-9.92h0Z"/><path class="cls-4" d="M1184.63,1025.08h-.07a5.41,5.41,0,0,1,2.05,2.46,5.5,5.5,0,0,1-.13,4.45l-6.77,14.62a6.61,6.61,0,0,1-6,3.74,6.22,6.22,0,0,1-2.18-.39l-81.93-30.46a5.88,5.88,0,0,0,1.21.62l82,30.48a6.59,6.59,0,0,0,8.14-3.35l6.77-14.62a5.46,5.46,0,0,0-3.09-7.55Z"/><path class="cls-4" d="M1169.4,1055.42a7.59,7.59,0,0,1,2.93,9.39l-18.68,45.2a8.37,8.37,0,0,1-7.71,5.11,8.12,8.12,0,0,1-2.84-.51L1095,1096.66l-.21-.09a7.88,7.88,0,0,0,1.47.73l48.06,17.95a8.35,8.35,0,0,0,10.56-4.6l18.68-45.16a7.6,7.6,0,0,0-4-10h0Z"/><path class="cls-4" d="M1142,1120.89a7.64,7.64,0,0,1,3,9.45l-18.75,45.3a8.34,8.34,0,0,1-7.69,5.1,8.09,8.09,0,0,1-2.86-.52l-81.7-30.78-.19-.08a7.88,7.88,0,0,0,1.45.73l81.66,30.78a8.32,8.32,0,0,0,10.54-4.58l18.75-45.3a7.65,7.65,0,0,0-4.07-10Z"/><path class="cls-4" d="M250,1036.6a6.91,6.91,0,0,1,2.78,3.37,7.12,7.12,0,0,1-.41,5.87l-6.85,13.27a9.15,9.15,0,0,1-8.07,4.79,8.47,8.47,0,0,1-3.07-.57l-40.63-15.75h-.09a7.83,7.83,0,0,0,1.35.68L235.62,1064a9.11,9.11,0,0,0,11.14-4.23l6.85-13.27a7,7,0,0,0-3.64-9.91Z"/><path class="cls-4" d="M324,1030.42a7,7,0,0,1,2.79,3.39,7.13,7.13,0,0,1-.4,5.87l-22.06,43a9,9,0,0,1-7.93,4.73,8.41,8.41,0,0,1-3.15-.6L253,1070.66a7.85,7.85,0,0,0,1.22.63l40.21,16.17a8.94,8.94,0,0,0,11.08-4.13l22.06-43a7,7,0,0,0-3.65-9.91Z"/><path class="cls-4" d="M408.09,740a5.62,5.62,0,0,1-.15,4.5l-6.79,14.64a6.54,6.54,0,0,1-5.9,3.71,6.2,6.2,0,0,1-2.22-.41L350.69,746.2a5.85,5.85,0,0,0,1.16.6l42.43,16.27a6.52,6.52,0,0,0,8.13-3.3l6.79-14.64a5.58,5.58,0,0,0-2.6-7.45l-.45-.19-.16-.06A5.53,5.53,0,0,1,408.09,740Z"/><path class="cls-4" d="M205.77,984a6.9,6.9,0,0,1,2.79,3.39,7.1,7.1,0,0,1-.43,5.86l-22.27,42.59a8.88,8.88,0,0,1-7.83,4.64,8.36,8.36,0,0,1-3.25-.65l-39.09-16.44a7.87,7.87,0,0,0,1.08.57L176,1040.49a8.84,8.84,0,0,0,11.07-4l22.26-42.61a7,7,0,0,0-3.6-9.87Z"/><path class="cls-4" d="M350.75,719.28a5.32,5.32,0,0,1-.3,4.4l-7.54,14.65a6.82,6.82,0,0,1-6,3.58,6.33,6.33,0,0,1-2.32-.43l-42-16.47a5.84,5.84,0,0,0,1.12.59l42.1,16.52a6.78,6.78,0,0,0,8.33-3.15l7.54-14.65a5.21,5.21,0,0,0-2.87-7.45h-.09A5.15,5.15,0,0,1,350.75,719.28Z"/><path class="cls-4" d="M921.74,1266.21a7.42,7.42,0,0,1,2.91,3.47,7.52,7.52,0,0,1-.14,6l-21.2,47a8.43,8.43,0,0,1-7.66,4.9,8.13,8.13,0,0,1-3-.59l-45.86-18.46a7.91,7.91,0,0,0,1.21.62l45.9,18.48a8.41,8.41,0,0,0,10.71-4.31l21.2-47a7.48,7.48,0,0,0-3.65-9.93h0Z"/><path class="cls-4" d="M412.76,1051.64l22-44.1A7.1,7.1,0,0,0,431,997.6a7,7,0,0,1,2.84,3.41,7.22,7.22,0,0,1-.34,5.9l-22,44.1a8.68,8.68,0,0,1-7.74,4.71,8.27,8.27,0,0,1-3.21-.64l-41.5-17.45a7.87,7.87,0,0,0,1.08.57l41.67,17.52A8.65,8.65,0,0,0,412.76,1051.64Z"/><path class="cls-4" d="M855.86,1240.46a7.72,7.72,0,0,1,3,9.54l-19.78,47.29a8.13,8.13,0,0,1-7.5,5,8,8,0,0,1-3-.59l-62.85-25.39a7.93,7.93,0,0,0,1.2.62l62.91,25.41a8.11,8.11,0,0,0,10.5-4.38l19.78-47.29a7.72,7.72,0,0,0-4.07-10.13Z"/><path class="cls-4" d="M774.67,1208.62a7.49,7.49,0,0,1,2.81,9.52l-21.07,46.56a8.39,8.39,0,0,1-7.63,4.86,8.14,8.14,0,0,1-3.08-.6L449.76,1148.39a7.9,7.9,0,0,0,1.18.61l296,120.6a8.38,8.38,0,0,0,10.71-4.26l21.07-46.56a7.51,7.51,0,0,0-3.61-10h0Z"/><path class="cls-4" d="M869.16,1168.79a7.37,7.37,0,0,1,2.87,3.38,7.47,7.47,0,0,1-.1,6l-20.07,45.17a8.61,8.61,0,0,1-7.83,5,8.23,8.23,0,0,1-2.9-.52l-46.2-17.37-.2-.09a7.86,7.86,0,0,0,1.46.73l46.2,17.37a8.58,8.58,0,0,0,10.73-4.46l20.08-45.19a7.42,7.42,0,0,0-3.67-9.83Z"/><path class="cls-4" d="M414.17,978.34l21.88-42a7,7,0,0,0-3.62-9.87,6.91,6.91,0,0,1,2.78,3.39,7.07,7.07,0,0,1-.42,5.84l-21.88,42a9,9,0,0,1-7.94,4.7,8.45,8.45,0,0,1-3.17-.61L361,965.29a7.82,7.82,0,0,0,1.2.62L403,982.43A9,9,0,0,0,414.17,978.34Z"/><path class="cls-4" d="M474,1000.89l21.54-41.82a7.08,7.08,0,0,0-3.7-10.07,7,7,0,0,1,2.89,3.49,7.2,7.2,0,0,1-.41,5.89L472.8,1000.2a9.17,9.17,0,0,1-8.08,4.8,8.47,8.47,0,0,1-3-.55L421.33,989l-.14-.06a7.84,7.84,0,0,0,1.4.7l40.27,15.49A9.13,9.13,0,0,0,474,1000.89Z"/><path class="cls-4" d="M535,1025.43l21.57-43.81a7,7,0,0,0-3.73-9.82,7,7,0,0,1,2.76,3.3,7.15,7.15,0,0,1-.3,5.88l-21.57,43.81a8.9,8.9,0,0,1-7.93,4.83,8.36,8.36,0,0,1-3-.57L481,1012.71H481a7.83,7.83,0,0,0,1.32.67l41.83,16.34A8.86,8.86,0,0,0,535,1025.43Z"/><path class="cls-4" d="M477.44,870.84a6.9,6.9,0,0,1,2.78,3.39,7.07,7.07,0,0,1-.42,5.84l-21.88,42a9,9,0,0,1-7.94,4.7,8.44,8.44,0,0,1-3.17-.61L406,909.67a7.82,7.82,0,0,0,1.2.62l40.9,16.52a9,9,0,0,0,11.11-4.09l21.88-42a7,7,0,0,0-3.62-9.88Z"/><path class="cls-4" d="M850.72,1146.9l20.08-45.19a7.42,7.42,0,0,0-3.64-9.84l-.36-.16a7.37,7.37,0,0,1,2.87,3.38,7.47,7.47,0,0,1-.1,6l-20.08,45.19a8.61,8.61,0,0,1-7.83,5,8.23,8.23,0,0,1-2.9-.52l-46.2-17.37-.2-.09a7.86,7.86,0,0,0,1.46.73L840,1151.4A8.58,8.58,0,0,0,850.72,1146.9Z"/><path class="cls-4" d="M358.69,826.36a6.61,6.61,0,0,1,2.66,3.2,6.86,6.86,0,0,1-.46,5.78L339.61,875.1a9.49,9.49,0,0,1-8.28,4.81,8.64,8.64,0,0,1-3-.53L289,864.84l-.23-.1a7.78,7.78,0,0,0,1.49.74L329.59,880a9.44,9.44,0,0,0,11.27-4.27L362.15,836a6.67,6.67,0,0,0-3.46-9.65Z"/><path class="cls-4" d="M417.68,848.28a6.83,6.83,0,0,1,2.75,3.34,7,7,0,0,1-.44,5.85l-21.47,40.92a9.09,9.09,0,0,1-8,4.71,8.47,8.47,0,0,1-3.16-.6l-39.18-15.71a7.83,7.83,0,0,0,1.23.63l39.21,15.72A9.05,9.05,0,0,0,399.78,899l21.47-40.92a6.88,6.88,0,0,0-3.57-9.81Z"/><path class="cls-4" d="M353.51,954,375,913.09a6.88,6.88,0,0,0-3.58-9.83,6.83,6.83,0,0,1,2.75,3.34,7,7,0,0,1-.44,5.85l-21.47,40.92a9.09,9.09,0,0,1-8,4.71,8.47,8.47,0,0,1-3.16-.6l-39.18-15.71a7.84,7.84,0,0,0,1.23.63l39.21,15.72A9.05,9.05,0,0,0,353.51,954Z"/><path class="cls-4" d="M1037.94,1007.56a7.25,7.25,0,0,1,2.85,3.4,7.36,7.36,0,0,1-.2,6l-20,42.93a9.08,9.08,0,0,1-8.16,5.07,8.42,8.42,0,0,1-2.78-.46l-44.9-15.66-.35-.14a7.8,7.8,0,0,0,1.61.79l44.9,15.66a9,9,0,0,0,10.94-4.61l20-42.93a7.3,7.3,0,0,0-3.36-9.76Z"/><path class="cls-4" d="M361.58,757.76a6.52,6.52,0,0,1,2.67,3.27,6.77,6.77,0,0,1-.6,5.73L341,806.54a9.62,9.62,0,0,1-8.27,4.64,8.76,8.76,0,0,1-3.16-.58l-67.19-26h-.11a7.84,7.84,0,0,0,1.37.69l67.19,26a9.58,9.58,0,0,0,11.43-4.06l22.61-39.82a6.56,6.56,0,0,0-3.28-9.65Z"/><path class="cls-4" d="M418.14,778.39a6.81,6.81,0,0,1,2.72,3.25,7,7,0,0,1-.37,5.83l-20.33,39.84a9.27,9.27,0,0,1-8.18,4.87,8.52,8.52,0,0,1-3-.52l-39.27-14.54-.23-.1a7.78,7.78,0,0,0,1.49.74l39.27,14.54a9.22,9.22,0,0,0,11.14-4.35l20.33-39.83a6.86,6.86,0,0,0-3.57-9.73Z"/><path class="cls-4" d="M352.86,1027.57l21.84-43.38a7.1,7.1,0,0,0-3.73-10,7.06,7.06,0,0,1,2.83,3.43,7.19,7.19,0,0,1-.35,5.89l-21.84,43.38a8.86,8.86,0,0,1-7.87,4.75,8.33,8.33,0,0,1-3.14-.61l-41.12-16.65a7.84,7.84,0,0,0,1.19.61l41.19,16.72A8.82,8.82,0,0,0,352.86,1027.57Z"/><path class="cls-4" d="M261.52,1030.78l6.85-13.27a7,7,0,0,0-3.63-9.89,6.92,6.92,0,0,1,2.78,3.38,7.12,7.12,0,0,1-.41,5.87l-6.85,13.27a9.15,9.15,0,0,1-8.07,4.79,8.48,8.48,0,0,1-3.07-.57l-40.63-15.75h-.1a7.83,7.83,0,0,0,1.36.69l40.64,15.7A9.11,9.11,0,0,0,261.52,1030.78Z"/><path class="cls-4" d="M292,1004.18l22.79-42a6.88,6.88,0,0,0-3.56-9.91,6.84,6.84,0,0,1,2.81,3.44,7,7,0,0,1-.51,5.82l-22.79,42a9.2,9.2,0,0,1-8,4.64,8.55,8.55,0,0,1-3.21-.61l-111.27-45a7.84,7.84,0,0,0,1.2.62l111.33,45A9.17,9.17,0,0,0,292,1004.18Z"/><path class="cls-4" d="M477.16,799.56a6.6,6.6,0,0,1,2.62,3.11,6.85,6.85,0,0,1-.39,5.77L458.3,849.07a9.34,9.34,0,0,1-8.21,4.84,8.56,8.56,0,0,1-3-.52l-39.23-14.53-.23-.1a7.78,7.78,0,0,0,1.49.74L448.38,854a9.29,9.29,0,0,0,11.19-4.32L480.66,809a6.66,6.66,0,0,0-3.5-9.5Z"/><path class="cls-4" d="M782.62,912.21a7.11,7.11,0,0,1,2.8,3.32,7.27,7.27,0,0,1-.22,5.93L764.75,964.7a8.87,8.87,0,0,1-8,5,8.32,8.32,0,0,1-2.93-.53l-43.41-16.33-.19-.08a7.82,7.82,0,0,0,1.46.73l43.41,16.33A8.83,8.83,0,0,0,766,965.4l20.45-43.24a7.16,7.16,0,0,0-3.82-10Z"/><path class="cls-4" d="M973.28,983.23a7.22,7.22,0,0,1,2.83,3.34,7.37,7.37,0,0,1-.17,6l-19.87,43.11a8.85,8.85,0,0,1-8,5,8.35,8.35,0,0,1-2.88-.51l-44.54-16.38-.25-.1a7.89,7.89,0,0,0,1.51.75l44.54,16.38a8.81,8.81,0,0,0,10.87-4.51l19.87-43.11a7.27,7.27,0,0,0-3.34-9.72Z"/><path class="cls-4" d="M720.66,888.71a7.08,7.08,0,0,1,2.79,3.31,7.24,7.24,0,0,1-.23,5.91l-20.74,43.63a8.79,8.79,0,0,1-7.89,4.89,8.33,8.33,0,0,1-3-.55l-42.85-16.56h-.1A7.85,7.85,0,0,0,650,930l42.86,16.5a8.75,8.75,0,0,0,10.9-4.34l20.74-43.63a7.13,7.13,0,0,0-3.18-9.57h0Z"/><path class="cls-4" d="M908.62,959.22a7.27,7.27,0,0,1,2.86,3.39,7.41,7.41,0,0,1-.18,6l-19.91,43.18a8.83,8.83,0,0,1-8,5,8.29,8.29,0,0,1-2.89-.51L836,999.84l-.24-.1a7.86,7.86,0,0,0,1.5.74l44.47,16.44a8.8,8.8,0,0,0,10.85-4.49l19.91-43.18a7.33,7.33,0,0,0-3.38-9.8h0Z"/><path class="cls-4" d="M845,935.76a7.1,7.1,0,0,1,2.81,3.35,7.25,7.25,0,0,1-.26,5.92L827,987.76a8.75,8.75,0,0,1-7.84,4.84A8.31,8.31,0,0,1,816,992l-42.25-16.75a7.88,7.88,0,0,0,1.26.64l42.25,16.75a8.72,8.72,0,0,0,10.91-4.26l20.57-42.73a7.14,7.14,0,0,0-3.8-9.91Z"/><path class="cls-4" d="M537.24,821.65A6.92,6.92,0,0,1,540,825a7.11,7.11,0,0,1-.37,5.87L519,871.49a9.18,9.18,0,0,1-8.12,4.85,8.5,8.5,0,0,1-3-.54l-41-15.44-.2-.09a7.82,7.82,0,0,0,1.46.73l41,15.44a9.14,9.14,0,0,0,11.12-4.32l20.58-40.63a7,7,0,0,0-3.62-9.84Z"/><path class="cls-4" d="M598.07,844.27a6.88,6.88,0,0,1,2.75,3.29,7.06,7.06,0,0,1-.36,5.85l-21.2,41.83a8.92,8.92,0,0,1-7.9,4.77,8.4,8.4,0,0,1-3.13-.6L527.31,883a7.86,7.86,0,0,0,1.22.63l41,16.45a8.89,8.89,0,0,0,11-4.15L601.73,854a6.93,6.93,0,0,0-3.66-9.74Z"/><path class="cls-4" d="M658.76,866.62a6.92,6.92,0,0,1,2.75,3.28,7.12,7.12,0,0,1-.31,5.88l-21,42.29a9,9,0,0,1-8,4.84,8.37,8.37,0,0,1-3-.56l-41.42-16.1h-.08a7.85,7.85,0,0,0,1.34.68L630.48,923a8.91,8.91,0,0,0,11-4.28l21-42.29a7,7,0,0,0-3.72-9.82Z"/></g><path id="keys" class="cls-6" d="M367.2,768.3a9,9,0,0,1,10.66-4.11l38.57,13.92a6.38,6.38,0,0,1,3.61,9.14l-20.33,39.83a8.72,8.72,0,0,1-10.52,4.11l-39.27-14.54a6.31,6.31,0,0,1-3.49-9.14Zm-87.34-32.6a8.88,8.88,0,0,1,10.62-4l69.46,25.84a6.08,6.08,0,0,1,3.28,9l-22.66,39.78a9.09,9.09,0,0,1-10.81,3.84l-67.19-26a6.43,6.43,0,0,1-3.46-9.26ZM425.3,790A9.19,9.19,0,0,1,436,785.77l39.33,13.43a6.18,6.18,0,0,1,3.61,9l-21.1,40.65a8.79,8.79,0,0,1-10.57,4.08L408,838.39a6.31,6.31,0,0,1-3.49-9.14Zm59.42,20.36a8.83,8.83,0,0,1,10.6-4.06l40.28,15a6.48,6.48,0,0,1,3.6,9.24l-20.62,40.64a8.64,8.64,0,0,1-10.49,4.07l-41-15.44a6.39,6.39,0,0,1-3.5-9.21l21.15-40.27Zm120.14,45a8.68,8.68,0,0,1,10.48-4.17L657,866.34a6.49,6.49,0,0,1,3.68,9.21l-21,42.29a8.41,8.41,0,0,1-10.38,4l-41.42-16.1a6.64,6.64,0,0,1-3.61-9.36Zm61.46,21.84a8.66,8.66,0,0,1,10.54-4.2L719,888.4a6.64,6.64,0,0,1,3.8,9.28L702,941.31a8.25,8.25,0,0,1-10.27,4.09L648.9,928.84a6.65,6.65,0,0,1-3.63-9.35Zm61,23.07a8.48,8.48,0,0,1,10.35-4.2l43.24,15.86a6.68,6.68,0,0,1,3.81,9.31l-20.45,43.24A8.33,8.33,0,0,1,754,968.65l-43.41-16.33a6.7,6.7,0,0,1-3.72-9.31ZM544.86,833.08a8.85,8.85,0,0,1,10.6-4.09l40.91,15a6.44,6.44,0,0,1,3.63,9.19L578.86,895a8.39,8.39,0,0,1-10.41,3.91l-41-16.45A6.59,6.59,0,0,1,524,873.1Zm245.6,90.77a8.49,8.49,0,0,1,10.4-4.15l42.49,15.79a6.65,6.65,0,0,1,3.75,9.31l-20.57,42.73a8.22,8.22,0,0,1-10.28,4L774,974.78a6.81,6.81,0,0,1-3.68-9.46Zm61.82,22.49a8.18,8.18,0,0,1,10.17-4.2L907,959a6.84,6.84,0,0,1,3.85,9.41L891,1011.59a8.3,8.3,0,0,1-10.23,4.23l-44.47-16.44a6.81,6.81,0,0,1-3.89-9.38Zm128.42,48a8.05,8.05,0,0,1,10.08-4.22l45.54,17.22a6.8,6.8,0,0,1,3.82,9.39l-20,42.93a8.53,8.53,0,0,1-10.32,4.35l-45-15.7a6.75,6.75,0,0,1-4-9.27Zm65.06,24.37a8.33,8.33,0,0,1,10.24-4.27l44.66,16.26a7.17,7.17,0,0,1,4.35,9.16h0l-.13.34L1087,1084.43a7.93,7.93,0,0,1-9.91,4.46L1029.4,1072a6.67,6.67,0,0,1-3.91-9.26Zm65.46,23.81a8.23,8.23,0,0,1,10.18-4.27l46.3,16.93a7.11,7.11,0,0,1,4.33,9.07q-.07.21-.16.42l-18.68,45.16a7.85,7.85,0,0,1-9.92,4.32l-48.06-17.95a6.89,6.89,0,0,1-4.18-8.8q.11-.31.25-.61Zm-194.82-72a8.19,8.19,0,0,1,10.15-4.26l45.06,16.65a6.78,6.78,0,0,1,3.87,9.37l-19.87,43.11a8.31,8.31,0,0,1-10.24,4.25l-44.51-16.39a6.85,6.85,0,0,1-4-9.38ZM297.31,703.79a6.42,6.42,0,0,1,7.76-3l42.34,15.89a4.71,4.71,0,0,1,2.6,6.75l-7.54,14.65a6.28,6.28,0,0,1-7.71,2.93l-42.07-16.5a4.8,4.8,0,0,1-2.57-6.82Zm58.15,20.09a6.12,6.12,0,0,1,7.59-2.94l41.66,16.4a5.08,5.08,0,0,1,3,6.53h0a4.78,4.78,0,0,1-.2.46L400.7,759a6,6,0,0,1-7.49,3l-42.43-16.27a4.87,4.87,0,0,1-2.68-6.84ZM413,746.75a6.29,6.29,0,0,1,7.64-3.08l43.2,15.9a4.73,4.73,0,0,1,2.65,6.74l-7.11,14.14a6.29,6.29,0,0,1-7.69,3L409,767.2a4.88,4.88,0,0,1-2.71-6.85Zm58.23,21.07a6.36,6.36,0,0,1,7.66-3.13l43.36,15.5A4.86,4.86,0,0,1,525.1,787l-6.73,14.47a6.09,6.09,0,0,1-7.51,3.08l-43.5-16.29a4.85,4.85,0,0,1-2.72-6.81Zm59.3,20.69a6.24,6.24,0,0,1,7.63-3l44.2,16.5a4.89,4.89,0,0,1,2.76,6.82l-7,14.68a6,6,0,0,1-7.53,3l-44-17.41a5,5,0,0,1-2.68-6.92Zm60.88,22.27a6.24,6.24,0,0,1,7.63-3l44.21,16.51a4.89,4.89,0,0,1,2.76,6.82l-7,14.68a6,6,0,0,1-7.53,3l-44-17.41a5,5,0,0,1-2.68-6.92Zm59.91,22.59a6.24,6.24,0,0,1,7.63-3l44.21,16.51a4.89,4.89,0,0,1,2.76,6.82l-7,14.68a6,6,0,0,1-7.53,3l-44-17.41a5,5,0,0,1-2.68-6.92Zm61,22.35a6,6,0,0,1,7.52-3.11l45.73,17.08a5.07,5.07,0,0,1,3.07,6.48h0q-.08.22-.18.43l-6.32,14.16a6,6,0,0,1-7.46,3.15l-45.92-16.83a5,5,0,0,1-2.89-6.87Zm62.52,23.81a6.28,6.28,0,0,1,7.61-3.15L828,892.56a4.92,4.92,0,0,1,2.88,6.8l-7,15.31a6,6,0,0,1-7.46,3.07L771,900.39A5,5,0,0,1,768,894a3.26,3.26,0,0,1,.19-.44Zm62.49,22.1a6.22,6.22,0,0,1,7.63-3l46.41,17.73a5,5,0,0,1,2.78,6.88l-6.8,14.43a6.13,6.13,0,0,1-7.54,3.07l-47.06-17.61a4.81,4.81,0,0,1-2.69-6.78Zm63.17,23.63a5.91,5.91,0,0,1,7.44-3l46.44,18.09a5,5,0,0,1,3,6.38l0,.11q-.09.23-.19.45l-6.72,14.47a5.91,5.91,0,0,1-7.46,3l-46-18.4a5.18,5.18,0,0,1-2.94-6.71h0l.12-.29Zm62.91,24a5.9,5.9,0,0,1,7.37-3.2L1019,963.5a5.18,5.18,0,0,1,3.18,6.6h0l-.12.32-6.5,15.65a5.62,5.62,0,0,1-7.23,3.06l-47.82-18.91a5.31,5.31,0,0,1-3.09-6.84h0l.09-.21Zm64.28,23.49a6.22,6.22,0,0,1,7.62-3l48.16,18.2a5.1,5.1,0,0,1,3.06,6.53q-.08.21-.17.41l-6.19,13.89a5.92,5.92,0,0,1-7.42,3.09l-49-18.67a4.88,4.88,0,0,1-2.71-6.85Zm65.69,24.75a6,6,0,0,1,7.44-3.12l82.35,30.58a5,5,0,0,1,3,6.39,4.44,4.44,0,0,1-.19.46l-6.77,14.62a6.09,6.09,0,0,1-7.51,3.09l-82-30.48a5.05,5.05,0,0,1-3.08-6.44q.08-.23.18-.45Zm-845-203.17A9,9,0,0,1,259,790.21l38.57,13.92a6.38,6.38,0,0,1,3.61,9.14L280.93,853a8.72,8.72,0,0,1-10.52,4.11l-39.27-14.54a6.31,6.31,0,0,1-3.49-9.14ZM306.51,816a9,9,0,0,1,10.68-4.14L357,826a6.19,6.19,0,0,1,3.49,9l-21.28,39.76a8.94,8.94,0,0,1-10.67,4l-39.27-14.54a6.31,6.31,0,0,1-3.49-9.14ZM366,837.15a8.81,8.81,0,0,1,10.61-4L416,848a6.4,6.4,0,0,1,3.5,9.21l-21.47,40.92a8.55,8.55,0,0,1-10.5,3.87l-39.21-15.72a6.55,6.55,0,0,1-3.48-9.28ZM484.7,880.63a8.25,8.25,0,0,1,10.32-4l40.24,16.11a6.78,6.78,0,0,1,3.62,9.46L518.17,944a8.45,8.45,0,0,1-10.38,4.06L467.48,932.6a6.69,6.69,0,0,1-3.68-9.37Zm60.34,23a8.35,8.35,0,0,1,10.36-4l40.72,16a6.75,6.75,0,0,1,3.65,9.42L578.86,967.5a8.37,8.37,0,0,1-10.35,4l-40.89-16a6.7,6.7,0,0,1-3.64-9.4ZM606.46,927a8.38,8.38,0,0,1,10.4-4L657,938.68a6.92,6.92,0,0,1,4.07,8.9h0q-.11.3-.25.59L640.94,991a8,8,0,0,1-10.16,4l-41.29-16.6a6.81,6.81,0,0,1-3.63-9.48ZM424.61,859a8.84,8.84,0,0,1,10.64-4l40.61,15.58a6.46,6.46,0,0,1,3.52,9.24l-21.88,42A8.48,8.48,0,0,1,447,925.69l-40.9-16.52a6.51,6.51,0,0,1-3.38-9.34Zm242.6,91.73a8.34,8.34,0,0,1,10.31-4.09l42.16,16.18a6.73,6.73,0,0,1,3.71,9.39l-20.78,43a8.24,8.24,0,0,1-10.28,4l-41.88-16.62a6.83,6.83,0,0,1-3.69-9.47ZM730.61,973a8.14,8.14,0,0,1,10.25-4l41.55,16.9a7.11,7.11,0,0,1,4,9.22h0l-.16.38-19.66,43.09a8.28,8.28,0,0,1-10.2,4.26l-43.6-16a6.6,6.6,0,0,1-3.76-9.27Zm125.65,48.5a8.28,8.28,0,0,1,10.23-4.21l43.87,16.33a6.94,6.94,0,0,1,4.23,8.86h0a6,6,0,0,1-.23.57l-20,45.14a8.14,8.14,0,0,1-10.11,4.28l-45-16.57a6.76,6.76,0,0,1-3.86-9.35Zm63.68,24.28a8.21,8.21,0,0,1,10.18-4.21l44.36,16.61a7.07,7.07,0,0,1,4.23,9.06h0q-.08.22-.17.43l-19.23,45a7.83,7.83,0,0,1-10,4.19l-45.65-17.69a7,7,0,0,1-4-9l.19-.46Zm64.53,25.44a8.28,8.28,0,0,1,10.17-4.36l45.13,16.09a6.75,6.75,0,0,1,4,9.31l-20.37,45.15a8.17,8.17,0,0,1-10.15,4.24L968.58,1125a6.91,6.91,0,0,1-4.19-8.83h0a6,6,0,0,1,.25-.6Zm65.6,23.9a8.15,8.15,0,0,1,10.14-4.26l80.13,29.75a7.16,7.16,0,0,1,4.29,9.17l-.14.36-18.75,45.3a7.82,7.82,0,0,1-9.91,4.3L1034.17,1149a7,7,0,0,1-4.13-9h0q.09-.24.19-.46ZM792.56,997.8a8.27,8.27,0,0,1,10.3-4.09l42.28,16.36a7.12,7.12,0,0,1,4.17,9.16h0l-.17.4-19.06,43.87a8,8,0,0,1-10,4.26L775.41,1051a6.72,6.72,0,0,1-3.76-9.35ZM154.21,972.59a8.79,8.79,0,0,1,10.62-4l39.36,15.12a6.47,6.47,0,0,1,3.49,9.26l-22.26,42.61a8.34,8.34,0,0,1-10.44,3.76l-39.27-16.52a6.64,6.64,0,0,1-3.35-9.46Zm57.65,23.32a8.71,8.71,0,0,1,10.54-4l40.69,15.48a6.48,6.48,0,0,1,3.53,9.27l-6.76,13.24a8.61,8.61,0,0,1-10.51,4l-40.63-15.75a6.51,6.51,0,0,1-3.51-9.29Zm-14.77,29a8.71,8.71,0,0,1,10.54-4l40.69,15.48a6.48,6.48,0,0,1,3.53,9.27L245,1058.93a8.61,8.61,0,0,1-10.51,4l-40.63-15.8a6.51,6.51,0,0,1-3.51-9.29Zm74.23-6.13a8.65,8.65,0,0,1,10.52-4l40.49,15.43a6.5,6.5,0,0,1,3.56,9.27l-22.06,43a8.44,8.44,0,0,1-10.45,3.9l-40.21-16.17a6.65,6.65,0,0,1-3.51-9.4ZM391,1065.87a8.27,8.27,0,0,1,10.27-4.07l57.61,22.37a6.84,6.84,0,0,1,3.75,9.45l-20.83,44a8.23,8.23,0,0,1-10.26,4.09l-57.87-22.43a6.79,6.79,0,0,1-3.74-9.43Zm75.88,30.65a8.35,8.35,0,0,1,10.35-4l295.94,115.9a7,7,0,0,1,4.1,9q-.1.26-.22.52L756,1264.5a7.88,7.88,0,0,1-10.07,4l-296-120.6a6.85,6.85,0,0,1-3.62-9.51ZM330.9,1042a8.48,8.48,0,0,1,10.38-4.13l41.2,15.46a6.58,6.58,0,0,1,3.66,9.29l-21.94,44.23a8.36,8.36,0,0,1-10.37,4l-40.52-16a6.77,6.77,0,0,1-3.66-9.44Zm451.91,178.77a8.13,8.13,0,0,1,10.16-4.15l61.31,23.59a7.23,7.23,0,0,1,4.21,9.32h0l-.11.27L838.6,1297.1a7.61,7.61,0,0,1-9.86,4.11l-62.91-25.41a7.08,7.08,0,0,1-4-9.18h0q.09-.22.19-.43l20.79-45.42Zm81.57,31.71a8.15,8.15,0,0,1,10.18-4.14L920.17,1266a7,7,0,0,1,4.09,9q-.09.25-.2.49l-21.2,47a7.91,7.91,0,0,1-10.06,4L846.86,1308a7,7,0,0,1-4-9,5.29,5.29,0,0,1,.23-.53Zm65,26.38a8.14,8.14,0,0,1,10.15-4.19l46.74,17.74a7.06,7.06,0,0,1,4.18,9.07h0q-.08.22-.18.43l-20.77,47.8a7.71,7.71,0,0,1-9.94,4l-47.22-19.28a7.13,7.13,0,0,1-4-9.26h0l.16-.38Zm67.47,26.44a8.14,8.14,0,0,1,10.15-4.19l46.74,17.74a7.06,7.06,0,0,1,4.18,9.07h0q-.08.22-.18.43l-20.77,47.8a7.71,7.71,0,0,1-9.94,4l-47.22-19.28a7.13,7.13,0,0,1-4-9.26h0l.16-.38ZM218.27,853.23a8.93,8.93,0,0,1,10.68-4L310.77,880a6.4,6.4,0,0,1,3.51,9.21L292.8,930.14a8.74,8.74,0,0,1-10.57,4l-82.31-31.41a6.34,6.34,0,0,1-3.41-9.19Zm101.45,38.93a8.81,8.81,0,0,1,10.61-4L369.78,903a6.4,6.4,0,0,1,3.5,9.21l-21.47,40.92A8.55,8.55,0,0,1,341.28,957l-39.21-15.7a6.55,6.55,0,0,1-3.44-9.35Zm119,44.42a8.31,8.31,0,0,1,10.32-4l41.34,16.29a6.58,6.58,0,0,1,3.51,9.35L472.33,1000a8.64,8.64,0,0,1-10.5,4l-40.31-15.45a6.69,6.69,0,0,1-3.68-9.37Zm60.3,23.8a8.69,8.69,0,0,1,10.49-4.15l41.75,15.3a6.53,6.53,0,0,1,3.7,9.24l-21.57,43.81a8.36,8.36,0,0,1-10.35,4l-41.83-16.34a6.64,6.64,0,0,1-3.58-9.37ZM560.43,983a8.54,8.54,0,0,1,10.44-4l41.75,16a6.73,6.73,0,0,1,3.72,9.38L595.22,1048a8.2,8.2,0,0,1-10.27,4l-42.44-17a6.71,6.71,0,0,1-3.57-9.42ZM379.59,914.7a8.84,8.84,0,0,1,10.64-4l40.63,15.52a6.46,6.46,0,0,1,3.52,9.24l-21.88,42A8.48,8.48,0,0,1,402,981.32l-40.9-16.52a6.51,6.51,0,0,1-3.38-9.34Zm242.09,92a8.29,8.29,0,0,1,10.27-4.11L674.69,1019a6.69,6.69,0,0,1,3.68,9.37L657,1072.12a8.28,8.28,0,0,1-10.31,4l-41.88-16.62a6.88,6.88,0,0,1-4-8.87h0q.12-.32.27-.63Zm62.18,23.67a8.42,8.42,0,0,1,10.37-4.09L738,1043a6.79,6.79,0,0,1,3.79,9.4l-21,44.5a8.23,8.23,0,0,1-10.29,4.1L666,1083.82a6.72,6.72,0,0,1-3.68-9.39Zm125.69,48.36a8.26,8.26,0,0,1,10.21-4.2l45.34,16.92a6.93,6.93,0,0,1,4.23,8.84,5.5,5.5,0,0,1-.23.58L849,1146a8.08,8.08,0,0,1-10.1,4.22l-46.2-17.37a6.82,6.82,0,0,1-3.85-9.39Zm65,24.9a8.21,8.21,0,0,1,10.18-4.21L929.14,1116a7.07,7.07,0,0,1,4.23,9.06h0q-.08.22-.17.43l-19.23,45a7.83,7.83,0,0,1-10,4.19L858.37,1157a7,7,0,0,1-4-9l.19-.46Zm64.31,24.49a8.22,8.22,0,0,1,10.16-4.31l46.16,16.8a7,7,0,0,1,4.25,8.94,4.08,4.08,0,0,1-.19.47l-20.12,46.56a7.76,7.76,0,0,1-10,4.09l-46.26-18.54a7.15,7.15,0,0,1-4-9.27l.15-.35Zm66.78,24.17a7.94,7.94,0,0,1,10-4.19l96.94,37.3a6.94,6.94,0,0,1,4.12,8.91h0q-.11.29-.24.57l-21.37,46.91a8.13,8.13,0,0,1-10.16,4.16l-96-36.74a7.07,7.07,0,0,1-4.18-9.08q.08-.22.18-.44Zm-258.88-98.17a8,8,0,0,1,10.1-4.11l43.89,17.18a7.07,7.07,0,0,1,4.11,9.11h0l-.19.44-19.87,44.63a8.09,8.09,0,0,1-10.1,4.24l-44.59-16.75a6.88,6.88,0,0,1-4.16-8.79h0a5.08,5.08,0,0,1,.26-.62ZM186.6,912a8.7,8.7,0,0,1,10.58-4l112.55,44a6.39,6.39,0,0,1,3.38,9.24l-22.79,42a8.67,8.67,0,0,1-10.61,3.8L168.38,962a6.56,6.56,0,0,1-3.42-9.36Zm131.32,50.28a8.64,8.64,0,0,1,10.52-4L369.35,974a6.6,6.6,0,0,1,3.61,9.33l-21.84,43.38a8.32,8.32,0,0,1-10.37,3.9l-41.19-16.68a6.65,6.65,0,0,1-3.48-9.42ZM437.8,1009a8.34,8.34,0,0,1,10.35-4l41.71,16.3a6.77,6.77,0,0,1,3.69,9.43l-21.25,43.69a8.12,8.12,0,0,1-10.26,3.9l-41.47-17.1a6.91,6.91,0,0,1-3.91-9l0,0q.12-.3.27-.59Zm61.1,24.64a8.55,8.55,0,0,1,10.44-4.06l42.2,16.09a6.57,6.57,0,0,1,3.6,9.29l-21.92,43.46a8.37,8.37,0,0,1-10.4,3.92l-41.75-16.75a6.72,6.72,0,0,1-3.57-9.44ZM561.34,1057a8.43,8.43,0,0,1,10.41-4l41.81,16.48a6.77,6.77,0,0,1,3.66,9.44l-21,43.11a8.26,8.26,0,0,1-10.31,4l-42.44-17a6.71,6.71,0,0,1-3.57-9.42ZM378.17,985.83a8.85,8.85,0,0,1,10.65-4l40.6,15.49a6.61,6.61,0,0,1,3.63,9.33l-22,44.1a8.15,8.15,0,0,1-10.31,3.83l-41.67-17.52a6.64,6.64,0,0,1-3.34-9.46Zm244.13,95.8a8.29,8.29,0,0,1,10.27-4.11l42.72,16.43a6.69,6.69,0,0,1,3.68,9.37l-21.39,43.74a8.28,8.28,0,0,1-10.31,4l-41.88-16.62a6.88,6.88,0,0,1-4-8.87h0q.12-.32.27-.63Zm62.62,24.31a8.42,8.42,0,0,1,10.37-4.09L739,1118.56a6.79,6.79,0,0,1,3.84,9.45l-21,44.5a8.23,8.23,0,0,1-10.25,4.09l-44.48-17.18a6.72,6.72,0,0,1-3.68-9.39Zm127,49.86a8.26,8.26,0,0,1,10.21-4.2l45.34,16.92a6.93,6.93,0,0,1,4.23,8.84,5.49,5.49,0,0,1-.23.58l-20.08,45.19a8.08,8.08,0,0,1-10.1,4.22L795.09,1210a6.82,6.82,0,0,1-3.85-9.39ZM876.1,1181a8.16,8.16,0,0,1,10.16-4.23l46.44,17.34a6.94,6.94,0,0,1,4.24,8.85q-.11.3-.24.59l-20.45,46a8,8,0,0,1-10.08,4.17l-46.55-17.9a7,7,0,0,1-4.11-9,4.52,4.52,0,0,1,.21-.49ZM943,1205.9a7.8,7.8,0,0,1,9.9-4.27l130.6,49.85a6.91,6.91,0,0,1,4.13,8.86h0q-.11.3-.25.59L1066,1307.84a8.08,8.08,0,0,1-10.14,4.13l-128.23-49.69a7.27,7.27,0,0,1-4.19-9.39h0l.09-.23Zm-194.1-75.82A8,8,0,0,1,759,1126l43.89,17.18a7.07,7.07,0,0,1,4.11,9.11h0l-.19.44L787,1197.34a8.09,8.09,0,0,1-10.1,4.24l-44.59-16.75a6.88,6.88,0,0,1-4.16-8.79h0a5.07,5.07,0,0,1,.26-.62Z"/></g></g></g></g></g></svg>