<?xml version="1.0" encoding="utf-8"?>
<!-- Generator: Adobe Illustrator 21.1.0, SVG Export Plug-In . SVG Version: 6.00 Build 0)  -->
<svg version="1.1" id="Layer_1" xmlns="http://www.w3.org/2000/svg" xmlns:xlink="http://www.w3.org/1999/xlink" x="0px" y="0px"
	 viewBox="0 0 1544 1684" style="enable-background:new 0 0 1544 1684;" xml:space="preserve">
<style type="text/css">
	.st0{fill:url(#bevel_2_);}
	.st1{fill:url(#top_2_);}
	.st2{fill:url(#top-2_1_);}
	.st3{fill:#1FB4E7;}
	.st4{fill:#0C5A81;}
	.st5{fill:#2DB5E5;stroke:#239BCA;stroke-width:2;}
	.st6{fill:#2DB5E5;stroke:#239BCA;}
</style>
<g id="Body">
	
		<linearGradient id="bevel_2_" gradientUnits="userSpaceOnUse" x1="1346.8694" y1="1233.2791" x2="1347.4495" y2="1232.329" gradientTransform="matrix(1055.75 110.96 92.24 -877.6 -1535052.25 932945.5625)">
		<stop  offset="0" style="stop-color:#0AA0D3"/>
		<stop  offset="1" style="stop-color:#057399"/>
	</linearGradient>
	<path id="bevel_1_" class="st0" d="M517.8,30.9c5.6-19,25.5-29.9,44.4-24.3c0.1,0,0.1,0,0.2,0.1L1416,261.4
		c20.9,6.2,32.8,28.1,26.6,49c-0.1,0.2-0.1,0.4-0.2,0.7L1244.7,945c-3.9,13-17.7,20.4-30.7,16.5c-0.5-0.1-1-0.3-1.5-0.5L357,652.6
		c-11-4.1-17-16-13.8-27.3L517.8,30.9z"/>
	
		<linearGradient id="top_2_" gradientUnits="userSpaceOnUse" x1="2275.0142" y1="1238.2281" x2="2275.0142" y2="1237.228" gradientTransform="matrix(1056.45 111.04 92.34 -878.6 -2516843.75 835323.6875)">
		<stop  offset="0" style="stop-color:#31BDED"/>
		<stop  offset="1" style="stop-color:#1FB4E7"/>
	</linearGradient>
	<path id="top_1_" class="st1" d="M513,26.7c4.6-15.8,21.2-24.9,37-20.3h0.2L1413.5,264c18.8,5.5,29.5,25.2,24,44v0.1l-0.2,0.6
		l-198.8,637.8c-3.9,13-17.7,20.4-30.7,16.5l0,0c-0.5-0.1-1-0.3-1.4-0.5L350.6,654.2c-11-4.1-17-16-13.8-27.3L513,26.7z"/>
	
		<linearGradient id="top-2_1_" gradientUnits="userSpaceOnUse" x1="2275.0142" y1="1238.2281" x2="2275.0142" y2="1237.228" gradientTransform="matrix(1056.45 111.04 92.34 -878.6 -2516843.75 835323.6875)">
		<stop  offset="0" style="stop-color:#31BDED"/>
		<stop  offset="1" style="stop-color:#1FB4E7"/>
	</linearGradient>
	<path id="top-2" class="st2" d="M513,26.7c4.6-15.8,21.2-24.9,37-20.3h0.2L1413.5,264c18.8,5.5,29.5,25.2,24,44v0.1l-0.2,0.6
		l-198.8,637.8c-3.9,13-17.7,20.4-30.7,16.5l0,0c-0.5-0.1-1-0.3-1.4-0.5L350.6,654.2c-11-4.1-17-16-13.8-27.3L513,26.7z"/>
	<path id="bottom_1_" class="st3" d="M417.2,678.7l-62.1-22.6c-19.2-7-42.5,2-51.9,20.1L5.1,1245.7c-11.8,22.5-2.4,48.9,20.9,59
		l852,368.4c23.2,10.1,50.2-0.6,60.2-23.8l0.1-0.2l274.8-642.6c7.5-17-0.2-36.9-17.2-44.4l0,0l0,0c-0.8-0.4-1.7-0.7-2.5-1l-76-27.6
		l-1.4,3.9c-0.7,2.1-3,3.1-5.1,2.4L416.2,688.4c-1.7-0.5-2.7-2.4-2.1-4.1c0.1-0.3,0.2-0.5,0.3-0.7L417.2,678.7z"/>
</g>
<g id="Keyboard">
	<path id="trackpadShadow" class="st4" d="M374,1147.8l-115.8,234.1c-1.6,3.2-0.4,7.2,2.9,8.9l0.5,0.2l362.5,154.6
		c3.6,1.5,7.7-0.1,9.3-3.6l113.1-244.8c1.6-3.3,0.1-7.3-3.2-8.8l-0.4-0.2l-359.4-143.9C379.8,1142.8,375.7,1144.3,374,1147.8z"/>
	<path id="trackpad" class="st5" d="M371.8,1146.8L256,1380.9c-1.6,3.2-0.4,7.2,2.9,8.9l0.5,0.2l362.5,154.6
		c3.6,1.5,7.7-0.1,9.3-3.6l113.1-244.8c1.6-3.3,0.1-7.3-3.2-8.8l-0.4-0.2l-359.4-143.9C377.6,1141.8,373.5,1143.3,371.8,1146.8z"/>
	<g id="keysShadow">
		<path class="st4" d="M802.3,1072.6c1.3,0.8,2.4,2.1,3,3.5c0.8,1.9,0.7,4.1-0.1,6l-19.9,44.6c-1.4,3.1-4.5,5-7.8,5
			c-1,0-2-0.2-2.9-0.5l-44.7-16.7l-0.2-0.1c0.5,0.3,0.9,0.5,1.5,0.7l44.6,16.8c4.2,1.5,8.9-0.4,10.7-4.5l19.9-44.6
			c1.7-3.8,0.1-8.3-3.7-10L802.3,1072.6z"/>
		<path class="st4" d="M676.3,1024.4c1.3,0.8,2.3,2,2.8,3.4c0.7,1.9,0.6,4.1-0.3,5.9l-21.4,43.7c-1.5,3-4.5,4.8-7.9,4.8
			c-1.1,0-2.1-0.2-3.1-0.6l-41.9-16.6c0.4,0.3,0.8,0.5,1.3,0.6l41.9,16.6c4.2,1.6,8.9-0.2,10.9-4.2l21.4-43.7
			c1.8-3.5,0.4-7.9-3.1-9.7C676.8,1024.7,676.6,1024.6,676.3,1024.4L676.3,1024.4z"/>
		<path class="st4" d="M739.6,1048.4c1.3,0.8,2.3,2,2.9,3.4c0.8,1.9,0.7,4.1-0.2,5.9l-21,44.5c-1.5,3-4.5,4.9-7.9,4.9
			c-1,0-2-0.2-3-0.6l-44.5-17.2h-0.1c0.4,0.3,0.9,0.5,1.4,0.7l44.5,17.2c4.2,1.6,8.9-0.3,10.9-4.3l21-44.5c1.8-3.6,0.4-8-3.2-9.8
			C740.1,1048.6,739.8,1048.5,739.6,1048.4z"/>
		<path class="st4" d="M915.7,1176.5l19.2-45c1.7-3.8,0-8.3-3.8-10l0,0l0,0l-0.2-0.1c1.3,0.8,2.3,2,2.9,3.4c0.8,1.9,0.8,4.1,0,6
			l-19.2,45c-1.3,3-4.3,5-7.7,5c-1,0-2-0.2-2.9-0.6l-45.7-17.7h-0.1c0.4,0.3,0.9,0.5,1.4,0.7l45.7,17.7
			C909.3,1182.5,913.9,1180.6,915.7,1176.5z"/>
		<path class="st4" d="M912,1039.1c1.3,0.8,2.3,2,2.9,3.4c0.8,1.9,0.8,4.1-0.1,6l-20,45.1c-1.4,3.1-4.5,5.1-7.9,5.1
			c-1,0-2-0.1-2.9-0.5l-45-16.6l-0.2-0.1c0.5,0.3,1,0.6,1.5,0.8l45,16.6c4.2,1.5,8.9-0.5,10.7-4.7l20-45.1c1.7-3.7,0-8.1-3.7-9.8
			L912,1039.1z"/>
		<path class="st4" d="M976.2,1063.6c1.3,0.8,2.3,2,2.9,3.4c0.8,1.9,0.8,4.1,0,6l-19.2,45c-1.3,3-4.3,5-7.7,5c-1,0-2-0.2-2.9-0.6
			l-45.7-17.7h-0.1c0.4,0.3,0.9,0.5,1.4,0.7l45.6,17.7c4.2,1.6,8.8-0.4,10.6-4.5l19.2-45c1.7-3.8,0-8.3-3.8-10l0,0l0,0H976.2z"/>
		<path class="st4" d="M658.6,944.1c1.3,0.8,2.3,2.1,2.9,3.5c0.8,1.9,0.7,4.1-0.2,6l-19.9,42.8c-1.4,3-4.4,4.9-7.7,4.9
			c-1.1,0-2.1-0.2-3.1-0.6L589.4,984c0.4,0.2,0.8,0.5,1.2,0.6l41.3,16.6c4.2,1.6,8.9-0.2,10.8-4.3l19.9-42.8
			c1.8-3.7,0.2-8.1-3.5-9.9l0,0l0,0L658.6,944.1z"/>
		<path class="st4" d="M846.7,1015.5c3.2,2,4.4,6.1,2.9,9.5l-19.1,43.9c-1.4,3.1-4.4,5.1-7.8,5.1c-1,0-2-0.2-2.9-0.5l-44.6-16.8
			l-0.2-0.1c0.5,0.3,0.9,0.5,1.5,0.7l44.6,16.7c4.2,1.5,8.9-0.5,10.7-4.5l19.1-43.9c1.7-3.8-0.1-8.3-3.9-10L846.7,1015.5z"/>
		<path class="st4" d="M597.6,921c1.3,0.8,2.4,2.1,2.9,3.5c0.7,1.9,0.6,4.1-0.3,5.9l-20.8,42.5c-1.5,3-4.6,4.8-7.9,4.8
			c-1,0-2-0.2-3-0.6l-40.9-16h-0.1c0.4,0.3,0.9,0.5,1.3,0.7l40.9,16c4.2,1.6,8.9-0.3,11-4.3l20.8-42.5c1.8-3.6,0.4-7.9-3.1-9.8
			C598.2,921.2,597.9,921.1,597.6,921L597.6,921z"/>
		<path class="st4" d="M783.9,991.3L783.9,991.3c3.2,2,4.5,6.2,2.8,9.7l-19.7,43.1c-1.5,3.1-4.6,5-8,5c-1,0-1.9-0.2-2.9-0.5
			l-43.6-16l-0.2-0.1c0.5,0.3,1,0.6,1.5,0.8l43.6,16c4.2,1.5,8.9-0.5,10.8-4.5l19.7-43.1c1.8-3.8,0.1-8.3-3.7-10.1l0,0l0,0
			L783.9,991.3z"/>
		<path class="st4" d="M721.3,968.3c1.3,0.8,2.3,2,2.8,3.4c0.8,1.9,0.6,4.1-0.3,5.9l-20.8,43c-1.5,3-4.5,4.8-7.8,4.8
			c-1,0-2.1-0.2-3.1-0.6l-41.9-16.6c0.4,0.3,0.8,0.5,1.2,0.6l41.9,16.6c4.2,1.6,8.9-0.2,10.9-4.3l20.8-43c1.8-3.6,0.4-7.9-3.2-9.7
			l0,0l0,0C721.8,968.5,721.5,968.4,721.3,968.3z"/>
		<path class="st4" d="M536.7,898.1L536.7,898.1c1.4,0.8,2.4,2.1,3,3.6c0.7,1.9,0.6,4.1-0.3,5.9l-20.7,41.8c-1.6,3-4.6,4.9-8,4.8
			c-1,0-2-0.2-3-0.5l-40.3-15.5l-0.1-0.1c0.4,0.3,0.9,0.5,1.4,0.7l40.2,15.5c4.2,1.5,8.9-0.3,11-4.3l20.7-41.8
			c1.8-3.6,0.5-8-3.1-9.8C537.2,898.3,537,898.2,536.7,898.1L536.7,898.1z"/>
		<path class="st4" d="M614.3,1000.3c1.3,0.8,2.3,2,2.8,3.4c0.8,1.9,0.7,4.1-0.3,5.9l-21.1,43.7c-1.5,3-4.5,4.8-7.8,4.8
			c-1.1,0-2.1-0.2-3.1-0.6l-42.4-16.9c0.4,0.2,0.8,0.5,1.2,0.6l42.4,17c4.2,1.6,8.9-0.2,10.9-4.2l21.1-43.7c1.8-3.6,0.4-7.9-3.2-9.7
			C614.6,1000.5,614.4,1000.4,614.3,1000.3L614.3,1000.3z"/>
		<path class="st4" d="M648.4,1157.3c4.2,1.6,8.9-0.2,10.9-4.2l21.4-43.7c1.8-3.5,0.4-7.9-3.1-9.7c-0.2-0.1-0.5-0.2-0.7-0.3
			c1.3,0.8,2.3,2,2.8,3.4c0.7,1.9,0.6,4.1-0.3,5.9l-21.4,43.7c-1.5,3-4.5,4.8-7.9,4.8c-1.1,0-2.1-0.2-3.1-0.6l-41.8-16.6
			c0.4,0.3,0.8,0.5,1.3,0.6L648.4,1157.3z"/>
		<path class="st4" d="M523.9,1108.7c4.2,1.6,8.9-0.2,11-4.2l22-43.4c1.8-3.4,0.5-7.7-2.9-9.5c-0.3-0.1-0.5-0.3-0.8-0.4
			c1.3,0.8,2.3,2,2.8,3.4c0.7,1.9,0.6,4.1-0.3,5.9l-21.9,43.5c-1.5,2.9-4.6,4.8-7.9,4.8c-1.1,0-2.1-0.2-3.1-0.6l-41.7-16.7
			c0.4,0.2,0.8,0.5,1.2,0.6L523.9,1108.7z"/>
		<path class="st4" d="M587,1132.3c4.2,1.6,8.9-0.2,10.9-4.2l21-43.1c1.8-3.6,0.4-8-3.2-9.8c-0.2-0.1-0.5-0.2-0.7-0.3
			c1.3,0.8,2.4,2.1,2.9,3.5c0.8,2,0.6,4.1-0.3,6l-21,43.1c-1.5,3-4.5,4.8-7.9,4.8c-1.1,0-2.1-0.2-3.1-0.6l-42.4-16.9
			c0.4,0.2,0.8,0.5,1.2,0.6L587,1132.3z"/>
		<path class="st4" d="M712.7,1182.8c4.2,1.6,8.9-0.3,10.9-4.3l21-44.5c1.8-3.6,0.3-8-3.3-9.7l0,0l0,0c-0.2-0.1-0.4-0.2-0.6-0.2
			c1.3,0.8,2.3,2,2.9,3.4c0.8,1.9,0.7,4.1-0.2,5.9l-21,44.5c-1.5,3-4.5,4.9-7.9,4.9c-1,0-2-0.2-3-0.6L667,1165h-0.1
			c0.4,0.3,0.9,0.5,1.4,0.7L712.7,1182.8z"/>
		<path class="st4" d="M934.4,1199.6c1.3,0.8,2.3,2,2.9,3.4c0.8,1.9,0.8,4.1-0.1,6l-20.5,46c-1.4,3-4.4,5-7.8,5c-1,0-2-0.2-2.9-0.5
			l-46.5-17.9l-0.1-0.1c0.4,0.3,0.9,0.5,1.4,0.7l46.5,17.9c4.2,1.6,8.9-0.4,10.7-4.4l20.5-46c1.7-3.7,0.1-8.1-3.6-9.9l0,0l0,0
			L934.4,1199.6z"/>
		<path class="st4" d="M980.8,1202.6l20.1-46.6c1.7-3.7,0-8.2-3.7-9.8l0,0l0,0l-0.4-0.2c1.3,0.8,2.3,2,2.9,3.3c0.8,1.9,0.8,4.1,0,6
			l-20.1,46.6c-1.3,3-4.3,4.9-7.6,4.9c-1,0-2-0.2-3-0.6l-46.2-18.5c0.4,0.2,0.8,0.5,1.2,0.6l46.2,18.6
			C974.4,1208.5,979,1206.6,980.8,1202.6z"/>
		<path class="st4" d="M1041.6,1088.4c1.2,0.8,2.2,1.9,2.8,3.3c0.8,1.9,0.8,4.1-0.1,6l-20.3,45.1c-1.4,3.1-4.5,5-7.9,5
			c-1,0-2-0.2-2.9-0.5l-44.6-16.6l-0.2-0.1c0.5,0.3,1,0.5,1.5,0.7l44.6,16.6c4.2,1.5,8.9-0.4,10.8-4.5l20.4-45.2
			c1.7-3.6,0.1-7.9-3.5-9.6l0,0l0,0L1041.6,1088.4z"/>
		<path class="st4" d="M281.4,858.4c-1.6,3-4.8,4.9-8.2,4.9c-1,0-2-0.2-3-0.5L231,848.3l-0.2-0.1c0.5,0.3,1,0.5,1.5,0.7l39.3,14.5
			c4.3,1.5,9-0.4,11.1-4.3l20.3-39.8c1.8-3.3,0.6-7.5-2.7-9.3c-0.3-0.2-0.6-0.3-0.9-0.4c1.2,0.8,2.2,1.9,2.7,3.2
			c0.7,1.9,0.6,4-0.4,5.8L281.4,858.4z"/>
		<path class="st4" d="M293.3,935.5c-1.6,3-4.8,4.8-8.1,4.8c-1,0-2-0.2-3-0.5l-82.3-31.4l-0.1-0.1c0.4,0.3,0.9,0.5,1.4,0.7
			l82.3,31.4c4.3,1.5,9-0.3,11.1-4.2l21.5-40.9c1.9-3.3,0.7-7.5-2.6-9.4c-0.3-0.2-0.6-0.3-1-0.5c1.3,0.8,2.2,2,2.8,3.3
			c0.7,1.9,0.6,4.1-0.4,5.8L293.3,935.5z"/>
		<path class="st4" d="M384.1,1058.8c1.3,0.8,2.2,2,2.8,3.4c0.7,1.9,0.6,4.1-0.3,5.9l-21.9,44.2c-1.5,3-4.6,4.8-7.9,4.8
			c-1.1,0-2.1-0.2-3.1-0.6l-40.5-16l0,0c0.4,0.3,0.8,0.5,1.3,0.7l40.5,16c4.2,1.6,8.9-0.2,11-4.2l22-44.3c1.8-3.5,0.5-7.7-3-9.5
			C384.7,1059,384.4,1058.9,384.1,1058.8L384.1,1058.8z"/>
		<path class="st4" d="M831.5,900.3c0.6,1.4,0.6,3.1-0.1,4.5l-7,15.3c-1.1,2.3-3.4,3.7-5.9,3.7c-0.8,0-1.5-0.1-2.2-0.4l-45.4-17.3
			c0.4,0.2,0.8,0.5,1.2,0.6l45.5,17.3c3.2,1.2,6.7-0.3,8.1-3.3l7-15.3c1.3-2.7,0.2-5.9-2.5-7.2c-0.2-0.1-0.4-0.2-0.6-0.3l0,0
			C830.3,898.5,831,899.3,831.5,900.3z"/>
		<path class="st4" d="M894.8,924.2c0.6,1.4,0.5,3.1-0.2,4.5l-6.8,14.4c-1.1,2.3-3.5,3.7-6,3.7c-0.7,0-1.5-0.1-2.2-0.4l-47-17.6
			c0.4,0.3,0.8,0.5,1.2,0.6l47,17.6c3.2,1.1,6.7-0.3,8.2-3.3l6.8-14.4c1.3-2.7,0.2-6-2.5-7.3c-0.2-0.1-0.3-0.2-0.5-0.2h-0.1
			C893.7,922.3,894.4,923.2,894.8,924.2z"/>
		<path class="st4" d="M769,877.5c0.6,1.4,0.6,3.1-0.1,4.5l-6.3,14.2c-1.1,2.3-3.4,3.8-6,3.8c-0.7,0-1.5-0.1-2.1-0.4l-45.9-16.8
			c0.4,0.3,0.8,0.5,1.2,0.6l46,16.8c3.2,1.1,6.7-0.3,8.1-3.4l6.3-14.2c1.3-2.8,0.1-6.1-2.7-7.4l-0.4-0.2H767
			C767.9,875.6,768.6,876.5,769,877.5z"/>
		<path class="st4" d="M1022.5,971.2c0.6,1.4,0.6,3.1,0,4.5l-6.5,15.7c-1,2.3-3.2,3.8-5.7,3.8c-0.8,0-1.5-0.1-2.2-0.4l-47.7-18.9
			c0.3,0.2,0.7,0.4,1.1,0.6l47.8,18.9c3.1,1.2,6.6-0.3,7.9-3.3l6.5-15.7c1.2-2.9-0.1-6.2-3-7.5l-0.3-0.1l0,0
			C1021.3,969.3,1022.1,970.2,1022.5,971.2z"/>
		<path class="st4" d="M957.8,948.2c0.6,1.4,0.5,3.1-0.2,4.5l-6.7,14.5c-1.1,2.2-3.3,3.7-5.8,3.7c-0.8,0-1.6-0.1-2.3-0.4L897,952
			c0.3,0.2,0.7,0.4,1.1,0.6l46,18.4c3.1,1.2,6.7-0.2,8.1-3.2l6.7-14.5c1.3-2.8,0.2-6.1-2.6-7.4l0,0l0,0l-0.5-0.2h-0.1
			C956.7,946.3,957.4,947.1,957.8,948.2z"/>
		<path class="st4" d="M467.3,767.3c0.6,1.4,0.5,3-0.3,4.4l-7.1,14.1c-1.2,2.2-3.5,3.6-6,3.6c-0.8,0-1.5-0.1-2.3-0.4L409,772.8
			c0.4,0.2,0.8,0.5,1.2,0.6l42.6,16.2c3.2,1.1,6.7-0.2,8.3-3.2l7.1-14.1c1.4-2.5,0.4-5.7-2.1-7.1c-0.3-0.1-0.5-0.3-0.8-0.3h-0.1
			C466.2,765.5,466.9,766.3,467.3,767.3z"/>
		<path class="st4" d="M525.7,787.9c0.6,1.4,0.5,3-0.1,4.4l-6.7,14.5c-1.1,2.3-3.4,3.7-6,3.7c-0.8,0-1.5-0.1-2.2-0.4l-43.5-16.3
			c0.4,0.3,0.8,0.5,1.2,0.6l43.5,16.3c3.2,1.1,6.7-0.3,8.2-3.3l6.7-14.5c1.3-2.7,0.2-5.9-2.4-7.2c-0.2-0.1-0.4-0.2-0.7-0.3l0,0
			C524.6,786.1,525.3,786.9,525.7,787.9z"/>
		<path class="st4" d="M585.8,809.7c0.6,1.4,0.5,3-0.2,4.4l-7,14.7c-1.1,2.2-3.4,3.6-5.9,3.6c-0.8,0-1.6-0.1-2.3-0.4l-43.8-17.3
			c0.3,0.2,0.7,0.4,1.1,0.6l44,17.4c3.1,1.2,6.7-0.2,8.2-3.2l7-14.7c1.3-2.7,0.3-5.9-2.4-7.2c-0.2-0.1-0.4-0.2-0.6-0.3h-0.1
			C584.7,807.9,585.4,808.7,585.8,809.7z"/>
		<path class="st4" d="M646.7,832c0.6,1.4,0.5,3-0.2,4.4l-7,14.7c-1.1,2.2-3.4,3.6-5.9,3.6c-0.8,0-1.6-0.1-2.3-0.4L587.5,837
			c0.3,0.2,0.7,0.4,1.1,0.6l44,17.4c3.1,1.2,6.7-0.2,8.2-3.2l7-14.7c1.3-2.7,0.3-5.9-2.4-7.2c-0.2-0.1-0.4-0.2-0.6-0.3h-0.1
			C645.6,830.2,646.3,831,646.7,832z"/>
		<path class="st4" d="M706.6,854.6c0.6,1.4,0.5,3-0.2,4.4l-7,14.7c-1.1,2.2-3.4,3.6-5.9,3.6c-0.8,0-1.6-0.1-2.3-0.4l-43.9-17.3
			c0.3,0.2,0.7,0.4,1.1,0.6l44,17.4c3.1,1.2,6.7-0.2,8.2-3.2l7-14.7c1.3-2.7,0.3-5.9-2.4-7.2c-0.2-0.1-0.4-0.2-0.6-0.3h-0.1
			C705.5,852.8,706.2,853.6,706.6,854.6z"/>
		<path class="st4" d="M788.7,1203.4l19.9-44.6c1.7-3.8,0.1-8.3-3.7-10l-0.4-0.2c1.3,0.8,2.4,2.1,3,3.5c0.8,1.9,0.7,4.1-0.1,6
			l-19.9,44.6c-1.4,3.1-4.5,5-7.8,5c-1,0-2-0.2-2.9-0.5l-44.6-16.8l-0.2-0.1c0.5,0.3,0.9,0.5,1.5,0.7l44.6,16.7
			C782.2,1209.3,786.9,1207.4,788.7,1203.4z"/>
		<path class="st4" d="M474,1080.5l21.2-43.7c1.8-3.6,0.4-7.9-3.2-9.8c-0.2-0.1-0.5-0.2-0.7-0.3c1.3,0.8,2.3,2,2.9,3.5
			c0.8,1.9,0.7,4.1-0.3,6l-21.2,43.7c-1.5,2.9-4.5,4.8-7.7,4.8c-1.1,0-2.2-0.2-3.2-0.6l-41.4-17.1c0.4,0.2,0.8,0.4,1.1,0.6
			l41.5,17.1C467.3,1086.3,472.1,1084.5,474,1080.5z"/>
		<path class="st4" d="M1102.4,1036.1c3.2,2,4.4,6,3,9.4l-17.9,44.2c-1.3,3.2-4.4,5.2-7.8,5.2c-0.9,0-1.9-0.2-2.7-0.5l-47.7-16.9
			l-0.3-0.1c0.5,0.3,1,0.6,1.6,0.8l47.7,16.9c4.2,1.5,8.8-0.6,10.5-4.8l17.9-44.2C1108.3,1042.2,1106.4,1037.8,1102.4,1036.1
			C1102.5,1036.1,1102.5,1036.1,1102.4,1036.1L1102.4,1036.1L1102.4,1036.1z"/>
		<path class="st4" d="M1087,995.7c0.6,1.4,0.6,3.1-0.1,4.5l-6.2,13.9c-1.1,2.3-3.3,3.8-5.9,3.8c-0.8,0-1.5-0.1-2.2-0.4l-48.9-18.6
			c0.4,0.2,0.8,0.5,1.2,0.6l49,18.7c3.1,1.2,6.7-0.3,8.1-3.3l6.2-13.9c1.3-2.8,0.1-6.1-2.7-7.4l-0.4-0.2h-0.1
			C1085.9,993.8,1086.6,994.7,1087,995.7z"/>
		<path class="st4" d="M460.4,1089.6c1.3,0.8,2.3,2,2.9,3.5c0.8,1.9,0.7,4.1-0.2,6l-20.8,44c-1.5,3-4.5,4.9-7.9,4.9
			c-1,0-2-0.2-3-0.6l-57.9-22.4h-0.1c0.4,0.3,0.9,0.5,1.4,0.7l57.9,22.4c4.2,1.6,8.9-0.3,10.9-4.3l20.8-44c1.8-3.6,0.4-8-3.2-9.9
			C460.9,1089.8,460.7,1089.6,460.4,1089.6L460.4,1089.6z"/>
		<path class="st4" d="M1055.3,1324.3c1.3,0.8,2.3,2,2.9,3.4c0.8,1.9,0.8,4.1-0.1,6l-20.8,47.8c-1.3,3-4.3,4.9-7.5,4.9
			c-1,0-2.1-0.2-3.1-0.6l-47.1-19.2c0.4,0.2,0.8,0.4,1.2,0.6l47.2,19.3c4.1,1.7,8.8-0.2,10.6-4.3l20.8-47.8c1.7-3.8,0-8.3-3.8-10
			l0,0l0,0L1055.3,1324.3z"/>
		<path class="st4" d="M987.8,1297.8c1.3,0.8,2.3,2,2.9,3.4c0.8,1.9,0.8,4.1-0.1,6l-20.8,47.8c-1.3,3-4.3,4.9-7.5,4.9
			c-1,0-2-0.2-3-0.6l-47.2-19.2c0.4,0.2,0.8,0.4,1.2,0.6l47.2,19.3c4.1,1.7,8.8-0.2,10.6-4.3l20.8-47.8c1.7-3.8,0-8.3-3.8-10l0,0
			l0,0L987.8,1297.8z"/>
		<path class="st4" d="M1085.2,1256.9c1.3,0.8,2.3,2,2.9,3.4c0.8,1.9,0.7,4.1-0.2,6l-21.4,46.9c-1.4,3-4.5,4.9-7.8,4.9
			c-1,0-2-0.2-3-0.6l-128.2-49.7h-0.1c0.4,0.3,0.9,0.5,1.4,0.7l128.3,49.7c4.2,1.6,8.9-0.3,10.8-4.4l21.4-46.9
			c1.8-3.7,0.3-8.1-3.4-9.9l0,0l0,0L1085.2,1256.9z"/>
		<path class="st4" d="M1114.2,1190.8c1.3,0.8,2.3,2,2.9,3.5c0.8,1.9,0.7,4.1-0.2,6l-21.4,46.9c-1.4,3-4.5,5-7.8,5c-1,0-2-0.2-3-0.5
			l-96-36.7l-0.2-0.1c0.4,0.3,0.9,0.5,1.4,0.7l96,36.7c4.2,1.5,8.9-0.4,10.8-4.4l21.4-46.9c1.8-3.7,0.2-8.1-3.5-9.9l0,0l0,0
			L1114.2,1190.8z"/>
		<path class="st4" d="M1184.7,1030.2L1184.7,1030.2c0.8,0.6,1.6,1.5,2,2.5c0.6,1.4,0.5,3.1-0.1,4.4l-6.8,14.6
			c-1.1,2.3-3.4,3.8-6,3.7c-0.7,0-1.5-0.1-2.2-0.4l-81.9-30.5c0.4,0.3,0.8,0.5,1.2,0.6l82,30.5c3.2,1.1,6.7-0.3,8.1-3.3l6.8-14.6
			c1.3-2.7,0.2-6-2.5-7.3C1185.1,1030.4,1184.9,1030.3,1184.7,1030.2L1184.7,1030.2z"/>
		<path class="st4" d="M1169.4,1060.6c3.1,2,4.4,6,2.9,9.4l-18.7,45.2c-1.3,3.1-4.3,5.1-7.7,5.1c-1,0-1.9-0.2-2.8-0.5l-48.1-17.9
			l-0.2-0.1c0.5,0.3,1,0.5,1.5,0.7l48.1,17.9c4.2,1.5,8.8-0.5,10.6-4.6l18.7-45.2c1.7-3.9-0.1-8.3-4-10l0,0l0,0H1169.4z"/>
		<path class="st4" d="M1142,1126.1c3.2,2,4.5,6,3,9.4l-18.8,45.3c-1.3,3.1-4.3,5.1-7.7,5.1c-1,0-1.9-0.2-2.9-0.5l-81.7-30.8
			l-0.2-0.1c0.5,0.3,0.9,0.5,1.4,0.7l81.7,30.8c4.2,1.5,8.8-0.5,10.5-4.6l18.8-45.3C1147.7,1132.2,1145.9,1127.7,1142,1126.1
			L1142,1126.1z"/>
		<path class="st4" d="M250,1041.8c1.3,0.8,2.2,2,2.8,3.4c0.7,1.9,0.6,4.1-0.4,5.9l-6.9,13.3c-1.6,3-4.7,4.8-8.1,4.8
			c-1,0-2.1-0.2-3.1-0.6l-40.6-15.8h-0.1c0.4,0.3,0.9,0.5,1.4,0.7l40.6,15.7c4.2,1.6,9-0.3,11.1-4.2l6.9-13.3
			c1.9-3.4,0.6-7.6-2.8-9.5C250.6,1042,250.3,1041.9,250,1041.8L250,1041.8z"/>
		<path class="st4" d="M324,1035.6c1.3,0.8,2.2,2,2.8,3.4c0.7,1.9,0.6,4.1-0.4,5.9l-22.1,43c-1.6,2.9-4.6,4.7-7.9,4.7
			c-1.1,0-2.1-0.2-3.1-0.6l-40.3-16.2c0.4,0.2,0.8,0.5,1.2,0.6l40.2,16.2c4.2,1.6,9-0.2,11.1-4.1l22.1-43c1.9-3.4,0.6-7.6-2.8-9.5
			C324.6,1035.8,324.3,1035.7,324,1035.6L324,1035.6z"/>
		<path class="st4" d="M408.1,745.2c0.6,1.5,0.5,3.1-0.1,4.5l-6.8,14.6c-1.1,2.3-3.4,3.7-5.9,3.7c-0.8,0-1.5-0.1-2.2-0.4l-42.3-16.2
			c0.4,0.2,0.8,0.4,1.2,0.6l42.4,16.3c3.2,1.2,6.7-0.3,8.1-3.3l6.8-14.6c1.3-2.8,0.2-6.1-2.6-7.5l-0.5-0.2l-0.2-0.1
			C407,743.2,407.7,744.1,408.1,745.2z"/>
		<path class="st4" d="M205.8,989.2c1.3,0.8,2.3,2,2.8,3.4c0.7,1.9,0.6,4.1-0.4,5.9l-22.3,42.6c-1.6,2.9-4.6,4.7-7.8,4.6
			c-1.1,0-2.2-0.2-3.2-0.7l-39.1-16.4c0.3,0.2,0.7,0.4,1.1,0.6l39.2,16.5c4.2,1.7,8.9,0,11.1-4l22.3-42.6c1.8-3.4,0.6-7.6-2.8-9.5
			C206.3,989.4,206,989.3,205.8,989.2L205.8,989.2z"/>
		<path class="st4" d="M350.8,724.4c0.5,1.4,0.4,3-0.3,4.4l-7.5,14.7c-1.2,2.2-3.5,3.6-6,3.6c-0.8,0-1.6-0.1-2.3-0.4l-42-16.5
			c0.4,0.2,0.7,0.4,1.1,0.6l42.1,16.5c3.2,1.2,6.7-0.2,8.3-3.2l7.5-14.7c1.4-2.5,0.5-5.7-2-7.1c-0.3-0.1-0.5-0.3-0.8-0.4h-0.1
			C349.7,722.6,350.4,723.5,350.8,724.4z"/>
		<path class="st4" d="M921.8,1271.4c1.3,0.8,2.3,2,2.9,3.5c0.8,1.9,0.7,4.1-0.1,6l-21.2,47c-1.4,3-4.4,4.9-7.7,4.9
			c-1,0-2-0.2-3-0.6l-45.9-18.5c0.4,0.2,0.8,0.4,1.2,0.6l45.9,18.5c4.1,1.6,8.8-0.3,10.7-4.3l21.2-47c1.7-3.7,0.1-8.2-3.6-9.9l0,0
			l0,0L921.8,1271.4z"/>
		<path class="st4" d="M412.8,1056.8l22-44.1c1.8-3.5,0.5-7.8-3-9.6c-0.3-0.1-0.5-0.3-0.8-0.4c1.3,0.8,2.3,2,2.8,3.4
			c0.7,1.9,0.6,4.1-0.3,5.9l-22,44.1c-1.5,2.9-4.5,4.7-7.7,4.7c-1.1,0-2.2-0.2-3.2-0.6l-41.5-17.4c0.3,0.2,0.7,0.4,1.1,0.6
			l41.7,17.5C406,1062.6,410.8,1060.8,412.8,1056.8z"/>
		<path class="st4" d="M855.9,1245.6c3.2,2,4.5,6.1,3,9.5l-19.8,47.3c-1.3,3-4.2,5-7.5,5c-1,0-2-0.2-3-0.6l-62.8-25.4
			c0.4,0.2,0.8,0.4,1.2,0.6l62.9,25.4c4.1,1.7,8.8-0.3,10.5-4.4l19.8-47.3c1.7-3.9-0.1-8.5-4.1-10.1H855.9z"/>
		<path class="st4" d="M774.7,1213.8c3.2,2,4.4,6.1,2.8,9.5l-21.1,46.6c-1.4,3-4.4,4.9-7.6,4.9c-1.1,0-2.1-0.2-3.1-0.6l-295.9-120.6
			c0.4,0.2,0.8,0.4,1.2,0.6l296,120.6c4.1,1.7,8.8-0.2,10.7-4.3l21.1-46.6c1.8-3.8,0.2-8.2-3.6-10l0,0l0,0L774.7,1213.8z"/>
		<path class="st4" d="M869.2,1174c1.3,0.8,2.3,2,2.9,3.4c0.8,1.9,0.8,4.1-0.1,6l-20.1,45.2c-1.4,3.1-4.5,5-7.8,5
			c-1,0-2-0.2-2.9-0.5l-46.2-17.4l-0.2-0.1c0.5,0.3,0.9,0.5,1.5,0.7l46.2,17.4c4.2,1.5,8.9-0.4,10.7-4.5l20.1-45.2
			c1.7-3.7,0.1-8.1-3.7-9.8L869.2,1174z"/>
		<path class="st4" d="M414.2,983.5l21.9-42c1.8-3.4,0.6-7.6-2.8-9.5c-0.3-0.1-0.5-0.3-0.8-0.4c1.3,0.8,2.2,2,2.8,3.4
			c0.7,1.9,0.6,4-0.4,5.8l-21.9,42c-1.6,2.9-4.6,4.7-7.9,4.7c-1.1,0-2.2-0.2-3.2-0.6l-40.8-16.5c0.4,0.2,0.8,0.4,1.2,0.6l40.8,16.5
			C407.3,989.2,412,987.5,414.2,983.5z"/>
		<path class="st4" d="M474,1006.1l21.5-41.8c1.9-3.4,0.7-7.7-2.7-9.6c-0.3-0.2-0.6-0.3-1-0.4c1.3,0.8,2.3,2,2.9,3.5
			c0.7,1.9,0.6,4.1-0.4,5.9l-21.5,41.8c-1.6,3-4.7,4.8-8.1,4.8c-1,0-2-0.2-3-0.5l-40.4-15.5l-0.1-0.1c0.4,0.3,0.9,0.5,1.4,0.7
			l40.3,15.5C467.2,1011.8,471.9,1010,474,1006.1z"/>
		<path class="st4" d="M535,1030.6l21.6-43.8c1.8-3.4,0.5-7.7-2.9-9.5c-0.3-0.1-0.5-0.3-0.8-0.4c1.2,0.8,2.2,1.9,2.8,3.3
			c0.7,1.9,0.6,4.1-0.3,5.9l-21.6,43.8c-1.5,3-4.6,4.8-7.9,4.8c-1,0-2-0.2-3-0.6l-41.8-16.3l0,0c0.4,0.3,0.9,0.5,1.3,0.7l41.8,16.3
			C528.4,1036.4,533,1034.5,535,1030.6z"/>
		<path class="st4" d="M477.5,876c1.3,0.8,2.2,2,2.8,3.4c0.7,1.9,0.6,4-0.4,5.8l-21.9,42c-1.6,2.9-4.6,4.7-7.9,4.7
			c-1.1,0-2.2-0.2-3.2-0.6l-40.8-16.5c0.4,0.2,0.8,0.4,1.2,0.6l40.8,16.6c4.2,1.6,9-0.1,11.1-4.1l21.9-42c1.9-3.4,0.6-7.6-2.8-9.5
			C478.1,876.2,477.8,876.1,477.5,876L477.5,876z"/>
		<path class="st4" d="M850.8,1152.1l20.1-45.2c1.7-3.7,0.1-8.1-3.6-9.8l-0.4-0.2c1.3,0.8,2.3,2,2.9,3.4c0.8,1.9,0.8,4.1-0.1,6
			l-20.1,45.2c-1.4,3.1-4.5,5-7.8,5c-1,0-2-0.2-2.9-0.5l-46.2-17.4l-0.2-0.1c0.5,0.3,0.9,0.5,1.5,0.7l46.2,17.4
			C844.2,1158.1,848.9,1156.1,850.8,1152.1z"/>
		<path class="st4" d="M358.7,831.5c1.2,0.8,2.1,1.9,2.7,3.2c0.7,1.9,0.5,4-0.5,5.8l-21.3,39.8c-1.7,3-4.9,4.8-8.3,4.8
			c-1,0-2-0.2-3-0.5L289,870l-0.2-0.1c0.5,0.3,1,0.5,1.5,0.7l39.3,14.5c4.3,1.5,9-0.3,11.3-4.3l21.3-39.7c1.9-3.2,0.8-7.3-2.4-9.1
			C359.5,831.8,359.1,831.7,358.7,831.5L358.7,831.5z"/>
		<path class="st4" d="M417.7,853.4c1.3,0.8,2.2,2,2.8,3.3c0.7,1.9,0.6,4.1-0.4,5.8l-21.5,40.9c-1.6,2.9-4.7,4.7-8,4.7
			c-1.1,0-2.2-0.2-3.2-0.6L348.2,892c0.4,0.2,0.8,0.5,1.2,0.6l39.2,15.7c4.2,1.6,9-0.2,11.2-4.1l21.5-40.9c1.9-3.3,0.7-7.5-2.6-9.4
			C418.4,853.7,418,853.6,417.7,853.4L417.7,853.4z"/>
		<path class="st4" d="M353.6,959.2l21.5-40.9c1.9-3.3,0.7-7.5-2.6-9.4c-0.3-0.2-0.6-0.3-1-0.5c1.3,0.8,2.2,2,2.8,3.3
			c0.7,1.9,0.6,4.1-0.4,5.8l-21.5,40.9c-1.6,2.9-4.7,4.7-8,4.7c-1.1,0-2.2-0.2-3.2-0.6L302,946.8c0.4,0.2,0.8,0.5,1.2,0.6l39.2,15.7
			C346.6,964.9,351.4,963.1,353.6,959.2z"/>
		<path class="st4" d="M1038,1012.7c1.3,0.8,2.3,2,2.8,3.4c0.8,1.9,0.7,4.1-0.2,6l-20,42.9c-1.5,3.1-4.7,5.1-8.2,5.1
			c-0.9,0-1.9-0.2-2.8-0.5l-44.9-15.7l-0.3-0.1c0.5,0.3,1,0.6,1.6,0.8l44.9,15.7c4.3,1.4,9-0.5,10.9-4.6l20-42.9
			c1.8-3.6,0.3-8-3.4-9.8L1038,1012.7z"/>
		<path class="st4" d="M361.6,762.9c1.2,0.8,2.2,1.9,2.7,3.3c0.7,1.9,0.4,4-0.6,5.7l-22.6,39.8c-1.7,2.9-4.9,4.7-8.3,4.6
			c-1.1,0-2.2-0.2-3.2-0.6l-67.2-26h-0.1c0.4,0.3,0.9,0.5,1.4,0.7l67.2,26c4.3,1.5,9.1-0.2,11.4-4.1l22.6-39.8c1.9-3.1,1-7.1-2.1-9
			C362.5,763.3,362.1,763.1,361.6,762.9L361.6,762.9z"/>
		<path class="st4" d="M418.2,783.6c1.2,0.8,2.2,1.9,2.7,3.2c0.7,1.9,0.6,4-0.4,5.8l-20.3,39.8c-1.6,3-4.8,4.9-8.2,4.9
			c-1,0-2-0.2-3-0.5l-39.3-14.5l-0.2-0.1c0.5,0.3,1,0.5,1.5,0.7l39.3,14.5c4.3,1.5,9-0.4,11.1-4.3l20.3-39.8
			c1.8-3.3,0.6-7.5-2.7-9.3C418.8,783.8,418.5,783.7,418.2,783.6L418.2,783.6z"/>
		<path class="st4" d="M352.9,1032.7l21.8-43.4c1.9-3.5,0.6-7.8-2.9-9.6c-0.3-0.1-0.6-0.3-0.8-0.4c1.3,0.8,2.3,2,2.8,3.4
			c0.7,1.9,0.6,4.1-0.4,5.9l-21.8,43.4c-1.5,2.9-4.6,4.8-7.9,4.8c-1.1,0-2.1-0.2-3.1-0.6l-41.1-16.7c0.4,0.2,0.8,0.4,1.2,0.6
			l41.2,16.7C346.1,1038.5,350.8,1036.7,352.9,1032.7z"/>
		<path class="st4" d="M261.6,1035.9l6.9-13.3c1.9-3.4,0.6-7.6-2.8-9.5c-0.3-0.1-0.6-0.3-0.8-0.4c1.3,0.8,2.2,2,2.8,3.4
			c0.7,1.9,0.6,4.1-0.4,5.9l-6.9,13.3c-1.6,3-4.7,4.8-8.1,4.8c-1,0-2.1-0.2-3.1-0.6l-40.6-15.8h-0.1c0.4,0.3,0.9,0.5,1.4,0.7
			l40.6,15.7C254.7,1041.7,259.4,1039.9,261.6,1035.9z"/>
		<path class="st4" d="M292,1009.3l22.8-42c1.9-3.3,0.8-7.5-2.5-9.4c-0.3-0.2-0.7-0.4-1.1-0.5c1.3,0.8,2.3,2,2.8,3.4
			c0.7,1.9,0.5,4-0.5,5.8l-22.8,42c-1.6,2.9-4.7,4.6-8,4.6c-1.1,0-2.2-0.2-3.2-0.6l-111.3-45c0.4,0.2,0.8,0.4,1.2,0.6l111.3,45
			C285,1015,289.8,1013.3,292,1009.3z"/>
		<path class="st4" d="M477.2,804.7c1.2,0.7,2.1,1.8,2.6,3.1c0.7,1.9,0.6,4-0.4,5.8l-21.1,40.6c-1.6,3-4.8,4.8-8.2,4.8
			c-1,0-2-0.2-3-0.5L407.9,844l-0.2-0.1c0.5,0.3,1,0.5,1.5,0.7l39.3,14.5c4.3,1.5,9-0.3,11.2-4.3l21.1-40.7c1.8-3.2,0.7-7.3-2.6-9.1
			C477.8,804.9,477.5,804.8,477.2,804.7L477.2,804.7z"/>
		<path class="st4" d="M782.7,917.4c1.3,0.8,2.2,1.9,2.8,3.3c0.8,1.9,0.7,4.1-0.2,5.9l-20.5,43.2c-1.5,3.1-4.6,5-8,5
			c-1,0-2-0.2-2.9-0.5L710.5,958l-0.2-0.1c0.5,0.3,0.9,0.5,1.5,0.7l43.3,16.4c4.2,1.5,8.9-0.4,10.9-4.4l20.5-43.2
			c1.8-3.5,0.5-7.8-3-9.7C783.2,917.5,782.9,917.4,782.7,917.4L782.7,917.4z"/>
		<path class="st4" d="M973.3,988.4c1.3,0.8,2.3,2,2.8,3.3c0.8,1.9,0.7,4.1-0.2,6l-19.9,43.1c-1.5,3.1-4.6,5-8,5c-1,0-2-0.2-2.9-0.5
			l-44.5-16.4l-0.2-0.1c0.5,0.3,1,0.6,1.5,0.8l44.5,16.4c4.2,1.5,8.9-0.5,10.9-4.5l19.9-43.1c1.8-3.6,0.3-8-3.3-9.7L973.3,988.4z"/>
		<path class="st4" d="M720.7,893.9c1.3,0.8,2.2,1.9,2.8,3.3c0.8,1.9,0.7,4.1-0.2,5.9l-20.7,43.6c-1.5,3-4.5,4.9-7.9,4.9
			c-1,0-2-0.2-3-0.5l-42.8-16.6h-0.1c0.4,0.3,0.9,0.5,1.4,0.7l42.9,16.5c4.2,1.6,8.9-0.3,10.9-4.3l20.7-43.6
			c1.8-3.5,0.3-7.8-3.2-9.6l0,0l0,0L720.7,893.9z"/>
		<path class="st4" d="M908.7,964.4c1.3,0.8,2.3,2,2.9,3.4c0.8,1.9,0.7,4.1-0.2,6l-19.9,43.2c-1.5,3.1-4.6,5-8,5c-1,0-2-0.2-2.9-0.5
			l-44.5-16.4l-0.2-0.1c0.5,0.3,1,0.5,1.5,0.7l44.5,16.4c4.2,1.5,8.9-0.4,10.8-4.5l19.9-43.2c1.8-3.6,0.3-8-3.4-9.8l0,0l0,0
			L908.7,964.4z"/>
		<path class="st4" d="M845,940.9c1.3,0.8,2.2,2,2.8,3.3c0.8,1.9,0.7,4.1-0.3,5.9L827,992.8c-1.5,3-4.5,4.8-7.8,4.8
			c-1.1,0-2.2-0.2-3.2-0.6l-42.2-16.8c0.4,0.3,0.8,0.5,1.3,0.6l42.2,16.8c4.2,1.6,8.9-0.2,10.9-4.3l20.6-42.7
			c1.8-3.5,0.4-7.8-3.1-9.6C845.4,941.1,845.2,941,845,940.9L845,940.9z"/>
		<path class="st4" d="M537.3,826.8c1.3,0.8,2.2,2,2.8,3.3c0.7,1.9,0.6,4.1-0.4,5.9l-20.6,40.6c-1.6,3-4.7,4.9-8.1,4.8
			c-1,0-2-0.2-3-0.5l-41-15.4l-0.2-0.1c0.5,0.3,0.9,0.5,1.5,0.7l41,15.4c4.3,1.5,9-0.3,11.1-4.3l20.6-40.6c1.8-3.4,0.6-7.6-2.8-9.5
			C537.8,827,537.5,826.9,537.3,826.8L537.3,826.8z"/>
		<path class="st4" d="M598.1,849.4c1.2,0.8,2.2,1.9,2.8,3.3c0.7,1.9,0.6,4-0.4,5.8l-21.2,41.8c-1.5,2.9-4.6,4.8-7.9,4.8
			c-1.1,0-2.1-0.2-3.1-0.6l-40.9-16.4c0.4,0.2,0.8,0.5,1.2,0.6l41,16.5c4.2,1.6,8.9-0.2,11-4.2l21.2-41.9c1.8-3.4,0.5-7.6-2.9-9.4
			C598.7,849.7,598.4,849.5,598.1,849.4L598.1,849.4z"/>
		<path class="st4" d="M658.8,871.8c1.2,0.8,2.2,1.9,2.8,3.3c0.7,1.9,0.6,4.1-0.3,5.9l-21,42.3c-1.6,3-4.6,4.8-8,4.8
			c-1,0-2-0.2-3-0.6l-41.4-16.1h-0.1c0.4,0.3,0.9,0.5,1.3,0.7l41.4,16.1c4.2,1.6,8.9-0.3,11-4.3l21-42.3c1.8-3.4,0.5-7.7-2.9-9.5
			C659.3,872,659.1,871.9,658.8,871.8L658.8,871.8z"/>
	</g>
	<path id="keys" class="st6" d="M367.2,773.5c2.1-3.7,6.6-5.5,10.7-4.1l38.6,13.9c3.3,1.1,5.2,4.7,4.1,8c-0.1,0.4-0.3,0.7-0.5,1.1
		l-20.3,39.8c-2,3.8-6.5,5.5-10.5,4.1L350,821.8c-3.3-1.1-5.1-4.7-4-8c0.1-0.4,0.3-0.8,0.5-1.2L367.2,773.5z M279.9,740.9
		c2.1-3.7,6.6-5.4,10.6-4l69.5,25.8c3.2,1,4.9,4.5,3.9,7.7c-0.2,0.5-0.4,0.9-0.6,1.3l-22.7,39.8c-2.2,3.7-6.8,5.3-10.8,3.8l-67.2-26
		c-3.4-1.2-5.1-4.8-3.9-8.2c0.1-0.4,0.3-0.7,0.5-1.1L279.9,740.9z M425.3,795.2c2.1-3.7,6.6-5.5,10.7-4.2l39.3,13.4
		c3.3,1,5.1,4.4,4.2,7.7c-0.1,0.5-0.3,0.9-0.6,1.3l-21,40.6c-2.1,3.8-6.5,5.5-10.6,4.1L408,843.6c-3.3-1.1-5.1-4.7-4-8
		c0.1-0.4,0.3-0.8,0.5-1.2L425.3,795.2z M484.8,815.5c2.1-3.7,6.5-5.5,10.6-4.1l40.3,15c3.4,1.2,5.2,4.8,4,8.2
		c-0.1,0.4-0.3,0.7-0.4,1l-20.6,40.6c-2,3.8-6.5,5.5-10.5,4.1L467.1,865c-3.3-1.1-5.1-4.8-4-8.1c0.1-0.4,0.3-0.8,0.5-1.1
		L484.8,815.5L484.8,815.5z M604.9,860.5c2-3.8,6.4-5.5,10.5-4.2l41.7,15.2c3.4,1.1,5.2,4.8,4.1,8.2c-0.1,0.3-0.3,0.7-0.4,1
		l-21,42.3c-2,3.8-6.4,5.5-10.4,4L588,910.9c-3.4-1.2-5.2-5.1-4-8.5c0.1-0.3,0.2-0.6,0.4-0.9L604.9,860.5z M666.4,882.4
		c2-3.8,6.5-5.6,10.5-4.2l42.1,15.4c3.5,1.2,5.3,4.9,4.2,8.4c-0.1,0.3-0.2,0.6-0.4,0.9L702,946.5c-1.9,3.8-6.3,5.6-10.3,4.1
		L648.9,934c-3.5-1.2-5.2-5.1-4-8.5c0.1-0.3,0.2-0.6,0.4-0.8L666.4,882.4z M727.4,905.4c1.9-3.8,6.3-5.6,10.3-4.2l43.2,15.9
		c3.5,1.2,5.4,5,4.2,8.5c-0.1,0.3-0.2,0.6-0.3,0.8l-20.5,43.2c-1.9,3.8-6.3,5.6-10.3,4.2l-43.4-16.3c-3.5-1.3-5.3-5.1-4-8.6
		c0.1-0.3,0.2-0.5,0.3-0.7L727.4,905.4z M544.9,838.2c2.1-3.8,6.5-5.5,10.6-4.1l40.9,15c3.4,1.1,5.2,4.8,4.1,8.1
		c-0.1,0.4-0.3,0.7-0.5,1.1l-21.1,41.8c-2,3.7-6.5,5.4-10.4,3.9l-41-16.5c-3.4-1.3-5.1-5.1-3.9-8.5c0.1-0.3,0.2-0.6,0.4-0.9
		L544.9,838.2z M790.5,929c1.9-3.8,6.4-5.6,10.4-4.2l42.5,15.8c3.5,1.2,5.3,5,4.1,8.5c-0.1,0.3-0.2,0.6-0.4,0.9l-20.6,42.7
		c-1.9,3.8-6.3,5.5-10.3,4L774,980c-3.5-1.3-5.3-5.2-4-8.8c0.1-0.2,0.2-0.5,0.3-0.7L790.5,929z M852.3,951.5
		c1.8-3.8,6.2-5.6,10.2-4.2l44.6,16.9c3.6,1.3,5.4,5.2,4.1,8.7c-0.1,0.2-0.2,0.4-0.3,0.7l-19.8,43.2c-1.8,3.8-6.2,5.6-10.2,4.2
		l-44.5-16.4c-3.6-1.2-5.4-5.1-4.2-8.7c0.1-0.2,0.2-0.5,0.3-0.7L852.3,951.5z M980.7,999.5c1.7-3.8,6.1-5.7,10.1-4.2l45.5,17.2
		c3.5,1.3,5.4,5.2,4.1,8.7c-0.1,0.2-0.2,0.5-0.3,0.7l-20,42.9c-1.9,3.8-6.3,5.7-10.3,4.3l-45-15.7c-3.5-1.2-5.5-5-4.3-8.5
		c0.1-0.3,0.2-0.5,0.3-0.7L980.7,999.5z M1045.8,1023.9c1.8-3.8,6.2-5.7,10.2-4.3l44.7,16.3c3.7,1.3,5.7,5.4,4.4,9.2l0,0l0,0
		l-0.1,0.3l-17.9,44.2c-1.6,3.9-5.9,5.8-9.9,4.5l-47.7-16.9c-3.5-1.2-5.4-4.9-4.3-8.4c0.1-0.3,0.2-0.6,0.3-0.8L1045.8,1023.9z
		 M1111.3,1047.7c1.8-3.8,6.2-5.7,10.2-4.3l46.3,16.9c3.7,1.3,5.6,5.4,4.3,9.1c0,0.1-0.1,0.3-0.2,0.4l-18.7,45.2
		c-1.6,3.9-6,5.8-9.9,4.3l-48.1-17.9c-3.6-1.3-5.5-5.2-4.2-8.8c0.1-0.2,0.2-0.4,0.2-0.6L1111.3,1047.7z M916.4,975.7
		c1.8-3.8,6.2-5.7,10.2-4.3l45.1,16.7c3.5,1.2,5.4,5.1,4.2,8.6c-0.1,0.3-0.2,0.5-0.3,0.7l-19.9,43.1c-1.8,3.8-6.2,5.7-10.2,4.2
		l-44.5-16.4c-3.6-1.2-5.5-5.1-4.3-8.7c0.1-0.2,0.2-0.5,0.3-0.7L916.4,975.7z M297.4,709c1.5-2.8,4.8-4,7.8-3l42.3,15.9
		c2.5,0.8,3.8,3.5,2.9,6c-0.1,0.3-0.2,0.5-0.3,0.8l-7.5,14.7c-1.5,2.8-4.8,4-7.7,2.9l-42.1-16.5c-2.5-0.9-3.8-3.7-2.9-6.2
		c0.1-0.2,0.2-0.5,0.3-0.7L297.4,709z M355.5,729c1.4-2.8,4.7-4,7.6-2.9l41.7,16.4c2.6,1,4,3.9,3,6.5l0,0l0,0
		c-0.1,0.2-0.1,0.3-0.2,0.5l-6.8,14.7c-1.4,2.8-4.6,4.1-7.5,3l-42.4-16.3c-2.5-0.9-3.9-3.7-2.9-6.2c0.1-0.2,0.2-0.4,0.3-0.6
		L355.5,729z M413,751.9c1.4-2.8,4.7-4.1,7.6-3.1l43.2,15.9c2.5,0.8,3.8,3.5,3,6c-0.1,0.3-0.2,0.5-0.3,0.7l-7.1,14.1
		c-1.5,2.8-4.7,4.1-7.7,3L409,772.3c-2.5-0.9-3.9-3.7-3-6.2c0.1-0.2,0.2-0.4,0.3-0.6L413,751.9z M471.3,773c1.4-2.8,4.7-4.1,7.7-3.1
		l43.4,15.5c2.6,0.8,4,3.6,3.1,6.1c-0.1,0.2-0.2,0.5-0.3,0.7l-6.7,14.5c-1.4,2.8-4.6,4.1-7.5,3.1l-43.5-16.3c-2.5-0.9-3.9-3.6-3-6.2
		c0.1-0.2,0.2-0.4,0.3-0.6L471.3,773z M530.6,793.7c1.4-2.8,4.7-4,7.6-3l44.2,16.5c2.6,0.9,3.9,3.7,3,6.2c-0.1,0.2-0.2,0.4-0.3,0.6
		l-7,14.7c-1.4,2.8-4.6,4.1-7.5,3l-44-17.4c-2.6-1-3.9-3.9-2.9-6.5c0.1-0.2,0.1-0.3,0.2-0.5L530.6,793.7z M591.5,815.9
		c1.4-2.8,4.7-4,7.6-3l44.2,16.5c2.6,0.9,3.9,3.7,3,6.2c-0.1,0.2-0.2,0.4-0.3,0.6l-7,14.7c-1.4,2.8-4.6,4.1-7.5,3l-44-17.4
		c-2.6-1-3.9-3.9-2.9-6.5c0.1-0.2,0.1-0.3,0.2-0.5L591.5,815.9z M651.4,838.5c1.4-2.8,4.7-4,7.6-3l44.2,16.5c2.6,0.9,3.9,3.7,3,6.2
		c-0.1,0.2-0.2,0.4-0.3,0.6l-7,14.7c-1.4,2.8-4.6,4.1-7.5,3l-44-17.4c-2.6-1-3.9-3.9-2.9-6.5c0.1-0.2,0.1-0.3,0.2-0.5L651.4,838.5z
		 M712.4,860.9c1.3-2.8,4.6-4.2,7.5-3.1l45.7,17.1c2.6,0.9,4,3.8,3.1,6.5l0,0l0,0c-0.1,0.1-0.1,0.3-0.2,0.4l-6.3,14.2
		c-1.3,2.8-4.5,4.2-7.5,3.2l-45.9-16.8c-2.6-0.9-4-3.7-3.1-6.4c0.1-0.2,0.1-0.3,0.2-0.5L712.4,860.9z M774.9,884.7
		c1.4-2.8,4.6-4.1,7.6-3.2l45.5,16.2c2.6,0.9,4,3.6,3.1,6.2c-0.1,0.2-0.1,0.4-0.2,0.6l-7,15.3c-1.3,2.8-4.6,4.1-7.5,3.1L771,905.6
		c-2.6-0.9-3.9-3.8-3-6.4c0.1-0.2,0.1-0.3,0.2-0.4L774.9,884.7z M837.4,906.8c1.4-2.8,4.7-4.1,7.6-3l46.4,17.7
		c2.6,0.9,3.9,3.8,3,6.4c-0.1,0.2-0.1,0.3-0.2,0.5l-6.8,14.4c-1.4,2.8-4.6,4.1-7.5,3.1l-47.1-17.6c-2.5-0.9-3.8-3.6-3-6.1
		c0.1-0.2,0.2-0.4,0.3-0.7L837.4,906.8z M900.5,930.4c1.3-2.8,4.6-4.1,7.4-3l46.4,18.1c2.6,0.9,3.9,3.8,3,6.4v0.1
		c-0.1,0.2-0.1,0.3-0.2,0.5l-6.7,14.5c-1.3,2.8-4.6,4.1-7.5,3l-46-18.4c-2.7-1-4-4-2.9-6.7l0,0l0,0l0.1-0.3L900.5,930.4z
		 M963.5,954.4c1.2-2.8,4.5-4.2,7.4-3.2l48.2,17.4c2.7,0.9,4.1,3.9,3.2,6.6l0,0l0,0l-0.1,0.3l-6.5,15.7c-1.2,2.8-4.4,4.2-7.2,3.1
		l-47.8-18.9c-2.7-1-4.1-4.1-3.1-6.8l0,0l0.1-0.2L963.5,954.4z M1027.7,977.9c1.4-2.8,4.7-4,7.6-3l48.2,18.2c2.6,1,4,3.9,3.1,6.5
		c-0.1,0.1-0.1,0.3-0.2,0.4l-6.2,13.9c-1.3,2.8-4.5,4.2-7.4,3.1l-49-18.7c-2.5-0.9-3.9-3.7-3-6.2c0.1-0.2,0.2-0.4,0.3-0.6
		L1027.7,977.9z M1093.4,1002.7c1.3-2.8,4.5-4.2,7.4-3.1l82.3,30.6c2.6,0.9,3.9,3.8,3,6.4c-0.1,0.2-0.1,0.3-0.2,0.5l-6.8,14.6
		c-1.4,2.8-4.6,4.1-7.5,3.1l-82-30.5c-2.6-0.9-4-3.8-3.1-6.4c0.1-0.2,0.1-0.3,0.2-0.5L1093.4,1002.7z M248.4,799.5
		c2.1-3.7,6.6-5.4,10.6-4.1l38.6,13.9c3.3,1.1,5.2,4.7,4.1,8c-0.1,0.4-0.3,0.7-0.5,1.1L281,858.1c-2,3.8-6.5,5.5-10.5,4.1
		l-39.3-14.5c-3.3-1.1-5.1-4.7-4-8c0.1-0.4,0.3-0.8,0.5-1.2L248.4,799.5z M306.6,821.2c2.1-3.8,6.6-5.5,10.7-4.1l39.8,14.1
		c3.3,1,5.1,4.5,4,7.8c-0.1,0.4-0.3,0.8-0.5,1.2L339.3,880c-2.1,3.7-6.6,5.4-10.7,4l-39.3-14.5c-3.3-1.1-5.1-4.7-4-8
		c0.1-0.4,0.3-0.8,0.5-1.2L306.6,821.2z M366,842.3c2.1-3.7,6.6-5.4,10.6-4l39.4,14.8c3.3,1.1,5.1,4.8,4,8.1
		c-0.1,0.4-0.3,0.7-0.5,1.1l-21.4,41c-2.1,3.7-6.5,5.4-10.5,3.9l-39.2-15.7c-3.4-1.3-5.1-5-3.9-8.4c0.1-0.3,0.2-0.6,0.4-0.9
		L366,842.3z M484.7,885.8c1.9-3.8,6.4-5.5,10.3-4l40.2,16.1c3.5,1.3,5.3,5.2,3.9,8.7c-0.1,0.2-0.2,0.5-0.3,0.7l-20.7,41.8
		c-2,3.8-6.4,5.5-10.4,4.1l-40.3-15.5c-3.5-1.2-5.3-5.1-4-8.6c0.1-0.3,0.2-0.5,0.4-0.8L484.7,885.8z M545.1,908.8
		c1.9-3.8,6.4-5.5,10.4-4l40.7,16c3.5,1.3,5.3,5.2,4,8.7c-0.1,0.3-0.2,0.5-0.3,0.7L579,972.7c-1.9,3.8-6.4,5.5-10.3,4l-40.9-16
		c-3.5-1.3-5.3-5.1-4-8.6c0.1-0.3,0.2-0.5,0.4-0.8L545.1,908.8z M606.5,932.2c1.9-3.8,6.4-5.5,10.4-4l40.1,15.7
		c3.6,1.3,5.4,5.3,4.1,8.9l0,0l0,0c-0.1,0.2-0.2,0.4-0.2,0.6L641,996.2c-1.8,3.8-6.2,5.5-10.2,4l-41.3-16.6
		c-3.5-1.3-5.3-5.3-3.9-8.8c0.1-0.2,0.2-0.5,0.3-0.7L606.5,932.2z M424.7,864.2c2.1-3.7,6.6-5.4,10.6-4l40.6,15.6
		c3.4,1.2,5.1,4.9,4,8.2c-0.1,0.4-0.3,0.7-0.5,1l-21.9,42c-2,3.7-6.5,5.4-10.5,3.9l-40.9-16.6c-3.4-1.3-5.1-5-3.8-8.4
		c0.1-0.3,0.3-0.7,0.5-1L424.7,864.2z M667.3,955.9c1.9-3.8,6.3-5.5,10.3-4.1l42.2,16.2c3.5,1.3,5.3,5.1,4,8.6
		c-0.1,0.3-0.2,0.5-0.3,0.8l-20.8,43c-1.9,3.8-6.3,5.5-10.3,4l-41.9-16.6c-3.5-1.3-5.3-5.3-4-8.8c0.1-0.2,0.2-0.5,0.3-0.7
		L667.3,955.9z M730.7,978.2c1.9-3.8,6.3-5.5,10.2-4l41.5,16.9c3.6,1.4,5.4,5.6,4,9.2l0,0l-0.2,0.4l-19.7,43.1
		c-1.8,3.8-6.2,5.6-10.2,4.3l-43.6-16c-3.5-1.2-5.3-4.9-4.1-8.4c0.1-0.3,0.2-0.6,0.4-0.9L730.7,978.2z M856.3,1026.7
		c1.8-3.8,6.2-5.6,10.2-4.2l43.9,16.3c3.6,1.3,5.5,5.2,4.2,8.9l0,0l0,0c-0.1,0.2-0.1,0.4-0.2,0.6l-20,45.1
		c-1.8,3.8-6.1,5.7-10.1,4.3l-45-16.6c-3.5-1.2-5.4-5.1-4.2-8.6c0.1-0.3,0.2-0.5,0.3-0.7L856.3,1026.7z M920,1050.9
		c1.8-3.8,6.2-5.6,10.2-4.2l44.4,16.6c3.7,1.3,5.6,5.4,4.2,9.1l0,0l0,0c-0.1,0.1-0.1,0.3-0.2,0.4l-19.2,45c-1.7,3.9-6.1,5.7-10,4.2
		l-45.7-17.7c-3.6-1.4-5.4-5.4-4-9l0.2-0.5L920,1050.9z M984.5,1076.4c1.8-3.8,6.2-5.7,10.2-4.4l45.1,16.1c3.5,1.2,5.5,5,4.3,8.5
		c-0.1,0.3-0.2,0.5-0.3,0.8l-20.4,45.2c-1.8,3.8-6.2,5.7-10.1,4.2l-44.7-16.7c-3.6-1.3-5.5-5.2-4.2-8.8l0,0l0,0
		c0.1-0.2,0.2-0.4,0.2-0.6L984.5,1076.4z M1050.1,1100.3c1.8-3.8,6.2-5.7,10.1-4.3l80.1,29.8c3.7,1.3,5.6,5.5,4.3,9.2l-0.1,0.4
		l-18.8,45.3c-1.6,3.9-6,5.7-9.9,4.3l-81.7-30.7c-3.6-1.3-5.5-5.4-4.1-9l0,0l0,0c0.1-0.2,0.1-0.3,0.2-0.5L1050.1,1100.3z
		 M792.6,1003c1.9-3.8,6.3-5.6,10.3-4.1l42.3,16.4c3.7,1.4,5.5,5.5,4.2,9.2l0,0l-0.2,0.4l-19.1,43.9c-1.7,3.8-6.1,5.7-10,4.3
		l-44.7-16.8c-3.5-1.2-5.3-5.1-4.1-8.6c0.1-0.3,0.2-0.5,0.3-0.8L792.6,1003z M154.3,977.8c2.1-3.7,6.6-5.4,10.6-4l39.4,15.1
		c3.4,1.2,5.1,4.9,3.9,8.3c-0.1,0.3-0.3,0.7-0.5,1l-22.3,42.6c-2,3.7-6.5,5.3-10.4,3.8l-39.3-16.5c-3.4-1.3-5.1-5.2-3.8-8.6
		c0.1-0.3,0.3-0.6,0.4-0.9L154.3,977.8z M211.9,1001.1c2.1-3.7,6.5-5.4,10.5-4l40.7,15.5c3.4,1.2,5.2,4.9,4,8.3
		c-0.1,0.4-0.3,0.7-0.5,1l-6.8,13.2c-2,3.8-6.5,5.5-10.5,4l-40.6-15.8c-3.4-1.2-5.2-4.9-3.9-8.3c0.1-0.3,0.3-0.7,0.4-1L211.9,1001.1
		z M197.1,1030.1c2.1-3.7,6.5-5.4,10.5-4l40.7,15.5c3.4,1.2,5.2,4.9,4,8.3c-0.1,0.4-0.3,0.7-0.5,1l-6.9,13.3c-2,3.8-6.5,5.5-10.5,4
		l-40.6-15.8c-3.4-1.2-5.2-4.9-3.9-8.3c0.1-0.3,0.3-0.7,0.4-1L197.1,1030.1z M271.4,1023.9c2-3.7,6.5-5.4,10.5-4l40.5,15.4
		c3.4,1.2,5.2,4.9,4,8.3c-0.1,0.3-0.3,0.7-0.4,1l-22.1,43c-2,3.7-6.5,5.4-10.5,3.9l-40.2-16.2c-3.4-1.3-5.2-5.1-3.9-8.6
		c0.1-0.3,0.2-0.6,0.4-0.8L271.4,1023.9z M391,1071c1.9-3.8,6.3-5.5,10.3-4.1l57.6,22.4c3.5,1.3,5.3,5.2,4,8.8
		c-0.1,0.2-0.2,0.4-0.3,0.7l-20.8,44c-1.9,3.8-6.3,5.6-10.3,4.1l-57.9-22.4c-3.5-1.3-5.3-5.2-4.1-8.7c0.1-0.2,0.2-0.5,0.3-0.7
		L391,1071z M466.9,1101.7c1.9-3.8,6.4-5.5,10.4-4l295.9,115.9c3.6,1.4,5.4,5.4,4.1,9c-0.1,0.2-0.1,0.3-0.2,0.5l-21.1,46.6
		c-1.8,3.8-6.2,5.6-10.1,4l-296-120.6c-3.5-1.4-5.3-5.3-3.9-8.9c0.1-0.2,0.2-0.4,0.3-0.6L466.9,1101.7z M330.9,1047.2
		c1.9-3.8,6.4-5.5,10.4-4.1l41.2,15.5c3.4,1.2,5.2,4.9,4.1,8.4c-0.1,0.3-0.2,0.6-0.4,0.9l-21.9,44.2c-1.9,3.8-6.4,5.5-10.4,4
		l-40.5-16c-3.5-1.3-5.3-5.2-4-8.7c0.1-0.3,0.2-0.5,0.3-0.7L330.9,1047.2z M782.9,1225.9c1.8-3.8,6.2-5.6,10.2-4.2l61.3,23.6
		c3.7,1.4,5.6,5.6,4.2,9.3l0,0l0,0l-0.1,0.3l-19.8,47.3c-1.6,3.8-6,5.7-9.9,4.1l-62.9-25.4c-3.6-1.4-5.4-5.5-4-9.2l0,0l0,0
		c0.1-0.1,0.1-0.3,0.2-0.4L782.9,1225.9L782.9,1225.9z M864.4,1257.6c1.8-3.8,6.2-5.6,10.2-4.1l45.6,17.7c3.6,1.4,5.4,5.4,4.1,9
		c-0.1,0.2-0.1,0.3-0.2,0.5l-21.2,47c-1.8,3.8-6.2,5.5-10.1,4l-45.9-18.5c-3.6-1.4-5.4-5.4-4-9c0.1-0.2,0.1-0.4,0.2-0.5
		L864.4,1257.6z M929.4,1284c1.8-3.8,6.2-5.6,10.2-4.2l46.7,17.7c3.7,1.3,5.5,5.4,4.2,9.1l0,0l0,0c-0.1,0.1-0.1,0.3-0.2,0.4
		l-20.8,47.8c-1.7,3.8-6.1,5.6-9.9,4l-47.2-19.3c-3.7-1.5-5.5-5.6-4-9.3l0,0l0,0l0.2-0.4L929.4,1284z M996.9,1310.5
		c1.8-3.8,6.2-5.6,10.2-4.2l46.7,17.7c3.7,1.3,5.5,5.4,4.2,9.1l0,0l0,0c-0.1,0.1-0.1,0.3-0.2,0.4l-20.8,47.8c-1.7,3.8-6.1,5.6-9.9,4
		l-47.2-19.3c-3.7-1.5-5.5-5.6-4-9.3l0,0l0,0l0.2-0.4L996.9,1310.5z M218.3,858.4c2.1-3.7,6.6-5.4,10.7-4l81.8,30.8
		c3.3,1.1,5.1,4.8,4,8.1c-0.1,0.4-0.3,0.7-0.5,1.1l-21.5,40.9c-2.1,3.7-6.5,5.4-10.6,4l-82.3-31.4c-3.3-1.1-5.1-4.7-3.9-8.1
		c0.1-0.4,0.3-0.8,0.5-1.1L218.3,858.4z M319.8,897.3c2.1-3.7,6.6-5.4,10.6-4l39.5,14.8c3.3,1.1,5.1,4.8,4,8.1
		c-0.1,0.4-0.3,0.7-0.5,1.1l-21.5,40.9c-2.1,3.7-6.5,5.4-10.5,3.9l-39.3-15.6c-3.4-1.3-5.1-5-3.9-8.4c0.1-0.3,0.3-0.6,0.4-0.9
		L319.8,897.3z M438.8,941.7c1.9-3.8,6.4-5.5,10.3-4l41.3,16.3c3.4,1.2,5.2,5,3.9,8.4c-0.1,0.3-0.3,0.6-0.4,0.9l-21.6,41.8
		c-2,3.7-6.5,5.4-10.5,4l-40.3-15.5c-3.5-1.2-5.3-5.1-4-8.6c0.1-0.3,0.2-0.5,0.4-0.8L438.8,941.7z M499.1,965.5
		c2-3.8,6.4-5.5,10.5-4.2l41.8,15.3c3.4,1.1,5.3,4.8,4.1,8.3c-0.1,0.3-0.3,0.7-0.4,1l-21.6,43.8c-1.9,3.8-6.4,5.5-10.3,4l-41.8-16.3
		c-3.4-1.3-5.2-5.1-4-8.5c0.1-0.3,0.2-0.6,0.4-0.9L499.1,965.5z M560.5,988.2c2-3.7,6.4-5.4,10.4-4l41.8,16c3.5,1.3,5.3,5.1,4.1,8.6
		c-0.1,0.3-0.2,0.5-0.3,0.8l-21.1,43.6c-1.9,3.8-6.3,5.5-10.3,4l-42.4-17c-3.5-1.3-5.2-5.2-3.9-8.6c0.1-0.3,0.2-0.5,0.4-0.8
		L560.5,988.2z M379.6,919.9c2.1-3.7,6.6-5.4,10.6-4l40.6,15.5c3.4,1.2,5.1,4.9,4,8.2c-0.1,0.4-0.3,0.7-0.5,1l-21.9,42
		c-2,3.7-6.5,5.4-10.5,3.9L361.1,970c-3.4-1.3-5.1-5-3.8-8.4c0.1-0.3,0.3-0.7,0.5-1L379.6,919.9z M621.7,1011.9
		c1.9-3.8,6.3-5.6,10.3-4.1l42.7,16.4c3.5,1.2,5.3,5.1,4,8.6c-0.1,0.3-0.2,0.5-0.4,0.8l-21.4,43.8c-1.9,3.8-6.4,5.5-10.3,4
		l-41.9-16.6c-3.6-1.3-5.3-5.3-4-8.9l0,0l0,0c0.1-0.2,0.2-0.4,0.3-0.6L621.7,1011.9z M683.9,1035.5c1.9-3.8,6.4-5.5,10.4-4.1
		l43.8,16.7c3.5,1.3,5.4,5.2,4.1,8.7c-0.1,0.2-0.2,0.5-0.3,0.7l-21,44.5c-1.9,3.8-6.3,5.6-10.3,4.1l-44.5-17.2
		c-3.5-1.3-5.3-5.1-4-8.6c0.1-0.3,0.2-0.5,0.3-0.8L683.9,1035.5z M809.6,1083.9c1.8-3.8,6.2-5.6,10.2-4.2l45.3,16.9
		c3.6,1.3,5.5,5.2,4.2,8.8c-0.1,0.2-0.1,0.4-0.2,0.6l-20.1,45.1c-1.8,3.8-6.1,5.7-10.1,4.2l-46.2-17.4c-3.5-1.3-5.4-5.2-4.1-8.7
		c0.1-0.2,0.2-0.5,0.3-0.7L809.6,1083.9z M874.6,1108.8c1.8-3.8,6.2-5.6,10.2-4.2l44.4,16.6c3.7,1.3,5.6,5.4,4.2,9.1l0,0l0,0
		c-0.1,0.1-0.1,0.3-0.2,0.4l-19.2,45c-1.7,3.9-6.1,5.7-10,4.2l-45.6-17.7c-3.6-1.4-5.4-5.4-4-9l0.2-0.5L874.6,1108.8z M938.9,1133.3
		c1.8-3.8,6.2-5.7,10.2-4.3l46.2,16.8c3.6,1.3,5.5,5.3,4.2,8.9c-0.1,0.2-0.1,0.3-0.2,0.5l-20.1,46.6c-1.7,3.8-6.1,5.7-10,4.1
		l-46.3-18.5c-3.7-1.5-5.4-5.6-4-9.3l0.2-0.3L938.9,1133.3z M1005.7,1157.5c1.7-3.8,6.1-5.6,10-4.2l96.9,37.3
		c3.6,1.3,5.4,5.3,4.1,8.9l0,0l0,0c-0.1,0.2-0.2,0.4-0.2,0.6l-21.4,46.9c-1.8,3.8-6.2,5.6-10.2,4.2l-96-36.7
		c-3.7-1.4-5.5-5.4-4.2-9.1c0.1-0.1,0.1-0.3,0.2-0.4L1005.7,1157.5z M746.8,1059.3c1.8-3.8,6.2-5.6,10.1-4.1l43.9,17.2
		c3.6,1.4,5.5,5.5,4.1,9.1l0,0l-0.2,0.4l-19.9,44.6c-1.8,3.8-6.1,5.7-10.1,4.2l-44.6-16.8c-3.6-1.3-5.4-5.2-4.2-8.8l0,0
		c0.1-0.2,0.2-0.4,0.3-0.6L746.8,1059.3z M186.6,917.2c2.1-3.8,6.5-5.5,10.6-4l112.6,44c3.3,1.2,5.1,4.8,3.9,8.2
		c-0.1,0.4-0.3,0.7-0.5,1.1l-22.8,42c-2.1,3.7-6.6,5.3-10.6,3.8l-111.3-45c-3.4-1.3-5.1-5-3.8-8.4c0.1-0.3,0.3-0.6,0.4-0.9
		L186.6,917.2z M318,967.4c2-3.7,6.5-5.4,10.5-4l40.9,15.7c3.4,1.2,5.2,5,4,8.4c-0.1,0.3-0.2,0.6-0.4,0.9l-21.8,43.4
		c-2,3.7-6.4,5.4-10.4,3.9l-41.2-16.7c-3.4-1.3-5.2-5.1-3.9-8.6c0.1-0.3,0.2-0.6,0.4-0.8L318,967.4z M437.8,1014.2
		c1.9-3.8,6.4-5.5,10.4-4l41.7,16.3c3.5,1.3,5.3,5.2,4,8.7c-0.1,0.3-0.2,0.5-0.3,0.7l-21.2,43.7c-1.9,3.8-6.3,5.5-10.3,3.9
		l-41.5-17.1c-3.6-1.4-5.3-5.4-3.9-8.9c0,0,0,0,0-0.1l0,0c0.1-0.2,0.2-0.4,0.3-0.6L437.8,1014.2z M498.9,1038.8
		c2-3.8,6.4-5.5,10.4-4.1l42.2,16.1c3.4,1.2,5.2,5,4,8.4c-0.1,0.3-0.2,0.6-0.4,0.9l-21.9,43.5c-2,3.8-6.4,5.4-10.4,3.9l-41.8-16.8
		c-3.5-1.3-5.2-5.2-3.9-8.7c0.1-0.3,0.2-0.5,0.4-0.8L498.9,1038.8z M561.4,1062.2c2-3.8,6.4-5.5,10.4-4l41.8,16.5
		c3.5,1.3,5.3,5.2,4,8.7c-0.1,0.3-0.2,0.5-0.3,0.7l-21,43.1c-1.9,3.8-6.4,5.5-10.3,4l-42.4-17c-3.5-1.3-5.2-5.2-3.9-8.6
		c0.1-0.3,0.2-0.5,0.4-0.8L561.4,1062.2z M378.2,991c2.1-3.7,6.6-5.4,10.6-4l40.6,15.5c3.4,1.2,5.2,5,4,8.4
		c-0.1,0.3-0.2,0.6-0.4,0.9l-22,44.1c-1.9,3.8-6.4,5.4-10.3,3.8l-41.7-17.5c-3.4-1.3-5.1-5.2-3.7-8.6c0.1-0.3,0.3-0.6,0.4-0.8
		L378.2,991z M622.3,1086.8c1.9-3.8,6.3-5.6,10.3-4.1l42.7,16.4c3.5,1.2,5.3,5.1,4,8.6c-0.1,0.3-0.2,0.5-0.4,0.8l-21.4,43.7
		c-1.9,3.8-6.4,5.5-10.3,4l-41.9-16.6c-3.6-1.3-5.3-5.3-4-8.9l0,0l0,0c0.1-0.2,0.2-0.4,0.3-0.6L622.3,1086.8z M685,1111.1
		c1.9-3.8,6.4-5.5,10.4-4.1l43.7,16.7c3.5,1.2,5.4,5.1,4.2,8.6c-0.1,0.3-0.2,0.5-0.3,0.8l-21,44.5c-1.9,3.8-6.3,5.6-10.2,4.1
		l-44.5-17.2c-3.5-1.3-5.3-5.1-4-8.6c0.1-0.3,0.2-0.5,0.3-0.8L685,1111.1z M812,1161c1.8-3.8,6.2-5.6,10.2-4.2l45.3,16.9
		c3.6,1.3,5.5,5.2,4.2,8.8c-0.1,0.2-0.1,0.4-0.2,0.6l-20.1,45.2c-1.8,3.8-6.1,5.7-10.1,4.2l-46.2-17.3c-3.5-1.3-5.4-5.2-4.1-8.7
		c0.1-0.2,0.2-0.5,0.3-0.7L812,1161z M876.1,1186.2c1.8-3.8,6.2-5.7,10.2-4.2l46.4,17.3c3.6,1.3,5.5,5.2,4.2,8.8
		c-0.1,0.2-0.2,0.4-0.2,0.6l-20.5,46c-1.7,3.8-6.1,5.6-10.1,4.2l-46.5-17.9c-3.6-1.4-5.5-5.4-4.1-9c0.1-0.2,0.1-0.3,0.2-0.5
		L876.1,1186.2z M943,1211.1c1.6-3.8,6-5.7,9.9-4.3l130.6,49.8c3.6,1.3,5.4,5.3,4.1,8.9l0,0l0,0c-0.1,0.2-0.2,0.4-0.2,0.6L1066,1313
		c-1.8,3.8-6.2,5.6-10.1,4.1l-128.2-49.7c-3.7-1.4-5.6-5.6-4.2-9.4l0,0l0,0l0.1-0.2L943,1211.1z M748.9,1135.2
		c1.8-3.8,6.2-5.6,10.1-4.1l43.9,17.2c3.6,1.4,5.5,5.5,4.1,9.1l0,0l-0.2,0.4l-19.8,44.6c-1.8,3.8-6.1,5.7-10.1,4.2l-44.6-16.8
		c-3.6-1.3-5.4-5.2-4.2-8.8l0,0c0.1-0.2,0.2-0.4,0.3-0.6L748.9,1135.2z"/>
</g>
</svg>
