<?xml version="1.0" encoding="UTF-8"?>
<svg width="98px" height="20px" viewBox="0 0 98 20" version="1.1" xmlns="http://www.w3.org/2000/svg" xmlns:xlink="http://www.w3.org/1999/xlink">
    <!-- Generator: Sketch 46.1 (44463) - http://www.bohemiancoding.com/sketch -->
    <title>Group</title>
    <desc>Created with Sketch.</desc>
    <defs></defs>
    <g id="About" stroke="none" stroke-width="1" fill="none" fill-rule="evenodd">
        <g id="iPhone-7-Copy-12" transform="translate(-47.000000, -2631.000000)" fill="#3B5998">
            <g id="Group-25" transform="translate(5.000000, 2291.000000)">
                <g id="Group-22" transform="translate(0.000000, 300.000000)">
                    <g id="Group" transform="translate(42.000000, 40.500000)">
                        <path d="M9.18318311,0.00226893204 L9.18318311,2.91738544 L7.53768599,2.91738544 C7.53768599,2.91738544 6.05132131,2.7091233 6.05132131,4.11475437 L6.05132131,6.40526893 L9.18318311,6.40526893 L8.81168599,9.5692301 L6.05132131,9.5692301 L6.05132131,18.4302398 L2.44187409,18.4302398 L2.44187409,9.52883204 L-3.76199582e-05,9.52883204 L-3.76199582e-05,6.40526893 L2.54796238,6.40526893 L2.54796238,3.75024951 C2.54796238,3.75024951 2.2295094,2.2927835 3.55655355,1.09541456 C4.8835977,-0.101769903 6.63518311,0.00226893204 6.63518311,0.00226893204 L9.18318311,0.00226893204 Z" id="Fill-1"></path>
                        <path d="M17.6921225,13.6669951 C17.6921225,14.8745097 16.6455351,16.0097136 15.3546061,16.0097136 C14.0634891,16.0097136 13.0169017,14.8745097 13.0169017,13.6669951 L13.0169017,11.376665 C13.0169017,10.1691505 14.0634891,9.03413107 15.3546061,9.03413107 C16.6455351,9.03413107 17.6921225,10.1691505 17.6921225,11.376665 L17.6921225,13.6669951 Z M17.8864296,6.45732524 L17.8864296,8.04576214 C16.9654929,6.85724757 15.6775735,6.1188301 14.2525294,6.1188301 C11.4528518,6.1188301 9.18323954,8.53957767 9.18323954,12.4827233 C9.18323954,16.4000437 11.4528518,18.8466165 14.2525294,18.8466165 C15.6911167,18.8466165 16.9897578,18.0943641 17.9125754,16.8859272 L17.8886868,18.4302767 L21.3655236,18.4302767 L21.3655236,6.45732524 L17.8864296,6.45732524 Z" id="Fill-4"></path>
                        <path d="M49.9608702,11.2986359 C49.9608702,10.0911214 51.0074576,8.95591748 52.2983866,8.95591748 C53.5895036,8.95591748 54.636091,10.0911214 54.636091,11.2986359 L54.636091,13.588966 C54.636091,14.7964806 53.5895036,15.9315 52.2983866,15.9315 C51.0074576,15.9315 49.9608702,14.7964806 49.9608702,13.588966 L49.9608702,11.2986359 Z M49.7665631,18.5083058 L49.7665631,16.9198689 C50.6874998,18.1083835 51.9754192,18.846801 53.4004633,18.846801 C56.2001409,18.846801 58.4697532,16.4260534 58.4697532,12.4827233 C58.4697532,8.56558738 56.2001409,6.1188301 53.4004633,6.1188301 C51.961876,6.1188301 50.6632349,6.87126699 49.7404173,8.07951942 L49.764306,0.172383495 L46.1486514,0.571383495 L46.1486514,18.4537039 L49.7665631,18.5083058 Z" id="Fill-6"></path>
                        <path d="M29.2215873,15.9429184 C29.2215873,15.9429184 26.4347006,16.0991612 26.4347006,12.5592583 L26.4347006,12.3657534 C26.4347006,8.82585049 29.2215873,8.9820932 29.2215873,8.9820932 C31.1059712,8.95589903 31.7695873,9.60669515 31.7695873,9.60669515 L32.64538,7.02988932 C31.1324933,5.93674369 26.567499,5.75449126 24.5237946,7.60247184 C22.7554683,9.20160777 22.7558445,11.7928019 22.7880096,12.4624136 C22.7558445,13.1320252 22.7554683,15.7234039 24.5237946,17.3223553 C26.567499,19.1703359 31.1324933,18.988268 32.64538,17.8951223 L31.7695873,15.3183165 C31.7695873,15.3183165 31.1059712,15.9689282 29.2215873,15.9429184" id="Fill-9"></path>
                        <path d="M36.8122798,11.3245534 C36.8122798,11.3245534 36.6264372,8.66971845 39.0683489,8.66971845 C41.5100726,8.66971845 41.3242299,11.3245534 41.3242299,11.3245534 L36.8122798,11.3245534 Z M44.6419344,13.7451165 C44.6419344,13.7451165 46.1015889,6.24897087 39.1213931,6.20838835 C32.1410092,6.16762136 33.1496004,12.9902816 33.1496004,12.9902816 C33.3089209,17.1287767 35.2463489,18.3261456 38.5640534,18.7164757 C41.8815697,19.1069903 44.4030476,17.8576019 44.4030476,17.8576019 L43.6333432,15.4370388 C43.6333432,15.4370388 40.9527328,16.2438932 38.8294622,16.0616408 C36.7061916,15.8795728 36.865324,13.7451165 36.865324,13.7451165 L44.6419344,13.7451165 Z" id="Fill-11"></path>
                        <polygon id="Fill-19" points="97.8815159 18.482499 93.9111052 12.4545184 97.7050783 6.4263534 93.8228864 6.4263534 90.1171321 11.8225379 90.1171321 0.110052427 86.470253 0.484887379 86.470253 18.482499 90.1171321 18.482499 90.1171321 12.3501107 94.1168864 18.482499"></polygon>
                        <path d="M68.0299447,13.6036864 C68.0299447,14.811201 66.9560829,15.9464049 65.631296,15.9464049 C64.3066971,15.9464049 63.2326472,14.811201 63.2326472,13.6036864 L63.2326472,11.3133563 C63.2326472,10.1058417 64.3066971,8.97082233 65.631296,8.97082233 C66.9560829,8.97082233 68.0299447,10.1058417 68.0299447,11.3133563 L68.0299447,13.6036864 Z M65.6623324,6.2822301 C61.1184054,6.2822301 59.5891539,8.97082233 59.5891539,12.5644049 C59.5891539,16.3769485 61.5596875,18.8467641 65.6623324,18.8467641 C69.0165282,18.8467641 71.735699,16.6366767 71.735699,12.5644049 C71.735699,9.09496796 70.0004783,6.2822301 65.6623324,6.2822301 L65.6623324,6.2822301 Z" id="Fill-13"></path>
                        <path d="M81.4411036,13.6036864 C81.4411036,14.811201 80.3672418,15.9464049 79.0424549,15.9464049 C77.717856,15.9464049 76.6438061,14.811201 76.6438061,13.6036864 L76.6438061,11.3133563 C76.6438061,10.1058417 77.717856,8.97082233 79.0424549,8.97082233 C80.3672418,8.97082233 81.4411036,10.1058417 81.4411036,11.3133563 L81.4411036,13.6036864 Z M79.0734914,6.2822301 C74.5295643,6.2822301 73.0003129,8.97082233 73.0003129,12.5644049 C73.0003129,16.3769485 74.9708464,18.8467641 79.0734914,18.8467641 C82.4276871,18.8467641 85.146858,16.6366767 85.146858,12.5644049 C85.146858,9.09496796 83.4116372,6.2822301 79.0734914,6.2822301 L79.0734914,6.2822301 Z" id="Fill-16"></path>
                    </g>
                </g>
            </g>
        </g>
    </g>
</svg>