<?xml version="1.0" encoding="UTF-8"?>
<svg width="84px" height="28px" viewBox="0 0 84 28" version="1.1" xmlns="http://www.w3.org/2000/svg" xmlns:xlink="http://www.w3.org/1999/xlink">
    <!-- Generator: Sketch 46.1 (44463) - http://www.bohemiancoding.com/sketch -->
    <title>Group 3</title>
    <desc>Created with Sketch.</desc>
    <defs></defs>
    <g id="About" stroke="none" stroke-width="1" fill="none" fill-rule="evenodd">
        <g id="iPhone-7-Copy-12" transform="translate(-54.000000, -2327.000000)">
            <g id="Group-25" transform="translate(5.000000, 2291.000000)">
                <g id="Group-9">
                    <g id="Group-3" transform="translate(49.000000, 36.500000)">
                        <path d="M20.6662909,9.56099077 L10.7863636,9.56099077 L10.7863636,12.4069569 L17.8180121,12.4069569 C17.4748848,16.39764 14.0838303,18.0995538 10.8830061,18.0995538 C6.78779394,18.0995538 3.21431515,14.9447077 3.21431515,10.5228554 C3.21431515,6.21531692 6.62081212,2.89788923 10.892,2.89788923 C14.1872606,2.89788923 16.129103,4.95470769 16.129103,4.95470769 L18.1641939,2.89124308 C18.1641939,2.89124308 15.5520485,0.0439476923 10.7879758,0.0439476923 C4.72139394,0.0438646154 0.028254545,5.05705846 0.028254545,10.4720123 C0.028254545,15.7780523 4.44300606,20.952 10.9425697,20.952 C16.6590667,20.952 20.8435394,17.1177508 20.8435394,11.4478338 C20.8435394,10.2516092 20.6661212,9.56024308 20.6661212,9.56024308 L20.6662909,9.56099077" id="Fill-1" fill="#4783F3"></path>
                        <path d="M29.0295515,7.50001846 C25.0102788,7.50001846 22.1299273,10.5766062 22.1299273,14.1647815 C22.1299273,17.8060431 24.9237333,20.9397877 29.0767273,20.9397877 C32.8362788,20.9397877 35.9163636,18.1263046 35.9163636,14.24304 C35.9163636,9.79219385 32.3335515,7.50001846 29.0295515,7.50001846 Z M29.0695152,10.1395385 C31.0459758,10.1395385 32.9189212,11.7041262 32.9189212,14.2252615 C32.9189212,16.6928954 31.0539515,18.3020123 29.0604364,18.3020123 C26.8699879,18.3020123 25.1419636,16.5843138 25.1419636,14.2056554 C25.1419636,11.8780062 26.8485212,10.1395385 29.0695152,10.1395385 L29.0695152,10.1395385 Z" id="Fill-2" fill="#EA4430"></path>
                        <path d="M43.9502424,7.50001846 C39.9310545,7.50001846 37.050703,10.5766062 37.050703,14.1647815 C37.050703,17.8060431 39.8445091,20.9397877 43.997503,20.9397877 C47.7570545,20.9397877 50.8371394,18.1263046 50.8371394,14.24304 C50.8371394,9.79219385 47.2543273,7.50001846 43.9502424,7.50001846 Z M43.9902909,10.1395385 C45.9667515,10.1395385 47.839697,11.7041262 47.839697,14.2252615 C47.839697,16.6928954 45.9747273,18.3020123 43.9812121,18.3020123 C41.7907636,18.3020123 40.0627394,16.5843138 40.0627394,14.2056554 C40.0627394,11.8780062 41.769297,10.1395385 43.9902909,10.1395385 L43.9902909,10.1395385 Z" id="Fill-3" fill="#FCBB07"></path>
                        <path d="M58.6685697,7.50708 C54.9793576,7.50708 52.0795758,10.6707323 52.0795758,14.2216062 C52.0795758,18.2664554 55.4414424,20.9486769 58.6049333,20.9486769 C60.5610303,20.9486769 61.601103,20.18844 62.3689818,19.3158 L62.3689818,20.6408769 C62.3689818,22.9593877 60.9313091,24.3476862 58.7612242,24.3476862 C56.6647879,24.3476862 55.6132606,22.82148 55.2478182,21.9554031 L52.6101333,23.0350708 C53.5459273,24.9723415 55.4296485,26.9926062 58.7830303,26.9926062 C62.4510303,26.9926062 65.2466182,24.7305046 65.2466182,19.9863138 L65.2466182,7.74492923 L62.3691515,7.74492923 L62.3691515,9.04948615 C61.4842667,8.11586769 60.2743273,7.50724615 58.6685697,7.50724615 L58.6685697,7.50708 Z M58.9355879,10.1412831 C60.744303,10.1412831 62.6015515,11.6534492 62.6015515,14.2358954 C62.6015515,16.8607108 60.7482061,18.3073292 58.8955394,18.3073292 C56.9288364,18.3073292 55.0988242,16.7437385 55.0988242,14.2608185 C55.0988242,11.6808646 56.9994303,10.1412831 58.935503,10.1412831 L58.9355879,10.1412831 L58.9355879,10.1412831 Z" id="Fill-4" fill="#4783F3"></path>
                        <path d="M77.7864606,7.49104615 C74.3065697,7.49104615 71.3847273,10.2019292 71.3847273,14.2020831 C71.3847273,18.4347692 74.6414667,20.9450215 78.1207636,20.9450215 C81.0245333,20.9450215 82.8067758,19.3895723 83.8704364,17.9959569 L81.497903,16.4503108 C80.8822424,17.38584 79.8529455,18.3001846 78.1352727,18.3001846 C76.2058182,18.3001846 75.3187273,17.2656277 74.7690788,16.2635538 L83.9717455,12.52476 L83.4939636,11.4290585 C82.6050061,9.28334769 80.5311394,7.49146154 77.7868,7.49146154 L77.7864606,7.49104615 Z M77.9063515,10.0754862 C79.1603273,10.0754862 80.0627758,10.7282215 80.4460364,11.5108892 L74.3003758,14.02596 C74.0353939,12.0788031 75.9194545,10.0754862 77.9063515,10.0754862 L77.9063515,10.0754862 Z" id="Fill-5" fill="#FCBB07"></path>
                        <polygon id="Fill-6" fill="#EA4430" points="67.1670788 20.5460862 69.9859152 20.5460862 69.9859152 0.738886154 67.1670788 0.738886154"></polygon>
                    </g>
                </g>
            </g>
        </g>
    </g>
</svg>