<?xml version="1.0" encoding="UTF-8"?>
<svg width="125px" height="22px" viewBox="0 0 125 22" version="1.1" xmlns="http://www.w3.org/2000/svg" xmlns:xlink="http://www.w3.org/1999/xlink">
    <!-- Generator: Sketch 46.1 (44463) - http://www.bohemiancoding.com/sketch -->
    <title>Group 12</title>
    <desc>Created with Sketch.</desc>
    <defs></defs>
    <g id="About" stroke="none" stroke-width="1" fill="none" fill-rule="evenodd">
        <g id="iPhone-7-Copy-12" transform="translate(-33.000000, -2830.000000)">
            <g id="Group-25" transform="translate(5.000000, 2291.000000)">
                <g id="Group-20" transform="translate(0.000000, 500.000000)">
                    <g id="Group-12" transform="translate(28.500000, 39.000000)">
                        <g id="Group-4" transform="translate(120.652912, 0.119796)" fill="#C4C4C4">
                            <polygon id="Fill-1" points="0.21103965 0.295422642 0.21103965 0.512101887 0.818833843 0.512101887 0.818833843 2.11561132 1.06590465 2.11561132 1.06590465 0.512101887 1.67534598 0.512101887 1.67534598 0.295422642"></polygon>
                            <path d="M1.89441544,0.295298113 L2.2448442,0.295298113 L2.76410469,1.83488302 L3.27965911,0.295298113 L3.62844074,0.295298113 L3.62844074,2.11548679 L3.39372347,2.11548679 L3.39372347,1.04122264 C3.39372347,1.00303396 3.39372347,0.942430189 3.39660596,0.857335849 C3.39866488,0.770581132 3.39866488,0.679675472 3.39866488,0.580467925 L2.88434581,2.11548679 L2.63974571,2.11548679 L2.12007344,0.580467925 L2.12007344,0.635675472 C2.12007344,0.680090566 2.12007344,0.748166038 2.12583843,0.839486792 C2.12583843,0.930807547 2.12789735,0.998883019 2.12789735,1.04122264 L2.12789735,2.11548679 L1.89441544,2.11548679 L1.89441544,0.295298113 Z" id="Fill-2"></path>
                        </g>
                        <path d="M9.6558155,2.26110189 C13.6023599,2.26110189 16.9616994,4.65412075 18.4573013,8.51740377 L13.4685299,8.51740377 C12.2788839,7.27544151 11.0497067,6.6968 9.60393063,6.6968 C6.86309178,6.6968 4.63327772,8.95615849 4.63327772,11.7335547 C4.63327772,14.6504226 6.90921167,17.1144226 9.60393063,17.1144226 C11.400959,17.1144226 12.9599758,16.1721585 13.8811381,14.5288 L13.9676129,14.3739698 L13.7913691,14.3739698 L8.58146926,14.3739698 L8.58146926,10.8352906 L18.9810914,10.8352906 C19.0045632,11.2175925 19.0272113,11.6098566 19.0272113,11.9718189 C19.0272113,14.0576679 18.5108333,15.8334415 17.4488406,17.3991774 C15.6781665,19.9976679 12.745436,21.5488755 9.60393063,21.5488755 C6.90427025,21.5488755 4.60486458,20.5568 2.76912846,18.6004604 C1.03427959,16.7474792 0.154295721,14.4283472 0.154295721,11.7074038 C0.154295721,9.13755472 1.12116616,6.81883774 2.94990194,5.00155472 C4.77946128,3.18302642 7.03562956,2.26110189 9.6558155,2.26110189" id="Fill-8" fill="#53A318"></path>
                        <path d="M26.4589778,2.52672075 C28.4211318,2.52672075 29.9134395,2.65872075 31.1693827,3.55573962 C32.8185804,4.71675849 33.6820929,6.48423019 33.6820929,8.80502264 C33.6820929,11.8397774 32.1115461,14.1082679 29.468712,14.8467208 L34.0226388,21.2840038 L28.3956011,21.2840038 L24.8361343,15.2423057 L24.8361343,21.2840038 L20.2822075,21.2840038 L20.2822075,2.52672075 L26.4589778,2.52672075 Z M24.7331881,11.2835509 L24.8361343,11.2835509 L25.7255892,11.2835509 C28.1456478,11.2835509 29.1784038,10.5737396 29.1784038,8.9104566 C29.1784038,7.32479623 28.2267694,6.61747547 26.0920776,6.61747547 L24.8361343,6.61747547 L24.7331881,6.61747547 L24.7331881,6.72124906 L24.7331881,11.1797774 L24.7331881,11.2835509 Z" id="Combined-Shape" fill="#53A318"></path>
                        <path d="M43.9942108,2.28779245 C46.4550361,2.28779245 48.790267,3.26118868 50.5687651,5.02824528 C52.4325025,6.88039623 53.4179033,9.21737736 53.4179033,11.7868113 C53.4179033,14.4496415 52.4955056,16.814434 50.7503621,18.6267358 C48.9751583,20.4946604 46.5662179,21.5232642 43.9678566,21.5232642 C41.2344299,21.5232642 38.9259649,20.5399057 37.1075238,18.6005849 C35.3718513,16.7467736 34.4918675,14.4276415 34.4918675,11.7075283 C34.4918675,9.13767925 35.4587379,6.81854717 37.2878855,5.00167925 C39.0997381,3.201 41.3563181,2.28779245 43.9942108,2.28779245 Z M43.9678566,17.087566 C46.7869345,17.087566 48.9125671,14.7974906 48.9125671,11.7602453 C48.9125671,8.98284906 46.7177547,6.72307547 44.0201533,6.72307547 C41.1887218,6.72307547 38.9708495,8.9355283 38.9708495,11.7602453 C38.9708495,14.6480566 41.259137,17.087566 43.9678566,17.087566 Z" id="Combined-Shape" fill="#53A318"></path>
                        <path d="M68.2830421,2.63041132 L68.2830421,14.2663358 C68.2830421,18.7099208 65.6649151,21.4702981 61.4507106,21.4702981 C57.225388,21.4702981 54.8016234,18.8444113 54.8016234,14.2663358 L54.8016234,2.63041132 L59.1751885,2.63041132 L59.1751885,14.082034 C59.1751885,16.3306 59.9065181,17.377883 61.4766531,17.377883 C63.1307922,17.377883 63.9350076,16.299883 63.9350076,14.082034 L63.9350076,2.63041132 L68.2830421,2.63041132 L68.2830421,2.63041132 Z" id="Fill-20" fill="#53A318"></path>
                        <path d="M74.2024469,11.2835509 L74.3053931,11.2835509 L75.1421396,11.2835509 C77.56261,11.2835509 78.5953659,10.5737396 78.5953659,8.9104566 C78.5953659,7.32479623 77.6437315,6.61747547 75.5094515,6.61747547 L74.3053931,6.61747547 L74.2024469,6.61747547 L74.2024469,6.72124906 L74.2024469,11.1797774 L74.2024469,11.2835509 L74.2024469,11.2835509 Z M75.8759399,2.63049434 C77.925804,2.63049434 79.3439905,2.79570189 80.5274597,3.64083396 C82.1655391,4.79438113 82.9961088,6.54068302 82.9961088,8.83200377 C82.9961088,11.1847585 81.9361751,13.1813623 80.0884972,14.3091736 C78.9462065,14.9998906 77.5090779,15.1385321 75.5613364,15.1385321 L74.2530965,15.1385321 L74.1501503,15.1385321 L74.1501503,15.2423057 L74.1501503,21.1802302 L69.8021158,21.1802302 L69.8021158,2.63049434 L75.8759399,2.63049434 L75.8759399,2.63049434 Z" id="Fill-24" fill="#53A318"></path>
                        <path d="M93.2796901,17.087566 C96.098768,17.087566 98.2244006,14.7974906 98.2244006,11.7602453 C98.2244006,8.98284906 96.0295882,6.72307547 93.3319868,6.72307547 C90.5005553,6.72307547 88.282683,8.9355283 88.282683,11.7602453 C88.282683,14.6480566 90.5709705,17.087566 93.2796901,17.087566 M93.3056325,2.28779245 C95.7672814,2.28779245 98.1025123,3.26118868 99.8810104,5.02824528 C101.744336,6.87998113 102.729325,9.21696226 102.729325,11.7868113 C102.729325,14.4500566 101.807339,16.8148491 100.062607,18.6267358 C98.2865801,20.4946604 95.8780515,21.5232642 93.2796901,21.5232642 C90.5462634,21.5232642 88.2382102,20.5399057 86.4193573,18.6005849 C84.6836848,16.7467736 83.803701,14.4276415 83.803701,11.7075283 C83.803701,9.13726415 84.7705714,6.81854717 86.6001308,5.00167925 C88.4119834,3.201 90.6681516,2.28779245 93.3056325,2.28779245" id="Fill-28" fill="#53A318"></path>
                        <polygon id="Fill-32" fill="#53A318" points="119.11432 2.63041132 119.11432 21.1801472 115.268251 21.1801472 108.363857 10.7791283 108.175672 10.4952038 108.175672 10.8368264 108.175672 21.1801472 103.827637 21.1801472 103.827637 2.63041132 107.777476 2.63041132 114.577688 13.0052792 114.766285 13.2933547 114.766285 12.9479962 114.766285 2.63041132"></polygon>
                    </g>
                </g>
            </g>
        </g>
    </g>
</svg>