<?xml version="1.0" encoding="UTF-8"?>
<svg width="120px" height="18px" viewBox="0 0 120 18" version="1.1" xmlns="http://www.w3.org/2000/svg" xmlns:xlink="http://www.w3.org/1999/xlink">
    <!-- Generator: Sketch 46.1 (44463) - http://www.bohemiancoding.com/sketch -->
    <title>Logo</title>
    <desc>Created with Sketch.</desc>
    <defs></defs>
    <g id="About" stroke="none" stroke-width="1" fill="none" fill-rule="evenodd">
        <g id="iPhone-7-Copy-12" transform="translate(-218.000000, -2632.000000)" fill="#D2202E">
            <g id="Group-25" transform="translate(5.000000, 2291.000000)">
                <g id="Group-17" transform="translate(182.000000, 300.000000)">
                    <g id="Logo" transform="translate(31.500000, 41.000000)">
                        <path d="M3.32398098,13.0795771 C3.32398098,14.3534164 3.99883951,14.9908973 5.47350997,14.9908973 C6.94762997,14.9908973 7.47276458,14.3534164 7.47276458,13.0795771 L7.47276458,0.978103006 C7.47276458,0.518510738 7.647259,0.314808671 8.07276115,0.314808671 L10.2470606,0.314808671 C10.6962324,0.314808671 10.8465067,0.518510738 10.8465067,0.978103006 L10.8465067,13.6923667 C10.8465067,15.831519 9.69715553,17.8444097 5.47350997,17.8444097 C1.27463491,17.8444097 -0.000220182223,15.831519 -0.000220182223,13.6923667 L-0.000220182223,12.1626372 C-0.000220182223,11.7036061 0.175375143,11.5251563 0.624546885,11.5251563 L2.72453487,11.5251563 C3.17425707,11.5251563 3.32398098,11.7036061 3.32398098,12.1626372 L3.32398098,13.0795771 Z" id="Fill-1"></path>
                        <path d="M15.5205351,17.003339 C15.5205351,17.4612478 15.3702607,17.6402587 14.9210889,17.6402587 L12.7963305,17.6402587 C12.3460578,17.6402587 12.1721138,17.4612478 12.1721138,17.003339 L12.1721138,14.9405049 C12.1721138,14.4820349 12.3460578,14.3019017 12.7963305,14.3019017 L14.9210889,14.3019017 C15.3702607,14.3019017 15.5205351,14.4820349 15.5205351,14.9405049 L15.5205351,17.003339 Z" id="Fill-4"></path>
                        <path d="M22.4684403,3.16854557 L22.4684403,14.7862974 L25.1420029,14.7862974 C26.8423602,14.7862974 27.866758,14.1505 27.866758,12.8760995 L27.866758,5.08042695 C27.866758,3.80546525 26.8423602,3.16854557 25.1420029,3.16854557 L22.4684403,3.16854557 Z M19.6192822,17.6398098 C19.2196515,17.6398098 19.0946981,17.4114166 19.0946981,16.9787601 L19.0946981,0.977766308 C19.0946981,0.518735203 19.244422,0.315033136 19.6946947,0.315033136 L25.1420029,0.315033136 C29.6656468,0.315033136 31.2405002,2.32792381 31.2405002,4.46819842 L31.2405002,13.4866445 C31.2405002,15.6269191 29.6656468,17.6398098 25.1420029,17.6398098 L19.6192822,17.6398098 Z" id="Fill-6"></path>
                        <path d="M35.7643091,17.003339 C35.7643091,17.4612478 35.6151357,17.6402587 35.164863,17.6402587 L33.0401045,17.6402587 C32.5898319,17.6402587 32.4158879,17.4612478 32.4158879,17.003339 L32.4158879,14.9405049 C32.4158879,14.4820349 32.5898319,14.3019017 33.0401045,14.3019017 L35.164863,14.3019017 C35.6151357,14.3019017 35.7643091,14.4820349 35.7643091,14.9405049 L35.7643091,17.003339 Z" id="Fill-8"></path>
                        <path d="M46.2705243,3.16854557 L46.2705243,8.64661604 L48.744822,8.64661604 C50.4193079,8.64661604 51.4437057,8.00913519 51.4437057,6.76167046 L51.4437057,5.08042695 C51.4437057,3.80546525 50.4193079,3.16854557 48.744822,3.16854557 L46.2705243,3.16854557 Z M46.2705243,11.4995673 L46.2705243,16.9787601 C46.2705243,17.43723 46.1202499,17.6398098 45.6710781,17.6398098 L43.4956777,17.6398098 C43.046506,17.6398098 42.8962316,17.43723 42.8962316,16.9787601 L42.8962316,0.977766308 C42.8962316,0.518735203 43.046506,0.315033136 43.4956777,0.315033136 L48.744822,0.315033136 C53.2679154,0.315033136 54.7926773,2.32792381 54.7926773,4.46819842 L54.7926773,7.3480855 C54.7926773,9.48723779 53.2679154,11.4995673 48.744822,11.4995673 L46.2705243,11.4995673 Z" id="Fill-10"></path>
                        <path d="M66.1387775,4.87560256 C66.1387775,3.60176319 65.1143797,2.9648435 63.4398939,2.9648435 C61.7648576,2.9648435 60.7646799,3.60176319 60.7646799,4.87560256 L60.7646799,13.0798015 C60.7646799,14.3530797 61.7648576,14.9911217 63.4398939,14.9911217 C65.1143797,14.9911217 66.1387775,14.3530797 66.1387775,13.0798015 L66.1387775,4.87560256 Z M57.3667176,4.26449636 C57.3667176,2.12422174 58.9162501,0.111331069 63.4398939,0.111331069 C67.9640882,0.111331069 69.5125197,2.12422174 69.5125197,4.26449636 L69.5125197,13.69203 C69.5125197,15.8317435 67.9640882,17.8446342 63.4398939,17.8446342 C58.9162501,17.8446342 57.3667176,15.8317435 57.3667176,13.69203 L57.3667176,4.26449636 Z" id="Fill-12"></path>
                        <path d="M85.7579497,9.61563182 C85.9572146,10.4809447 86.1333604,11.9068592 86.1586814,12.1369359 C86.1823509,11.9573639 86.3315244,10.7604038 86.6078531,9.64088414 L88.7562812,0.95184059 C88.857565,0.544436456 89.0568299,0.314920903 89.4812311,0.314920903 L91.3808533,0.314920903 C91.830025,0.314920903 91.9560794,0.544436456 91.855346,0.95184059 L87.8810568,17.003339 C87.7825253,17.4371178 87.532068,17.6402587 87.1065658,17.6402587 L84.9829083,17.6402587 C84.6085985,17.6402587 84.3823612,17.4118655 84.2832792,17.003339 L82.0842092,8.13696805 C81.9339349,7.57692766 81.75889,6.09938622 81.7352204,5.81768253 C81.7098995,6.07357273 81.5089832,7.6274323 81.3845802,8.13696805 L79.1844093,17.003339 C79.0847769,17.4371178 78.860191,17.6402587 78.4088174,17.6402587 L76.2857103,17.6402587 C75.9108501,17.6402587 75.6857137,17.4118655 75.5860813,17.003339 L71.6117921,0.95184059 C71.5127101,0.544436456 71.6371131,0.314920903 72.0862848,0.314920903 L74.3112262,0.314920903 C74.7372788,0.314920903 74.9370942,0.544436456 75.0367266,0.95184059 L77.1356137,9.64088414 C77.36075,10.5836375 77.5352445,11.7800364 77.5352445,11.7800364 C77.5352445,11.7800364 77.6601979,10.9394147 77.9844162,9.64088414 L80.1344956,0.95184059 C80.2341281,0.544436456 80.4339435,0.314920903 80.8842161,0.314920903 L82.9093421,0.314920903 C83.3590643,0.314920903 83.5588797,0.544436456 83.6585122,0.95184059 L85.7579497,9.61563182 Z" id="Fill-15"></path>
                        <path d="M94.8049622,17.6395853 C94.3546895,17.6395853 94.2049656,17.4375667 94.2049656,16.9785356 L94.2049656,0.978103006 C94.2049656,0.518510738 94.3546895,0.314808671 94.8049622,0.314808671 L103.351886,0.314808671 C103.777938,0.314808671 103.977754,0.468006093 103.977754,0.926476035 L103.977754,2.53196258 C103.977754,2.99043252 103.777938,3.16888226 103.351886,3.16888226 L97.5787078,3.16888226 L97.5787078,7.29679523 L102.927484,7.29679523 C103.377207,7.29679523 103.577022,7.44943149 103.577022,7.90790143 L103.577022,9.43594752 C103.577022,9.86916514 103.377207,10.048176 102.927484,10.048176 L97.5787078,10.048176 L97.5787078,14.7866341 L103.602893,14.7866341 C104.052616,14.7866341 104.22711,14.9398315 104.22711,15.3988626 L104.22711,17.0032268 C104.22711,17.4616967 104.052616,17.6395853 103.602893,17.6395853 L94.8049622,17.6395853 Z" id="Fill-17"></path>
                        <path d="M110.375203,3.16854557 L110.375203,8.18758493 L112.8484,8.18758493 C114.523436,8.18758493 115.548935,7.55178757 115.548935,6.27738703 L115.548935,5.08042695 C115.548935,3.80546525 114.523436,3.16854557 112.8484,3.16854557 L110.375203,3.16854557 Z M110.375203,11.0410974 L110.375203,16.9787601 C110.375203,17.43723 110.224929,17.6398098 109.774656,17.6398098 L107.602559,17.6398098 C107.151736,17.6398098 107.001461,17.43723 107.001461,16.9787601 L107.001461,0.977766308 C107.001461,0.518735203 107.151736,0.315033136 107.602559,0.315033136 L112.8484,0.315033136 C117.373145,0.315033136 118.897907,2.32792381 118.897907,4.46819842 L118.897907,6.88849324 C118.897907,8.39184816 118.147085,9.81888496 116.147831,10.5573751 L118.847815,16.9787601 C119.02286,17.3856031 118.723412,17.6398098 118.272589,17.6398098 L116.073519,17.6398098 C115.722879,17.6398098 115.623247,17.3856031 115.448202,16.9787601 L112.998675,11.0410974 L112.8484,11.0410974 L110.375203,11.0410974 Z" id="Fill-19"></path>
                    </g>
                </g>
            </g>
        </g>
    </g>
</svg>