<?xml version="1.0" encoding="UTF-8"?>
<svg width="128px" height="34px" viewBox="0 0 128 34" version="1.1" xmlns="http://www.w3.org/2000/svg" xmlns:xlink="http://www.w3.org/1999/xlink">
    <!-- Generator: Sketch 46.1 (44463) - http://www.bohemiancoding.com/sketch -->
    <title>Group 5</title>
    <desc>Created with Sketch.</desc>
    <defs></defs>
    <g id="About" stroke="none" stroke-width="1" fill="none" fill-rule="evenodd">
        <g id="iPhone-7-Copy-12" transform="translate(-214.000000, -2424.000000)" fill="#006BA6">
            <g id="Group-25" transform="translate(5.000000, 2291.000000)">
                <g id="Group-15" transform="translate(182.000000, 100.000000)">
                    <g id="Group-5" transform="translate(27.000000, 33.000000)">
                        <path d="M23.4665017,10.4597198 C24.7145469,11.4856193 25.6847664,12.9220214 25.2687513,14.6325678 L21.248237,25.7147095 L22.0795436,9.63871469 C22.5650151,9.77578686 23.0504866,10.1177534 23.4665017,10.4597198 Z" id="Fill-2"></path>
                        <path d="M16.8112011,9.50192809 L19.1683787,25.5093869 L21.5255562,9.50192809 C20.1385982,9.02288943 18.3363485,8.95435335 16.8112011,9.50192809" id="Fill-4"></path>
                        <path d="M14.8700386,10.4597198 C13.5525369,11.4856193 12.6517739,12.9220214 12.9983325,14.5640317 L17.0188469,25.6461735 L16.2569967,9.63871469 C15.7715252,9.77578686 15.2165972,10.1177534 14.8700386,10.4597198" id="Fill-6"></path>
                        <path d="M6.68951818,11.9647294 C9.3932544,16.616616 12.1664471,21.6782912 14.8007268,26.1252835 C13.8992403,22.225866 12.9290208,15.7270747 11.5420627,13.8801701 C9.94818233,11.6905851 6.68951818,11.9647294 6.68951818,11.9647294" id="Fill-8"></path>
                        <path d="M1.90606834,14.2906013 L12.928659,26.9462173 L6.134952,12.0331941 C4.33270235,12.1017302 2.80755492,12.9905575 1.90606834,14.2906013" id="Fill-10"></path>
                        <path d="M24.9917938,17.7108374 L23.1895442,26.3984997 C25.5459983,22.362724 27.9031758,18.3947704 30.190897,14.2904585 C27.9726323,14.4960668 25.7543675,15.316358 24.9917938,17.7108374" id="Fill-12"></path>
                        <path d="M30.8150643,14.2906013 L24.9915768,27.1511116 L35.2515937,16.1375059 C34.0737284,14.9059982 32.548581,14.3591374 30.8150643,14.2906013" id="Fill-14"></path>
                        <path d="M0.45008794,20.0367093 C4.05531074,22.7731552 7.65981003,25.5781371 11.2650328,28.3138691 L1.5592203,14.7694258 C0.657733724,16.2743639 0.38063151,18.0527325 0.45008794,20.0367093" id="Fill-16"></path>
                        <path d="M36.499856,17.7108374 C36.2922102,17.3003348 36.0143845,16.8898322 35.6678259,16.5478657 L26.7940435,28.4510126 C30.3298098,25.8516389 33.7266634,23.2522652 37.0540604,20.5843554 C37.1235169,19.557742 36.9853275,18.5318425 36.499856,17.7108374" id="Fill-18"></path>
                        <path d="M0.519472019,25.5777802 L9.8787259,29.8191642 C6.75897461,26.7407518 3.63922331,23.7994116 0.519472019,20.7895353 L0.519472019,25.5777802 Z" id="Fill-20"></path>
                        <path d="M37.0544222,25.8514247 L37.0544222,21.4736825 L28.1806398,30.0242727 C31.2309347,28.6564067 34.0041273,27.2878268 37.0544222,25.8514247" id="Fill-22"></path>
                        <path d="M0.45008794,29.8190928 C3.29273702,30.4344897 6.41248832,31.1876727 8.97731168,31.7345335 L0.45008794,26.1931057 L0.45008794,29.8190928 Z" id="Fill-24"></path>
                        <path d="M37.0544222,30.0242727 L37.0544222,26.6724299 C34.4201424,28.3822624 31.6469497,30.0928088 29.2210392,31.8026412 L37.0544222,30.0242727 Z" id="Fill-26"></path>
                        <polygon id="Fill-28" points="0.45008794 33.9919407 8.76894239 33.9919407 0.45008794 30.5030258"></polygon>
                        <path d="M37.0544222,33.9919407 L37.0544222,30.7764562 C34.350686,31.9394278 31.9935084,32.8975052 29.428685,33.9919407 L37.0544222,33.9919407 Z" id="Fill-30"></path>
                        <path d="M34.2120625,10.0492887 C34.3509754,5.19250773 27.0023404,5.12397165 27.1405298,10.0492887 C27.0717968,14.5641031 34.4197083,14.7697113 34.2120625,10.0492887" id="Fill-34"></path>
                        <path d="M10.5718432,7.51809407 C10.779489,2.59277706 3.08429538,2.79767139 3.3621211,7.51809407 C3.08429538,12.4434111 11.0573147,12.5119472 10.5718432,7.51809407" id="Fill-36"></path>
                        <path d="M19.1683063,8.47588582 C22.0796883,8.54442191 23.1895442,6.49190902 23.2582771,4.50793222 C23.39719,1.49805593 21.4560275,0.267262113 19.1683063,0.267262113 C16.8805852,0.267262113 15.0783355,1.56659201 15.1470684,4.50793222 C15.2165249,6.14994253 15.9096422,8.40734974 19.1683063,8.47588582" id="Fill-38"></path>
                        <polygon id="Fill-40" points="60.9028661 19.8313866 62.4974699 19.8313866 62.4974699 10.7332216 60.9028661 10.7332216"></polygon>
                        <path d="M56.1191992,12.1699093 L56.1191992,12.1699093 L57.4367008,15.9322546 L54.871154,15.9322546 L56.1191992,12.1699093 Z M57.8527159,17.2322985 L58.753479,19.8316722 L60.4175393,19.8316722 L57.2283316,10.7335072 L55.2177126,10.7335072 L52.5139764,18.4630923 L49.8796966,15.1797856 L53.415463,10.7335072 L51.5437569,10.7335072 L48.2850927,15.0427134 L48.2850927,10.7335072 L46.6912124,10.7335072 L46.6912124,19.8316722 L48.2850927,19.8316722 L48.2850927,15.3846799 L51.6826698,19.8316722 L52.0292284,19.8316722 L53.5543758,19.8316722 L54.4551389,17.2322985 L57.8527159,17.2322985 Z" id="Fill-42"></path>
                        <polygon id="Fill-43" points="72.4803123 31.4608889 70.8857085 24.8257394 68.0430594 24.8257394 68.0430594 33.9917265 69.6376633 33.9917265 69.6376633 26.1936054 71.6482822 33.9917265 73.3123425 33.9917265 75.3222379 26.1936054 75.3222379 33.9917265 76.8481089 33.9917265 76.8481089 24.8257394 74.1436491 24.8257394"></polygon>
                        <path d="M80.5219922,30.092666 L81.7700374,26.2617845 L83.0868156,30.092666 L80.5219922,30.092666 Z M80.8685509,24.8253825 L77.6793431,33.9920835 L79.273947,33.9920835 L80.1059772,31.3241737 L83.5028307,31.3241737 L84.4043172,33.9920835 L86.0683775,33.9920835 L82.8791698,24.8253825 L80.8685509,24.8253825 Z" id="Fill-44"></path>
                        <polygon id="Fill-45" points="92.5848376 31.8713201 88.9101584 24.825668 86.7613501 24.825668 86.7613501 33.9916552 88.2864975 33.9916552 88.2864975 27.0830753 91.9611768 33.9916552 94.1099851 33.9916552 94.1099851 24.825668 92.5848376 24.825668"></polygon>
                        <polygon id="Fill-46" points="122.949742 32.6237178 119.136873 32.6237178 119.136873 30.0928802 121.910066 30.0928802 121.910066 28.7243003 119.136873 28.7243003 119.136873 26.1934626 122.603183 26.1934626 122.603183 24.8255966 117.542269 24.8255966 117.542269 33.9922977 122.949742 33.9922977"></polygon>
                        <polygon id="Fill-47" points="108.321856 24.8253825 108.321856 24.8253825 108.044754 24.8253825 108.044754 31.9395706 104.370074 24.8253825 102.221266 24.8253825 102.221266 32.6235036 97.3679981 32.6235036 97.3679981 30.092666 100.210647 30.092666 100.210647 28.7248 97.3679981 28.7248 97.3679981 26.1932485 100.835032 26.1932485 100.835032 24.8253825 95.7733942 24.8253825 95.7733942 33.9920835 103.607501 33.9920835 103.746414 33.9920835 103.746414 27.0142536 107.420369 33.9920835 109.569901 33.9920835 109.569901 26.1932485 112.411827 26.1932485 112.411827 33.9920835 114.00643 33.9920835 114.00643 26.1932485 116.779623 26.1932485 116.710167 24.8253825"></polygon>
                        <path d="M62.0119984,28.7930505 L62.0119984,26.1936768 L63.3287766,26.1936768 C64.5768218,26.1936768 65.0622933,26.6727155 65.0622933,27.4244706 C65.0622933,28.3140119 64.5768218,28.7930505 63.3287766,28.7930505 L62.0119984,28.7930505 Z M65.7554106,29.4084474 C66.2408821,28.9301227 66.6568972,28.3140119 66.6568972,27.4244706 C66.6568972,26.6034655 66.2408821,25.9195325 65.7554106,25.5090299 C65.2012062,25.0307052 64.4386325,24.8250969 63.0516744,24.8250969 L60.4173946,24.8250969 L60.4173946,28.7245144 L60.4173946,32.623932 L55.4953936,32.623932 L55.4953936,30.0923804 L58.3373192,30.0923804 L58.3373192,28.7245144 L55.4953936,28.7245144 L55.4953936,26.1936768 L58.9617036,26.1936768 L58.9617036,24.8250969 L53.9007898,24.8250969 L53.9007898,33.9917979 L62.0119984,33.9917979 L62.0119984,30.0923804 L62.7745722,30.0923804 C63.5371459,31.2553521 65.1317497,33.9917979 65.1317497,33.9917979 L67.0034558,33.9917979 L64.5073654,29.9560222 C65.0622933,29.8874861 65.408852,29.6825918 65.7554106,29.4084474 L65.7554106,29.4084474 Z" id="Fill-48"></path>
                        <path d="M78.6501414,14.5641745 L78.6501414,12.0333369 L80.036376,12.0333369 C81.2156883,12.0333369 81.7004363,12.5116616 81.7004363,13.3326668 C81.7004363,14.222208 81.2156883,14.6327106 80.036376,14.6327106 L78.6501414,14.6327106 L78.6501414,14.5641745 Z M78.6501414,16.0005765 L79.4821716,16.0005765 C80.1752889,17.0950121 81.7698927,19.831458 81.7698927,19.831458 L83.6415988,19.831458 L81.1462319,15.8635044 C81.7004363,15.7271461 82.1164514,15.5215379 82.3935536,15.2481075 C82.8790251,14.8376049 83.2950402,14.1536719 83.2950402,13.3326668 C83.2950402,12.4438394 82.9484815,11.8277286 82.3935536,11.417226 C81.8393492,10.9381874 81.0767755,10.733293 79.7592738,10.733293 L77.0555376,10.733293 L77.0555376,14.5641745 L77.0555376,18.5321281 L72.1335366,18.5321281 L72.1335366,15.9320405 L74.9761857,15.9320405 L74.9761857,14.6327106 L72.1335366,14.6327106 L72.1335366,12.0333369 L75.669303,12.0333369 L75.669303,10.733293 L70.6083892,10.733293 L70.6083892,19.831458 L78.6501414,19.831458 L78.6501414,16.0005765 Z" id="Fill-49"></path>
                        <path d="M49.602522,28.8614438 L48.2850204,28.8614438 L48.2850204,26.193534 L49.602522,26.193534 C50.8505673,26.193534 51.3360388,26.7411088 51.3360388,27.4928639 C51.3360388,28.3138691 50.7811108,28.8614438 49.602522,28.8614438 M52.0291561,25.509601 C51.4742281,25.0305624 50.7116544,24.825668 49.3948763,24.825668 L46.69114,24.825668 L46.69114,33.9916552 L48.2850204,33.9916552 L48.2850204,30.2293098 L49.3948763,30.2293098 C50.7116544,30.2293098 51.4742281,30.0244155 52.0291561,29.5453768 C52.513904,29.0663381 52.9299191,28.3824052 52.9299191,27.4928639 C52.9299191,26.6725727 52.5833605,25.9879258 52.0291561,25.509601" id="Fill-50"></path>
                        <path d="M69.5684239,17.2320129 C69.5684239,15.9319691 68.7363937,15.1116778 67.1417899,14.495567 C65.8937447,14.0850644 65.2700838,13.7430979 65.2700838,12.9906289 C65.2700838,12.443768 65.8250117,11.8276572 67.0036005,11.8276572 C67.7661742,11.8276572 68.5982044,12.1018015 68.944763,12.3066959 L68.944763,11.0066521 C68.5982044,10.8017577 67.7661742,10.5968634 67.0036005,10.5968634 C64.9929816,10.5968634 63.6754799,11.6905851 63.6754799,13.127701 C63.6754799,14.495567 64.7158794,15.2480361 66.2410268,15.7956108 C67.4196156,16.2061134 67.97382,16.616616 67.97382,17.3690851 C67.97382,18.1215541 67.2807027,18.6684149 66.1715704,18.6684149 C65.3395402,18.6684149 64.2304079,18.3949845 63.6754799,17.984482 L63.6754799,19.420884 C64.1609514,19.6950284 65.1318944,19.9684588 66.1021139,19.9684588 C68.4592915,19.9684588 69.5684239,18.6684149 69.5684239,17.2320129" id="Fill-51"></path>
                        <path d="M125.237535,31.9397134 L125.237535,31.2557804 L125.723007,31.2557804 C125.930652,31.2557804 126.207755,31.3243165 126.207755,31.5977469 C126.207755,31.9397134 125.930652,31.9397134 125.65355,31.9397134 L125.237535,31.9397134 Z M125.237535,32.2131438 L125.65355,32.2131438 L126.207755,33.1712211 L126.62377,33.1712211 L125.930652,32.2131438 C126.277211,32.1446077 126.554313,32.0082495 126.554313,31.5977469 C126.554313,31.1872443 126.277211,30.98235 125.723007,30.98235 L124.890976,30.98235 L124.890976,33.1712211 L125.237535,33.1712211 L125.237535,32.2131438 Z M125.65355,33.9922263 C126.693226,33.9922263 127.594713,33.1712211 127.594713,32.0767856 C127.594713,30.98235 126.693226,30.1613448 125.65355,30.1613448 C124.613874,30.1613448 123.712388,30.98235 123.712388,32.0767856 C123.712388,33.1712211 124.613874,33.9922263 125.65355,33.9922263 L125.65355,33.9922263 Z M124.058946,32.0767856 C124.058946,31.1872443 124.752064,30.5033113 125.65355,30.5033113 C126.554313,30.5033113 127.248154,31.1872443 127.248154,32.0767856 C127.248154,32.9656129 126.554313,33.6502598 125.65355,33.6502598 C124.752064,33.6502598 124.058946,32.9656129 124.058946,32.0767856 L124.058946,32.0767856 Z" id="Fill-52"></path>
                    </g>
                </g>
            </g>
        </g>
    </g>
</svg>