<?xml version="1.0" encoding="UTF-8"?>
<svg width="124px" height="26px" viewBox="0 0 124 26" version="1.1" xmlns="http://www.w3.org/2000/svg" xmlns:xlink="http://www.w3.org/1999/xlink">
    <!-- Generator: Sketch 46.1 (44463) - http://www.bohemiancoding.com/sketch -->
    <title>Group 10</title>
    <desc>Created with Sketch.</desc>
    <defs></defs>
    <g id="About" stroke="none" stroke-width="1" fill="none" fill-rule="evenodd">
        <g id="iPhone-7-Copy-12" transform="translate(-34.000000, -2728.000000)">
            <g id="Group-25" transform="translate(5.000000, 2291.000000)">
                <g id="Group-21" transform="translate(0.000000, 400.000000)">
                    <g id="Group-10" transform="translate(29.500000, 37.500000)">
                        <polygon id="Fill-1" fill="#666666" points="38.8569792 15.8195919 37.9123392 15.8195919 32.0782032 6.03174015 32.0782032 19.1291604 30.6612432 19.1291604 30.6612432 2.58033302 31.6058832 2.58033302 38.3846592 13.9520497 45.1634352 2.58033302 46.1080752 2.58033302 46.1080752 19.1291604 44.6911152 19.1291604 44.6911152 6.03174015"></polygon>
                        <polygon id="Fill-2" fill="#666666" points="57.9386088 8.34873358 54.1364328 16.7181989 50.0971128 8.34873358 48.5856888 8.34873358 53.4515688 18.2547842 50.4995688 24.8039869 51.9165288 24.8039869 59.3791848 8.34873358"></polygon>
                        <path d="M67.9046592,9.79085835 C69.1799232,9.79085835 69.9120192,9.4599015 70.4561712,8.91618668 C70.9747392,8.39611163 71.3053632,7.66327861 71.3053632,6.85952627 C71.3053632,6.05577392 70.9747392,5.3229409 70.4561712,4.80286585 C69.9120192,4.25915103 69.1799232,3.92819418 67.9046592,3.92819418 L63.2749392,3.92819418 L63.2749392,9.79085835 L67.9046592,9.79085835 Z M63.2749392,11.1383255 L63.2749392,19.1295544 L61.8579792,19.1295544 L61.8579792,2.58072702 L67.9755072,2.58072702 C69.4869312,2.58072702 70.4788032,2.95797842 71.2108992,3.57359756 C72.1319232,4.35272514 72.7223232,5.53569887 72.7223232,6.85952627 C72.7223232,8.18335366 72.1319232,9.3653424 71.2108992,10.145455 C70.4788032,10.7600891 69.4869312,11.1383255 67.9755072,11.1383255 L63.2749392,11.1383255 Z" id="Fill-3" fill="#666666"></path>
                        <path d="M78.862188,9.38927767 C76.42974,9.38927767 74.659524,11.3277392 74.659524,13.7389962 C74.659524,16.1502533 76.42974,18.0896998 78.862188,18.0896998 C81.29562,18.0896998 83.06682,16.1502533 83.06682,13.7389962 C83.06682,11.3277392 81.29562,9.38927767 78.862188,9.38927767 M78.862188,19.3662477 C75.650412,19.3662477 73.311444,16.8367917 73.311444,13.7389962 C73.311444,10.6421857 75.650412,8.11272983 78.862188,8.11272983 C82.074948,8.11272983 84.412932,10.6421857 84.412932,13.7389962 C84.412932,16.8367917 82.074948,19.3662477 78.862188,19.3662477" id="Fill-5" fill="#666666"></path>
                        <path d="M87.481536,19.1292589 L88.827648,19.1292589 L88.827648,8.34853659 L87.481536,8.34853659 L87.481536,19.1292589 Z M88.142784,3.40782364 C88.804032,3.40782364 89.348184,3.95153846 89.348184,4.61345216 C89.348184,5.27536585 88.804032,5.7954409 88.142784,5.7954409 C87.481536,5.7954409 86.962968,5.27536585 86.962968,4.61345216 C86.962968,3.95153846 87.481536,3.40782364 88.142784,3.40782364 L88.142784,3.40782364 Z" id="Fill-7" fill="#666666"></path>
                        <path d="M94.1411496,9.86207317 C95.0159256,8.7037242 96.4319016,8.11272983 97.9443096,8.11272983 C99.5029656,8.11272983 100.89631,8.75100375 101.770102,9.9329925 C102.361486,10.7131051 102.691126,11.6114165 102.691126,13.3843996 L102.691126,19.1298499 L101.345014,19.1298499 L101.345014,13.4789587 C101.345014,12.0605722 101.108854,11.3750188 100.730998,10.8313039 C100.115998,9.9329925 99.1014936,9.38927767 97.9206936,9.38927767 C96.3620376,9.38927767 95.0159256,10.2166698 94.1893656,11.6350563 L94.1893656,19.1298499 L92.8422696,19.1298499 L92.8422696,8.34912758 L94.1411496,8.34912758 L94.1411496,9.86207317 Z" id="Fill-9" fill="#666666"></path>
                        <path d="M112.491175,9.62537992 L108.830695,9.62537992 L108.830695,15.5353236 C108.830695,16.5055394 109.020607,16.9773499 109.303015,17.3329315 C109.681855,17.804742 110.294887,18.0894043 111.097831,18.0894043 C111.404839,18.0894043 111.854527,18.0657645 112.255015,17.9475657 L112.491175,19.176834 C112.137919,19.2950328 111.523903,19.3659522 111.097831,19.3659522 C110.105959,19.3659522 108.948775,19.0596201 108.216679,18.1356989 C107.744359,17.5456895 107.484583,16.7655769 107.484583,15.4890291 L107.484583,9.62537992 L104.461735,9.62537992 L104.461735,8.34883208 L107.484583,8.34883208 L107.484583,5.4175 L108.830695,5.4175 L108.830695,8.34883208 L112.491175,8.34883208 L112.491175,9.62537992 Z" id="Fill-10" fill="#666666"></path>
                        <path d="M115.678646,16.7892167 C116.600654,17.5693293 117.733238,18.0894043 118.937654,18.0894043 C120.28475,18.0894043 121.418318,17.3329315 121.418318,16.1982223 C121.418318,13.4313837 115.20731,14.9443293 115.20731,11.2565244 C115.20731,9.29442308 117.048374,8.11243433 118.866806,8.11243433 C120.331982,8.11243433 121.535414,8.60886961 122.339342,9.15258443 L121.629878,10.2636538 C120.708854,9.67265947 120.047606,9.38898218 118.937654,9.38898218 C117.804086,9.38898218 116.552438,9.97997655 116.552438,11.2328846 C116.552438,13.6214869 122.763446,12.343954 122.763446,16.127303 C122.763446,18.1356989 121.063094,19.3659522 119.032118,19.3659522 C117.237302,19.3659522 115.796726,18.7030535 114.851102,17.8293668 L115.678646,16.7892167 Z" id="Fill-11" fill="#666666"></path>
                        <polygon id="Fill-12" fill="#EA4F2A" points="9.8400984 0.375234522 19.6800984 10.2251407 19.6800984 0.375234522"></polygon>
                        <polygon id="Fill-13" fill="#EA4F2A" points="0 0.375234522 9.84 10.2251407 9.84 0.375234522"></polygon>
                        <polygon id="Fill-14" fill="#EA4F2A" points="9.8400984 10.2252392 19.6800984 20.0751454 19.6800984 10.2252392"></polygon>
                    </g>
                </g>
            </g>
        </g>
    </g>
</svg>