<?xml version="1.0" encoding="UTF-8"?>
<svg width="140px" height="32px" viewBox="0 0 140 32" version="1.1" xmlns="http://www.w3.org/2000/svg" xmlns:xlink="http://www.w3.org/1999/xlink">
    <!-- Generator: Sketch 46.1 (44463) - http://www.bohemiancoding.com/sketch -->
    <title>Group 7</title>
    <desc>Created with Sketch.</desc>
    <defs></defs>
    <g id="About" stroke="none" stroke-width="1" fill="none" fill-rule="evenodd">
        <g id="iPhone-7-Copy-12" transform="translate(-26.000000, -2425.000000)">
            <g id="Group-25" transform="translate(5.000000, 2291.000000)">
                <g id="Group-24" transform="translate(0.000000, 100.000000)">
                    <g id="Group-7" transform="translate(21.500000, 34.500000)">
                        <path d="M0,15.4996771 C0,13.3823125 1.72548364,11.6653646 3.85367757,11.6653646 C5.9818715,11.6653646 7.70800467,13.3823125 7.70800467,15.4996771 C7.70800467,17.6176875 5.9818715,19.3346354 3.85367757,19.3346354 C1.72548364,19.3346354 0,17.6176875 0,15.4996771 L0,15.4996771 Z M27.0708995,19.3346354 C24.9423808,19.3346354 23.217222,17.6176875 23.217222,15.4996771 C23.217222,13.3823125 24.9423808,11.6653646 27.0708995,11.6653646 C29.1990935,11.6653646 30.9252266,13.3823125 30.9252266,15.4996771 C30.9252266,17.6176875 29.1990935,19.3346354 27.0708995,19.3346354 Z M27.0712243,0.161458333 C18.5571495,0.161458333 11.655215,7.02892708 11.655215,15.4996771 C11.655215,23.9713958 18.5571495,30.8385417 27.0712243,30.8385417 C35.5856238,30.8385417 42.4872336,23.9713958 42.4872336,15.4996771 C42.4872336,7.02892708 35.5856238,0.161458333 27.0712243,0.161458333 L27.0712243,0.161458333 Z" id="Fill-1" fill="#DA3743"></path>
                        <path d="M137.251133,14.3129583 C137.494383,14.3129583 137.638579,14.2044583 137.638579,14.0071562 C137.638579,13.8285833 137.539526,13.7113646 137.268671,13.7113646 L137.016327,13.7113646 L137.016327,14.3129583 L137.251133,14.3129583 Z M136.646418,13.4068542 L137.33135,13.4068542 C137.710353,13.4068542 138.035119,13.5589479 138.035119,13.9897188 C138.035119,14.2044583 137.899692,14.4117708 137.701584,14.4828125 L138.116636,15.2281042 L137.701584,15.2281042 L137.385262,14.6000313 L137.016327,14.6000313 L137.016327,15.2281042 L136.646418,15.2281042 L136.646418,13.4068542 Z M138.63886,14.3394375 C138.63886,13.496625 138.052657,12.8950312 137.296276,12.8950312 C136.538271,12.8950312 135.961161,13.496625 135.961161,14.3394375 C135.961161,15.1919375 136.538271,15.7748021 137.296276,15.7748021 C138.052657,15.7748021 138.63886,15.1919375 138.63886,14.3394375 Z M135.600021,14.3394375 C135.600021,13.2896354 136.36647,12.5717917 137.296276,12.5717917 C138.233551,12.5717917 139,13.2896354 139,14.3394375 C139,15.3892396 138.233551,16.1070833 137.296276,16.1070833 C136.36647,16.1070833 135.600021,15.3892396 135.600021,14.3394375 Z M124.28711,21.5146458 C124.515421,21.5146458 124.708332,21.3250937 124.708332,21.0980833 L124.708332,19.5584167 C124.708332,19.3310833 124.518019,19.1418542 124.289708,19.1418542 L124.222157,19.1418542 C124.033143,19.1418542 123.844129,18.9548854 123.844129,18.766625 L123.844453,18.6988125 L123.844453,9.64358333 C123.844453,9.43530208 123.634979,9.22702083 123.425829,9.22702083 L121.884488,9.22702083 C121.675339,9.22702083 121.466189,9.43530208 121.466189,9.64358333 L121.466189,19.7495833 L121.47236,20.0127604 C121.47236,20.7651562 122.228416,21.5169062 122.984147,21.5169062 L124.28711,21.5146458 Z M56.464528,11.6372708 C58.5605701,11.6372708 60.330222,13.4039479 60.330222,15.4990312 C60.330222,17.6128437 58.5953201,19.3294687 56.464528,19.3294687 C54.3431542,19.3294687 52.6179953,17.6128437 52.6179953,15.4990312 C52.6179953,13.3693958 54.3431542,11.6372708 56.464528,11.6372708 Z M56.464528,9.20441667 C52.9953738,9.20441667 50.1731542,12.0283229 50.1731542,15.4990312 C50.1731542,19.01075 52.9349673,21.762 56.464528,21.762 C60.003507,21.762 62.7750631,19.01075 62.7750631,15.4990312 C62.7750631,12.0283229 59.9431005,9.20441667 56.464528,9.20441667 Z M106.66886,19.0201146 C106.554867,19.3420625 105.869935,19.9478542 105.089846,19.9478542 C104.271759,19.9478542 103.815138,19.4554062 103.815138,18.7172187 C103.815138,17.94125 104.366916,17.4678542 105.375315,17.4678542 C106.079084,17.4678542 106.66886,17.7329687 106.66886,17.7329687 L106.66886,19.0201146 Z M105.641624,12.5646875 C104.2146,12.5646875 102.825575,12.9244167 102.635262,13.0003021 C102.445273,13.0568125 102.273797,13.2082604 102.350117,13.5302083 L102.54043,14.5147812 C102.578428,14.7795729 102.749579,14.9878542 103.035049,14.8932396 C103.548829,14.7417917 104.70922,14.5712917 105.50847,14.5712917 C106.440549,14.5712917 106.764016,15.1015208 106.726019,16.2184896 C106.726019,16.2184896 105.927093,15.9724271 105.032687,15.9724271 C102.806738,15.9724271 101.53203,17.1649583 101.53203,18.7172187 C101.53203,20.5914271 102.749579,21.7083958 104.50007,21.7083958 C105.869935,21.7083958 106.74518,21.1026042 107.25896,20.6104792 L107.25896,21.0803229 C107.25896,21.3076562 107.449273,21.4968854 107.677584,21.4968854 L107.832822,21.4968854 C107.848736,21.5001146 107.867572,21.5001146 107.886734,21.5001146 L108.533668,21.5001146 C108.761979,21.5001146 108.952292,21.3108854 108.952292,21.0835521 L108.952292,16.3699375 C108.952292,13.9845521 108.381353,12.5646875 105.641624,12.5646875 Z M89.668965,12.5646875 C87.9850514,12.5646875 87.166965,13.4640104 86.84025,13.8269687 L86.84025,13.1704792 C86.84025,12.9434687 86.6499369,12.7539167 86.4216262,12.7539167 L85.4262173,12.7539167 C85.216743,12.7539167 85.0075935,12.9244167 85.0075935,13.1704792 L85.0075935,21.0835521 C85.0075935,21.3108854 85.216743,21.5001146 85.4262173,21.5001146 L86.8340794,21.5001146 C87.2527033,21.5001146 87.3858575,21.4055 87.3858575,21.0835521 L87.3858575,16.0857708 C87.595007,15.4799792 88.146785,14.7227396 89.2883388,14.7227396 C90.3538972,14.7227396 90.8105187,15.4234687 90.8105187,16.5591667 L90.8105187,21.0835521 C90.8105187,21.3108854 91.0008318,21.5001146 91.2291425,21.5001146 L92.7701589,21.5001146 C92.9796332,21.5001146 93.1887827,21.3108854 93.1887827,21.0835521 L93.1887827,16.5591667 C93.1887827,14.4388958 92.4658528,12.5646875 89.668965,12.5646875 Z M68.7208855,19.5503437 C67.6173294,19.5503437 66.8943995,19.0578958 66.8943995,19.0578958 L66.8943995,15.9343229 C67.0847126,15.4421979 67.6933248,14.7227396 68.8352033,14.7227396 C70.2050678,14.7227396 70.9088364,15.9155937 70.9088364,17.1459062 C70.9088364,18.3765417 70.1670701,19.5503437 68.7208855,19.5503437 Z M69.1586706,12.5646875 C67.351021,12.5646875 66.3487921,13.7920937 66.2887103,13.8676562 L66.2887103,13.1704792 C66.2887103,12.9434687 66.0983972,12.7539167 65.8700864,12.7539167 L64.9347593,12.7539167 C64.7064486,12.7539167 64.5161355,12.9434687 64.5161355,13.1704792 L64.5161355,24.6424167 C64.5161355,24.8506979 64.7064486,25.0589792 64.9347593,25.0589792 L66.4757757,25.0589792 C66.68525,25.0589792 66.8943995,24.8506979 66.8943995,24.6424167 L66.8943995,21.3486667 C67.2938621,21.5001146 68.1311098,21.7083958 69.0063551,21.7083958 C71.6320911,21.7083958 73.3634206,19.7017917 73.3634206,17.1459062 C73.3634206,14.4957292 71.555771,12.5646875 69.1586706,12.5646875 Z M131.903206,16.0282917 C131.865208,15.1767604 131.1806,14.5141354 130.209874,14.5141354 C129.14464,14.5141354 128.459708,15.1577083 128.345715,16.0282917 L131.903206,16.0282917 Z M130.267357,12.5643646 C132.55014,12.5643646 134.300631,14.2493437 134.300631,16.6153542 C134.300631,16.74775 134.28147,17.0506458 134.262633,17.1833646 C134.243472,17.4106979 134.034322,17.580875 133.844009,17.580875 L128.212236,17.580875 C128.231397,18.6597396 129.125479,19.6062083 130.400512,19.6062083 C131.275432,19.6062083 131.884369,19.2845833 132.283832,18.9629583 C132.493306,18.7921354 132.721292,18.7734062 132.854771,18.9629583 L133.596537,19.9468854 C133.748853,20.1173854 133.767689,20.3256667 133.55854,20.5148958 C132.797612,21.1584687 131.713217,21.70775 130.286194,21.70775 C127.660783,21.70775 125.834297,19.6252604 125.834297,17.1265312 C125.834297,14.6655833 127.660783,12.5643646 130.267357,12.5643646 Z M115.37682,19.5503437 C114.235266,19.5503437 113.626329,18.8308854 113.436016,18.3387604 L113.436016,15.2151875 C113.436016,15.2151875 114.158946,14.7227396 115.262502,14.7227396 C116.708687,14.7227396 117.450778,15.8965417 117.450778,17.1271771 C117.450778,18.3574896 116.746685,19.5503437 115.37682,19.5503437 Z M115.58597,12.5646875 C114.710724,12.5646875 113.835804,12.7729687 113.436016,12.9434687 L113.436016,9.61161458 C113.436016,9.40333333 113.245703,9.19505208 113.017393,9.19505208 L111.476376,9.19505208 C111.266902,9.19505208 111.057752,9.40333333 111.057752,9.61161458 L111.057752,21.0835521 C111.057752,21.3108854 111.266902,21.5001146 111.476376,21.5001146 L112.142147,21.5001146 C112.154813,21.5001146 112.167804,21.5001146 112.18047,21.4968854 L112.358117,21.4968854 C112.58935,21.4968854 112.779664,21.3076562 112.779664,21.0803229 L112.779664,20.4335208 L112.789082,20.4021979 C112.789082,20.4021979 113.797481,21.7083958 115.719124,21.7083958 C118.116549,21.7083958 119.847879,19.6259062 119.847879,17.1271771 C119.847879,14.5712917 118.192544,12.5646875 115.58597,12.5646875 Z M102.124729,9.19505208 L93.1757921,9.19505208 C92.9666425,9.19505208 92.8143271,9.36555208 92.8143271,9.55478125 L92.8143271,11.1070417 C92.8143271,11.2962708 92.9666425,11.4667708 93.1757921,11.4667708 L96.4039696,11.4667708 L96.4039696,21.1403854 C96.4039696,21.3296146 96.5751215,21.5001146 96.7654346,21.5001146 L98.5350864,21.5001146 C98.7250748,21.5001146 98.8965514,21.3296146 98.8965514,21.1403854 L98.8965514,11.4667708 L102.124729,11.4667708 C102.333879,11.4667708 102.486194,11.2962708 102.486194,11.1070417 L102.486194,9.55478125 C102.486194,9.36555208 102.333879,9.19505208 102.124729,9.19505208 Z M80.8213551,16.0282917 C80.7830327,15.1767604 80.0984252,14.5141354 79.1280234,14.5141354 C78.0627897,14.5141354 77.3775327,15.1577083 77.2638645,16.0282917 L80.8213551,16.0282917 Z M79.1851822,12.5643646 C81.4682897,12.5643646 83.2184556,14.2493437 83.2184556,16.6153542 C83.2184556,16.74775 83.1996192,17.0506458 83.1807827,17.1833646 C83.1612967,17.4106979 82.9521472,17.580875 82.7618341,17.580875 L77.1303855,17.580875 C77.1495467,18.6597396 78.0436285,19.6062083 79.3183364,19.6062083 C80.1935818,19.6062083 80.8025187,19.2845833 81.2019813,18.9629583 C81.4111308,18.7921354 81.6394416,18.7734062 81.7725958,18.9629583 L82.5146869,19.9468854 C82.6670023,20.1173854 82.6858388,20.3256667 82.4763645,20.5148958 C81.7154369,21.1584687 80.6310421,21.70775 79.2040187,21.70775 C76.5786075,21.70775 74.7521215,19.6252604 74.7521215,17.1265312 C74.7521215,14.6655833 76.5786075,12.5643646 79.1851822,12.5643646 L79.1851822,12.5643646 Z" id="Fill-2" fill="#333333"></path>
                    </g>
                </g>
            </g>
        </g>
    </g>
</svg>