<?xml version="1.0" encoding="UTF-8"?>
<svg width="118px" height="18px" viewBox="0 0 118 18" version="1.1" xmlns="http://www.w3.org/2000/svg" xmlns:xlink="http://www.w3.org/1999/xlink">
    <!-- Generator: Sketch 46.1 (44463) - http://www.bohemiancoding.com/sketch -->
    <title>Group 6</title>
    <desc>Created with Sketch.</desc>
    <defs></defs>
    <g id="About" stroke="none" stroke-width="1" fill="none" fill-rule="evenodd">
        <g id="iPhone-7-Copy-12" transform="translate(-219.000000, -2332.000000)" fill="#0056A8">
            <g id="Group-25" transform="translate(5.000000, 2291.000000)">
                <g id="Group-14" transform="translate(182.000000, 0.000000)">
                    <g id="Group-6" transform="translate(32.000000, 41.500000)">
                        <path d="M28.2254659,4.8862509 L32.5847614,4.8862509 L32.7758409,6.27907288 C33.1110682,5.16507527 35.3148523,4.37539785 36.6557614,4.37539785 C39.7693523,4.37539785 41.0150568,6.23292712 41.0150568,9.48327838 L41.0150568,16.4948339 L36.1770568,16.4948339 L36.1770568,10.2261601 C36.1770568,8.97242533 35.9370341,8.04431063 34.6443977,8.04431063 C33.4469659,8.04431063 32.8241136,9.2980454 32.8241136,10.1800143 L32.8241136,16.4948339 L28.2254659,16.4948339 L28.2254659,4.8862509" id="Fill-2"></path>
                        <path d="M0.0134090907,16.5409797 L0.0134090907,0.103990442 L8.10780682,0.103990442 C12.9458068,0.103990442 15.1495909,2.3794313 15.1495909,5.67592832 C15.1495909,9.20510394 13.1375568,11.6189821 8.10780682,11.6189821 L5.37838636,11.6189821 L5.37838636,16.5409797 L0.0134090907,16.5409797 Z M7.53322727,7.6257491 C8.82653409,7.6257491 10.2157159,7.34757467 10.2157159,5.90795699 C10.2157159,4.42219355 8.73065909,4.09722342 7.53322727,4.09722342 L5.37838636,4.09722342 L5.37838636,7.6257491 L7.53322727,7.6257491 L7.53322727,7.6257491 Z" id="Fill-3"></path>
                        <path d="M81.4890568,4.8862509 L85.8959545,4.8862509 L86.0394318,6.27907288 C86.4229318,5.16507527 88.6260455,4.37539785 89.9669545,4.37539785 C93.0329432,4.37539785 94.32625,6.23292712 94.32625,9.48327838 L94.32625,16.5409797 L89.48825,16.5409797 L89.48825,10.2261601 C89.48825,8.97242533 89.2012955,8.04431063 87.9079886,8.04431063 C86.7581591,8.04431063 86.1353068,9.2980454 86.1353068,10.1800143 L86.1353068,16.5409797 L81.4890568,16.5409797 L81.4890568,4.8862509" id="Fill-4"></path>
                        <path d="M59.2641591,12.3625137 C59.2641591,12.8265711 59.5035114,13.523307 59.7911364,13.7553357 C60.1263636,13.9873644 60.5574659,14.2193931 61.0844432,14.2193931 C61.9466477,14.2193931 62.6171023,13.9873644 62.6171023,13.197687 C62.665375,11.2478662 55.3366364,12.9656583 55.3366364,8.32248507 C55.3366364,5.07213381 57.92325,4.32925209 60.6050682,4.32925209 C63.2875568,4.32925209 66.9757273,4.84010514 66.83225,8.36928076 L62.7605795,8.36928076 C62.7605795,8.04431063 62.6171023,7.81163202 62.4253523,7.53280765 C62.1377273,7.20783751 61.8025,7.0687503 61.1803182,7.02260454 C60.3657159,6.97580884 59.5993864,7.115546 59.5993864,7.71869056 C59.6469886,9.53007407 67.1674773,8.32248507 67.1674773,12.5945424 C67.1674773,15.5660693 65.0119659,16.9127455 60.8444205,16.9127455 C58.2102045,16.8665998 54.9055341,15.5660693 54.9055341,12.3625137 L59.2641591,12.3625137" id="Fill-5"></path>
                        <path d="M108.83958,9.39033692 C108.83958,9.11151254 108.83958,8.74039665 108.45608,8.27633931 C108.26433,8.04431063 107.833227,7.53280765 107.162773,7.53280765 C105.343159,7.53280765 104.863784,9.2512497 104.863784,10.6440717 C104.863784,12.2695723 105.630114,13.6162485 107.066898,13.6162485 C108.312602,13.6162485 108.935455,12.501601 108.935455,11.5728363 L113.150602,11.5728363 C113.245807,13.9873644 111.522068,16.8665998 106.875818,16.8665998 C103.091773,16.8665998 100.409284,14.3123345 100.409284,10.5979259 C100.409284,6.0938399 103.858102,4.37539785 106.827545,4.37539785 C110.850943,4.37539785 113.150602,6.74378017 113.10233,9.39033692 L108.83958,9.39033692" id="Fill-6"></path>
                        <path d="M23.1005114,16.5409797 L22.6218068,15.5660693 C21.7113295,16.308951 20.75325,16.7268626 19.2205909,16.7268626 C17.7355341,16.6807168 14.8143636,16.4948339 14.8143636,13.3835699 C14.8143636,8.27633931 22.6694091,10.5979259 22.6694091,8.09045639 C22.6694091,7.25463321 21.7113295,7.30077897 21.1843523,7.30077897 C20.2269432,7.30077897 19.6040909,7.48666189 19.4599432,8.87948387 L15.4365455,8.87948387 C15.4365455,6.46560573 16.202875,4.42219355 21.4719773,4.42219355 C26.5969318,4.42219355 27.1239091,7.02260454 27.1239091,9.57621983 L27.1239091,14.8699833 C27.1239091,15.5660693 27.1721818,15.8910394 27.6508864,16.4018925 L27.6508864,16.4948339 L23.1005114,16.5409797 Z M22.7170114,11.2017204 C21.0884773,11.9439522 19.0288409,11.8978065 18.9812386,13.0585998 C18.9812386,13.8014815 19.4123409,14.1732473 20.3704205,14.1732473 C21.9506818,14.1732473 22.8128864,12.5945424 22.7170114,11.2017204 Z M50.1151364,16.5409797 L49.6364318,15.5660693 C48.726625,16.308951 47.7202727,16.7268626 46.2358864,16.7268626 C44.7025568,16.6807168 41.7807159,16.4948339 41.7807159,13.3835699 C41.7807159,8.27633931 49.6364318,10.5979259 49.6847045,8.09045639 C49.6847045,7.25463321 48.6783523,7.30077897 48.1996477,7.30077897 C47.1939659,7.30077897 46.6187159,7.48666189 46.4752386,8.87948387 L42.4518409,8.87948387 C42.4518409,6.46560573 43.1698977,4.42219355 48.4866023,4.42219355 C53.5639545,4.42219355 54.0909318,7.02260454 54.0909318,9.57621983 L54.0909318,14.8699833 C54.0909318,15.5660693 54.1392045,15.8910394 54.6179091,16.4018925 L54.6179091,16.4948339 L50.1151364,16.5409797 Z M49.7323068,11.2017204 C48.1037727,11.9439522 45.9958636,11.8978065 45.9958636,13.0585998 C45.9958636,13.8014815 46.3793636,14.1732473 47.3850455,14.1732473 C48.9177045,14.1732473 49.8281818,12.5945424 49.7323068,11.2017204 L49.7323068,11.2017204 Z" id="Fill-7"></path>
                        <path d="M95.1884545,16.5409797 L99.6429545,16.5409797 L99.6429545,4.8862509 L95.1884545,4.8862509 L95.1884545,16.5409797 Z M95.1884545,3.40048746 L99.6429545,3.40048746 L99.6429545,0.0571947431 L95.1884545,0.0571947431 L95.1884545,3.40048746 Z" id="Fill-8"></path>
                        <path d="M74.3044659,4.46833931 C78.2802614,4.46833931 80.7227273,7.16169176 80.7227273,10.6908674 C80.7227273,14.2661888 78.2802614,16.9127455 74.3044659,16.9127455 C70.3286705,16.9127455 67.8379318,14.2661888 67.8379318,10.6908674 C67.8379318,7.16169176 70.3286705,4.46833931 74.3044659,4.46833931 Z M72.1965568,10.6908674 C72.1965568,12.1298351 72.6759318,13.8944229 74.3044659,13.9412186 C75.933,13.9412186 76.3641023,12.1298351 76.3641023,10.6908674 C76.3641023,9.2980454 75.933,7.48666189 74.3044659,7.48666189 C72.6759318,7.48666189 72.2448295,9.2980454 72.1965568,10.6908674 L72.1965568,10.6908674 Z" id="Fill-9"></path>
                        <path d="M115.976568,14.2661888 C116.263523,14.2661888 116.694625,14.3123345 116.694625,13.9412186 C116.694625,13.6162485 116.407,13.5694528 116.167648,13.5694528 L115.593068,13.5694528 L115.593068,14.2661888 L115.976568,14.2661888 Z M116.933977,15.3801864 L116.647023,15.3801864 L116.072443,14.4514217 L115.593068,14.4514217 L115.593068,15.3801864 L115.353716,15.3801864 L115.353716,13.3835699 L116.21592,13.3835699 C116.600761,13.3835699 116.942693,13.4960096 116.942693,13.9412186 C116.942693,14.3123345 116.694625,14.4514217 116.311795,14.4514217 L116.933977,15.3801864 Z M117.628568,14.4286738 C117.628568,13.546055 116.910511,12.8499689 116.048307,12.8499689 C115.13783,12.8499689 114.419773,13.546055 114.419773,14.4286738 C114.419773,15.264497 115.13783,15.960583 116.048307,15.960583 C116.910511,15.960583 117.628568,15.264497 117.628568,14.4286738 Z M114.203886,14.405276 C114.203886,13.4303656 115.018489,12.6406882 116.02417,12.6406882 C117.029852,12.6406882 117.844455,13.4303656 117.844455,14.405276 C117.844455,15.3801864 117.029852,16.1698638 116.02417,16.1698638 C115.018489,16.1698638 114.203886,15.3801864 114.203886,14.405276 L114.203886,14.405276 Z" id="Fill-10"></path>
                    </g>
                </g>
            </g>
        </g>
    </g>
</svg>