<?xml version="1.0" encoding="UTF-8"?>
<svg width="108px" height="30px" viewBox="0 0 108 30" version="1.1" xmlns="http://www.w3.org/2000/svg" xmlns:xlink="http://www.w3.org/1999/xlink">
    <!-- Generator: Sketch 46.1 (44463) - http://www.bohemiancoding.com/sketch -->
    <title>Group 11</title>
    <desc>Created with Sketch.</desc>
    <defs></defs>
    <g id="About" stroke="none" stroke-width="1" fill="none" fill-rule="evenodd">
        <g id="iPhone-7-Copy-12" transform="translate(-224.000000, -2726.000000)">
            <g id="Group-25" transform="translate(5.000000, 2291.000000)">
                <g id="Group-18" transform="translate(182.000000, 400.000000)">
                    <g id="Group-11" transform="translate(37.000000, 35.500000)">
                        <path d="M31.5758099,23.4292966 C29.0830924,23.4292966 27.4940879,22.4663983 26.770052,21.8922966 L26.6949848,21.8338051 L26.7458368,21.7522119 L27.7851552,20.1026525 L27.8447247,20.0077881 L27.9348054,20.0751271 C28.5397022,20.5253644 29.8119713,21.281822 31.5375498,21.281822 C33.0200072,21.281822 33.8704466,20.6280932 33.8704466,19.4892288 C33.8704466,18.236822 32.8698726,17.8794831 31.0551821,17.2316525 L30.8411193,17.1544831 C29.020617,16.5115678 27.3347516,15.5727542 27.3347516,13.0674492 C27.3347516,10.8142966 29.044348,9.35888983 31.6886529,9.35888983 C33.256348,9.35888983 34.4743749,9.64888983 35.5204735,10.2736186 L35.6028054,10.3227712 L35.5616395,10.4102627 L34.7300879,12.155178 L34.6835946,12.2534831 L34.5877022,12.203839 C33.6960969,11.7403305 32.733783,11.5053814 31.726913,11.5053814 C30.783487,11.5053814 29.6589309,11.7668729 29.6589309,13.0099407 C29.6589309,14.2269576 30.5442404,14.5233475 32.3071103,15.114161 C34.2239892,15.7482288 36.269209,16.6595169 36.269209,19.4518729 C36.269209,21.9424322 34.5150565,23.4292966 31.5758099,23.4292966 Z" id="Fill-1" fill="#000000"></path>
                        <path d="M38.1474888,26.8219525 C37.6917578,26.8219525 37.2592735,26.7683763 36.745426,26.6479525 L36.6509865,26.6263254 L36.666,26.5280203 L36.9120269,24.898122 L36.9270404,24.7963763 L37.0272915,24.8086644 L37.1875964,24.8288169 C37.433139,24.8597831 37.6273453,24.8858339 37.9024305,24.8858339 C38.8255157,24.8858339 39.4158834,24.530461 39.8110762,23.7376305 L36.3492646,13.4087153 L36.3018027,13.2686305 L36.4485471,13.2686305 L38.7906457,13.2686305 L38.8691031,13.2686305 L38.8918655,13.3462915 L40.9007623,20.6454441 L42.6941435,13.3487492 L42.7130314,13.2686305 L42.7953632,13.2686305 L45.004278,13.2686305 L45.1456951,13.2686305 L45.1045291,13.4062576 L42.026287,23.6231051 C41.3739283,25.806461 40.1404036,26.8219525 38.1474888,26.8219525" id="Fill-3" fill="#000000"></path>
                        <path d="M59.2426978,23.2574593 L59.1385722,23.2574593 L56.8715408,23.2574593 L56.7674152,23.2574593 L56.7674152,23.1517814 L56.7674152,16.5756627 C56.7674152,15.7425271 56.5979085,15.1861203 55.7770117,15.1861203 C55.2108592,15.1861203 54.5488143,15.5292051 53.8596484,16.1814593 L53.8596484,23.1517814 L53.8596484,23.2574593 L53.7555229,23.2574593 L51.4889758,23.2574593 L51.3848502,23.2574593 L51.3848502,23.1517814 L51.3848502,16.5756627 C51.3848502,15.7425271 51.2158278,15.1861203 50.393478,15.1861203 C49.7910027,15.1861203 49.0940879,15.5611542 48.4765991,16.2168492 L48.4765991,23.1517814 L48.4765991,23.2574593 L48.3724735,23.2574593 L46.1054422,23.2574593 L46.0013166,23.2574593 L46.0013166,23.1517814 L46.0013166,13.3748492 L46.0013166,13.2691712 L46.1054422,13.2691712 L47.483774,13.2691712 L47.5598099,13.2691712 L47.5825722,13.3424085 L48.0194152,14.7019678 C49.0437202,13.5950525 50.0815857,13.0578153 51.1862852,13.0578153 C52.5888323,13.0578153 53.1612807,13.8344254 53.4867336,14.5663068 C54.1783211,13.8516288 55.2447605,13.0578153 56.5693345,13.0578153 C58.7792179,13.0578153 59.2426978,14.9811542 59.2426978,16.5948322 L59.2426978,23.1517814 L59.2426978,23.2574593 Z" id="Fill-5" fill="#000000"></path>
                        <path d="M65.8905094,18.5265271 C64.2700251,18.8460186 63.4718906,19.1458492 63.1493435,19.5557814 C62.9488413,19.7917136 62.8878188,19.9868492 62.8878188,20.3908831 C62.8878188,21.1360356 63.2825274,21.530239 64.0293256,21.530239 C64.647783,21.530239 65.3384018,21.2653068 65.8905094,20.8190017 L65.8905094,18.5265271 Z M63.5198368,23.4294932 C61.7022404,23.4294932 60.4319085,22.2429508 60.4319085,20.544239 C60.4319085,19.4520695 60.8062762,18.6857814 61.6102224,18.1357644 C62.4311193,17.5685441 63.7944377,17.1576288 65.8905094,16.8484593 L65.8905094,16.5948322 C65.8905094,15.4987305 65.4987067,15.0907644 64.4453435,15.0907644 C63.5435677,15.0907644 62.6364646,15.4726797 61.7898996,15.885561 L61.6998188,15.9307814 L61.6528413,15.8393576 L60.8590655,14.3254593 L60.8135408,14.2379678 L60.8958726,14.1848831 C62.1429578,13.4053237 63.3004466,13.0578153 64.6531103,13.0578153 C67.0823839,13.0578153 68.3653076,14.3333237 68.3653076,16.7486797 L68.3653076,23.1507983 L68.3653076,23.2564763 L68.2611821,23.2564763 L66.8818816,23.2564763 L66.812626,23.2564763 L66.7859892,23.1920864 L66.3728771,22.2218153 C65.756357,22.7959169 64.7887157,23.4294932 63.5198368,23.4294932 L63.5198368,23.4294932 Z" id="Fill-7" fill="#000000"></path>
                        <path d="M78.5638009,23.2574593 L78.4596753,23.2574593 L76.1931283,23.2574593 L76.089487,23.2574593 L76.089487,23.1517814 L76.089487,16.5756627 C76.089487,15.6024424 75.7524108,15.1861203 74.9663839,15.1861203 C74.3062762,15.1861203 73.5313883,15.5881881 72.9356933,16.2350356 L72.9356933,23.1517814 L72.9356933,23.2574593 L72.8310834,23.2574593 L70.5645363,23.2574593 L70.4604108,23.2574593 L70.4604108,23.1517814 L70.4604108,13.3748492 L70.4604108,13.2691712 L70.5645363,13.2691712 L71.9438368,13.2691712 L72.0198726,13.2691712 L72.042635,13.3424085 L72.4789937,14.7191712 C73.4984556,13.6014424 74.5721596,13.0578153 75.7587067,13.0578153 C77.6208592,13.0578153 78.5638009,14.2477983 78.5638009,16.5948322 L78.5638009,23.1517814 L78.5638009,23.2574593 Z" id="Fill-9" fill="#000000"></path>
                        <path d="M83.7303659,23.4292966 C81.791209,23.4292966 80.8497202,22.4550932 80.8497202,20.4477034 L80.8497202,15.0713983 L79.5173973,15.0713983 L79.4132717,15.0713983 L79.4132717,14.9657203 L79.4132717,13.3746525 L79.4132717,13.2694661 L79.5173973,13.2694661 L80.9015408,13.2694661 L81.3408054,10.5582119 L81.3553345,10.4692458 L81.4439623,10.4692458 L83.2203928,10.4692458 L83.3245184,10.4692458 L83.3245184,10.5754153 L83.3245184,13.2694661 L85.2975767,13.2694661 L85.4017022,13.2694661 L85.4017022,13.3746525 L85.4017022,14.9657203 L85.4017022,15.0713983 L85.2975767,15.0713983 L83.3245184,15.0713983 L83.3245184,20.3140085 C83.3245184,21.1692627 83.468357,21.4735169 84.2781148,21.4735169 C84.5231731,21.4735169 84.9091641,21.4017542 85.2864377,21.2857542 L85.3987964,21.2508559 L85.4196215,21.3683305 L85.7034242,22.9598898 L85.7179534,23.0454153 L85.6390117,23.0778559 C85.3828143,23.1835339 84.6839623,23.4292966 83.7303659,23.4292966" id="Fill-11" fill="#000000"></path>
                        <path d="M88.6779283,17.3898746 L92.0273812,17.3898746 C91.9702332,15.7403153 91.4374978,14.9371627 90.3981794,14.9371627 C89.3792018,14.9371627 88.8154709,15.7403153 88.6779283,17.3898746 M90.5672018,23.4292475 C87.811991,23.4292475 86.0999731,21.4719932 86.0999731,18.3198407 C86.0999731,15.1229593 87.7863229,13.0575695 90.3981794,13.0575695 C93.0449058,13.0575695 94.5622332,14.9828746 94.5622332,18.3395017 L94.5622332,18.9342475 L94.5622332,19.0399254 L94.4585919,19.0399254 L88.6580717,19.0399254 C88.7931928,20.6545864 89.4368341,21.3776203 90.7376771,21.3776203 C91.8016951,21.3776203 92.5049058,20.9775186 93.2502511,20.4933661 L93.3383946,20.4368407 L93.394574,20.5262983 L94.3007085,21.9635186 L94.3520448,22.0451119 L94.2769776,22.1045864 C93.3543767,22.8290949 92.4395247,23.4292475 90.5672018,23.4292475" id="Fill-13" fill="#000000"></path>
                        <path d="M100.049166,23.4292966 C96.7689686,23.4292966 95.5998565,20.7902966 95.5998565,18.3198898 C95.5998565,15.8932288 96.7650942,13.0576186 100.049166,13.0576186 C101.403767,13.0576186 102.349614,13.3859576 103.215067,14.1576525 L103.285291,14.2195847 L103.232018,14.2977373 L102.193668,15.8126186 L102.131677,15.9020763 L102.044502,15.8367034 C101.501596,15.422839 100.957722,15.1475847 100.068054,15.1475847 C98.7962691,15.1475847 98.1511749,16.2092797 98.1511749,18.3007203 C98.1511749,20.3582458 98.7972377,21.3585 100.124233,21.3585 C101.000825,21.3585 101.569883,21.0232797 102.152987,20.5204492 L102.236287,20.4486864 L102.302637,20.5366695 L103.379731,21.9365339 L103.435426,22.0092797 L103.372466,22.0756356 C102.483767,22.9992119 101.428466,23.4292966 100.049166,23.4292966" id="Fill-15" fill="#000000"></path>
                        <path d="M12.2930152,7.8068 C10.0501991,7.8068 7.94008251,8.69400339 6.35059372,10.3047322 C4.76352646,11.9164441 3.88838744,14.0585119 3.88838744,16.3352576 C3.88838744,18.6124949 4.76352646,20.7550542 6.35107803,22.3677492 C7.9391139,23.9770034 10.0497148,24.8651898 12.2930152,24.8651898 C14.5377686,24.8651898 16.6478852,23.9770034 18.2368897,22.3662746 C19.822504,20.7550542 20.697643,18.6124949 20.697643,16.3352576 C20.697643,14.0585119 19.822504,11.9164441 18.2364054,10.3037492 C16.6469166,8.69400339 14.5358314,7.8068 12.2930152,7.8068 M12.2930152,28.8126305 C5.51662063,28.8116475 0.000871748881,23.2146475 -9.68609849e-05,16.3352576 C0.000871748881,9.45685085 5.51662063,3.86034237 12.2930152,3.85985085 C19.0703785,3.86034237 24.5861274,9.45685085 24.5861274,16.3352576 C24.5861274,23.2146475 19.0703785,28.8116475 12.2930152,28.8126305" id="Fill-17" fill="#FDB511"></path>
                        <path d="M106.18807,21.5937441 L106.647191,21.5937441 L106.942133,22.6908288 L107.222061,21.5937441 L107.681182,21.5937441 L107.681182,23.0978119 L107.380429,23.0978119 L107.380429,21.9471508 L107.063693,23.0978119 L106.789092,23.0978119 L106.478169,21.9471508 L106.478169,23.0978119 L106.18807,23.0978119 L106.18807,21.5937441 Z M105.206868,21.8395068 L104.821361,21.8395068 L104.821361,21.5937441 L105.89216,21.5937441 L105.89216,21.8395068 L105.512465,21.8395068 L105.512465,23.0978119 L105.206868,23.0978119 L105.206868,21.8395068 Z" id="Fill-20" fill="#000000"></path>
                        <polygon id="Fill-22" fill="#FDB511" points="25.6846278 2.91061695 26.6435516 2.91061695 26.6435516 1.93887119 25.6846278 1.93887119"></polygon>
                        <polygon id="Fill-24" fill="#FDB511" points="25.6846278 0.97400678 26.6435516 0.97400678 26.6435516 -0.000196610169 25.6846278 -0.000196610169"></polygon>
                        <polygon id="Fill-25" fill="#FDB511" points="22.9870493 3.85434576 23.8830135 3.85434576 23.8830135 2.90422712 22.9870493 2.90422712"></polygon>
                        <polygon id="Fill-26" fill="#000000" points="21.2130404 5.67741356 22.1157848 5.67741356 22.1157848 4.7695661 21.2130404 4.7695661"></polygon>
                        <polygon id="Fill-27" fill="#000000" points="23.8834978 4.7695661 24.8869776 4.7695661 24.8869776 3.85434576 23.8834978 3.85434576"></polygon>
                        <polygon id="Fill-28" fill="#000000" points="20.3141704 4.7695661 21.2125561 4.7695661 21.2125561 3.89907458 20.3141704 3.89907458"></polygon>
                        <polygon id="Fill-29" fill="#000000" points="22.9870493 5.67741356 23.8830135 5.67741356 23.8830135 4.7695661 22.9870493 4.7695661"></polygon>
                        <polygon id="Fill-30" fill="#000000" points="24.7363587 1.93887119 25.6841435 1.93887119 25.6841435 0.974498305 24.7363587 0.974498305"></polygon>
                        <polygon id="Fill-31" fill="#000000" points="22.9875336 2.90422712 24.7363587 2.90422712 24.7363587 1.93887119 22.9875336 1.93887119"></polygon>
                        <polygon id="Fill-32" fill="#000000" points="22.1157848 4.7695661 22.9875336 4.7695661 22.9875336 2.90373559 22.1157848 2.90373559"></polygon>
                        <path d="M22.1157848,5.67751186 L22.1157848,6.5927322 L21.2130404,6.5927322 L21.2130404,5.67751186 L19.7155695,5.67751186 L19.7155695,6.33763051 L18.9125919,6.33763051 L18.9125919,7.15110508 L19.8090404,7.15110508 L19.8090404,8.05796949 L18.9125919,8.05796949 L18.9125919,7.15110508 L17.9609327,7.15110508 L17.9609327,8.57357966 L17.0596413,8.57357966 L17.0596413,9.48044407 L16.4610404,9.48044407 L16.4610404,10.3922237 L15.8043229,10.3922237 C15.0652735,11.5065119 13.2152287,14.980122 12.6553722,16.3957153 C10.6396951,13.5478169 9.07393722,12.4182915 7.84089686,12.0098339 C7.17497758,11.8063424 6.37393722,12.5416644 7.47912108,13.6982237 C10.0163946,16.5299017 10.8154978,18.874478 11.5865112,20.7457153 C11.994296,21.7317153 13.8235157,21.8840881 14.1915874,20.8808847 C14.972287,18.7574949 16.1041076,16.3726136 17.4446637,14.4138847 L17.4446637,13.3988847 L18.1599821,13.3988847 L18.1599821,12.4841559 L18.9125919,12.4841559 L18.9125919,11.4229525 L19.8124305,11.4229525 L19.8124305,10.4010712 L18.9029058,10.4010712 L18.9029058,9.47159661 L19.8124305,9.47159661 L19.8124305,10.4010712 L20.7020987,10.4010712 L20.6991928,9.48044407 L21.4135426,9.48044407 L21.4135426,8.37057966 L22.2150673,8.37057966 L22.2150673,7.60625763 L22.9875336,7.60625763 L22.9875336,5.67751186 L22.1157848,5.67751186 Z" id="Fill-33" fill="#000000"></path>
                    </g>
                </g>
            </g>
        </g>
    </g>
</svg>