<?xml version="1.0" encoding="UTF-8"?>
<svg width="150px" height="30px" viewBox="0 0 150 30" version="1.1" xmlns="http://www.w3.org/2000/svg" xmlns:xlink="http://www.w3.org/1999/xlink">
    <!-- Generator: Sketch 46.1 (44463) - http://www.bohemiancoding.com/sketch -->
    <title>Group 8</title>
    <desc>Created with Sketch.</desc>
    <defs></defs>
    <g id="About" stroke="none" stroke-width="1" fill="none" fill-rule="evenodd">
        <g id="iPhone-7-Copy-12" transform="translate(-203.000000, -2526.000000)">
            <g id="Group-25" transform="translate(5.000000, 2291.000000)">
                <g id="Group-16" transform="translate(182.000000, 200.000000)">
                    <g id="Group-8" transform="translate(16.500000, 35.000000)">
                        <path d="M102.330551,21.0676901 C104.563068,21.0676901 105.314276,19.1388169 105.314276,17.9557183 C105.314276,16.4874085 104.327151,14.8661408 102.309029,14.8661408 C100.268971,14.8661408 99.3679344,16.6188169 99.3679344,17.999662 C99.3679344,19.1388169 100.184123,21.0676901 102.330551,21.0676901 L102.330551,21.0676901 Z M108.879929,24.0643099 L106.602298,24.0643099 C105.314276,24.0643099 105.314276,22.7599437 105.314276,22.7599437 L105.271646,22.7599437 C104.669437,23.946 103.189371,24.4779718 101.793323,24.4779718 C98.0149317,24.4779718 95.8039372,21.4471268 95.8039372,17.9624789 C95.8043511,13.974169 98.6163122,11.4588169 101.793323,11.4588169 C103.747293,11.4588169 104.842029,12.4416338 105.271646,13.1531831 L105.314276,13.1531831 C105.314276,13.1531831 105.314276,11.8488169 106.580776,11.8488169 L108.879929,11.8488169 L108.879929,24.0643099 Z" id="Fill-1" fill="#51AF33"></path>
                        <path d="M116.769893,21.0676901 C118.594729,21.0676901 119.754032,19.5554366 119.754032,17.9557183 C119.754032,16.3775493 118.594729,14.8661408 116.834459,14.8661408 C114.945471,14.8661408 113.871429,16.421493 113.872257,17.9337465 C113.872257,19.6213521 114.988101,21.0676901 116.769893,21.0676901 M113.991457,7.81614085 L113.991457,12.8498028 C115.269546,11.4681127 116.958212,11.4681127 117.452809,11.4681127 C119.942765,11.4681127 123.315132,13.2867042 123.315132,17.8898028 C123.315132,22.2727606 120.333062,24.4669859 117.305879,24.4669859 C115.631284,24.4669859 114.343676,23.5902254 113.893365,22.7599437 L113.875568,24.0643099 L110.390209,24.0643099 L110.390209,10.3767042 C110.390209,7.83008451 112.931073,7.81614085 112.931073,7.81614085 L113.991457,7.81614085 Z" id="Fill-3" fill="#51AF33"></path>
                        <path d="M130.597548,21.0676901 C132.422384,21.0676901 133.581687,19.5554366 133.581687,17.9557183 C133.581687,16.3775493 132.422384,14.8661408 130.662115,14.8661408 C128.772712,14.8661408 127.699498,16.421493 127.699498,17.9337465 C127.699498,19.6213521 128.815756,21.0676901 130.597548,21.0676901 M126.75997,7.81614085 L127.816215,7.81614085 L127.816215,12.8498028 C129.094304,11.4681127 130.78504,11.4681127 131.277981,11.4681127 C133.768765,11.4681127 137.142787,13.2867042 137.142787,17.8898028 C137.142787,22.2727606 134.15989,24.4669859 131.13312,24.4669859 C129.45894,24.4669859 128.172159,23.5902254 127.72102,22.7599437 L127.699912,22.7599437 L127.699912,24.0643099 L124.214967,24.0643099 L124.214967,10.3767042 C124.214967,7.83008451 126.75997,7.81614085 126.75997,7.81614085" id="Fill-5" fill="#51AF33"></path>
                        <path d="M141.64089,24.0644789 L138.155532,24.0644789 L138.155532,14.4310986 C138.155532,11.8836338 140.614859,11.8485634 140.614859,11.8485634 L141.64089,11.8485634 L141.64089,24.0644789 Z" id="Fill-7" fill="#51AF33"></path>
                        <path d="M141.769816,9.28339437 C141.769816,10.3359296 140.933761,11.1902958 139.901936,11.1902958 C138.870939,11.1902958 138.034469,10.3359296 138.034469,9.28339437 C138.034469,8.23001408 138.870939,7.37649296 139.901936,7.37649296 C140.933761,7.37649296 141.769816,8.23001408 141.769816,9.28339437" id="Fill-9" fill="#51AF33"></path>
                        <path d="M89.1272472,15.9996761 L87.7365806,15.9996761 L87.7365806,11.4929155 L89.1702917,11.4929155 C90.7368611,11.4929155 91.7885528,12.2120704 91.7885528,13.6803803 C91.7885528,14.4700986 91.5100056,15.9996761 89.1272472,15.9996761 L89.1272472,15.9996761 Z M94.1742083,20.3877042 C93.2831056,20.3877042 92.6523389,19.6664366 92.5972917,19.6034789 L92.0348167,18.8665775 L92.0348167,18.867 L91.7463361,18.5255915 C94.7519972,18.0210845 95.6857306,15.2817887 95.6857306,13.418831 C95.6857306,11.7531972 95.0363389,10.0368592 93.7263806,8.98516901 C92.6962111,8.17390141 91.6176167,7.81643662 88.8271778,7.81643662 L83.786425,7.81643662 L83.786425,24.0646056 L87.6881556,24.0646056 L87.6889833,19.2020704 L89.2046444,21.1385493 L89.8018861,21.908831 C89.97365,22.1289718 91.556775,24.0646056 94.1742083,24.0646056 L95.7523667,24.0646056 L95.7523667,20.3877042 L94.1742083,20.3877042 Z" id="Fill-11" fill="#51AF33"></path>
                        <path d="M148.463434,20.3878732 C148.406318,20.3878732 147.858743,20.367169 147.380287,20.0988592 C147.016065,19.8930845 146.636529,19.5613944 146.636529,18.5756197 L146.636529,17.1854789 L146.636529,14.6950563 L148.959687,14.6950563 L148.959687,11.8484366 L146.636529,11.8484366 L146.636529,7.8161831 L145.581526,7.8161831 C145.581526,7.8161831 143.034868,7.83012676 143.034868,10.3767465 L143.034868,16.9429437 L143.034868,17.7288592 L143.034868,18.5756197 C143.034868,22.5905493 146.292173,24.0643521 148.446879,24.0643521 L148.959687,24.0643521 L148.959687,20.3878732 L148.463434,20.3878732 Z" id="Fill-13" fill="#51AF33"></path>
                        <path d="M40.9185456,11.4928732 L37.3172983,11.4928732 L37.3172983,10.3769577 C37.3172983,7.83033803 39.7608983,7.81639437 39.7608983,7.81639437 L48.4699483,7.81639437 L48.4699483,11.4928732 L44.98459,11.4928732 L44.98459,24.0645634 L43.4676872,24.0645634 C40.972765,24.0645634 40.9185456,21.5010423 40.9185456,21.5010423 L40.9185456,11.4928732 Z" id="Fill-15" fill="#254F17"></path>
                        <path d="M52.842105,21.0676901 C55.0754494,21.0676901 55.8262439,19.1388169 55.8262439,17.9557183 C55.8262439,16.4874085 54.838705,14.8661408 52.8214106,14.8661408 C50.7813522,14.8661408 49.8803161,16.6188169 49.8794883,17.999662 C49.8803161,19.1388169 50.6956772,21.0676901 52.842105,21.0676901 L52.842105,21.0676901 Z M59.3902411,24.0643099 L57.11468,24.0643099 C55.8262439,24.0643099 55.8262439,22.7599437 55.8262439,22.7599437 L55.7836133,22.7599437 C55.1818189,23.946 53.7005106,24.4779718 52.3052911,24.4779718 C48.5273133,24.4779718 46.315905,21.4471268 46.315905,17.9624789 C46.315905,13.974169 49.1286939,11.4588169 52.3052911,11.4588169 C54.2596744,11.4588169 55.3544106,12.4416338 55.7836133,13.1531831 L55.8262439,13.1531831 C55.8262439,13.1531831 55.8262439,11.8488169 57.0931578,11.8488169 L59.3902411,11.8488169 L59.3902411,24.0643099 Z" id="Fill-17" fill="#254F17"></path>
                        <path d="M66.1379131,15.2880423 C66.1163908,15.051 66.0733464,14.3753662 65.0216547,14.3753662 C64.2700325,14.3753662 64.0125936,14.8621268 64.0125936,15.1900141 C64.0125936,15.8474789 64.8921075,16.2222676 65.8374297,16.5074789 C67.8547242,17.0774789 70.0023936,17.6914225 70.0023936,20.3217042 C70.0023936,22.8856479 67.7909853,24.4422676 65.1503742,24.4422676 C63.3470603,24.4422676 60.6203603,23.5900141 60.2987686,20.3880423 L63.8404158,20.3880423 C63.9910714,21.5736761 65.0431769,21.5276197 65.1930047,21.5276197 C65.7939714,21.5276197 66.4383964,21.1879014 66.4383964,20.5959296 C66.4383964,19.6536761 65.5576408,19.5497324 63.2824936,18.6514225 C61.7370325,18.1477606 60.4494242,17.1197324 60.4485964,15.4760704 C60.4485964,13.065507 62.5958519,11.4586056 65.0642853,11.4586056 C66.6312686,11.4586056 69.3368603,12.0856479 69.6373436,15.2880423 L66.1379131,15.2880423 Z" id="Fill-19" fill="#254F17"></path>
                        <path d="M70.8913028,20.8142535 L70.8913028,24.0643944 L74.49255,24.0643944 L74.49255,20.8624225 L74.49255,18.2532676 L74.5062083,18.2532676 C74.5062083,18.2532676 75.0016333,18.9990423 76.396025,21.1793239 C78.2283111,24.0466479 81.8622556,24.0643944 82.0153944,24.0643944 L82.8572444,24.0643944 L82.8572444,20.8624225 L82.0153944,20.8624225 C81.9938722,20.8624225 79.8681389,20.8248169 78.9617222,19.4067887 C78.3396472,18.4324225 77.9621806,17.8560845 77.7341278,17.5011549 C77.6592139,17.3824225 77.6000278,17.2793239 77.5549139,17.2079155 L82.0414694,11.8484789 L77.8119389,11.8484789 L74.5062083,16.2369296 L74.4631639,16.2369296 L74.4639917,10.3434085 C74.4639917,7.79678873 71.9686556,7.81622535 71.9686556,7.81622535 L70.8913028,7.81622535 L70.8913028,20.8142535 Z" id="Fill-21" fill="#254F17"></path>
                        <path d="M32.4323333,13.572169 C30.7192472,10.7128732 29.5119333,10.3516056 28.4465833,10.0334366 C27.5414083,9.76259155 26.7599861,9.52892958 25.2550861,6.95695775 C24.1541417,5.07583099 22.7154639,3.33583099 21.2039417,2.05766197 C19.1924417,0.356957746 17.7351389,-8.45070421e-05 16.8668,-8.45070421e-05 C16.2761806,-8.45070421e-05 15.7563361,0.159211268 15.3217528,0.473577465 L14.6351111,0.970478873 C14.3756028,0.906253521 14.1831444,0.891887324 14.0329028,0.891887324 C13.6604028,0.891887324 13.3417083,0.997098592 13.0855111,1.20498592 C12.7461222,1.48005634 12.579325,1.90808451 12.6273361,2.37878873 C12.6823833,2.91794366 13.0201167,3.55174648 13.6902028,4.37357746 C13.9252917,4.66132394 14.2009417,4.96935211 14.5059778,5.28921127 C13.8205778,5.16583099 13.1148972,5.1011831 12.3947306,5.1011831 C8.55466944,5.1011831 5.13305,6.92864789 2.91708889,9.77780282 C2.82893056,9.76892958 2.74035833,9.76343662 2.65137222,9.76343662 C1.71846667,9.76343662 0.897311111,10.2269577 0.398988889,11.0348451 C-0.00703611111,11.6931549 -0.107197222,12.4693521 0.117130556,13.2197746 C0.236744444,13.619493 0.442033333,13.9866761 0.700713889,14.2845634 C0.439136111,15.2948451 0.298827778,16.3554085 0.298827778,17.4497746 C0.298827778,24.2699155 5.71456389,29.7983662 12.3947306,29.7983662 C16.9553722,29.7983662 20.9253944,27.2217465 22.9865611,23.4168169 C23.1976444,23.442169 23.4045889,23.4578028 23.6032556,23.4578028 C24.1868389,23.4578028 24.6847472,23.3500563 25.0820806,23.1375211 C25.6251028,22.847662 25.9620083,22.355831 26.0058806,21.7887887 C26.05265,21.1841408 25.7976944,20.6500563 25.2873694,20.2854085 C24.9893694,20.0724507 24.640875,19.9355493 24.2712722,19.7978028 C24.3230083,19.5248451 24.3660528,19.248507 24.3995778,18.9692113 C25.2865417,19.289493 26.1635722,19.3583662 27.0095611,19.3583662 C27.3857861,19.3583662 27.7926389,19.3435775 28.3290389,19.3106197 C31.2283306,19.1323099 32.3764583,18.0387887 32.8292528,17.1527324 C33.1963722,16.4344225 33.4256667,15.2297746 32.4323333,13.572169" id="Fill-23" fill="#51AF33"></path>
                        <path d="M28.7870897,14.106507 C28.3458842,14.106507 27.9241314,13.7410141 27.8467342,13.2897465 C27.7685092,12.8389014 28.0636119,12.4734085 28.5056453,12.4734085 C28.9472647,12.4734085 29.3690175,12.8389014 29.4472425,13.2897465 C29.5246397,13.7410141 29.2295369,14.106507 28.7870897,14.106507 M31.7045925,14.0650986 C28.7465286,8.99002817 27.6882147,12.647493 24.5041675,7.42495775 C21.9281231,3.19960563 18.0313592,0.19115493 16.1295397,1.06707042 C16.0277231,1.11397183 16.0297925,1.26312676 16.1332647,1.30664789 C18.0164592,2.09467606 22.0870564,5.52270423 23.8080064,8.98157746 C23.8510508,9.06819718 23.7355758,9.14425352 23.6763897,9.06777465 C21.5113369,6.27988732 14.8270314,0.983830986 13.6797314,1.91467606 C12.7327536,2.68242254 17.7606758,7.55214085 21.8519675,9.702 C21.9455064,9.75101408 21.9835842,9.86890141 21.9330897,9.96312676 C21.7451842,10.3117183 21.2923897,10.7887606 20.0432731,10.7811549 C17.8831869,10.7676338 15.7880814,7.5204507 11.1430064,7.45791549 C8.30497028,7.41946479 5.57951194,8.63171831 3.65037583,10.8952394 C3.62140361,10.9294648 3.57256472,10.9370704 3.53407306,10.913831 C3.04568417,10.6197465 1.81395083,10.4866479 1.16952583,11.532 C0.574353611,12.4966479 1.12068694,13.5736901 1.71006472,13.9429859 C1.78083972,13.9873521 1.8114675,14.0760845 1.78580639,14.1567887 C1.45966194,15.1708732 1.2750675,16.2918592 1.25851194,17.5180563 C1.19104806,22.5352394 5.2831675,27.3466479 10.9969036,27.3994648 C13.3258564,27.4210141 14.8882869,26.6976338 16.1783786,25.9015775 C17.6750008,24.9779155 18.7705647,23.7673521 18.4874647,22.8872113 C18.0756453,21.6069296 16.2665369,22.0100282 14.4305258,22.7570704 C14.3191897,22.8022817 14.2306175,22.6493239 14.3138092,22.5610141 C15.2839647,21.5304507 15.8807925,20.1310141 15.8807925,18.5887606 C15.8807925,15.420169 13.3647619,12.8515775 10.2610092,12.8515775 C7.79092028,12.8515775 5.75375917,14.1622817 5.02034806,16.3180563 C5.00172306,16.3924225 4.92722306,16.4376338 4.85437861,16.4186197 C4.78153417,16.3996056 4.73766194,16.3235493 4.75628694,16.2491831 C5.32290083,13.5470704 7.60922306,11.5362254 10.3984203,11.3836901 C13.8957814,11.1927042 16.8670897,14.0689014 16.8484647,17.6443944 C16.8426703,18.810169 16.5227342,19.8994648 15.9714342,20.8303099 C15.8762397,20.9908732 16.0504869,21.1767887 16.2110758,21.0859437 C16.8848869,20.7052394 17.4817147,20.1990423 17.9705175,19.5977746 C18.0019731,19.5589014 18.0599175,19.5572113 18.0934425,19.5948169 C21.1342842,22.9886197 25.0260814,23.0541127 25.1283119,21.7328451 C25.2446147,20.2303099 21.4852619,21.2059437 21.2501731,17.4804507 C21.2456203,17.4060845 21.3304675,17.3621408 21.3863425,17.4103099 C21.7286286,17.7077746 22.1545203,17.5548169 22.2480592,17.5062254 C22.4570731,17.3976338 22.6520147,17.1567887 22.6797453,16.8715775 C22.6863675,16.8031268 22.7670758,16.7718592 22.8155008,16.8200282 C24.4375314,18.4341127 26.0860508,18.5105915 28.3276731,18.3758028 C31.5394508,18.1831268 33.0344175,16.3463662 31.7045925,14.0650986" id="Fill-26" fill="#FFFFFF"></path>
                    </g>
                </g>
            </g>
        </g>
    </g>
</svg>