<?xml version="1.0" encoding="UTF-8"?>
<svg width="116px" height="28px" viewBox="0 0 116 28" version="1.1" xmlns="http://www.w3.org/2000/svg" xmlns:xlink="http://www.w3.org/1999/xlink">
    <!-- Generator: Sketch 46.1 (44463) - http://www.bohemiancoding.com/sketch -->
    <title>Group 13</title>
    <desc>Created with Sketch.</desc>
    <defs></defs>
    <g id="About" stroke="none" stroke-width="1" fill="none" fill-rule="evenodd">
        <g id="iPhone-7-Copy-12" transform="translate(-220.000000, -2827.000000)">
            <g id="Group-25" transform="translate(5.000000, 2291.000000)">
                <g id="Group-19" transform="translate(182.000000, 500.000000)">
                    <g id="Group-13" transform="translate(33.000000, 36.500000)">
                        <polygon id="Fill-1" fill="#404041" points="37.4879785 19.7317034 31.1043304 2.91946754 35.1026296 2.91946754 39.6977823 15.8251954 44.292935 2.91946754 48.2932994 2.91946754 41.9096513 19.7317034"></polygon>
                        <polygon id="Fill-2" fill="#404041" points="50.0055875 19.731913 53.1592047 19.731913 53.1592047 2.91967712 50.0055875 2.91967712"></polygon>
                        <path d="M54.7731875,13.6319761 C54.7731875,10.1781535 57.1585365,7.25455978 61.1072699,7.25455978 C65.0807862,7.25455978 67.4661352,10.1781535 67.4661352,13.6319761 C67.4661352,17.0857987 65.0807862,20.0345416 61.1072699,20.0345416 C57.1585365,20.0345416 54.7731875,17.0857987 54.7731875,13.6319761 Z M64.1865385,13.6319761 C64.1865385,11.7415951 63.0940281,10.1027059 61.1072699,10.1027059 C59.1452946,10.1027059 58.0527841,11.7415951 58.0527841,13.6319761 C58.0527841,15.5475064 59.1452946,17.1863955 61.1072699,17.1863955 C63.0940281,17.1863955 64.1865385,15.5475064 64.1865385,13.6319761 Z" id="Fill-3" fill="#404041"></path>
                        <path d="M68.8054415,13.6319761 C68.8054415,9.9015124 71.4881845,7.25455978 75.1643067,7.25455978 C77.6240042,7.25455978 79.1130402,8.33807087 79.9081565,9.44882692 L77.8470498,11.4146555 C77.2749791,10.5574872 76.4055142,10.1027059 75.3130038,10.1027059 C73.4005942,10.1027059 72.0602552,11.5152523 72.0602552,13.6319761 C72.0602552,15.7486999 73.4005942,17.1863955 75.3130038,17.1863955 C76.4055142,17.1863955 77.2749791,16.6813158 77.8470498,15.8492967 L79.9081565,17.8151253 C79.1130402,18.9258814 77.6240042,20.0345416 75.1643067,20.0345416 C71.4881845,20.0345416 68.8054415,17.387589 68.8054415,13.6319761" id="Fill-5" fill="#404041"></path>
                        <path d="M81.4219753,4.33075645 C81.4219753,3.27239456 82.2666573,2.4403754 83.2848192,2.4403754 C84.327764,2.4403754 85.172446,3.27239456 85.172446,4.33075645 C85.172446,5.38911835 84.327764,6.24628669 83.2848192,6.24628669 C82.2666573,6.24628669 81.4219753,5.38911835 81.4219753,4.33075645 L81.4219753,4.33075645 Z M81.7193695,19.730446 L84.8729866,19.730446 L84.8729866,7.55614052 L81.7193695,7.55614052 L81.7193695,19.730446 Z" id="Fill-7" fill="#404041"></path>
                        <path d="M88.8977208,16.6821541 L88.8977208,10.3550362 L86.9109627,10.3550362 L86.9109627,7.55718841 L88.8977208,7.55718841 L88.8977208,4.23120756 L92.051338,4.23120756 L92.051338,7.55718841 L94.4862526,7.55718841 L94.4862526,10.3550362 L92.051338,10.3550362 L92.051338,15.8249858 C92.051338,16.6067066 92.4499287,17.1872338 93.1459137,17.1872338 C93.6167877,17.1872338 94.0649442,17.0090936 94.2384241,16.8079001 L94.9096262,19.2536592 C94.4366869,19.6811955 93.5920049,20.0332842 92.2764488,20.0332842 C90.0645798,20.0332842 88.8977208,18.8743255 88.8977208,16.6821541" id="Fill-9" fill="#404041"></path>
                        <path d="M97.4414004,21.6222941 C97.7140117,21.74804 98.1373854,21.8234876 98.4347795,21.8234876 C99.2546787,21.8234876 99.7999013,21.5971449 100.099361,20.9411701 L100.545452,19.8828082 L95.6776879,7.55760756 L99.0564159,7.55760756 L102.18525,16.0265985 L105.340933,7.55760756 L108.717595,7.55760756 L103.079498,21.7228908 C102.18525,24.015659 100.595018,24.6213354 98.5339109,24.6716338 C98.1869511,24.6716338 97.3670519,24.5961862 96.9953092,24.4704402 L97.4414004,21.6222941 Z" id="Fill-11" fill="#404041"></path>
                        <polygon id="Fill-13" fill="#404041" points="113.12254 7.55928417 111.354697 7.55928417 111.354697 7.91346865 112.040355 7.91346865 112.040355 9.85624385 112.436881 9.85624385 112.436881 7.91346865 113.12254 7.91346865"></polygon>
                        <polygon id="Fill-15" fill="#404041" points="115.335441 7.55928417 114.720001 9.13739607 114.102495 7.55928417 113.542815 7.55928417 113.542815 9.85624385 113.941406 9.85624385 113.941406 8.08322571 114.635326 9.85624385 114.804675 9.85624385 115.498595 8.08322571 115.498595 9.85624385 115.895121 9.85624385 115.895121 7.55928417"></polygon>
                        <path d="M21.4850753,4.53090212 C20.5639795,2.89410877 18.8209194,1.79173579 16.867205,1.79173579 C16.4169833,1.79173579 15.9729573,1.84832147 15.5475184,1.95939708 C14.2319624,0.924088609 12.6148817,0.354040222 10.9048653,0.354040222 C7.14819888,0.354040222 4.01729934,3.13302611 3.40805437,6.77337188 C1.33662149,7.94280938 0.000413047425,10.1706088 0.000413047425,12.6771451 C0.000413047425,16.4097045 2.99087647,19.4443739 6.66906386,19.4443739 C6.68352052,19.4443739 6.76199953,19.4443739 6.887979,19.4464697 L7.19569934,17.0552005 C6.87352234,17.0531047 6.68352052,17.0531047 6.66906386,17.0531047 C4.28784541,17.0531047 2.35684865,15.0935634 2.35684865,12.6771451 C2.35684865,10.6086239 3.77360135,8.87961683 5.67568478,8.42483558 C5.66742383,8.30747268 5.65709765,8.19010978 5.65709765,8.07065111 C5.65709765,5.13029123 8.00733754,2.74530938 10.9048653,2.74530938 C12.5942293,2.74530938 14.0935915,3.5605624 15.0539268,4.81802208 C15.5557794,4.42192228 16.1836115,4.18300494 16.867205,4.18300494 C18.4161329,4.18300494 19.6841885,5.392262 19.810168,6.92845857 C20.0559312,6.89073478 20.3058249,6.86558558 20.5639795,6.86558558 C23.3499845,6.86558558 25.6072887,9.15835373 25.6072887,11.9855422 C25.6072887,14.8127307 23.3499845,17.1054989 20.5639795,17.1054989 C20.3037596,17.1054989 19.6511447,17.1034031 18.7610275,17.0992116 L17.4082971,19.4862892 C18.9716817,19.4925765 20.1819106,19.496768 20.5639795,19.496768 C24.6448882,19.496768 27.9657895,16.1267761 27.9657895,11.9855422 C27.9657895,8.15867329 25.1343494,4.99197067 21.4850753,4.53090212" id="Fill-18" fill="#0090B9"></path>
                        <polygon id="Fill-21" fill="#0090B9" points="10.7406789 9.73091704 15.2552874 9.73091704 12.7708071 17.0996307 16.488234 17.1038223 10.724157 26.7862618 12.1099312 19.5474856 9.05338017 19.5139533"></polygon>
                    </g>
                </g>
            </g>
        </g>
    </g>
</svg>