<?xml version="1.0" encoding="UTF-8"?>
<svg width="134px" height="21px" viewBox="0 0 134 21" version="1.1" xmlns="http://www.w3.org/2000/svg" xmlns:xlink="http://www.w3.org/1999/xlink">
    <!-- Generator: Sketch 46.1 (44463) - http://www.bohemiancoding.com/sketch -->
    <title>Group 2</title>
    <desc>Created with Sketch.</desc>
    <defs></defs>
    <g id="About" stroke="none" stroke-width="1" fill="none" fill-rule="evenodd">
        <g id="iPhone-7-Copy-12" transform="translate(-29.000000, -2531.000000)">
            <g id="Group-25" transform="translate(5.000000, 2291.000000)">
                <g id="Group-23" transform="translate(0.000000, 200.000000)">
                    <g id="Group-2" transform="translate(24.500000, 39.500000)">
                        <polygon id="Fill-4" fill="#FCDF37" points="5.95426499 9.42402062 1.97458589 9.42402062 0.0415611489 0.543591401 3.23787122 0.543591401 4.06542954 6.01508863 4.90561338 0.543591401 8.64526093 0.543591401 9.48544477 6.15919296 10.3319414 0.543591401 13.3956835 0.543591401 11.4942226 9.42402062 7.5713583 9.42402062 6.75657229 3.67613128"></polygon>
                        <polygon id="Fill-6" fill="#FCDF37" points="98.2422717 20.4294267 89.3465702 20.4294267 85.0258554 0.543605811 92.1707213 0.543605811 94.0200653 12.7954999 95.8984773 0.543605811 104.091114 0.543605811 105.968939 13.1187259 107.861298 0.543605811 114.875798 0.543605811 110.625551 20.4294267 101.857132 20.4294267 100.035535 7.55831629"></polygon>
                        <polygon id="Fill-8" fill="#FCDF37" points="15.538879 9.42599485 15.538879 0.543548169 22.410241 0.543548169 22.410241 2.82587252 19.00561 2.82587252 19.00561 3.78949816 22.1674201 3.78949816 22.1674201 6.07196661 19.00561 6.07196661 19.00561 7.11960508 22.5284217 7.11960508 22.5284217 9.42599485"></polygon>
                        <polygon id="Fill-10" fill="#FCDF37" points="45.6161685 9.42599485 45.6161685 0.543548169 52.4875305 0.543548169 52.4875305 2.82587252 49.0828995 2.82587252 49.0828995 3.78949816 52.2447096 3.78949816 52.2447096 6.07196661 49.0828995 6.07196661 49.0828995 7.11960508 52.6057112 7.11960508 52.6057112 9.42599485"></polygon>
                        <path d="M24.7154101,6.83465318 L28.1030114,6.83465318 L28.1030114,6.90843459 C28.1030114,7.21566502 28.1764155,7.44407038 28.3235174,7.59350657 C28.4704725,7.74294276 28.6972913,7.8175888 29.0041206,7.8175888 C29.272633,7.8175888 29.482422,7.75922655 29.6336346,7.64250204 C29.7849939,7.52592164 29.8606002,7.36524531 29.8606002,7.16032896 C29.8606002,7.00887531 29.8318258,6.87990194 29.7742769,6.77326473 C29.7167281,6.66677163 29.6326069,6.58693784 29.5219135,6.53361924 C29.3385499,6.44758895 28.9658037,6.33504347 28.4033811,6.19569459 C27.8408117,6.05648981 27.3955422,5.93760374 27.0674257,5.83946869 C26.2749545,5.59780573 25.6974107,5.28034389 25.3353815,4.88722729 C24.9732054,4.49396658 24.792044,3.99421277 24.792044,3.38810996 C24.792044,2.4870256 25.16802,1.7878314 25.9201189,1.28995095 C26.6722178,0.792358702 27.7279162,0.543634632 29.0872141,0.543634632 C30.3273037,0.543634632 31.2742172,0.757773663 31.9282481,1.18561941 C32.5822791,1.61375337 32.9093679,2.22907885 32.9093679,3.03173996 L32.9093679,3.22224588 L29.7839663,3.22224588 C29.7584216,2.94787124 29.6784111,2.74511645 29.5442283,2.61398151 C29.4100456,2.48299068 29.212882,2.41756731 28.9530313,2.41756731 C28.7270934,2.41756731 28.5460788,2.47275927 28.4096939,2.58328729 C28.273309,2.69395942 28.2051899,2.83936068 28.2051899,3.01949109 C28.2051899,3.35121926 28.586451,3.60527519 29.3492669,3.78151478 C29.6262942,3.84275912 29.8478279,3.89593362 30.0140149,3.94103827 C31.2880172,4.26873151 32.1497818,4.63619755 32.5994556,5.04372459 C33.0489826,5.45125163 33.2737461,6.01556418 33.2737461,6.73637403 C33.2737461,7.70720488 32.8848509,8.47614558 32.1073542,9.04319611 C31.3295639,9.61067895 30.2696081,9.89413217 28.9274867,9.89413217 C27.5681888,9.89413217 26.524235,9.65765696 25.7954787,9.18456245 C25.0670159,8.71146795 24.7026378,8.03677148 24.7026378,7.16032896 C24.7026378,7.07429867 24.7035186,7.00772248 24.7057207,6.96074446 C24.7079229,6.91362235 24.7111526,6.87154389 24.7154101,6.83465318" id="Fill-12" fill="#FCDF37"></path>
                        <polygon id="Fill-14" fill="#FCDF37" points="43.256974 0.543591401 43.256974 2.91511633 41.0253412 2.91511633 41.0253412 9.42185905 37.4586338 9.42185905 37.4586338 2.91511633 35.2209819 2.91511633 35.2209819 0.543591401"></polygon>
                        <path d="M58.6304885,4.19349464 C58.6595565,4.19752956 58.6917075,4.20055575 58.7270883,4.20242911 C58.7623223,4.20444657 58.8134116,4.20559941 58.8799158,4.20559941 C59.2871619,4.20559941 59.6000104,4.12663023 59.8183143,3.96883599 C60.0364715,3.81104176 60.14555,3.586239 60.14555,3.29457184 C60.14555,3.02293519 60.055997,2.82407121 59.8774781,2.69826813 C59.6985188,2.57232095 59.4138575,2.50934736 59.0232006,2.50934736 C58.9235178,2.50934736 58.8465903,2.51035609 58.7925648,2.51237355 C58.7385394,2.51467922 58.6845139,2.5174172 58.6304885,2.52130802 L58.6304885,4.19349464 Z M55.1639043,9.38370023 L55.1639043,0.543620222 L59.8649994,0.543620222 C61.2449973,0.543620222 62.2092341,0.71438385 62.7580035,1.05619932 C63.3066261,1.39787068 63.580864,1.97601724 63.580864,2.79107132 C63.580864,3.32267219 63.4290642,3.76118166 63.1257583,4.10659973 C62.8223056,4.45216191 62.3692552,4.70088598 61.7666071,4.85277194 C62.3278552,4.94081969 62.727761,5.12051778 62.9667649,5.39215444 C63.2057688,5.66393521 63.3729834,6.15533096 63.4687024,6.86648582 L63.5934895,7.82535602 C63.609932,7.98516772 63.6410554,8.18201423 63.6868596,8.41575145 C63.7325169,8.64948867 63.8031317,8.97213826 63.8988507,9.38370023 L60.3886645,9.38370023 C60.3096817,9.08799814 60.2503711,8.84820854 60.2110265,8.66433142 C60.1713883,8.48074251 60.1412926,8.3108435 60.1205926,8.15492262 L60.0333885,7.50775008 C59.9460376,6.92441576 59.8296186,6.55493227 59.6841316,6.39901138 C59.5384977,6.2432346 59.2934747,6.16541827 58.9484752,6.16541827 C58.8653817,6.16541827 58.8009329,6.16628289 58.7551287,6.16830035 C58.7094713,6.17046192 58.6657225,6.17521736 58.6241757,6.18343131 L58.6241757,9.38370023 L55.1639043,9.38370023 Z" id="Fill-16" fill="#FCDF37"></path>
                        <polygon id="Fill-18" fill="#FCDF37" points="69.2252757 3.94102386 69.2252757 9.36597539 66.3381439 9.36597539 66.3381439 0.543620222 70.6102651 0.543620222 72.5843961 5.82504384 72.5843961 0.543620222 75.4718216 0.543620222 75.4718216 9.36597539 71.199994 9.36597539"></polygon>
                        <polygon id="Fill-20" fill="#FCDF37" points="69.2252757 14.8420119 69.2252757 20.3097624 66.3381439 20.3097624 66.3381439 11.4180931 70.6102651 11.4180931 72.5843961 16.7410187 72.5843961 11.4180931 75.4718216 11.4180931 75.4718216 20.3097624 71.199994 20.3097624"></polygon>
                        <polygon id="Fill-22" fill="#FCDF37" points="38.9597486 14.8400377 38.9597486 20.3044738 36.0726168 20.3044738 36.0726168 11.4181363 40.3445912 11.4181363 42.318869 16.7378917 42.318869 11.4181363 45.2062945 11.4181363 45.2062945 20.3044738 40.9344669 20.3044738"></polygon>
                        <path d="M24.5899624,11.4203843 L28.0578678,11.4203843 L28.0578678,16.9731564 C28.0578678,17.3547447 28.1280422,17.6449708 28.2680973,17.8436907 C28.4081524,18.0426987 28.6119223,18.1421307 28.879407,18.1421307 C29.1386704,18.1421307 29.340385,18.0386638 29.4846976,17.8315859 C29.6290101,17.624508 29.701093,17.3384609 29.701093,16.9731564 L29.701093,11.4203843 L33.1816239,11.4203843 L33.1816239,16.833087 C33.1816239,18.0994758 32.8325138,19.0339924 32.1342936,19.6369249 C31.4360733,20.2397133 30.3511601,20.5408914 28.879407,20.5408914 C28.0307083,20.5408914 27.3294051,20.4537082 26.7754974,20.2791979 C26.2215897,20.1046876 25.762667,19.8287278 25.3990229,19.4511744 C25.1103978,19.150861 24.9035449,18.8169713 24.7781706,18.4495052 C24.6526495,18.0823274 24.5899624,17.5433772 24.5899624,16.833087 L24.5899624,11.4203843 Z" id="Fill-24" fill="#FCDF37"></path>
                        <polygon id="Fill-26" fill="#FCDF37" points="48.1667277 20.2977729 51.7372521 20.2977729 51.7372521 11.4228197 48.1667277 11.4228197"></polygon>
                        <path d="M59.0352096,13.5443668 C58.663491,13.5443668 58.401585,13.7113838 58.2490512,14.0455617 C58.0966642,14.3795955 58.0206175,15.0014057 58.0206175,15.9112804 C58.0206175,16.7639457 58.0966642,17.3592407 58.2490512,17.6973095 C58.401585,18.0353782 58.6593803,18.2045567 59.0227309,18.2045567 C59.3943026,18.2045567 59.6562086,18.0262997 59.8087424,17.6696414 C59.9611294,17.3131273 60.0373229,16.671719 60.0373229,15.7454164 C60.0373229,14.909323 59.9621571,14.3334821 59.8118254,14.0177496 C59.6614937,13.7023052 59.4025239,13.5443668 59.0352096,13.5443668 M58.9349395,20.5468285 C57.473463,20.5468285 56.3428924,20.1400219 55.5433744,19.3264089 C54.7438565,18.51294 54.3439507,17.3663018 54.3439507,15.8867827 C54.3439507,14.3866566 54.7520777,13.2287784 55.5684786,12.4130038 C56.3847327,11.5976615 57.5445182,11.1897021 59.0476883,11.1897021 C60.5424903,11.1897021 61.6949353,11.5965086 62.5050235,12.4101217 C63.3151116,13.2235906 63.7201557,14.3784427 63.7201557,15.8743897 C63.7201557,17.3909437 63.3118818,18.548822 62.4956277,19.3480246 C61.6792268,20.1472272 60.4922818,20.5468285 58.9349395,20.5468285" id="Fill-28" fill="#FCDF37"></path>
                        <polygon id="Fill-29" fill="#FCDF37" points="84.0159172 20.3098201 82.8147318 20.3098201 78.589736 0.543605811 79.7909214 0.543605811"></polygon>
                        <polygon id="Fill-30" fill="#FCDF37" points="87.2749438 20.3098201 86.0737583 20.3098201 81.8487626 0.543605811 83.049948 0.543605811"></polygon>
                        <path d="M120.685882,0.543591401 L120.685882,12.9645199 C120.685882,13.7788534 120.525274,14.4165151 120.203911,14.8780812 C119.882107,15.3395033 119.43258,15.5700702 118.854743,15.5700702 C118.258407,15.5700702 117.804183,15.3485819 117.491921,14.9050287 C117.17966,14.462052 117.023456,13.8150236 117.023456,12.9645199 L117.023456,0.543591401 L115.507954,0.543591401 L111.565418,18.9242425 C112.291385,19.5441794 113.156526,20.0156887 114.165246,20.3334388 C115.399903,20.7223764 116.962677,20.9169172 118.854743,20.9169172 C122.134733,20.9169172 124.553106,20.245391 126.109127,18.9017623 C127.665589,17.5582776 128.444113,15.4749614 128.444113,12.6523899 L128.444113,0.543591401 L120.685882,0.543591401 Z" id="Fill-31" fill="#FCDF37"></path>
                        <path d="M109.293897,0.543591401 L109.293897,12.6523899 C109.293897,14.2358082 109.433512,15.4369178 109.713328,16.2554304 C109.984336,17.0500217 110.428578,17.7735695 111.04209,18.427659 L114.875842,0.543591401 L109.293897,0.543591401 Z" id="Fill-32" fill="#FFFFFF"></path>
                        <path d="M130.017384,2.1059417 L130.397911,2.08115576 C130.406133,2.14528219 130.422869,2.19427766 130.448413,2.22785397 C130.489373,2.2823254 130.548096,2.30941702 130.62473,2.30941702 C130.681692,2.30941702 130.725881,2.295583 130.756564,2.26777086 C130.787541,2.23995873 130.803102,2.20767936 130.803102,2.17093276 C130.803102,2.13620361 130.788421,2.10507708 130.758913,2.07755315 C130.729405,2.04988512 130.661139,2.02409045 130.554115,1.99959271 C130.37868,1.95881119 130.253599,1.90419565 130.179167,1.83632251 C130.103708,1.76844937 130.066125,1.68213088 130.066125,1.57679061 C130.066125,1.50790874 130.085357,1.44248538 130.12382,1.38124104 C130.162431,1.31970849 130.22042,1.27143354 130.297788,1.23627208 C130.375303,1.20111063 130.481005,1.183674 130.615775,1.183674 C130.781228,1.183674 130.907336,1.21537696 130.993953,1.27935928 C131.080864,1.3431975 131.13254,1.44479105 131.149129,1.58428404 L130.772126,1.60719663 C130.761996,1.54667281 130.741149,1.50272099 130.708998,1.47519706 C130.676847,1.44767313 130.632658,1.43383912 130.576284,1.43383912 C130.529745,1.43383912 130.494805,1.44407053 130.471316,1.46453334 C130.447533,1.48499615 130.435788,1.5099262 130.435788,1.53932349 C130.435788,1.56079503 130.445477,1.57996091 130.465003,1.59710932 C130.483941,1.61483415 130.528571,1.63140615 130.599186,1.64653711 C130.773741,1.68573348 130.899115,1.72521807 130.974868,1.76542318 C131.050181,1.80534008 131.105234,1.85505607 131.139734,1.91428295 C131.174087,1.97365393 131.191557,2.03994192 131.191557,2.11329103 C131.191557,2.19932131 131.168361,2.279011 131.12241,2.35163958 C131.076606,2.42441227 131.012598,2.47960423 130.930091,2.51721546 C130.847732,2.55482669 130.743939,2.57356025 130.618711,2.57356025 C130.398499,2.57356025 130.246258,2.52946432 130.161256,2.44141658 C130.076695,2.35351294 130.028542,2.24154388 130.017384,2.1059417" id="Fill-33" fill="#FCDF37"></path>
                        <polygon id="Fill-34" fill="#FCDF37" points="131.388265 1.20641367 131.914133 1.20641367 132.116875 2.02434983 132.318149 1.20641367 132.843723 1.20641367 132.843723 2.55061884 132.51634 2.55061884 132.51634 1.52560475 132.263977 2.55061884 131.967718 2.55061884 131.715648 1.52560475 131.715648 2.55061884 131.388265 2.55061884"></polygon>
                    </g>
                </g>
            </g>
        </g>
    </g>
</svg>